<?xml version="1.0" encoding="utf-8"?>
<!-- Generator: Adobe Illustrator 27.3.1, SVG Export Plug-In . SVG Version: 6.00 Build 0)  -->
<svg version="1.1" id="Laag_1" xmlns="http://www.w3.org/2000/svg" xmlns:xlink="http://www.w3.org/1999/xlink" x="0px" y="0px"
	 viewBox="0 0 567.5 457.6" style="enable-background:new 0 0 567.5 457.6;" xml:space="preserve">
<style type="text/css">
	.st0{fill:none;stroke:#A87390;stroke-width:5;stroke-miterlimit:10;}
	.st1{fill:#FFFFFF;stroke:#99C3E0;stroke-width:3;stroke-miterlimit:10;}
	.st2{fill:#E6EEEF;stroke:#A7CBD1;stroke-width:3;stroke-miterlimit:10;}
	.st3{fill:#A7CBD1;}
	.st4{opacity:0.9;}
	.st5{fill:#EFEDE6;}
	.st6{fill:#E8D98B;stroke:#C6814E;stroke-width:3;stroke-miterlimit:10;}
	.st7{fill:#C2CE9B;}
	.st8{fill:#FFFFFF;}
	.st9{fill:#8E9B67;}
	.st10{display:none;filter:url(#mountain);}
	.st11{display:inline;fill:#BECC96;}
	.st12{fill:#D0E0A9;}
	.st13{fill:#808C57;}
	.st14{fill:#1D1D1B;}
</style>
<filter  height="150%" id="mountain" width="150%" x="-25%" y="-25%">
	<feOffset  dx="10" dy="-1" in="SourceGraphic" result="offOut"></feOffset>
	<feColorMatrix  in="offOut" result="matrixOut" type="matrix" values="0.3 0 0 0 0 0 0.3 0 0 0 0 0 0.2 0 0 0 0 0 0.5 0">
		</feColorMatrix>
	<feGaussianBlur  in="matrixOut" result="blurOut" stdDeviation="15"></feGaussianBlur>
	<feBlend  in="SourceGraphic" in2="blurOut" mode="normal"></feBlend>
</filter>
<path class="st0" d="M239.2,227.5c-2.8,1.1-30.5,29.7-32.9,33.6"/>
<polygon class="st1" points="485.4,143 445.6,106.8 410,143.3 "/>
<g>
	<path class="st2" d="M210.1,258.2l-72.3-12c-8.2-1.4-16.6,0.6-23.4,5.4l-99.3,71C1,332.6-2.2,352.1,7.9,366.2l53.8,75.3
		c10.1,14.1,29.7,17.4,43.8,7.3l99.3-71c6.8-4.8,11.3-12.2,12.7-20.4l12-72.2C231.6,272.4,222.9,260.3,210.1,258.2z M185.6,309.7
		c-1.4,8.5-9.5,14.3-18,12.9c-8.5-1.4-14.3-9.5-12.9-18c1.4-8.5,9.5-14.3,18-12.9C181.3,293.1,187,301.2,185.6,309.7z"/>
	<g>
		<g>
			<path class="st3" d="M108.1,312.7c-9,7.9-19,15.3-28.7,22.4c-9.8,6.9-20.1,14-30.5,19.9c9-7.9,19-15.3,28.7-22.4
				C87.4,325.8,97.7,318.7,108.1,312.7L108.1,312.7z"/>
		</g>
		<g>
			<path class="st3" d="M124.5,335.7c-9,7.9-19,15.3-28.7,22.4c-9.8,6.9-20.1,14-30.5,19.9c9-7.9,19-15.3,28.7-22.4
				C103.8,348.7,114.1,341.7,124.5,335.7L124.5,335.7z"/>
		</g>
		<g>
			<path class="st3" d="M140.7,358.4c-9,7.9-19,15.3-28.7,22.4c-9.8,6.9-20.1,14-30.5,19.9c9-7.9,19-15.3,28.7-22.4
				C120,371.4,130.3,364.3,140.7,358.4L140.7,358.4z"/>
		</g>
	</g>
</g>
<g>
	<g>
		<g class="st4">
			<rect x="235.4" y="3" class="st5" width="328.8" height="246.6"/>
		</g>
		<circle class="st6" cx="505.6" cy="60.8" r="20.8"/>
		<polygon class="st7" points="306.5,249.6 445.5,106.8 564.2,214.4 564.2,249.6 		"/>
		<g>
			<polygon class="st8" points="485.4,143 445.6,106.8 410,143.3 			"/>
		</g>
		<g>
			<path class="st9" d="M445.5,106.8l118.6,107.6v35.2H306.5L445.5,106.8 M445.4,102.7l-2,2.1L304.3,247.5l-5,5.1h7.1h257.7h3v-3
				v-35.2v-1.3l-1-0.9L447.6,104.6L445.4,102.7L445.4,102.7z"/>
		</g>
		<g class="st10">
			<polygon class="st11" points="238.7,246.3 238.7,147.5 304.4,80.1 477.2,246.3 			"/>
		</g>
		<polygon class="st12" points="235.4,146.2 304.3,75.4 485.4,249.6 235.4,249.6 		"/>
		<g>
			<polygon class="st8" points="356,125.1 304.3,75.4 255.9,125.1 			"/>
		</g>
		<g>
			<path class="st13" d="M304.3,75.4l181.1,174.2h-250V146.2L304.3,75.4 M304.3,71.2l-2.1,2.1l-68.9,70.8l-0.9,0.9v1.2v103.4v3h3
				h250h7.4l-5.4-5.2L306.4,73.3L304.3,71.2L304.3,71.2z"/>
		</g>
		<g>
			<path class="st14" d="M564.2,3v246.6H235.4V3H564.2 M567.2,0h-3H235.4h-3v3v246.6v3h3h328.8h3v-3V3V0L567.2,0z"/>
		</g>
	</g>
</g>
<g>
	<circle class="st8" cx="262.8" cy="217.6" r="16.4"/>
	<path d="M262.8,202.7c8.2,0,14.9,6.7,14.9,14.9c0,8.2-6.7,14.9-14.9,14.9s-14.9-6.7-14.9-14.9C248,209.4,254.6,202.7,262.8,202.7
		 M262.8,199.7c-9.9,0-17.9,8-17.9,17.9c0,9.9,8,17.9,17.9,17.9c9.9,0,17.9-8,17.9-17.9C280.7,207.7,272.7,199.7,262.8,199.7
		L262.8,199.7z"/>
</g>
<path class="st0" d="M181.8,298.8c-1.3,1.3,1.6,4.6,3.4,4.1c26.3-7.2,74.7-73.3,69.1-76.5c0,0-1.7-3.3-4.9-2"/>
</svg>
