<svg width="340" height="340" viewBox="0 0 340 340" fill="none" xmlns="http://www.w3.org/2000/svg">
<rect width="340" height="340" fill="white"/>
<g clip-path="url(#clip0_105_20)">
<path d="M71.7002 146.9C69.9002 146.9 68.2002 146.6 66.5002 146C58.3002 143.1 54.0002 134.1 56.9002 126C62.9002 109.1 72.3002 94.1 85.0002 81.4C107.5 58.9 137.4 46.5 169.2 46.5C200.7 46.5 230.5 58.7 252.9 80.9L254 81.9L277.5 58.4C279.7 56.2 282.5 55.1 285.6 55.1C287.1 55.1 288.6 55.4 290 56C294.3 57.8 297 61.9 297 66.6V135.5C297 141.8 291.9 146.9 285.6 146.9H216.7C212 146.9 207.9 144.1 206.1 139.9C204.3 135.6 205.3 130.7 208.6 127.4L231.9 104.2L230.8 103.1C214.2 86.9 192.4 78 169.3 78C145.9 78 123.9 87.1 107.3 103.7C97.9002 113 91.0002 124 86.6002 136.5C84.3002 142.7 78.4002 146.9 71.7002 146.9Z" fill="#E6EEEF"/>
<path d="M169.2 48C200.4 48 229.7 60.1 251.9 81.9L254 84L256.1 81.9L278.5 59.5C280.4 57.6 282.9 56.6 285.5 56.6C286.8 56.6 288.1 56.9 289.3 57.4C293 58.9 295.4 62.5 295.4 66.6V135.5C295.4 141 290.9 145.4 285.5 145.4H281H216.6C212.5 145.4 208.9 143 207.4 139.3C205.9 135.6 206.7 131.3 209.5 128.5L231.7 106.4L233.8 104.3L231.6 102.2C214.8 85.7 192.6 76.6 169.1 76.6C145.3 76.6 122.9 85.9 106.1 102.7C96.6001 112.2 89.5001 123.4 85.0001 136C83.0001 141.7 77.6001 145.5 71.6001 145.5C70.0001 145.5 68.4001 145.2 66.9001 144.7C59.5001 142.1 55.6001 133.9 58.2001 126.5C64.1001 109.8 73.4001 95 85.9001 82.5C108.3 60.2 137.8 48 169.2 48ZM169.2 45C138.4 45 107.5 56.8 83.9001 80.4C70.8001 93.5 61.3001 108.9 55.5001 125.5C52.3001 134.5 57.1001 144.3 66.0001 147.5C67.9001 148.2 69.8001 148.5 71.7001 148.5C78.8001 148.5 85.5001 144.1 88.0001 137C92.1001 125.3 98.9001 114.2 108.4 104.8C125.2 88 147.3 79.5 169.3 79.5C191.1 79.5 212.9 87.7 229.7 104.2L207.5 126.3C203.8 130 202.7 135.6 204.7 140.4C206.7 145.2 211.4 148.4 216.7 148.4H281H285.6C292.8 148.4 298.5 142.6 298.5 135.5V66.6C298.5 61.4 295.4 56.6 290.5 54.6C288.9 53.9 287.2 53.6 285.5 53.6C282.1 53.6 278.8 54.9 276.4 57.4L254 79.8C230.5 56.6 199.9 45 169.2 45Z" fill="#A7CBD1"/>
<path d="M169.3 291.8C137.8 291.8 108 279.6 85.6 257.4L84.5 256.4L61 279.9C58.8 282.1 56 283.2 52.9 283.2C51.4 283.2 49.9 282.9 48.5 282.3C44.2 280.5 41.5 276.4 41.5 271.7V202.8C41.5 196.5 46.6 191.4 52.9 191.4H121.8C126.5 191.4 130.6 194.2 132.4 198.4C134.2 202.7 133.2 207.6 129.9 210.9L106.7 234.2L107.8 235.3C124.3 251.5 146.1 260.4 169.3 260.4C192.7 260.4 214.7 251.3 231.3 234.7C240.6 225.4 247.6 214.4 252 201.9C254.2 195.6 260.2 191.4 266.8 191.4C268.6 191.4 270.3 191.7 272 192.3C280.2 195.2 284.5 204.2 281.6 212.4C275.7 229.2 266.2 244.2 253.5 256.9C231 279.4 201.1 291.8 169.3 291.8Z" fill="#E6EEEF"/>
<path d="M121.9 192.9C126 192.9 129.6 195.3 131.1 199C132.6 202.7 131.8 207 129 209.9L106.8 232L104.7 234.1L106.9 236.2C123.7 252.7 145.9 261.8 169.4 261.8C193.2 261.8 215.6 252.5 232.4 235.7C241.9 226.2 249 215 253.5 202.4C255.5 196.7 260.9 192.9 266.9 192.9C268.5 192.9 270.1 193.2 271.6 193.7C279 196.3 282.9 204.5 280.3 211.8C274.4 228.4 265.1 243.2 252.5 255.8C230.3 278 200.8 290.3 169.3 290.3C138.1 290.3 108.8 278.2 86.6 256.4L84.5 254.3L82.4 256.4L60 278.8C58.1 280.7 55.6 281.7 53 281.7C51.7 281.7 50.4 281.4 49.2 280.9C45.5 279.4 43.1 275.8 43.1 271.7V207.2V206.8V202.7C43.1 197.2 47.6 192.8 53 192.8H57.1H57.5H121.9M121.9 189.9H57.4H57H52.9C45.7 189.9 40 195.7 40 202.8V206.9V207.3V271.8C40 277 43.1 281.8 48 283.8C49.6 284.5 51.3 284.8 53 284.8C56.4 284.8 59.7 283.5 62.1 281L84.5 258.6C108 281.8 138.7 293.4 169.3 293.4C200.2 293.4 231 281.6 254.6 258C267.7 244.9 277.3 229.4 283.1 212.9C286.3 203.9 281.5 194.1 272.6 190.9C270.7 190.2 268.8 189.9 266.9 189.9C259.8 189.9 253.1 194.3 250.6 201.4C246.5 213.1 239.7 224.2 230.2 233.6C213.4 250.4 191.3 258.9 169.3 258.9C147.5 258.9 125.7 250.7 108.9 234.2L131 212C134.7 208.3 135.8 202.7 133.8 197.9C131.8 193.1 127.1 189.9 121.9 189.9Z" fill="#A7CBD1"/>
<path d="M169.3 187C181.119 187 190.7 177.419 190.7 165.6C190.7 153.781 181.119 144.2 169.3 144.2C157.481 144.2 147.9 153.781 147.9 165.6C147.9 177.419 157.481 187 169.3 187Z" fill="#E8D98B" stroke="#C6814E" stroke-width="3" stroke-miterlimit="10"/>
</g>
<defs>
<clipPath id="clip0_105_20">
<rect width="258.5" height="248.3" fill="white" transform="translate(40 45)"/>
</clipPath>
</defs>
</svg>
