<?xml version="1.0" encoding="utf-8"?>
<!-- Generator: Adobe Illustrator 27.3.1, SVG Export Plug-In . SVG Version: 6.00 Build 0)  -->
<svg version="1.1" id="Laag_1" xmlns="http://www.w3.org/2000/svg" xmlns:xlink="http://www.w3.org/1999/xlink" x="0px" y="0px"
	 viewBox="0 0 316.6 446.1" style="enable-background:new 0 0 316.6 446.1;" xml:space="preserve">
<style type="text/css">
	.st0{fill:#E6EEEF;}
	.st1{fill:#A7CBD1;}
	.st2{fill:#CAA023;stroke:#1D1D1B;stroke-width:3;stroke-miterlimit:10;}
	.st3{fill:#DDD7CA;stroke:#1D1D1B;stroke-width:3;stroke-linejoin:bevel;stroke-miterlimit:10;}
	.st4{fill:#CC96A9;stroke:#1D1D1B;stroke-width:3;stroke-miterlimit:10;}
	.st5{fill:#DDD7CA;stroke:#1D1D1B;stroke-width:2;stroke-linejoin:bevel;stroke-miterlimit:10;}
	.st6{fill:#332B25;stroke:#353531;stroke-width:3;stroke-miterlimit:10;}
</style>
<g>
	<g>
		<path class="st0" d="M117.2,444.6c-13.7,0-26.6-6.7-34.4-17.9L9.1,321.6c-6.4-9.2-8.9-20.3-7-31.4s8.1-20.7,17.3-27.1l138.5-97.2
			c7.1-5,15.4-7.6,24.1-7.6c2.4,0,4.9,0.2,7.3,0.6l100.1,17.6c8.2,1.4,15.3,6,20.1,12.8c4.8,6.8,6.6,15,5.1,23.2l-17.6,100
			c-1.9,11.1-8.1,20.7-17.2,27.2l-138.5,97.2C134.2,441.9,125.9,444.6,117.2,444.6C117.2,444.6,117.2,444.6,117.2,444.6z
			 M233.6,219.3c-11.3,0-20.9,8.1-22.9,19.2c-2.2,12.6,6.3,24.7,18.9,26.9c1.3,0.2,2.7,0.4,4,0.4c11.3,0,20.9-8.1,22.9-19.2
			c1.1-6.1-0.3-12.3-3.9-17.4c-3.6-5.1-8.9-8.5-15-9.6C236.3,219.4,235,219.3,233.6,219.3z"/>
		<path class="st1" d="M182,159.8c2.4,0,4.7,0.2,7.1,0.6L289.2,178c7.8,1.4,14.6,5.7,19.1,12.2c4.5,6.5,6.2,14.3,4.9,22.1l-17.6,100
			c-1.9,10.7-7.8,20-16.6,26.2l-138.5,97.2c-6.9,4.8-14.9,7.4-23.2,7.4c-13.2,0-25.6-6.4-33.2-17.3L10.4,320.7
			c-6.2-8.9-8.6-19.6-6.7-30.3c1.9-10.7,7.8-19.9,16.6-26.2l138.5-97.2C165.6,162.4,173.6,159.8,182,159.8 M233.7,267.3
			c12,0,22.3-8.6,24.4-20.5c2.4-13.4-6.7-26.3-20.1-28.7c-1.4-0.2-2.9-0.4-4.3-0.4c-12,0-22.3,8.6-24.4,20.5
			c-2.4,13.4,6.7,26.3,20.1,28.7C230.8,267.2,232.3,267.3,233.7,267.3 M182,156.8c-8.9,0-17.6,2.7-24.9,7.9L18.5,261.9
			c-19.7,13.8-24.4,40.9-10.6,60.6l73.7,105.1c8.5,12.1,21.9,18.5,35.6,18.5c8.6,0,17.3-2.6,24.9-7.9L280.7,341
			c9.4-6.6,15.8-16.8,17.8-28.1l17.6-100c3.2-17.7-8.7-34.7-26.4-37.8l-100.1-17.6C187.1,157.1,184.5,156.8,182,156.8L182,156.8z
			 M233.7,264.3c-1.2,0-2.5-0.1-3.8-0.3c-11.8-2.1-19.7-13.4-17.7-25.2c1.9-10.6,11-18,21.4-18c1.2,0,2.5,0.1,3.8,0.3
			c11.8,2.1,19.7,13.4,17.7,25.2C253.2,256.9,244.1,264.3,233.7,264.3L233.7,264.3z"/>
	</g>
	<g>
		<g>
			<path class="st1" d="M147.5,249.5c-12.9,10.5-26.9,20.6-40.5,30.2c-13.7,9.5-27.9,19.2-42.2,27.8c12.9-10.5,26.9-20.6,40.5-30.2
				C119,267.8,133.3,258,147.5,249.5L147.5,249.5z"/>
		</g>
		<g>
			<path class="st1" d="M170,281.5c-12.9,10.5-26.9,20.6-40.5,30.2c-13.7,9.5-27.9,19.2-42.2,27.8c12.9-10.5,26.9-20.6,40.5-30.2
				C141.5,299.8,155.7,290,170,281.5L170,281.5z"/>
		</g>
		<g>
			<path class="st1" d="M192.2,313.2c-12.9,10.5-26.9,20.6-40.5,30.2c-13.7,9.5-27.9,19.2-42.2,27.8c12.9-10.5,26.9-20.6,40.5-30.2
				C163.6,331.4,177.9,321.7,192.2,313.2L192.2,313.2z"/>
		</g>
	</g>
</g>
<g>
	<g>
		<path class="st2" d="M115.4,240.2l-23.2,11.8l0,0c0,3.4,0.6,10.3,1.3,13.6l12.2,63.5l46.8-44.6c2.4-2.3,7-7.5,9-10.3l0,0
			L149.1,251l-22,11.1L115.4,240.2z"/>
		<path class="st3" d="M161.4,274.1l2.7-6.9c0.4-1.1,0.8-2.2,1.2-3.4l61.9-191.9l-70.4-22.6L95,241.3c-0.4,1.1-0.7,2.3-1,3.5
			l-1.8,7.2c0,0,23.2-11.8,23.2-11.7c0.1,0.2,11.7,21.9,11.7,21.9l22-11.1L161.4,274.1z"/>
		<path class="st4" d="M183.9,1.9c-7.7,1-14.2,6.4-16.6,13.8l-10.5,33.7l70.4,22.6l10.5-33.7c3.4-10.5-2.5-21.9-13-25.2L192.6,2.7
			C189.7,1.8,186.8,1.5,183.9,1.9z"/>
		<line class="st5" x1="125.8" y1="211.9" x2="161.9" y2="100.8"/>
	</g>
	<polygon class="st6" points="100.3,301.1 123.4,310.6 105.6,329 	"/>
</g>
</svg>
