<?xml version="1.0" encoding="utf-8"?>
<!-- Generator: Adobe Illustrator 27.3.1, SVG Export Plug-In . SVG Version: 6.00 Build 0)  -->
<svg version="1.1" id="Laag_1" xmlns="http://www.w3.org/2000/svg" xmlns:xlink="http://www.w3.org/1999/xlink" x="0px" y="0px"
	 viewBox="0 0 292.1 421.7" style="enable-background:new 0 0 292.1 421.7;" xml:space="preserve">
<style type="text/css">
	.st0{fill:#E6EEEF;}
	.st1{fill:#A7CBD1;}
	.st2{fill:#DDD7CA;stroke:#353531;stroke-width:3;stroke-linejoin:bevel;stroke-miterlimit:10;}
	.st3{fill:#AABCBB;stroke:#1D1D1B;stroke-width:3;stroke-miterlimit:10;}
</style>
<g>
	<path class="st0" d="M146,308.3c-8.6,0-17.1-0.7-25.5-2.1c-4.8-0.8-8.7-4.6-9.8-9.6l-5.4-24.6c-1.4-6.4-5.8-11.9-12.2-15.2
		c-3-1.6-6-3.3-9-5.2c-4-2.6-8.4-3.9-12.9-3.9c-2.2,0-4.3,0.3-6.3,1l-24,7.7c-1.3,0.4-2.6,0.6-3.9,0.6c-3.7,0-7.1-1.6-9.3-4.3
		c-4.9-5.9-9.4-12.2-13.2-18.7l-2.8-4.9c-3.7-6.7-6.9-13.6-9.5-20.5c-1.7-4.6-0.3-9.8,3.5-13.3l18.7-17c4.8-4.5,7.4-11,7.1-18.1
		c-0.1-1.7-0.1-3.5-0.1-5.3c0-1.8,0.1-3.6,0.1-5.3c0.3-7.1-2.2-13.7-7.1-18.1L5.7,114.6c-3.8-3.4-5.2-8.6-3.5-13.3
		c2.6-6.9,5.7-13.8,9.5-20.6l2.8-4.9c3.9-6.5,8.3-12.7,13.2-18.7C30,54.5,33.3,53,37,53c1.3,0,2.7,0.2,4,0.6l24,7.6
		c2,0.6,4.2,1,6.3,1c4.4,0,8.9-1.4,12.9-3.9c2.4-1.5,5.6-3.5,9-5.2c6.3-3.3,10.7-8.8,12.2-15.2l5.4-24.6c1.1-5.1,5-8.8,9.8-9.6
		c8.2-1.4,16.8-2.2,25.5-2.2c8.6,0,17.1,0.7,25.5,2.1c4.8,0.8,8.7,4.6,9.8,9.6l5.4,24.6c1.4,6.4,5.8,11.9,12.2,15.2
		c3,1.6,6,3.3,9,5.2c3.9,2.5,8.4,3.9,12.9,3.9c2.2,0,4.3-0.3,6.3-0.9l24-7.6c1.3-0.4,2.6-0.6,3.9-0.6c3.7,0,7.1,1.6,9.3,4.3
		c4.9,5.9,9.4,12.2,13.2,18.7l2.8,4.9c3.6,6.4,6.6,13,9.1,19.7l0.3,0.9c1.7,4.6,0.3,9.8-3.5,13.3l-18.7,17
		c-4.8,4.5-7.4,11.1-7.1,18.1c0.1,1.7,0.1,3.5,0.1,5.3c0,1.8-0.1,3.6-0.1,5.3c-0.3,7.1,2.2,13.7,7.1,18.1l18.7,17
		c3.8,3.4,5.2,8.6,3.5,13.3c-2.6,6.9-5.7,13.8-9.5,20.6l-2.8,4.9c-3.9,6.5-8.3,12.7-13.2,18.7c-2.2,2.7-5.6,4.3-9.3,4.3
		c-1.3,0-2.7-0.2-4-0.6l-24-7.6c-2-0.6-4.2-1-6.3-1c-4.4,0-8.9,1.4-12.9,3.9c-2.4,1.5-5.6,3.5-9,5.2c-6.3,3.3-10.7,8.8-12.2,15.2
		l-5.4,24.6c-1.1,5.1-5,8.8-9.8,9.6C163.1,307.6,154.6,308.3,146,308.3z"/>
	<path class="st1" d="M146.1,3c8.5,0,17,0.7,25.2,2.1c4.2,0.7,7.6,4,8.6,8.5l5.4,24.6c1.5,6.8,6.2,12.8,12.9,16.2
		c3,1.6,5.9,3.2,8.9,5.1c4.2,2.7,8.9,4.1,13.7,4.1c2.3,0,4.6-0.3,6.8-1l24-7.6c1.1-0.4,2.3-0.5,3.5-0.5c3.2,0,6.2,1.4,8.1,3.7
		c4.9,5.9,9.3,12.1,13.1,18.5l2.8,4.9c3.4,6.1,6.3,12.3,8.7,18.5l0,0l0.7,1.8c1.5,4,0.3,8.6-3.1,11.6l-18.7,17
		c-5.2,4.8-7.9,11.8-7.6,19.2c0.1,1.7,0.1,3.5,0.1,5.2s-0.1,3.5-0.1,5.2c-0.4,7.6,2.4,14.6,7.6,19.2l18.7,17c3.4,3,4.6,7.6,3.1,11.6
		c-2.5,6.8-5.7,13.7-9.4,20.3l-2.8,4.8c-3.8,6.4-8.3,12.6-13.1,18.5c-1.9,2.4-4.9,3.7-8.1,3.7c-1.2,0-2.4-0.2-3.5-0.5l-24-7.6
		c-2.2-0.7-4.5-1.1-6.8-1.1c-4.7,0-9.5,1.4-13.7,4.2c-2.4,1.5-5.5,3.5-8.9,5.1c-6.7,3.4-11.4,9.3-12.9,16.2l-5.4,24.6
		c-1,4.4-4.3,7.8-8.6,8.5c-8.3,1.4-16.8,2.1-25.2,2.1s-17-0.7-25.2-2.1c-4.2-0.7-7.6-4-8.6-8.5l-5.4-24.6
		c-1.5-6.8-6.2-12.7-12.9-16.2c-3-1.6-5.9-3.2-8.9-5.1c-4.2-2.7-9-4.2-13.7-4.2c-2.3,0-4.6,0.4-6.8,1.1l-24,7.7
		c-1.1,0.4-2.3,0.5-3.5,0.5c-3.2,0-6.2-1.4-8.1-3.7c-4.9-5.9-9.3-12.1-13.1-18.5l-2.8-4.9c-3.7-6.6-6.8-13.5-9.4-20.3
		c-1.5-4-0.3-8.6,3.1-11.6l18.7-17c5.2-4.8,7.9-11.8,7.6-19.2c-0.1-1.7-0.1-3.5-0.1-5.2c0-1.8,0.1-3.5,0.1-5.2
		c0.4-7.6-2.4-14.6-7.6-19.2L6.7,113.5c-3.4-3-4.6-7.6-3.1-11.6C6.2,95,9.3,88.2,13,81.6l2.8-4.8c3.8-6.4,8.3-12.6,13.1-18.5
		c1.9-2.4,4.9-3.7,8.1-3.7c1.2,0,2.4,0.2,3.5,0.5l24,7.6c2.2,0.7,4.5,1.1,6.8,1.1c4.7,0,9.5-1.4,13.7-4.2c2.4-1.5,5.5-3.5,8.9-5.1
		c6.7-3.4,11.4-9.3,12.9-16.2l5.4-24.6c1-4.4,4.3-7.8,8.6-8.5C129,3.7,137.5,3,146.1,3 M146.1,0c-8.8,0-17.4,0.7-25.7,2.2
		c-5.6,0.9-9.8,5.3-11,10.8l-5.4,24.6c-1.4,6.2-5.8,11.3-11.4,14.2c-3.1,1.6-6.2,3.4-9.1,5.3c-3.7,2.4-7.9,3.7-12.1,3.7
		c-2,0-3.9-0.3-5.9-0.9l-24-7.6c-1.4-0.5-2.9-0.7-4.4-0.7c-4,0-7.8,1.6-10.4,4.8c-4.9,5.9-9.4,12.2-13.4,18.9l-2.8,4.9
		c-3.7,6.7-6.9,13.6-9.6,20.8c-1.9,5.3-0.3,11.1,3.9,14.9l18.7,17.1c4.7,4.2,6.9,10.5,6.6,16.9c-0.1,1.8-0.1,3.5-0.1,5.3
		c0,1.8,0.1,3.6,0.1,5.3c0.3,6.3-1.9,12.6-6.6,16.9l-18.7,17c-4.2,3.8-5.8,9.6-3.9,14.9c2.7,7.2,5.9,14.1,9.6,20.8l2.8,4.9
		c4,6.7,8.5,13,13.4,18.9c2.6,3.1,6.5,4.8,10.5,4.8c1.5,0,2.9-0.2,4.4-0.7l24-7.7c1.9-0.6,3.9-0.9,5.9-0.9c4.2,0,8.5,1.3,12.1,3.7
		c3,1.9,6,3.6,9.1,5.3c5.6,2.9,10,8,11.4,14.2l5.4,24.6c1.2,5.5,5.4,9.9,11,10.8c8.4,1.4,16.9,2.1,25.7,2.1s17.4-0.7,25.7-2.1
		c5.6-0.9,9.8-5.3,11-10.8l5.4-24.6c1.4-6.2,5.8-11.3,11.4-14.2c3.1-1.6,6.2-3.4,9.1-5.3c3.7-2.4,7.9-3.7,12.1-3.7
		c2,0,3.9,0.3,5.9,0.9l24,7.6c1.4,0.5,2.9,0.7,4.4,0.7c4,0,7.8-1.6,10.4-4.8c4.9-5.9,9.4-12.2,13.4-18.9l2.8-4.9
		c3.7-6.7,6.9-13.6,9.6-20.8c1.9-5.3,0.3-11.1-3.9-14.9l-18.7-17c-4.7-4.2-6.9-10.5-6.6-16.9c0.1-1.8,0.1-3.5,0.1-5.3
		c0-1.8-0.1-3.6-0.1-5.3c-0.3-6.3,1.9-12.6,6.6-16.9l18.7-17c4.2-3.8,5.8-9.6,3.9-14.9l0.1-0.1c-2.7-7.2-5.9-14.1-9.6-20.8l-2.8-4.9
		c-4-6.7-8.5-13-13.4-18.9c-2.6-3.1-6.5-4.8-10.5-4.8c-1.5,0-2.9,0.2-4.4,0.7l-24,7.6c-1.9,0.6-3.9,0.9-5.9,0.9
		c-4.2,0-8.5-1.3-12.1-3.7c-3-1.9-6-3.6-9.1-5.3c-5.7-2.9-10-8-11.4-14.2l-5.4-24.6c-1.2-5.5-5.4-9.9-11-10.8
		C163.4,0.7,154.9,0,146.1,0L146.1,0z"/>
</g>
<g>
	<path class="st1" d="M218.9,207.8c28.4-39.6,19.2-96.6-20.7-124.8C147,46.3,74.8,73.1,59.9,134.4
		c-16.3,69.2,50.3,128.2,117.2,104.5c11-4,21.3-10.1,29.9-18C211.4,216.8,215.4,212.5,218.9,207.8c-13.6,19.3-35.2,33-58.6,36.7
		C79.6,257,25,167.8,72,101.2c38-52.5,118-49.4,151.6,6.1C242.5,137.8,240.7,179.2,218.9,207.8L218.9,207.8z"/>
</g>
<path class="st2" d="M177.5,226.2c39.3-17.9,56.7-64.3,38.8-103.6c-3.1-6.8-7.1-12.9-11.7-18.4c-3.6-4.2-10-2.6-11.9,2.6l-18.6,49.7
	c-0.7,1.9-2.2,3.5-4.1,4.4l-25.5,11.6c-3.9,1.8-8.6,0-10.4-3.9L122.5,143c-0.9-1.9-0.9-4-0.2-6L141,87.3c1.9-5.1-1.9-10.5-7.3-9.7
	c-7.1,1.1-14.1,3.1-20.9,6.2C73.4,101.6,56.1,148,73.9,187.3c3.9,8.5,9.1,16,15.3,22.3L27.4,374.8c-3.1,8.2-2.8,17.4,0.9,25.4
	c7.6,16.7,27.3,24.1,44,16.5c8-3.6,14.3-10.4,17.3-18.6L151.4,233C160.2,232.3,169,230,177.5,226.2z M56.5,367.9
	c5.9-2.7,12.9-0.1,15.5,5.8c2.7,5.9,0.1,12.9-5.8,15.5c-5.9,2.7-12.9,0.1-15.5-5.8C48,377.5,50.6,370.6,56.5,367.9z"/>
<polygon class="st3" points="169.6,168.8 138.4,174.4 117.9,150.3 128.6,120.5 159.7,114.8 180.2,139 "/>
</svg>
