<?xml version="1.0" encoding="utf-8"?>
<!-- Generator: Adobe Illustrator 27.3.1, SVG Export Plug-In . SVG Version: 6.00 Build 0)  -->
<svg version="1.1" id="Laag_1" xmlns="http://www.w3.org/2000/svg" xmlns:xlink="http://www.w3.org/1999/xlink" x="0px" y="0px"
	 viewBox="0 0 258.5 248.3" style="enable-background:new 0 0 258.5 248.3;" xml:space="preserve">
<style type="text/css">
	.st0{fill:#E6EEEF;}
	.st1{fill:#A7CBD1;}
	.st2{fill:#E8D98B;stroke:#C6814E;stroke-width:3;stroke-miterlimit:10;}
</style>
<g>
	<path class="st0" d="M31.7,101.9c-1.8,0-3.5-0.3-5.2-0.9C18.3,98.1,14,89.1,16.9,81C22.9,64.1,32.3,49.1,45,36.4
		C67.5,13.9,97.4,1.5,129.2,1.5c31.5,0,61.3,12.2,83.7,34.4l1.1,1l23.5-23.5c2.2-2.2,5-3.3,8.1-3.3c1.5,0,3,0.3,4.4,0.9
		c4.3,1.8,7,5.9,7,10.6v68.9c0,6.3-5.1,11.4-11.4,11.4h-68.9c-4.7,0-8.8-2.8-10.6-7c-1.8-4.3-0.8-9.2,2.5-12.5l23.3-23.2l-1.1-1.1
		C174.2,41.9,152.4,33,129.3,33c-23.4,0-45.4,9.1-62,25.7C57.9,68,51,79,46.6,91.5C44.3,97.7,38.4,101.9,31.7,101.9
		C31.7,101.9,31.7,101.9,31.7,101.9z"/>
	<path class="st1" d="M129.2,3L129.2,3c31.2,0,60.5,12.1,82.7,33.9L214,39l2.1-2.1l22.4-22.4c1.9-1.9,4.4-2.9,7-2.9
		c1.3,0,2.6,0.3,3.8,0.8c3.7,1.5,6.1,5.1,6.1,9.2v68.9c0,5.5-4.5,9.9-9.9,9.9H241h-64.4c-4.1,0-7.7-2.4-9.2-6.1
		c-1.5-3.7-0.7-8,2.1-10.8l22.2-22.1l2.1-2.1l-2.2-2.1c-16.8-16.5-39-25.6-62.5-25.6c-23.8,0-46.2,9.3-63,26.1
		c-9.5,9.5-16.6,20.7-21.1,33.3c-2,5.7-7.4,9.5-13.4,9.5c-1.6,0-3.2-0.3-4.7-0.8c-7.4-2.6-11.3-10.8-8.7-18.2
		c5.9-16.7,15.2-31.5,27.7-44C68.3,15.2,97.8,3,129.2,3 M129.2,0C98.4,0,67.5,11.8,43.9,35.4C30.8,48.5,21.3,63.9,15.5,80.5
		c-3.2,9,1.6,18.8,10.5,22c1.9,0.7,3.8,1,5.7,1c7.1,0,13.8-4.4,16.3-11.5c4.1-11.7,10.9-22.8,20.4-32.2
		c16.8-16.8,38.9-25.3,60.9-25.3c21.8,0,43.6,8.2,60.4,24.7l-22.2,22.1c-3.7,3.7-4.8,9.3-2.8,14.1c2,4.8,6.7,8,12,8H241h4.6
		c7.2,0,12.9-5.8,12.9-12.9V21.6c0-5.2-3.1-10-8-12c-1.6-0.7-3.3-1-5-1c-3.4,0-6.7,1.3-9.1,3.8L214,34.8C190.5,11.6,159.9,0,129.2,0
		L129.2,0z"/>
</g>
<g>
	<path class="st0" d="M129.3,246.8c-31.5,0-61.3-12.2-83.7-34.4l-1.1-1L21,234.9c-2.2,2.2-5,3.3-8.1,3.3c0,0,0,0,0,0
		c-1.5,0-3-0.3-4.4-0.9c-4.3-1.8-7-5.9-7-10.6v-68.9c0-6.3,5.1-11.4,11.4-11.4h68.9c4.7,0,8.8,2.8,10.6,7c1.8,4.3,0.8,9.2-2.5,12.5
		l-23.2,23.3l1.1,1.1c16.5,16.2,38.3,25.1,61.5,25.1c23.4,0,45.4-9.1,62-25.7c9.3-9.3,16.3-20.3,20.7-32.8
		c2.2-6.3,8.2-10.5,14.8-10.5c1.8,0,3.5,0.3,5.2,0.9c8.2,2.9,12.5,11.9,9.6,20.1c-5.9,16.8-15.4,31.8-28.1,44.5
		C191,234.4,161.1,246.8,129.3,246.8z"/>
	<path class="st1" d="M81.9,147.9c4.1,0,7.7,2.4,9.2,6.1c1.5,3.7,0.7,8-2.1,10.9L66.8,187l-2.1,2.1l2.2,2.1
		c16.8,16.5,39,25.6,62.5,25.6c23.8,0,46.2-9.3,63-26.1c9.5-9.5,16.6-20.7,21.1-33.3c2-5.7,7.4-9.5,13.4-9.5c1.6,0,3.2,0.3,4.7,0.8
		c7.4,2.6,11.3,10.8,8.7,18.1c-5.9,16.6-15.2,31.4-27.8,44c-22.2,22.2-51.7,34.5-83.2,34.5c-31.2,0-60.5-12.1-82.7-33.9l-2.1-2.1
		l-2.1,2.1L20,233.8c-1.9,1.9-4.4,2.9-7,2.9c-1.3,0-2.6-0.3-3.8-0.8c-3.7-1.5-6.1-5.1-6.1-9.2v-64.5v-0.4v-4.1
		c0-5.5,4.5-9.9,9.9-9.9h4.1h0.4H81.9 M81.9,144.9H17.4h-0.4h-4.1c-7.2,0-12.9,5.8-12.9,12.9v4.1v0.4v64.5c0,5.2,3.1,10,8,12
		c1.6,0.7,3.3,1,5,1c3.4,0,6.7-1.3,9.1-3.8l22.4-22.4c23.5,23.2,54.2,34.8,84.8,34.8c30.9,0,61.7-11.8,85.3-35.4
		c13.1-13.1,22.7-28.6,28.5-45.1c3.2-9-1.6-18.8-10.5-22c-1.9-0.7-3.8-1-5.7-1c-7.1,0-13.8,4.4-16.3,11.5
		c-4.1,11.7-10.9,22.8-20.4,32.2c-16.8,16.8-38.9,25.3-60.9,25.3c-21.8,0-43.6-8.2-60.4-24.7L91,167c3.7-3.7,4.8-9.3,2.8-14.1
		S87.1,144.9,81.9,144.9L81.9,144.9z"/>
</g>
<circle class="st2" cx="129.3" cy="120.6" r="21.4"/>
</svg>
