<svg width="1573" height="1390" viewBox="0 0 1573 1390" fill="none" xmlns="http://www.w3.org/2000/svg">
<g clip-path="url(#clip0_101_952)">
<path d="M1493.1 233.3H185.3V315.7H1493.1V233.3Z" fill="#EFF3F4"/>
<path d="M1347.9 292.8C1332.3 293.3 1310.3 294.1 1294.9 294.3C1294.8 284.2 1294.6 265.4 1294.6 255.3V253.5C1303.8 253.6 1313 253.5 1322.1 253.6C1329.1 253.7 1342.1 253.8 1349.1 254C1349 265.6 1348.3 281.2 1347.9 292.8ZM1347.9 292.8C1347.6 286.2 1347.2 270.8 1346.9 264.5C1346.8 261.4 1346.7 258.4 1346.7 255.3L1347.9 256.5C1341.5 256.6 1328.6 256.8 1322.1 256.9C1313.5 257 1304.9 257 1296.3 257L1298 255.3C1298 264.6 1297.9 283.5 1297.7 292.8L1296.2 291.3C1310.9 291.6 1333.2 292.3 1347.9 292.8Z" fill="#A7CBD1"/>
<path d="M1248.3 272.2C1240.9 273.6 1233.5 273.9 1226 273.9C1218.5 273.9 1211.1 273.5 1203.7 272.2C1211.1 270.8 1218.5 270.5 1226 270.5C1233.4 270.5 1240.9 270.8 1248.3 272.2Z" fill="#A7CBD1"/>
<path d="M1430.5 255.3C1425.3 262.5 1419.3 268.9 1413.1 275.2C1406.8 281.4 1400.4 287.4 1393.2 292.6C1398.4 285.4 1404.4 279 1410.6 272.7C1416.8 266.5 1423.3 260.5 1430.5 255.3Z" fill="#A7CBD1"/>
<path d="M1393.9 255.3C1401.1 260.5 1407.5 266.5 1413.8 272.7C1420 279 1426 285.4 1431.2 292.6C1424 287.4 1417.6 281.4 1411.3 275.2C1405.1 269 1399.1 262.5 1393.9 255.3Z" fill="#A7CBD1"/>
<path d="M136.8 316C581.3 313.7 1079.9 313.7 1524.5 316C1080 318.3 581.4 318.3 136.8 316Z" fill="#A7CBD1"/>
<path d="M117.1 233.3C583.4 231 1106.4 231 1572.7 233.3C1106.4 235.6 583.3 235.6 117.1 233.3Z" fill="#A7CBD1"/>
<path d="M185.3 160.1C187.6 507.7 187.6 897.6 185.3 1245.2C183 897.6 183 507.7 185.3 160.1Z" fill="#A7CBD1"/>
<path d="M89.4 1156.7C439.7 1154.4 832.6 1154.4 1182.9 1156.7C832.7 1159 439.7 1159 89.4 1156.7Z" fill="#A7CBD1"/>
<path d="M1493.1 144C1495.4 419.7 1495.5 701.8 1493.1 977.5C1490.7 701.8 1490.8 419.7 1493.1 144Z" fill="#A7CBD1"/>
<path d="M336.2 1087.9C693.3 1085.6 1093.9 1085.6 1451 1087.9C1093.9 1090.2 693.3 1090.2 336.2 1087.9Z" fill="#A7CBD1"/>
<path d="M393.6 431.7C395.9 681.5 396 937.1 393.6 1186.9C391.2 937.1 391.3 681.5 393.6 431.7Z" fill="#A7CBD1"/>
<path d="M1393.9 421C1396.2 658.2 1396.3 900.9 1393.9 1138.1C1391.5 900.8 1391.5 658.1 1393.9 421Z" fill="#A7CBD1"/>
<path d="M162.7 450.8C614.3 448.5 1121 448.5 1572.6 450.8C1121 453.1 614.4 453.1 162.7 450.8Z" fill="#A7CBD1"/>
<path opacity="0.65" d="M1428.8 853.3L2 851.8V543.7H1428.8V853.3Z" fill="white"/>
<path d="M1428.8 542.5H1415.5V543.7H1428.8V542.5ZM1402.2 542.5H1388.9V543.7H1402.2V542.5ZM1375.7 542.5H1362.4V543.7H1375.7V542.5ZM1349.1 542.5H1335.8V543.7H1349.1V542.5ZM1322.5 542.5H1309.2V543.7H1322.5V542.5ZM1295.9 542.5H1282.6V543.7H1295.9V542.5ZM1269.4 542.5H1256.1V543.7H1269.4V542.5ZM1242.8 542.5H1229.5V543.7H1242.8V542.5ZM1216.2 542.5H1203V543.7H1216.3V542.5H1216.2ZM1189.7 542.5H1176.4V543.7H1189.7V542.5ZM1163.1 542.5H1149.8V543.7H1163.1V542.5ZM1136.5 542.5H1123.2V543.7H1136.5V542.5ZM1110 542.5H1096.7V543.7H1110V542.5ZM1083.4 542.5H1070.1V543.7H1083.4V542.5ZM1056.8 542.5H1043.5V543.7H1056.8V542.5ZM1030.3 542.5H1017V543.7H1030.3V542.5ZM1003.7 542.5H990.4V543.7H1003.7V542.5ZM977.1 542.5H963.8V543.7H977.1V542.5ZM950.5 542.5H937.2V543.7H950.5V542.5ZM924 542.5H910.7V543.7H924V542.5ZM897.4 542.5H884.1V543.7H897.4V542.5ZM870.8 542.5H857.5V543.7H870.8V542.5ZM844.3 542.5H831V543.7H844.3V542.5ZM817.7 542.5H804.4V543.7H817.7V542.5ZM791.1 542.5H777.8V543.7H791.1V542.5ZM764.6 542.5H751.3V543.7H764.6V542.5ZM738 542.5H724.7V543.7H738V542.5ZM711.4 542.5H698.1V543.7H711.4V542.5ZM684.9 542.5H671.6V543.7H684.9V542.5ZM658.3 542.5H645V543.7H658.3V542.5ZM631.7 542.5H618.4V543.7H631.7V542.5ZM605.1 542.5H591.8V543.7H605.1V542.5ZM578.6 542.5H565.3V543.7H578.6V542.5ZM552 542.5H538.7V543.7H552V542.5ZM525.4 542.5H512.1V543.7H525.4V542.5ZM498.9 542.5H485.6V543.7H498.9V542.5ZM472.3 542.5H459V543.7H472.3V542.5ZM445.7 542.5H432.4V543.7H445.7V542.5ZM419.2 542.5H405.9V543.7H419.2V542.5ZM392.6 542.5H379.3V543.7H392.6V542.5ZM366 542.5H352.7V543.7H366V542.5ZM339.5 542.5H326.2V543.7H339.5V542.5ZM312.9 542.5H299.6V543.7H312.9V542.5ZM286.3 542.5H273V543.7H286.3V542.5ZM259.7 542.5H246.4V543.7H259.7V542.5ZM233.2 542.5H219.9V543.7H233.2V542.5ZM206.6 542.5H193.3V543.7H206.6V542.5ZM180 542.5H166.7V543.7H180V542.5ZM153.5 542.5H140.2V543.7H153.5V542.5ZM126.9 542.5H113.6V543.7H126.9V542.5ZM100.3 542.5H87V543.7H100.3V542.5ZM73.8 542.5H60.5V543.7H73.8V542.5ZM47.2001 542.5H33.9001V543.7H47.2001V542.5ZM20.6 542.5H7.30005V543.7H20.6V542.5ZM2.00005 551.6H0.800049V564.9H2.00005V551.6ZM2.00005 578.2H0.800049V591.5H2.00005V578.2ZM2.00005 604.7H0.800049V618H2.00005V604.7ZM2.00005 631.3H0.800049V644.6H2.00005V631.3ZM2.00005 657.9H0.800049V671.2H2.00005V657.9ZM2.00005 684.5H0.800049V697.8H2.00005V684.5ZM2.00005 711H0.800049V724.3H2.00005V711ZM2.00005 737.6H0.800049V750.9H2.00005V737.6ZM2.00005 764.2H0.800049V777.5H2.00005V764.2ZM2.00005 790.7H0.800049V804H2.00005V790.7ZM2.00005 817.3H0.800049V830.6H2.00005V817.3ZM2.00005 843.9H0.800049V851.8V853H2.00005H7.40005V851.8H2.00005V843.9ZM20.7001 851.8V853H34V851.8C34 851.8 23.7 851.8 21.3 851.8H20.7001ZM47.2001 851.8V853H60.5V851.8H47.2001ZM73.8 851.9V853.1H87.1V851.9H74C73.9 851.9 73.8 851.9 73.8 851.9ZM100.4 851.9V853.1H113.7V851.9H101C100.6 851.9 100.4 851.9 100.4 851.9ZM126.9 851.9V853.1H140.2V851.9H127.9C127.3 851.9 126.9 851.9 126.9 851.9ZM153.5 851.9V853.1H166.8V851.9H154.9C154.1 851.9 153.5 851.9 153.5 851.9ZM180.1 852V853.2H193.4V852H182.1C180.8 852 180.1 852 180.1 852ZM206.6 852V853.2H219.9V852H209C207.6 852 206.6 852 206.6 852ZM233.2 852V853.2H246.5V852H235.8C234.3 852 233.2 852 233.2 852ZM259.8 852V853.2H273.1V852H262.9C261.1 852.1 259.8 852 259.8 852ZM286.3 852.1V853.3H299.6V852.1H289.8C287.9 852.1 286.3 852.1 286.3 852.1ZM312.9 852.1V853.3H326.2V852.1H316.9C316.9 852.1 316.9 852.1 316.8 852.1H316.7C314.6 852.1 312.9 852.1 312.9 852.1ZM339.5 852.1V853.3H352.8V852.1H343.9C341.4 852.1 339.5 852.1 339.5 852.1ZM366.1 852.2V853.4H379.4V852.2H370.9C368.2 852.2 366.1 852.2 366.1 852.2ZM392.6 852.2V853.4H405.9V852.2H397.8H397.7C394.9 852.2 392.6 852.2 392.6 852.2ZM419.2 852.2V853.4H432.5V852.2H424.9C421.9 852.2 419.2 852.2 419.2 852.2ZM445.8 852.2V853.4H459.1V852.2H452C448.8 852.2 445.8 852.2 445.8 852.2ZM472.3 852.3V853.5H485.6V852.3H479H478.9C475.6 852.3 472.3 852.3 472.3 852.3ZM498.9 852.3V853.5H512.2V852.3H505.9H505.8C502.4 852.3 498.9 852.3 498.9 852.3ZM525.5 852.3V853.5H538.8V852.3H532.8C529.3 852.3 525.5 852.3 525.5 852.3ZM552 852.4V853.6H565.3V852.4H559.7C556.1 852.4 552 852.4 552 852.4ZM578.6 852.4V853.6H591.9V852.4H586.7C582.9 852.4 578.6 852.4 578.6 852.4ZM605.2 852.4V853.6H618.5V852.4H613.8H613.7H613.6C609.8 852.4 605.2 852.4 605.2 852.4ZM631.7 852.4V853.6H645V852.4H640.8C640.8 852.4 640.8 852.4 640.7 852.4H640.6C636.8 852.4 631.7 852.4 631.7 852.4ZM658.3 852.5V853.7H671.6V852.5H667.7C663.8 852.5 658.3 852.5 658.3 852.5ZM684.9 852.5V853.7H698.2V852.5H694.6C690.6 852.5 684.9 852.5 684.9 852.5ZM711.5 852.5V853.7H724.8V852.5H721.8H721.7C717.7 852.5 711.5 852.5 711.5 852.5ZM738 852.5V853.7H751.3V852.5H748.7H748.6C744.8 852.6 738 852.5 738 852.5ZM764.6 852.6V853.8H777.9V852.6H775.8H775.7C775.6 852.6 775.6 852.6 775.5 852.6C771.7 852.6 764.6 852.6 764.6 852.6ZM791.2 852.6V853.8H804.5V852.6H802.7C799 852.6 791.2 852.6 791.2 852.6ZM817.7 852.6V853.8H831V852.6H829.6C829.6 852.6 829.6 852.6 829.5 852.6C826.1 852.6 817.7 852.6 817.7 852.6ZM844.3 852.7V853.9H857.6V852.7H856.6H856.5C853.3 852.7 844.3 852.7 844.3 852.7ZM870.9 852.7V853.9H884.2V852.7H883.7C881.3 852.7 870.9 852.7 870.9 852.7ZM897.4 852.7V853.9H910.7V852.7C909.5 852.7 897.4 852.7 897.4 852.7ZM924 852.7V853.9H937.3V852.7C937.3 852.7 937.2 852.7 937 852.7H924ZM950.6 852.8V854H963.9V852.8C963.9 852.8 963.6 852.8 963.2 852.8H950.6ZM977.1 852.8V854H990.4V852.8C990.4 852.8 990 852.8 989.4 852.8H977.1ZM1003.7 852.8V854H1017V852.8C1017 852.8 1016.4 852.8 1015.5 852.8H1015.4H1003.7ZM1030.3 852.8V854H1043.6V852.8C1043.6 852.8 1042.9 852.8 1041.7 852.8H1041.6H1041.5H1030.3ZM1056.9 852.9V854.1H1070.2V852.9C1070.2 852.9 1069.3 852.9 1067.9 852.9H1067.8H1056.9ZM1083.4 852.9V854.1H1096.7V852.9C1096.7 852.9 1095.6 852.9 1094 852.9H1083.4ZM1110 852.9V854.1H1123.3V852.9C1123.3 852.9 1122 852.9 1120.2 852.9H1110ZM1136.6 853V854.2H1149.9V853C1149.9 853 1148.4 853 1146.4 853H1146.3H1136.6ZM1163.1 853V854.2H1176.4V853C1176.4 853 1174.7 853 1172.5 853H1163.1ZM1189.7 853V854.2H1203V853C1203 853 1201 853 1198.6 853H1189.7ZM1216.3 853V854.2H1229.6V853C1229.6 853 1227.5 853 1224.9 853H1224.8H1216.3ZM1242.8 853.1V854.3H1256.1V853.1C1256.1 853.1 1253.7 853.1 1251 853.1H1242.8ZM1269.4 853.1V854.3H1282.7V853.1C1282.7 853.1 1280.1 853.1 1277.1 853.1H1269.4ZM1296 853.1V854.3H1309.3V853.1C1309.3 853.1 1306.5 853.1 1303.4 853.1H1303.3H1296ZM1322.5 853.1V854.3H1335.8V853.1C1335.8 853.1 1332.6 853.1 1329.3 853.1H1322.5ZM1349.1 853.2V854.4H1362.4V853.2C1362.4 853.2 1358.9 853.2 1355.4 853.2H1349.1ZM1375.7 853.2V854.4H1389V853.2C1389 853.2 1385.2 853.2 1381.7 853.2H1375.7ZM1402.3 853.2V854.4H1415.6V853.2C1415.6 853.2 1411.6 853.2 1408 853.2H1402.3ZM1430 839.9H1428.8V853.2H1430V839.9ZM1430 813.4H1428.8V826.7H1430V813.4ZM1430 786.8H1428.8V800.1H1430V786.8ZM1430 760.2H1428.8V773.5H1430V760.2ZM1430 733.7H1428.8V747H1430V733.7ZM1430 707.1H1428.8V720.4H1430V707.1ZM1430 680.5H1428.8V693.8H1430V680.5ZM1430 654H1428.8V667.3H1430V654ZM1430 627.4H1428.8V640.7H1430V627.4ZM1430 600.8H1428.8V614.1H1430V600.8ZM1430 574.2H1428.8V587.5H1430V574.2ZM1430 547.7H1428.8V561H1430V547.7Z" fill="#1D1D1B"/>
<path opacity="0.65" d="M614.4 339.2H231.4V426.9H614.4V339.2Z" fill="white"/>
<path d="M614.4 337.9H600.4V339.1H614.4V337.9ZM586.4 337.9H572.4V339.1H586.4V337.9ZM558.4 337.9H544.4V339.1H558.4V337.9ZM530.4 337.9H516.4V339.1H530.4V337.9ZM502.4 337.9H488.4V339.1H502.4V337.9ZM474.5 337.9H460.5V339.1H474.5V337.9ZM446.5 337.9H432.5V339.1H446.5V337.9ZM418.5 337.9H404.5V339.1H418.5V337.9ZM390.5 337.9H376.5V339.1H390.5V337.9ZM362.5 337.9H348.5V339.1H362.5V337.9ZM334.5 337.9H320.5V339.1H334.5V337.9ZM306.5 337.9H292.5V339.1H306.5V337.9ZM278.5 337.9H264.5V339.1H278.5V337.9ZM250.5 337.9H236.5V339.1H250.5V337.9ZM231.4 348H230.2V362H231.4V348ZM231.4 376H230.2V390H231.4V376ZM231.4 404H230.2V418H231.4V404ZM250.5 426.9H236.5V428.1H250.5V426.9ZM278.5 426.9H264.5V428.1H278.5V426.9ZM306.5 426.9H292.5V428.1H306.5V426.9ZM334.5 426.9H320.5V428.1H334.5V426.9ZM362.4 426.9H348.4V428.1H362.4V426.9ZM390.4 426.9H376.4V428.1H390.4V426.9ZM418.4 426.9H404.4V428.1H418.4V426.9ZM446.4 426.9H432.4V428.1H446.4V426.9ZM474.4 426.9H460.4V428.1H474.4V426.9ZM502.4 426.9H488.4V428.1H502.4V426.9ZM530.4 426.9H516.4V428.1H530.4V426.9ZM558.4 426.9H544.4V428.1H558.4V426.9ZM586.4 426.9H572.4V428.1H586.4V426.9ZM614.4 426.9H600.4V428.1H614.4V426.9ZM615.7 398.9H614.5V412.9H615.7V398.9ZM615.7 371H614.5V385H615.7V371ZM615.7 343H614.5V357H615.7V343Z" fill="#1D1D1B"/>
<path d="M253 538L379.5 426.9" stroke="#1D1D1B" stroke-width="1.25" stroke-miterlimit="10" stroke-dasharray="14 14"/>
<g opacity="0.9">
<path d="M1352.5 606H1106.2V790.7H1352.5V606Z" fill="#EFEDE6"/>
</g>
<path d="M1352.5 606V790.7H1106.2V606H1352.5ZM1355.5 603H1352.5H1106.2H1103.2V606V790.7V793.7H1106.2H1352.5H1355.5V790.7V606V603Z" fill="#1D1D1B"/>
<path d="M1228.3 738.7C1253.93 738.7 1274.7 717.926 1274.7 692.3C1274.7 666.674 1253.93 645.9 1228.3 645.9C1202.67 645.9 1181.9 666.674 1181.9 692.3C1181.9 717.926 1202.67 738.7 1228.3 738.7Z" fill="#E8D98B" stroke="#1D1D1B" stroke-width="2" stroke-miterlimit="10"/>
<path d="M1262.5 723.6C1257.9 724.6 1252.8 725.1 1248.2 725.1C1239.5 725.1 1231 723.3 1222.9 719.8C1216.3 716.9 1211.7 713.6 1209.5 711.9L1208.4 711L1209.2 709.8C1216.2 699.8 1224.2 694.5 1227.4 692.7L1228.2 692.3L1229 692.7C1232 694.5 1243 700.2 1258.1 700.2C1262.5 700.2 1267.2 699.6 1272.1 698.4L1274.3 697.9" stroke="#1D1D1B" stroke-width="2" stroke-miterlimit="10"/>
<path d="M1238 647L1238.3 647.4C1257.4 668.4 1255.5 692.1 1254.5 698.8L1254.3 700.2" stroke="#1D1D1B" stroke-width="2" stroke-miterlimit="10"/>
<path d="M1221.9 665.8C1219.5 661 1216.2 656 1211.7 651.3L1210.1 649.6" stroke="#1D1D1B" stroke-width="2" stroke-miterlimit="10"/>
<path d="M1228.2 692.3V691.5C1228.2 688.8 1227.9 677.9 1221.8 665.8" stroke="#1D1D1B" stroke-width="2" stroke-miterlimit="10"/>
<path d="M1184.1 706.5L1184.2 706C1192.8 679 1214.3 668.8 1220.6 666.4L1221.9 665.9" stroke="#1D1D1B" stroke-width="2" stroke-miterlimit="10"/>
<path d="M1208.5 711C1205.6 715.5 1202.9 721 1201.1 727.3L1200.5 729.5" stroke="#1D1D1B" stroke-width="2" stroke-miterlimit="10"/>
<path opacity="0.85" d="M1305.1 668.6L1231.7 742C1228.6 745.1 1230.8 750.5 1235.2 750.4L1308.2 750C1310.9 750 1313.1 747.8 1313.1 745.1L1313.6 672.1C1313.6 667.7 1308.2 665.4 1305.1 668.6ZM1293.7 730.2C1293.7 730.4 1293.5 730.6 1293.3 730.6H1270.4C1270.1 730.6 1269.9 730.2 1270.1 730L1293 707.2C1293.2 707 1293.6 707.1 1293.6 707.5V730.2H1293.7Z" fill="#F7F7F5"/>
<path d="M1286 687L1290.9 691.9" stroke="#353531" stroke-width="2" stroke-miterlimit="10" stroke-linecap="round"/>
<path d="M1298 675L1302.9 680" stroke="#353531" stroke-width="2" stroke-miterlimit="10" stroke-linecap="round"/>
<path d="M1274 699L1278.9 703.9" stroke="#353531" stroke-width="2" stroke-miterlimit="10" stroke-linecap="round"/>
<path d="M1262 711L1266.9 715.9" stroke="#353531" stroke-width="2" stroke-miterlimit="10" stroke-linecap="round"/>
<path d="M1250 723L1254.9 727.9" stroke="#353531" stroke-width="2" stroke-miterlimit="10" stroke-linecap="round"/>
<path d="M1238 735L1243 739.9" stroke="#353531" stroke-width="2" stroke-miterlimit="10" stroke-linecap="round"/>
<path d="M1308.6 667.1C1311.2 667.1 1313.6 669.1 1313.6 672.1L1313.1 745.1C1313.1 747.8 1310.9 750 1308.2 750L1235.2 750.4C1230.8 750.4 1228.6 745.1 1231.7 742L1305.1 668.6C1306.1 667.6 1307.3 667.1 1308.6 667.1ZM1270.4 730.6H1293.3C1293.5 730.6 1293.7 730.4 1293.7 730.2V707.4C1293.7 707.2 1293.5 707 1293.3 707C1293.2 707 1293.1 707 1293 707.1L1270.1 729.9C1269.9 730.2 1270.1 730.6 1270.4 730.6ZM1308.6 665.1C1306.8 665.1 1305 665.8 1303.7 667.1L1230.3 740.5C1228.3 742.5 1227.7 745.4 1228.8 748.1C1229.9 750.7 1232.4 752.4 1235.2 752.4L1308.2 752C1312 752 1315.1 748.9 1315.1 745.1L1315.6 672.1C1315.6 670.2 1314.9 668.5 1313.6 667.2C1312.2 665.9 1310.4 665.1 1308.6 665.1ZM1274.4 728.6L1291.7 711.3V728.6H1274.4Z" fill="#353531"/>
<path d="M1149.3 747.5C1148.5 747.5 1147.7 746.5 1147.7 745C1147.7 743.5 1148.6 742.5 1149.3 742.5H1153.5L1177.1 670C1177.4 669.2 1178 668.6 1178.5 668.6H1181.3C1181.9 668.6 1182.5 669.2 1182.8 670L1206.4 742.5H1210.6C1211.4 742.5 1212.2 743.5 1212.2 745C1212.2 746.5 1211.3 747.5 1210.6 747.5H1149.3Z" fill="#C9BC81"/>
<path d="M1155.4 727.4L1172.1 676.3H1187.8L1204.4 727.4H1155.4Z" fill="white"/>
<path d="M1168.6 686.8L1172 676.2L1174.4 669C1175.1 667 1176.7 665.6 1178.5 665.6H1181.3C1183.1 665.6 1184.7 666.9 1185.4 669L1191.2 686.8H1168.6Z" fill="#C6814E"/>
<path d="M1165.2 697.4H1194.6L1199.8 713.3H1160L1165.2 697.4Z" fill="#C6814E"/>
<path d="M1151.4 739.7L1156.6 723.8H1203.3L1208.5 739.7H1210.7C1213.1 739.7 1215.1 742.1 1215.1 745C1215.1 747.9 1213.1 750.3 1210.7 750.3H1149.3C1146.9 750.3 1144.9 747.9 1144.9 745C1144.9 742.1 1146.9 739.7 1149.3 739.7H1151.4Z" fill="#C6814E"/>
<g opacity="0.9">
<path d="M1011.9 607.8H765.6V792.5H1011.9V607.8Z" fill="#EFEDE6"/>
</g>
<path d="M968 666.7C976.616 666.7 983.6 659.716 983.6 651.1C983.6 642.484 976.616 635.5 968 635.5C959.384 635.5 952.4 642.484 952.4 651.1C952.4 659.716 959.384 666.7 968 666.7Z" fill="#E8D98B" stroke="#C6814E" stroke-width="2" stroke-miterlimit="10"/>
<path d="M818.8 792.5L923 685.6L1011.9 766.2V792.5H818.8Z" fill="#C2CE9B"/>
<path d="M952.9 712.6L923.1 685.6L896.4 712.9L952.9 712.6Z" fill="white"/>
<path d="M923 685.6L1011.9 766.2V792.5H818.8L923 685.6ZM922.9 682.8L921.6 684.2L817.4 791.2L814.1 794.6H818.8H1011.9H1013.9V792.6V766.3V765.4L1013.2 764.8L924.3 684.2L922.9 682.8Z" fill="#8E9B67"/>
<path d="M768.1 790V716L817.3 665.5L946.8 790H768.1Z" fill="#BECC96"/>
<path d="M765.6 715L817.2 662L952.9 792.5H765.6V715Z" fill="#D0E0A9"/>
<path d="M855.9 699.3L817.2 662L781 699.3H855.9Z" fill="white"/>
<path d="M817.2 662L952.9 792.5H765.6V715L817.2 662ZM817.2 659.2L815.8 660.6L764.2 713.6L763.6 714.2V715V792.5V794.5H765.6H952.9H957.9L954.3 791.1L818.6 660.6L817.2 659.2Z" fill="#808C57"/>
<path d="M1011.9 607.8V792.5H765.6V607.8H1011.9ZM1014.9 604.8H1011.9H765.6H762.6V607.8V792.5V795.5H765.6H1011.9H1014.9V792.5V607.8V604.8Z" fill="#1D1D1B"/>
<g opacity="0.85">
<path d="M670.4 606.9H424.1V791.6H670.4V606.9Z" fill="#EFEDE6"/>
</g>
<path d="M670.4 606.9V791.6H424.1V606.9H670.4ZM673.4 603.9H670.4H424.1H421.1V606.9V791.6V794.6H424.1H670.4H673.4V791.6V606.9V603.9Z" fill="#1D1D1B"/>
<path d="M630.6 643.7H463.8V754.9H630.6V643.7Z" fill="#F7F7F5"/>
<path d="M595.9 687.1C603.577 687.1 609.8 680.877 609.8 673.2C609.8 665.523 603.577 659.3 595.9 659.3C588.223 659.3 582 665.523 582 673.2C582 680.877 588.223 687.1 595.9 687.1Z" fill="#E8D98B" stroke="#C6814E" stroke-width="2" stroke-miterlimit="10"/>
<path d="M538.6 754.8L590.9 709.6L630.6 743.6V754.8H538.6Z" fill="#98D0EF" stroke="#5892BE" stroke-width="2" stroke-miterlimit="10"/>
<path d="M463.8 716.3L497.3 687.1L562.4 754.8H463.8V716.3Z" fill="#98D0EF" stroke="#5892BE" stroke-width="2" stroke-miterlimit="10"/>
<path d="M630.6 643.7V754.9H463.8V643.7H630.6ZM632.6 641.7H630.6H463.8H461.8V643.7V754.9V756.9H463.8H630.6H632.6V754.9V643.7V641.7Z" fill="#3D3D3A"/>
<path d="M341.7 594.7H92.8999V781.9H341.7V594.7Z" fill="#F7F7F5"/>
<path d="M340.5 596V780.7H94.2V596H340.5ZM343 593.5H340.5H94.2H91.7V596V780.7V783.2H94.2H340.5H343V780.7V596V593.5Z" fill="#1D1D1B"/>
<g opacity="0.9">
<path d="M318.9 615.5H72.7V800.2H318.9V615.5Z" fill="#EFEDE6"/>
</g>
<path d="M319 615.5V800.2H72.7V615.5H319ZM322 612.5H319H72.7H69.7V615.5V800.2V803.2H72.7H319H322V800.2V615.5V612.5Z" fill="#1D1D1B"/>
<path d="M279.2 652.2H112.5V763.3H279.2V652.2Z" fill="#F7F7F5"/>
<path d="M244.5 695.6C252.177 695.6 258.4 689.377 258.4 681.7C258.4 674.023 252.177 667.8 244.5 667.8C236.823 667.8 230.6 674.023 230.6 681.7C230.6 689.377 236.823 695.6 244.5 695.6Z" fill="#E8D98B" stroke="#C6814E" stroke-width="2" stroke-miterlimit="10"/>
<path d="M187.3 763.4L239.6 718.1L279.2 752.1V763.4H187.3Z" fill="#98D0EF" stroke="#5892BE" stroke-width="2" stroke-miterlimit="10"/>
<path d="M112.5 724.9L145.9 695.6L211.1 763.4H112.5V724.9Z" fill="#98D0EF" stroke="#5892BE" stroke-width="2" stroke-miterlimit="10"/>
<path d="M279.2 652.2H112.5V763.3H279.2V652.2Z" stroke="#3D3D3A" stroke-width="2" stroke-miterlimit="10"/>
<path d="M308.5 833.8L288.1 862L273.9 763.9L354.1 822.1L319.7 827L363 898.8L351.9 905.5L308.5 833.8Z" fill="#68644F"/>
<path d="M308.1 843.7L284.7 876.1L266.6 751.8L368.2 825.6L328.6 831.3L370.5 900.7L350 913L308.1 843.7Z" fill="#1D1D1B"/>
<path d="M269.9 757.3L361.8 824.1L331.9 828.4L324.5 829.5L328.4 835.9L367.1 900L350.8 909.8L312.1 845.7L308.2 839.3L303.8 845.3L286.1 869.8L269.9 757.3ZM263.3 746.4L283.1 882.5L307.9 848.1L349.2 916.4L373.9 901.5L332.6 833.2L374.6 827.2L263.3 746.4Z" fill="white"/>
</g>
<defs>
<clipPath id="clip0_101_952">
<rect width="1572.7" height="1101.2" fill="white" transform="translate(0 144)"/>
</clipPath>
</defs>
</svg>
