<?xml version="1.0" encoding="utf-8"?>
<!-- Generator: Adobe Illustrator 27.3.1, SVG Export Plug-In . SVG Version: 6.00 Build 0)  -->
<svg version="1.1" id="Laag_1" xmlns="http://www.w3.org/2000/svg" xmlns:xlink="http://www.w3.org/1999/xlink" x="0px" y="0px"
	 viewBox="0 0 1572.7 1101.2" style="enable-background:new 0 0 1572.7 1101.2;" xml:space="preserve">
<style type="text/css">
	.st0{fill:#EFF3F4;}
	.st1{fill:#A7CBD1;}
	.st2{opacity:0.65;fill:#FFFFFF;}
	.st3{fill:#1D1D1B;}
	.st4{fill:none;stroke:#1D1D1B;stroke-width:1.25;stroke-miterlimit:10;stroke-dasharray:13.9954;}
	.st5{opacity:0.9;}
	.st6{fill:#EFEDE6;}
	.st7{fill:#E8D98B;stroke:#1D1D1B;stroke-width:2;stroke-miterlimit:10;}
	.st8{fill:none;stroke:#1D1D1B;stroke-width:2;stroke-miterlimit:10;}
	.st9{opacity:0.85;fill:#F7F7F5;}
	.st10{fill:none;stroke:#353531;stroke-width:2;stroke-linecap:round;stroke-miterlimit:10;}
	.st11{fill:#353531;}
	.st12{filter:url(#Pion);}
	.st13{fill:#C9BC81;}
	.st14{fill:#FFFFFF;}
	.st15{fill:#C6814E;}
	.st16{fill:none;stroke:#3D3D3A;stroke-width:1.6926;stroke-miterlimit:10;}
	.st17{display:none;filter:url(#sun);}
	.st18{display:inline;fill:#E8D98B;}
	.st19{fill:#E8D98B;stroke:#C6814E;stroke-width:2;stroke-miterlimit:10;}
	.st20{fill:#C2CE9B;}
	.st21{fill:#8E9B67;}
	.st22{filter:url(#mountain);}
	.st23{fill:#BECC96;}
	.st24{fill:#D0E0A9;}
	.st25{fill:#808C57;}
	.st26{opacity:0.85;}
	.st27{fill:#F7F7F5;}
	.st28{fill:#98D0EF;stroke:#5892BE;stroke-width:2;stroke-miterlimit:10;}
	.st29{fill:#3D3D3A;}
	.st30{filter:url(#Slide_2);}
	.st31{fill:none;stroke:#3D3D3A;stroke-width:2;stroke-miterlimit:10;}
	.st32{fill:#68644F;}
</style>
<filter  height="300%" id="sun" width="300%" x="-100%" y="-100%">
	<feOffset  dx="0" dy="0" in="SourceGraphic" result="offOut"></feOffset>
	<feColorMatrix  in="offOut" result="matrixOut" type="matrix" values="0.8 0 0 0 0 0 0.4 0 0 0 0 0 0.1 0 0 0 0 0 1 0">
		</feColorMatrix>
	<feGaussianBlur  in="matrixOut" result="blurOut" stdDeviation="15"></feGaussianBlur>
	<feBlend  in="SourceGraphic" in2="blurOut" mode="normal"></feBlend>
</filter>
<filter  height="150%" id="mountain" width="150%" x="-25%" y="-25%">
	<feOffset  dx="10" dy="-1" in="SourceGraphic" result="offOut"></feOffset>
	<feColorMatrix  in="offOut" result="matrixOut" type="matrix" values="0.3 0 0 0 0 0 0.3 0 0 0 0 0 0.2 0 0 0 0 0 0.5 0">
		</feColorMatrix>
	<feGaussianBlur  in="matrixOut" result="blurOut" stdDeviation="15"></feGaussianBlur>
	<feBlend  in="SourceGraphic" in2="blurOut" mode="normal"></feBlend>
</filter>
<filter  height="150%" id="Slide_2" width="150%" x="-25%" y="-25%">
	<feOffset  dx="3" dy="-3" in="SourceGraphic" result="offOut"></feOffset>
	<feColorMatrix  in="offOut" result="matrixOut" type="matrix" values="0.45 0 0 0 0 0 0.4 0 0 0 0 0 0.2 0 0 0 0 0 0.6 0">
		</feColorMatrix>
	<feGaussianBlur  in="matrixOut" result="blurOut" stdDeviation="10"></feGaussianBlur>
	<feBlend  in="SourceGraphic" in2="blurOut" mode="normal"></feBlend>
</filter>
<filter  height="200%" id="Pion" width="200%" x="-25%" y="-25%">
	<feOffset  dx="7" dy="-5" in="SourceGraphic" result="offOut"></feOffset>
	<feColorMatrix  in="offOut" result="matrixOut" type="matrix" values="0.6 0 0 0 0 0 0.6 0 0 0 0 0 0.3 0 0 0 0 0 0.9 0">
		</feColorMatrix>
	<feGaussianBlur  in="matrixOut" result="blurOut" stdDeviation="10"></feGaussianBlur>
	<feBlend  in="SourceGraphic" in2="blurOut" mode="normal"></feBlend>
</filter>
<rect x="185.3" y="89.3" class="st0" width="1307.8" height="82.4"/>
<g>
	<g>
		<g>
			<path class="st1" d="M1347.9,148.8c-15.6,0.5-37.6,1.3-53,1.5c-0.1-10.1-0.3-28.9-0.3-39c0,0,0-1.8,0-1.8
				c9.2,0.1,18.4,0,27.5,0.1c7,0.1,20,0.2,27,0.4C1349,121.6,1348.3,137.2,1347.9,148.8L1347.9,148.8z M1347.9,148.8
				c-0.3-6.6-0.7-22-1-28.3c-0.1-3.1-0.2-6.1-0.2-9.2c0,0,1.2,1.2,1.2,1.2c-6.4,0.1-19.3,0.3-25.8,0.4c-8.6,0.1-17.2,0.1-25.8,0.1
				l1.7-1.7c0,9.3-0.1,28.2-0.3,37.5c0,0-1.5-1.5-1.5-1.5C1310.9,147.6,1333.2,148.3,1347.9,148.8L1347.9,148.8z"/>
		</g>
		<g>
			<path class="st1" d="M1248.3,128.2c-7.4,1.4-14.8,1.7-22.3,1.7c-7.5,0-14.9-0.4-22.3-1.7c7.4-1.4,14.8-1.7,22.3-1.7
				C1233.4,126.5,1240.9,126.8,1248.3,128.2L1248.3,128.2z"/>
		</g>
		<g>
			<g>
				<path class="st1" d="M1430.5,111.3c-5.2,7.2-11.2,13.6-17.4,19.9c-6.3,6.2-12.7,12.2-19.9,17.4c5.2-7.2,11.2-13.6,17.4-19.9
					C1416.8,122.5,1423.3,116.5,1430.5,111.3L1430.5,111.3z"/>
			</g>
			<g>
				<path class="st1" d="M1393.9,111.3c7.2,5.2,13.6,11.2,19.9,17.4c6.2,6.3,12.2,12.7,17.4,19.9c-7.2-5.2-13.6-11.2-19.9-17.4
					C1405.1,125,1399.1,118.5,1393.9,111.3L1393.9,111.3z"/>
			</g>
		</g>
	</g>
	<g>
		<g>
			<path class="st1" d="M136.8,172c444.5-2.3,943.1-2.3,1387.7,0C1080,174.3,581.4,174.3,136.8,172L136.8,172z"/>
		</g>
		<g>
			<path class="st1" d="M117.1,89.3c466.3-2.3,989.3-2.3,1455.6,0C1106.4,91.6,583.3,91.6,117.1,89.3L117.1,89.3z"/>
		</g>
		<g>
			<path class="st1" d="M185.3,16.1c2.3,347.6,2.3,737.5,0,1085.1C183,753.6,183,363.7,185.3,16.1L185.3,16.1z"/>
		</g>
		<g>
			<path class="st1" d="M89.4,1012.7c350.3-2.3,743.2-2.3,1093.5,0C832.7,1015,439.7,1015,89.4,1012.7L89.4,1012.7z"/>
		</g>
		<g>
			<path class="st1" d="M1493.1,0c2.3,275.7,2.4,557.8,0,833.5C1490.7,557.8,1490.8,275.7,1493.1,0L1493.1,0z"/>
		</g>
		<g>
			<path class="st1" d="M336.2,943.9c357.1-2.3,757.7-2.3,1114.8,0C1093.9,946.2,693.3,946.2,336.2,943.9L336.2,943.9z"/>
		</g>
		<g>
			<path class="st1" d="M393.6,287.7c2.3,249.8,2.4,505.4,0,755.2C391.2,793.1,391.3,537.5,393.6,287.7L393.6,287.7z"/>
		</g>
		<g>
			<path class="st1" d="M1393.9,277c2.3,237.2,2.4,479.9,0,717.1C1391.5,756.8,1391.5,514.1,1393.9,277L1393.9,277z"/>
		</g>
		<g>
			<path class="st1" d="M162.7,306.8c451.6-2.3,958.3-2.3,1409.9,0C1121,309.1,614.4,309.1,162.7,306.8L162.7,306.8z"/>
		</g>
	</g>
</g>
<polygon class="st2" points="1428.8,709.3 2,707.8 2,399.7 1428.8,399.7 "/>
<g>
	<path class="st3" d="M1428.8,398.5h-13.3v1.2h13.3V398.5L1428.8,398.5z M1402.2,398.5h-13.3v1.2h13.3V398.5L1402.2,398.5z
		 M1375.7,398.5h-13.3v1.2h13.3V398.5L1375.7,398.5z M1349.1,398.5h-13.3v1.2h13.3V398.5L1349.1,398.5z M1322.5,398.5h-13.3v1.2
		h13.3V398.5L1322.5,398.5z M1295.9,398.5h-13.3v1.2h13.3V398.5L1295.9,398.5z M1269.4,398.5h-13.3v1.2h13.3V398.5L1269.4,398.5z
		 M1242.8,398.5h-13.3v1.2h13.3V398.5L1242.8,398.5z M1216.2,398.5H1203v1.2h13.3V398.5L1216.2,398.5z M1189.7,398.5h-13.3v1.2h13.3
		V398.5L1189.7,398.5z M1163.1,398.5h-13.3v1.2h13.3V398.5L1163.1,398.5z M1136.5,398.5h-13.3v1.2h13.3V398.5L1136.5,398.5z
		 M1110,398.5h-13.3v1.2h13.3V398.5L1110,398.5z M1083.4,398.5h-13.3v1.2h13.3V398.5L1083.4,398.5z M1056.8,398.5h-13.3v1.2h13.3
		V398.5L1056.8,398.5z M1030.3,398.5H1017v1.2h13.3V398.5L1030.3,398.5z M1003.7,398.5h-13.3v1.2h13.3V398.5L1003.7,398.5z
		 M977.1,398.5h-13.3v1.2h13.3V398.5L977.1,398.5z M950.5,398.5h-13.3v1.2h13.3V398.5L950.5,398.5z M924,398.5h-13.3v1.2H924V398.5
		L924,398.5z M897.4,398.5h-13.3v1.2h13.3V398.5L897.4,398.5z M870.8,398.5h-13.3v1.2h13.3V398.5L870.8,398.5z M844.3,398.5H831v1.2
		h13.3V398.5L844.3,398.5z M817.7,398.5h-13.3v1.2h13.3V398.5L817.7,398.5z M791.1,398.5h-13.3v1.2h13.3V398.5L791.1,398.5z
		 M764.6,398.5h-13.3v1.2h13.3V398.5L764.6,398.5z M738,398.5h-13.3v1.2H738V398.5L738,398.5z M711.4,398.5h-13.3v1.2h13.3V398.5
		L711.4,398.5z M684.9,398.5h-13.3v1.2h13.3V398.5L684.9,398.5z M658.3,398.5H645v1.2h13.3V398.5L658.3,398.5z M631.7,398.5h-13.3
		v1.2h13.3V398.5L631.7,398.5z M605.1,398.5h-13.3v1.2h13.3V398.5L605.1,398.5z M578.6,398.5h-13.3v1.2h13.3V398.5L578.6,398.5z
		 M552,398.5h-13.3v1.2H552V398.5L552,398.5z M525.4,398.5h-13.3v1.2h13.3V398.5L525.4,398.5z M498.9,398.5h-13.3v1.2h13.3V398.5
		L498.9,398.5z M472.3,398.5H459v1.2h13.3V398.5L472.3,398.5z M445.7,398.5h-13.3v1.2h13.3V398.5L445.7,398.5z M419.2,398.5h-13.3
		v1.2h13.3V398.5L419.2,398.5z M392.6,398.5h-13.3v1.2h13.3V398.5L392.6,398.5z M366,398.5h-13.3v1.2H366V398.5L366,398.5z
		 M339.5,398.5h-13.3v1.2h13.3V398.5L339.5,398.5z M312.9,398.5h-13.3v1.2h13.3V398.5L312.9,398.5z M286.3,398.5H273v1.2h13.3V398.5
		L286.3,398.5z M259.7,398.5h-13.3v1.2h13.3V398.5L259.7,398.5z M233.2,398.5h-13.3v1.2h13.3V398.5L233.2,398.5z M206.6,398.5h-13.3
		v1.2h13.3V398.5L206.6,398.5z M180,398.5h-13.3v1.2H180V398.5L180,398.5z M153.5,398.5h-13.3v1.2h13.3V398.5L153.5,398.5z
		 M126.9,398.5h-13.3v1.2h13.3V398.5L126.9,398.5z M100.3,398.5H87v1.2h13.3V398.5L100.3,398.5z M73.8,398.5H60.5v1.2h13.3V398.5
		L73.8,398.5z M47.2,398.5H33.9v1.2h13.3V398.5L47.2,398.5z M20.6,398.5H7.3v1.2h13.3V398.5L20.6,398.5z M2,407.6H0.8v13.3H2V407.6
		L2,407.6z M2,434.2H0.8v13.3H2V434.2L2,434.2z M2,460.7H0.8V474H2V460.7L2,460.7z M2,487.3H0.8v13.3H2V487.3L2,487.3z M2,513.9H0.8
		v13.3H2V513.9L2,513.9z M2,540.5H0.8v13.3H2V540.5L2,540.5z M2,567H0.8v13.3H2V567L2,567z M2,593.6H0.8v13.3H2V593.6L2,593.6z
		 M2,620.2H0.8v13.3H2V620.2L2,620.2z M2,646.7H0.8V660H2V646.7L2,646.7z M2,673.3H0.8v13.3H2V673.3L2,673.3z M2,699.9H0.8v7.9v1.2
		l1.2,0l5.4,0l0-1.2l-5.4,0l0,0V699.9L2,699.9z M20.7,707.8l0,1.2l13.3,0l0-1.2c0,0-10.3,0-12.7,0L20.7,707.8L20.7,707.8z
		 M47.2,707.8l0,1.2l13.3,0l0-1.2L47.2,707.8L47.2,707.8z M73.8,707.9l0,1.2l13.3,0l0-1.2l-13.1,0C73.9,707.9,73.8,707.9,73.8,707.9
		L73.8,707.9z M100.4,707.9l0,1.2l13.3,0l0-1.2l-12.7,0C100.6,707.9,100.4,707.9,100.4,707.9L100.4,707.9z M126.9,707.9l0,1.2
		l13.3,0l0-1.2l-12.3,0C127.3,707.9,126.9,707.9,126.9,707.9L126.9,707.9z M153.5,707.9l0,1.2l13.3,0l0-1.2l-11.9,0
		C154.1,707.9,153.5,707.9,153.5,707.9L153.5,707.9z M180.1,708l0,1.2l13.3,0l0-1.2l-11.3,0C180.8,708,180.1,708,180.1,708
		L180.1,708z M206.6,708l0,1.2l13.3,0l0-1.2l-10.9,0C207.6,708,206.6,708,206.6,708L206.6,708z M233.2,708l0,1.2l13.3,0l0-1.2
		l-10.7,0C234.3,708,233.2,708,233.2,708L233.2,708z M259.8,708l0,1.2l13.3,0l0-1.2l-10.2,0C261.1,708.1,259.8,708,259.8,708
		L259.8,708z M286.3,708.1l0,1.2l13.3,0l0-1.2l-9.8,0C287.9,708.1,286.3,708.1,286.3,708.1L286.3,708.1z M312.9,708.1l0,1.2l13.3,0
		l0-1.2l-9.3,0c0,0,0,0-0.1,0l-0.1,0C314.6,708.1,312.9,708.1,312.9,708.1L312.9,708.1z M339.5,708.1l0,1.2l13.3,0l0-1.2l-8.9,0
		C341.4,708.1,339.5,708.1,339.5,708.1L339.5,708.1z M366.1,708.2l0,1.2l13.3,0l0-1.2l-8.5,0C368.2,708.2,366.1,708.2,366.1,708.2
		L366.1,708.2z M392.6,708.2l0,1.2l13.3,0l0-1.2l-8.1,0c0,0-0.1,0-0.1,0h0C394.9,708.2,392.6,708.2,392.6,708.2L392.6,708.2z
		 M419.2,708.2l0,1.2l13.3,0l0-1.2l-7.6,0C421.9,708.2,419.2,708.2,419.2,708.2L419.2,708.2z M445.8,708.2l0,1.2l13.3,0l0-1.2
		l-7.1,0C448.8,708.2,445.8,708.2,445.8,708.2L445.8,708.2z M472.3,708.3l0,1.2l13.3,0l0-1.2l-6.6,0h0l-0.1,0
		C475.6,708.3,472.3,708.3,472.3,708.3L472.3,708.3z M498.9,708.3l0,1.2l13.3,0l0-1.2l-6.3,0c0,0,0,0,0,0l-0.1,0
		C502.4,708.3,498.9,708.3,498.9,708.3L498.9,708.3z M525.5,708.3l0,1.2l13.3,0l0-1.2l-6,0C529.3,708.3,525.5,708.3,525.5,708.3
		L525.5,708.3z M552,708.4l0,1.2l13.3,0l0-1.2l-5.6,0C556.1,708.4,552,708.4,552,708.4L552,708.4z M578.6,708.4l0,1.2l13.3,0l0-1.2
		l-5.2,0C582.9,708.4,578.6,708.4,578.6,708.4L578.6,708.4z M605.2,708.4l0,1.2l13.3,0l0-1.2l-4.7,0c0,0-0.1,0-0.1,0l-0.1,0
		C609.8,708.4,605.2,708.4,605.2,708.4L605.2,708.4z M631.7,708.4l0,1.2l13.3,0l0-1.2l-4.2,0c0,0,0,0-0.1,0l-0.1,0
		C636.8,708.4,631.7,708.4,631.7,708.4L631.7,708.4z M658.3,708.5l0,1.2l13.3,0l0-1.2l-3.9,0C663.8,708.5,658.3,708.5,658.3,708.5
		L658.3,708.5z M684.9,708.5l0,1.2l13.3,0l0-1.2l-3.6,0C690.6,708.5,684.9,708.5,684.9,708.5L684.9,708.5z M711.5,708.5l0,1.2
		l13.3,0l0-1.2l-3,0c0,0-0.1,0-0.1,0h0C717.7,708.5,711.5,708.5,711.5,708.5L711.5,708.5z M738,708.5l0,1.2l13.3,0l0-1.2l-2.6,0
		c0,0,0,0,0,0l-0.1,0C744.8,708.6,738,708.5,738,708.5L738,708.5z M764.6,708.6l0,1.2l13.3,0l0-1.2l-2.1,0c0,0,0,0,0,0l-0.1,0
		c-0.1,0-0.1,0-0.2,0l0,0C771.7,708.6,764.6,708.6,764.6,708.6L764.6,708.6z M791.2,708.6l0,1.2l13.3,0l0-1.2l-1.8,0
		C799,708.6,791.2,708.6,791.2,708.6L791.2,708.6z M817.7,708.6l0,1.2l13.3,0l0-1.2l-1.4,0c0,0,0,0-0.1,0h0
		C826.1,708.6,817.7,708.6,817.7,708.6L817.7,708.6z M844.3,708.7l0,1.2l13.3,0l0-1.2l-1,0c0,0,0,0,0,0l-0.1,0
		C853.3,708.7,844.3,708.7,844.3,708.7L844.3,708.7z M870.9,708.7l0,1.2l13.3,0l0-1.2l-0.5,0C881.3,708.7,870.9,708.7,870.9,708.7
		L870.9,708.7z M897.4,708.7l0,1.2l13.3,0l0-1.2c0,0,0,0,0,0l0,0C909.5,708.7,897.4,708.7,897.4,708.7L897.4,708.7z M924,708.7
		l0,1.2l13.3,0l0-1.2c0,0-0.1,0-0.3,0L924,708.7L924,708.7z M950.6,708.8l0,1.2l13.3,0l0-1.2c0,0-0.3,0-0.7,0L950.6,708.8
		L950.6,708.8z M977.1,708.8l0,1.2l13.3,0l0-1.2c0,0-0.4,0-1,0L977.1,708.8L977.1,708.8z M1003.7,708.8l0,1.2l13.3,0l0-1.2
		c0,0-0.6,0-1.5,0l-0.1,0c0,0,0,0,0,0L1003.7,708.8L1003.7,708.8z M1030.3,708.8l0,1.2l13.3,0l0-1.2c0,0-0.7,0-1.9,0l-0.1,0
		c0,0,0,0,0,0l-0.1,0c0,0,0,0,0,0L1030.3,708.8L1030.3,708.8z M1056.9,708.9l0,1.2l13.3,0l0-1.2c0,0-0.9,0-2.3,0h0c0,0-0.1,0-0.1,0
		L1056.9,708.9L1056.9,708.9z M1083.4,708.9l0,1.2l13.3,0l0-1.2c0,0-1.1,0-2.7,0L1083.4,708.9L1083.4,708.9z M1110,708.9l0,1.2
		l13.3,0l0-1.2c0,0-1.3,0-3.1,0L1110,708.9L1110,708.9z M1136.6,709l0,1.2l13.3,0l0-1.2c0,0-1.5,0-3.5,0l-0.1,0c0,0,0,0,0,0
		L1136.6,709L1136.6,709z M1163.1,709l0,1.2l13.3,0l0-1.2c0,0-1.7,0-3.9,0L1163.1,709L1163.1,709z M1189.7,709l0,1.2l13.3,0l0-1.2
		c0,0-2,0-4.4,0L1189.7,709L1189.7,709z M1216.3,709l0,1.2l13.3,0l0-1.2c0,0-2.1,0-4.7,0l-0.1,0c0,0,0,0,0,0L1216.3,709L1216.3,709z
		 M1242.8,709.1l0,1.2l13.3,0l0-1.2c0,0-2.4,0-5.1,0L1242.8,709.1L1242.8,709.1z M1269.4,709.1l0,1.2l13.3,0l0-1.2c0,0-2.6,0-5.6,0
		L1269.4,709.1L1269.4,709.1z M1296,709.1l0,1.2l13.3,0l0-1.2c0,0-2.8,0-5.9,0l-0.1,0c0,0,0,0,0,0L1296,709.1L1296,709.1z
		 M1322.5,709.1l0,1.2l13.3,0l0-1.2c0,0-3.2,0-6.5,0L1322.5,709.1L1322.5,709.1z M1349.1,709.2l0,1.2l13.3,0l0-1.2c0,0-3.5,0-7,0
		L1349.1,709.2L1349.1,709.2z M1375.7,709.2l0,1.2l13.3,0l0-1.2c0,0-3.8,0-7.3,0L1375.7,709.2L1375.7,709.2z M1402.3,709.2l0,1.2
		l13.3,0l0-1.2c0,0-4,0-7.6,0L1402.3,709.2L1402.3,709.2z M1430,695.9h-1.2v13.3h1.2V695.9L1430,695.9z M1430,669.4h-1.2v13.3h1.2
		V669.4L1430,669.4z M1430,642.8h-1.2v13.3h1.2V642.8L1430,642.8z M1430,616.2h-1.2v13.3h1.2V616.2L1430,616.2z M1430,589.7h-1.2
		v13.3h1.2V589.7L1430,589.7z M1430,563.1h-1.2v13.3h1.2V563.1L1430,563.1z M1430,536.5h-1.2v13.3h1.2V536.5L1430,536.5z M1430,510
		h-1.2v13.3h1.2V510L1430,510z M1430,483.4h-1.2v13.3h1.2V483.4L1430,483.4z M1430,456.8h-1.2v13.3h1.2V456.8L1430,456.8z
		 M1430,430.2h-1.2v13.3h1.2V430.2L1430,430.2z M1430,403.7h-1.2V417h1.2V403.7L1430,403.7z"/>
</g>
<rect x="231.4" y="195.2" class="st2" width="383" height="87.7"/>
<g>
	<path class="st3" d="M614.4,193.9h-14v1.2h14V193.9L614.4,193.9z M586.4,193.9h-14v1.2h14V193.9L586.4,193.9z M558.4,193.9h-14v1.2
		h14V193.9L558.4,193.9z M530.4,193.9h-14v1.2h14V193.9L530.4,193.9z M502.4,193.9h-14v1.2h14V193.9L502.4,193.9z M474.5,193.9h-14
		v1.2h14V193.9L474.5,193.9z M446.5,193.9h-14v1.2h14V193.9L446.5,193.9z M418.5,193.9h-14v1.2h14V193.9L418.5,193.9z M390.5,193.9
		h-14v1.2h14V193.9L390.5,193.9z M362.5,193.9h-14v1.2h14V193.9L362.5,193.9z M334.5,193.9h-14v1.2h14V193.9L334.5,193.9z
		 M306.5,193.9h-14v1.2h14V193.9L306.5,193.9z M278.5,193.9h-14v1.2h14V193.9L278.5,193.9z M250.5,193.9h-14v1.2h14V193.9
		L250.5,193.9z M231.4,204h-1.2v14h1.2V204L231.4,204z M231.4,232h-1.2v14h1.2V232L231.4,232z M231.4,260h-1.2v14h1.2V260L231.4,260
		z M250.5,282.9h-14v1.2h14V282.9L250.5,282.9z M278.5,282.9h-14v1.2h14V282.9L278.5,282.9z M306.5,282.9h-14v1.2h14V282.9
		L306.5,282.9z M334.5,282.9h-14v1.2h14V282.9L334.5,282.9z M362.4,282.9h-14v1.2h14V282.9L362.4,282.9z M390.4,282.9h-14v1.2h14
		V282.9L390.4,282.9z M418.4,282.9h-14v1.2h14V282.9L418.4,282.9z M446.4,282.9h-14v1.2h14V282.9L446.4,282.9z M474.4,282.9h-14v1.2
		h14V282.9L474.4,282.9z M502.4,282.9h-14v1.2h14V282.9L502.4,282.9z M530.4,282.9h-14v1.2h14V282.9L530.4,282.9z M558.4,282.9h-14
		v1.2h14V282.9L558.4,282.9z M586.4,282.9h-14v1.2h14V282.9L586.4,282.9z M614.4,282.9h-14v1.2h14V282.9L614.4,282.9z M615.7,254.9
		h-1.2v14h1.2V254.9L615.7,254.9z M615.7,227h-1.2v14h1.2V227L615.7,227z M615.7,199h-1.2v14h1.2V199L615.7,199z"/>
</g>
<line class="st4" x1="253" y1="394" x2="379.5" y2="282.9"/>
<g>
	<g class="st5">
		<rect x="1106.2" y="462" class="st6" width="246.3" height="184.7"/>
	</g>
	<g>
		<path class="st3" d="M1352.5,462v184.7h-246.3V462H1352.5 M1355.5,459h-3h-246.3h-3v3v184.7v3h3h246.3h3v-3V462V459L1355.5,459z"
			/>
	</g>
	<g>
		<circle class="st7" cx="1228.3" cy="548.3" r="46.4"/>
		<g>
			<path class="st8" d="M1262.5,579.6c-4.6,1-9.7,1.5-14.3,1.5c-8.7,0-17.2-1.8-25.3-5.3c-6.6-2.9-11.2-6.2-13.4-7.9l-1.1-0.9
				l0.8-1.2c7-10,15-15.3,18.2-17.1l0.8-0.4l0.8,0.4c3,1.8,14,7.5,29.1,7.5c4.4,0,9.1-0.6,14-1.8l2.2-0.5"/>
			<path class="st8" d="M1238,503l0.3,0.4c19.1,21,17.2,44.7,16.2,51.4l-0.2,1.4"/>
			<path class="st8" d="M1221.9,521.8c-2.4-4.8-5.7-9.8-10.2-14.5l-1.6-1.7"/>
			<path class="st8" d="M1228.2,548.3l0-0.8c0-2.7-0.3-13.6-6.4-25.7"/>
			<path class="st8" d="M1184.1,562.5l0.1-0.5c8.6-27,30.1-37.2,36.4-39.6l1.3-0.5"/>
			<path class="st8" d="M1208.5,567c-2.9,4.5-5.6,10-7.4,16.3l-0.6,2.2"/>
		</g>
	</g>
	<g>
		<path class="st9" d="M1305.1,524.6l-73.4,73.4c-3.1,3.1-0.9,8.5,3.5,8.4l73-0.4c2.7,0,4.9-2.2,4.9-4.9l0.5-73
			C1313.6,523.7,1308.2,521.4,1305.1,524.6z M1293.7,586.2c0,0.2-0.2,0.4-0.4,0.4h-22.9c-0.3,0-0.5-0.4-0.3-0.6l22.9-22.8
			c0.2-0.2,0.6-0.1,0.6,0.3V586.2z"/>
		<g>
			<g>
				<line class="st10" x1="1286" y1="543" x2="1290.9" y2="547.9"/>
				<line class="st10" x1="1298" y1="531" x2="1302.9" y2="536"/>
				<line class="st10" x1="1274" y1="555" x2="1278.9" y2="559.9"/>
				<line class="st10" x1="1262" y1="567" x2="1266.9" y2="571.9"/>
				<line class="st10" x1="1250" y1="579" x2="1254.9" y2="583.9"/>
				<line class="st10" x1="1238" y1="591" x2="1243" y2="595.9"/>
			</g>
			<g>
				<path class="st11" d="M1308.6,523.1c2.6,0,5,2,5,5l-0.5,73c0,2.7-2.2,4.9-4.9,4.9l-73,0.4c0,0,0,0,0,0c-4.4,0-6.6-5.3-3.5-8.4
					l73.4-73.4C1306.1,523.6,1307.3,523.1,1308.6,523.1 M1270.4,586.6h22.9c0.2,0,0.4-0.2,0.4-0.4v-22.8c0-0.2-0.2-0.4-0.4-0.4
					c-0.1,0-0.2,0-0.3,0.1l-22.9,22.8C1269.9,586.2,1270.1,586.6,1270.4,586.6 M1308.6,521.1c-1.8,0-3.6,0.7-4.9,2l-73.4,73.4
					c-2,2-2.6,4.9-1.5,7.6c1.1,2.6,3.6,4.3,6.4,4.3l73-0.4c3.8,0,6.9-3.1,6.9-6.9l0.5-73c0-1.9-0.7-3.6-2-4.9
					C1312.2,521.9,1310.4,521.1,1308.6,521.1L1308.6,521.1z M1274.4,584.6l17.3-17.3v17.3H1274.4L1274.4,584.6z"/>
			</g>
		</g>
	</g>
	<g>
		<g class="st12">
			<path class="st13" d="M1149.3,603.5c-0.8,0-1.6-1-1.6-2.5s0.9-2.5,1.6-2.5h4.2l23.6-72.5c0.3-0.8,0.9-1.4,1.4-1.4h2.8
				c0.6,0,1.2,0.6,1.5,1.4l23.6,72.5h4.2c0.8,0,1.6,1,1.6,2.5s-0.9,2.5-1.6,2.5H1149.3z"/>
		</g>
		<g>
			<polygon class="st14" points="1155.4,583.4 1172.1,532.3 1187.8,532.3 1204.4,583.4 			"/>
			<g>
				<path class="st15" d="M1168.6,542.8l3.4-10.6l2.4-7.2c0.7-2,2.3-3.4,4.1-3.4h2.8c1.8,0,3.4,1.3,4.1,3.4l5.8,17.8H1168.6z"/>
				<polygon class="st15" points="1165.2,553.4 1194.6,553.4 1199.8,569.3 1160,569.3 1165.2,553.4 				"/>
				<path class="st15" d="M1151.4,595.7l5.2-15.9h46.7l5.2,15.9h2.2c2.4,0,4.4,2.4,4.4,5.3s-2,5.3-4.4,5.3h-61.4
					c-2.4,0-4.4-2.4-4.4-5.3s2-5.3,4.4-5.3H1151.4z"/>
			</g>
		</g>
	</g>
	<path class="st16" d="M1156.6,547.8"/>
</g>
<g>
	<g class="st5">
		<rect x="765.6" y="463.8" class="st6" width="246.3" height="184.7"/>
	</g>
	<g class="st17">
		<circle class="st18" cx="968" cy="507.1" r="13.7"/>
	</g>
	<circle class="st19" cx="968" cy="507.1" r="15.6"/>
	<polygon class="st20" points="818.8,648.5 923,541.6 1011.9,622.2 1011.9,648.5 	"/>
	<g>
		<polygon class="st14" points="952.9,568.6 923.1,541.6 896.4,568.9 		"/>
	</g>
	<g>
		<path class="st21" d="M923,541.6l88.9,80.6v26.3H818.8L923,541.6 M922.9,538.8l-1.3,1.4l-104.2,107l-3.3,3.4h4.7h193.1h2v-2v-26.3
			v-0.9l-0.7-0.6l-88.9-80.6L922.9,538.8L922.9,538.8z"/>
	</g>
	<g class="st22">
		<polygon class="st23" points="768.1,646 768.1,572 817.3,521.5 946.8,646 		"/>
	</g>
	<polygon class="st24" points="765.6,571 817.2,518 952.9,648.5 765.6,648.5 	"/>
	<g>
		<polygon class="st14" points="855.9,555.3 817.2,518 781,555.3 		"/>
	</g>
	<g>
		<path class="st25" d="M817.2,518l135.7,130.5H765.6V571L817.2,518 M817.2,515.2l-1.4,1.4l-51.6,53l-0.6,0.6v0.8v77.5v2h2h187.3h5
			l-3.6-3.4L818.6,516.6L817.2,515.2L817.2,515.2z"/>
	</g>
	<g>
		<path class="st3" d="M1011.9,463.8v184.7H765.6V463.8H1011.9 M1014.9,460.8h-3H765.6h-3v3v184.7v3h3h246.3h3v-3V463.8V460.8
			L1014.9,460.8z"/>
	</g>
</g>
<g>
	<g class="st26">
		<rect x="424.1" y="462.9" class="st6" width="246.3" height="184.7"/>
	</g>
	<g>
		<path class="st3" d="M670.4,462.9v184.7H424.1V462.9H670.4 M673.4,459.9h-3H424.1h-3v3v184.7v3h3h246.3h3v-3V462.9V459.9
			L673.4,459.9z"/>
	</g>
	<g>
		<g>
			<rect x="463.8" y="499.7" class="st27" width="166.8" height="111.2"/>
		</g>
		<circle class="st19" cx="595.9" cy="529.2" r="13.9"/>
		<polygon class="st28" points="538.6,610.8 590.9,565.6 630.6,599.6 630.6,610.8 		"/>
		<polygon class="st28" points="463.8,572.3 497.3,543.1 562.4,610.8 463.8,610.8 		"/>
		<g>
			<path class="st29" d="M630.6,499.7v111.2H463.8V499.7H630.6 M632.6,497.7h-2H463.8h-2v2v111.2v2h2h166.8h2v-2V499.7V497.7
				L632.6,497.7z"/>
		</g>
	</g>
</g>
<g>
	<g class="st30">
		<rect x="92.9" y="450.7" class="st27" width="248.8" height="187.2"/>
		<path class="st3" d="M340.5,452v184.7H94.2V452H340.5 M343,449.5h-2.5H94.2h-2.5v2.5v184.7v2.5h2.5h246.3h2.5v-2.5V452V449.5
			L343,449.5z"/>
	</g>
	<g class="st5">
		<rect x="72.7" y="471.5" class="st6" width="246.2" height="184.7"/>
	</g>
	<g>
		<path class="st3" d="M319,471.5v184.7H72.7V471.5H319 M322,468.5h-3H72.7h-3v3v184.7v3h3H319h3v-3V471.5V468.5L322,468.5z"/>
	</g>
	<g>
		<g>
			<rect x="112.5" y="508.2" class="st27" width="166.7" height="111.1"/>
		</g>
		<circle class="st19" cx="244.5" cy="537.7" r="13.9"/>
		<polygon class="st28" points="187.3,619.4 239.6,574.1 279.2,608.1 279.2,619.4 		"/>
		<polygon class="st28" points="112.5,580.9 145.9,551.6 211.1,619.4 112.5,619.4 		"/>
		<rect x="112.5" y="508.2" class="st31" width="166.7" height="111.1"/>
	</g>
</g>
<g>
	<g class="st12">
		<polygon class="st32" points="308.5,689.8 288.1,718 273.9,619.9 354.1,678.1 319.7,683 363,754.8 351.9,761.5 		"/>
	</g>
	<g>
		<polygon class="st3" points="308.1,699.7 284.7,732.1 266.6,607.8 368.2,681.6 328.6,687.3 370.5,756.7 350,769 		"/>
		<path class="st14" d="M269.9,613.3l91.9,66.8l-29.9,4.3l-7.4,1.1l3.9,6.4l38.7,64.1l-16.3,9.8l-38.7-64.1l-3.9-6.4l-4.4,6
			l-17.7,24.5L269.9,613.3 M263.3,602.4l19.8,136.1l24.8-34.4l41.3,68.3l24.7-14.9l-41.3-68.3l42-6L263.3,602.4L263.3,602.4z"/>
	</g>
</g>
</svg>
