<?xml version="1.0" encoding="utf-8"?>
<!-- Generator: Adobe Illustrator 27.3.1, SVG Export Plug-In . SVG Version: 6.00 Build 0)  -->
<svg version="1.1" id="Laag_1" xmlns="http://www.w3.org/2000/svg" xmlns:xlink="http://www.w3.org/1999/xlink" x="0px" y="0px"
	 viewBox="0 0 1344.9 1212.8" style="enable-background:new 0 0 1344.9 1212.8;" xml:space="preserve">
<style type="text/css">
	.st0{fill:#FCFCFA;}
	.st1{fill:#FFFFFF;}
	.st2{fill:#EFF3F4;}
	.st3{fill:#B8D6DD;}
	.st4{opacity:0.75;}
	.st5{fill:#A7CBD1;}
	.st6{fill:#E6EEEF;}
	.st7{fill:#A1CBE2;}
	.st8{fill:none;stroke:#A87390;stroke-width:3.4249;stroke-miterlimit:10;}
	.st9{fill:#E6EEEF;stroke:#A7CBD1;stroke-width:3;stroke-miterlimit:10;}
	.st10{opacity:0.85;filter:url(#Slide);}
	.st11{fill:#EFEDE6;}
	.st12{fill:#353531;}
	.st13{fill:#F7F7F5;}
	.st14{fill:#E8D98B;stroke:#C6814E;stroke-width:2;stroke-miterlimit:10;}
	.st15{fill:#98D0EF;stroke:#5892BE;stroke-width:2;stroke-miterlimit:10;}
	.st16{fill:#3D3D3A;}
	.st17{filter:url(#Pion);}
	.st18{fill:#68644F;}
	.st19{fill:#1D1D1B;}
	.st20{fill:#F7F7F5;stroke:#282722;stroke-width:1.7124;stroke-miterlimit:10;}
</style>
<filter  height="150%" id="Slide" width="150%" x="-25%" y="-25%">
	<feOffset  dx="5" dy="-5" in="SourceGraphic" result="offOut"></feOffset>
	<feColorMatrix  in="offOut" result="matrixOut" type="matrix" values="0.45 0 0 0 0 0 0.5 0 0 0 0 0 0.35 0 0 0 0 0 0.8 0">
		</feColorMatrix>
	<feGaussianBlur  in="matrixOut" result="blurOut" stdDeviation="16"></feGaussianBlur>
	<feBlend  in="SourceGraphic" in2="blurOut" mode="normal"></feBlend>
</filter>
<filter  height="200%" id="Pion" width="200%" x="-25%" y="-25%">
	<feOffset  dx="7" dy="-5" in="SourceGraphic" result="offOut"></feOffset>
	<feColorMatrix  in="offOut" result="matrixOut" type="matrix" values="0.6 0 0 0 0 0 0.6 0 0 0 0 0 0.3 0 0 0 0 0 0.9 0">
		</feColorMatrix>
	<feGaussianBlur  in="matrixOut" result="blurOut" stdDeviation="10"></feGaussianBlur>
	<feBlend  in="SourceGraphic" in2="blurOut" mode="normal"></feBlend>
</filter>
<g>
	<rect x="61.3" y="163.5" class="st0" width="1228.7" height="937.9"/>
</g>
<rect x="894.8" y="796.4" class="st1" width="309.1" height="231.4"/>
<rect x="529.4" y="796.4" class="st1" width="309.1" height="231.4"/>
<rect x="894.8" y="515.6" class="st1" width="309.1" height="231.4"/>
<rect x="894.8" y="235.3" class="st1" width="309.1" height="231.4"/>
<g>
	<rect x="61.3" y="68.5" class="st2" width="1228.7" height="95"/>
</g>
<rect x="115.7" y="234.9" class="st1" width="329.3" height="795"/>
<rect x="529.4" y="234.9" class="st1" width="309.1" height="231.4"/>
<g>
	<path class="st3" d="M861,466.7c-110.1,2-221.5,2.1-331.6,0C639.6,464.7,750.9,464.7,861,466.7L861,466.7z"/>
</g>
<g class="st4">
	<path class="st3" d="M838.5,1028.1c-77.7,0.4-232.6,1.1-310.3,1.3c0,0,0-1.3,0-1.3s-0.2-231.8-0.2-231.8s0-1.5,0-1.5s1.5,0,1.5,0
		S684,795,684,795c39,0,116.5,0.1,155.6,0.3C839.3,853.6,838.9,969.9,838.5,1028.1L838.5,1028.1z M838.5,1028.1
		c-0.4-57.8-0.8-174-1-231.8c0,0,1,1,1,1c-38.5,0.2-116,0.3-154.5,0.3c0,0-154.5,0.2-154.5,0.2s1.5-1.5,1.5-1.5
		s-0.2,231.8-0.2,231.8s-1.3-1.3-1.3-1.3C606.5,1027,761.5,1027.8,838.5,1028.1L838.5,1028.1z"/>
</g>
<g>
	<path class="st3" d="M861,1028.1c-110.1,2-221.5,2.1-331.6,0C639.6,1026.1,750.9,1026.1,861,1028.1L861,1028.1z"/>
</g>
<g>
	<path class="st3" d="M1226.4,466.7c-110.1,2-221.5,2.1-331.6,0C1005,464.7,1116.3,464.7,1226.4,466.7L1226.4,466.7z"/>
</g>
<g class="st4">
	<path class="st3" d="M1203.9,1028.1c-77.7,0.4-232.6,1.1-310.3,1.3c0,0,0-1.3,0-1.3s-0.2-231.8-0.2-231.8s0-1.5,0-1.5s1.5,0,1.5,0
		s154.5,0.2,154.5,0.2c39,0,116.5,0.1,155.6,0.3C1204.7,853.6,1204.3,969.9,1203.9,1028.1L1203.9,1028.1z M1203.9,1028.1
		c-0.4-57.8-0.8-174-1-231.8c0,0,1,1,1,1c-38.5,0.2-116,0.3-154.5,0.3c0,0-154.5,0.2-154.5,0.2s1.5-1.5,1.5-1.5
		s-0.2,231.8-0.2,231.8l-1.3-1.3C971.9,1027,1126.9,1027.8,1203.9,1028.1L1203.9,1028.1z"/>
</g>
<g>
	<path class="st3" d="M1226.4,1028.1c-110.1,2-221.5,2.1-331.6,0C1005,1026.1,1116.3,1026.1,1226.4,1028.1L1226.4,1028.1z"/>
</g>
<g>
	<g>
		<g>
			<path class="st5" d="M218.9,336.9c18.9-0.3,56.7-0.9,75.6-1c25.2-0.5,50.5-0.6,75.6,1.1c0,0,0,0.3,0,0.3
				c-3.2,0.2-6.3,0.4-9.5,0.5c0,0-9.5,0.4-9.5,0.4c-18.9,0.7-37.8,0.5-56.7,0.2c-18.8-0.2-56.8-0.7-75.6-1
				C218.9,337.2,218.9,336.9,218.9,336.9L218.9,336.9z"/>
		</g>
		<g>
			<path class="st5" d="M174.9,397.8c58.9-0.4,124.3-2.5,183-0.5c4.1,0.2,8.1,0.3,12.2,0.5v0.3c-4.1,0.2-8.1,0.4-12.2,0.5
				c-28.4,1-57,1-85.4,0.5C248.4,398.7,198.4,399,174.9,397.8L174.9,397.8z"/>
		</g>
		<g>
			<path class="st5" d="M174.9,458.7c58.9-0.4,124.3-2.5,183-0.5c4.1,0.2,8.1,0.3,12.2,0.5v0.3c-4.1,0.2-8.1,0.4-12.2,0.5
				c-28.4,1-57,1-85.4,0.5C248.4,459.6,198.4,459.9,174.9,458.7L174.9,458.7z"/>
		</g>
		<g>
			<path class="st5" d="M174.9,514.2c58.9-0.4,124.3-2.5,183-0.5c4.1,0.2,8.1,0.3,12.2,0.5v0.3c-4.1,0.2-8.1,0.4-12.2,0.5
				c-28.4,1-57,1-85.4,0.5C248.4,515,198.4,515.4,174.9,514.2L174.9,514.2z"/>
		</g>
		<g>
			<path class="st5" d="M174.9,569.6c58.9-0.4,124.3-2.5,183-0.5c4.1,0.2,8.1,0.3,12.2,0.5c0,0,0,0.3,0,0.3
				c-4.1,0.2-8.1,0.4-12.2,0.5c-28.4,1-57,1-85.4,0.5C248.4,570.5,198.4,570.8,174.9,569.6L174.9,569.6z"/>
		</g>
	</g>
	<g>
		<g>
			<path class="st5" d="M479.7,1029.9c-90.8,0.4-273.2,1.3-364,1.3c0,0-1.3,0-1.3,0s0-1.3,0-1.3S114.2,822,114.2,822
				c0.1-151.1,0.2-369.5,1-519.8c0,0,0.5-104,0.5-104s0.5,104,0.5,104c0.4,67.8,0.6,241.5,0.8,311.9c0.2,103.6,0.1,312.3,0,415.9
				c0,0-1.3-1.3-1.3-1.3C206.4,1028.6,389,1029.5,479.7,1029.9L479.7,1029.9z"/>
		</g>
		<g>
			<path class="st5" d="M445,191.6c2,281.2,2,596.7,0,877.9C443,788.2,443.1,472.8,445,191.6L445,191.6z"/>
		</g>
		<g>
			<path class="st5" d="M93.1,234.9c126.1-2,255.2-2,381.3,0C348.3,237,219.3,236.9,93.1,234.9L93.1,234.9z"/>
		</g>
	</g>
	<g class="st4">
		<path class="st5" d="M561.7,234.9c69.7-0.4,208.4-1.2,278.1-1.3c0,0,0,1.3,0,1.3s0.2,231.8,0.2,231.8s0,1.5,0,1.5
			c-88.3-0.3-223.3,0-310.6-0.5c0,0-1,0-1,0s0-1,0-1c0.2-49.6,0.6-149.4,1-199c0,0,0.6,99.5,0.6,99.5l0.4,99.5c0,0-1-1-1-1
			c38.6-0.2,116-0.3,154.5-0.3c0,0,154.5-0.2,154.5-0.2s-1.5,1.5-1.5,1.5s0.2-231.8,0.2-231.8s1.3,1.3,1.3,1.3
			C769.5,236.1,630.7,235.4,561.7,234.9L561.7,234.9z"/>
	</g>
	<g>
		<path class="st5" d="M529.4,1028.1c-0.7-73.6-1.2-158.2-1.3-231.8c0,0,0-1.3,0-1.3s1.3,0,1.3,0c99.7-0.2,209.6-0.2,309.1,0.3
			c0,0,1,0,1,0s0,1,0,1c-0.2,60.7-0.6,183.1-1,243.8c0,0-0.6-121.9-0.6-121.9s-0.4-121.9-0.4-121.9s1,1,1,1
			c-25.8,0.1-51.5,0.3-77.3,0.3c-71.2,0.2-160.6,0.2-231.8,0c0,0,1.3-1.3,1.3-1.3s-0.2,57.9-0.2,57.9
			C530.4,907.7,530,974.8,529.4,1028.1L529.4,1028.1z"/>
	</g>
	<g class="st4">
		<path class="st5" d="M1203.9,466.9c-77.7,0.4-232.6,1.1-310.3,1.3c0,0,0-1.3,0-1.3s-0.2-231.8-0.2-231.8l0-1.5c0,0,1.5,0,1.5,0
			s154.5,0.2,154.5,0.2c39,0,116.5,0.1,155.6,0.3C1204.7,292.4,1204.3,408.6,1203.9,466.9L1203.9,466.9z M1203.9,466.9
			c-0.4-57.8-0.8-174-1-231.8c0,0,1,1,1,1c-38.5,0.2-116,0.3-154.5,0.3c0,0-154.5,0.2-154.5,0.2s1.5-1.5,1.5-1.5
			s-0.2,231.8-0.2,231.8s-1.3-1.3-1.3-1.3C971.9,465.8,1126.9,466.5,1203.9,466.9L1203.9,466.9z"/>
	</g>
	<g>
		<path class="st5" d="M894.8,1028.1c-0.7-73.6-1.2-158.2-1.3-231.8c0,0,0-1.3,0-1.3s1.3,0,1.3,0c99.7-0.2,209.6-0.2,309.1,0.3
			c0,0,1,0,1,0s0,1,0,1c-0.2,60.7-0.6,183.1-1,243.8c0,0-0.6-121.9-0.6-121.9s-0.4-121.9-0.4-121.9s1,1,1,1
			c-25.8,0.1-51.5,0.3-77.3,0.3c-71.2,0.2-160.6,0.2-231.8,0c0,0,1.3-1.3,1.3-1.3s-0.2,57.9-0.2,57.9
			C895.8,907.7,895.4,974.8,894.8,1028.1L894.8,1028.1z"/>
	</g>
	<g class="st4">
		<path class="st5" d="M1203.9,747.4c-77.7,0.4-232.6,1.1-310.3,1.3c0,0,0-1.3,0-1.3s-0.2-231.8-0.2-231.8s0-1.5,0-1.5s1.5,0,1.5,0
			s154.5,0.2,154.5,0.2c39,0,116.5,0.1,155.6,0.3C1204.7,572.9,1204.3,689.2,1203.9,747.4L1203.9,747.4z M1203.9,747.4
			c-0.4-57.8-0.8-174-1-231.8c0,0,1,1,1,1c-38.5,0.2-116,0.3-154.5,0.3c0,0-154.5,0.2-154.5,0.2s1.5-1.5,1.5-1.5l-0.2,231.8
			l-1.3-1.3C971.9,746.3,1126.9,747.1,1203.9,747.4L1203.9,747.4z"/>
	</g>
</g>
<g>
	<path class="st3" d="M1226.4,747.4c-110.1,2-221.5,2.1-331.6,0C1005,745.4,1116.3,745.4,1226.4,747.4L1226.4,747.4z"/>
</g>
<g>
	<g>
		<g>
			<path class="st5" d="M762.5,318.1c0,15.7-18.9,23.8-30.4,12.9c-7.3-6.7-7.3-19.2,0-25.9C743.6,294.3,762.5,302.4,762.5,318.1
				L762.5,318.1z M762.5,318.1c-0.1-15.3-18.6-22.7-29.2-11.7c-6.2,6.3-6.3,17.2,0,23.4C743.9,340.8,762.4,333.4,762.5,318.1
				L762.5,318.1z"/>
		</g>
		<g>
			<path class="st5" d="M685.8,411.3c11.6-10.8,27.6-25.5,39.3-36.2c4.6-4.2,9.1-8.4,13.7-12.5c0,0,0.6,0.5,0.6,0.5
				s15.3,12.9,15.3,12.9c15.1,13,30.2,26.2,44.9,39.8c-15.7-12.4-31-25.3-46.2-38.3c0,0-15.1-13.1-15.1-13.1l1.1,0
				c-4.4,4-8.9,7.8-13.4,11.8C714.2,386.7,697.8,400.9,685.8,411.3L685.8,411.3z"/>
		</g>
		<g>
			<path class="st5" d="M579.4,420.6c-0.4-14.1-0.5-34.4-0.7-48.7c5.3-4.7,15.7-14,21.1-18.7c0,0,20.9-18.4,20.9-18.4l0.7-0.6
				l0.7,0.6c24.6,24.5,54.9,55.2,79.4,80.1c8.7,9,17.5,17.9,26.2,26.9c-9-8.7-18-17.5-26.9-26.2c-25-24.5-55.5-54.8-80.1-79.4
				c0,0,1.3,0,1.3,0l-21,18.3c-5.2,4.6-15.8,13.7-21.1,18.2c0,0,0.2-0.5,0.2-0.5C580,386.4,579.6,406.6,579.4,420.6L579.4,420.6z"/>
		</g>
		<g>
			<path class="st5" d="M620.3,281.1c48.4-1,98.9-1.1,147.3-0.9c0,0,21,0.2,21,0.2l0.7,0l0,0.7c-0.1,38.1-0.4,114.9-0.7,153.1
				c-0.3-38.2-0.5-114.9-0.7-153.1c0,0,0.7,0.7,0.7,0.7s-21,0.2-21,0.2C719.1,282.2,668.6,282.1,620.3,281.1L620.3,281.1z"/>
		</g>
		<g>
			<path class="st5" d="M799.5,420.6c-55.4,0.3-165.7,0.8-221,0.9c0,0,0-0.9,0-0.9c-0.1-27.2-0.2-57,0.3-84.1
				c0.1-9.3,0.3-18.7,0.6-28c0.3,9.3,0.5,18.7,0.6,28c0.4,27,0.4,56.9,0.2,84.1c0,0-0.9-0.9-0.9-0.9
				C634.2,419.8,744.7,420.3,799.5,420.6L799.5,420.6z"/>
		</g>
	</g>
	<g>
		<g>
			<path class="st5" d="M788.6,982c-52.6,0.3-157.5,0.7-210.1,0.9c0,0,0-0.9,0-0.9s-0.1-139.5-0.1-139.5s0-1,0-1s1,0,1,0
				s104.6,0.1,104.6,0.1c0.8,0.1,104.5,0.2,105.3,0.2C789.1,877,788.8,946.9,788.6,982L788.6,982z M788.6,982l-0.7-139.5
				c0,0,0.7,0.7,0.7,0.7S684,843.4,684,843.4l-104.6,0.1c0,0,1-1,1-1L580.2,982c0,0-0.9-0.9-0.9-0.9
				C631.5,981.3,736.4,981.7,788.6,982L788.6,982z"/>
		</g>
		<g>
			<path class="st5" d="M762.5,879.5c0,15.7-18.9,23.8-30.4,12.9c-7.3-6.7-7.3-19.2,0-25.9C743.6,855.7,762.5,863.8,762.5,879.5
				L762.5,879.5z M762.5,879.5c-0.1-15.3-18.6-22.7-29.2-11.7c-6.2,6.3-6.3,17.2,0,23.4C743.9,902.2,762.4,894.8,762.5,879.5
				L762.5,879.5z"/>
		</g>
		<g>
			<path class="st5" d="M682,976c17.8-16.5,38.3-35.2,56.2-51.5c0,0,0.6-0.5,0.6-0.5l0.6,0.5c9,7.6,21.6,18.3,30.4,26
				c10.1,8.7,20,17.6,29.8,26.7c-10.5-8.3-20.7-16.7-30.9-25.3c-8.8-7.4-21.5-18.3-30.3-26c0,0,1.1,0,1.1,0
				C721.3,941.9,700.4,960.2,682,976L682,976z"/>
		</g>
		<g>
			<path class="st5" d="M579.4,982c-0.4-14.1-0.5-34.4-0.7-48.7c5.3-4.7,15.7-14,21.1-18.7c0,0,20.9-18.4,20.9-18.4l0.7-0.6
				c0,0,0.7,0.6,0.7,0.6c18.2,18.2,40.7,40.9,58.8,59.4c6.4,6.7,12.9,13.3,19.3,20.1c-6.7-6.4-13.4-12.9-20.1-19.3
				c-18.6-18.1-41.2-40.5-59.4-58.7c0,0,1.3,0,1.3,0l-21,18.3c-5.2,4.6-15.8,13.7-21.1,18.2c0,0,0.2-0.5,0.2-0.5
				C580,947.9,579.6,968,579.4,982L579.4,982z"/>
		</g>
		<g>
			<path class="st5" d="M799.5,982c-55.3,0.3-165.7,0.8-221,0.9c0,0,0-0.9,0-0.9s-0.1-139.5-0.1-139.5s0-1,0-1
				c52.7,0,157.6,0.2,210.2,0.3c0,0,0.7,0,0.7,0s0,0.7,0,0.7c-0.2,38.1-0.4,114.9-0.7,153.1c0,0-0.4-76.5-0.4-76.5
				s-0.3-76.5-0.3-76.5s0.7,0.7,0.7,0.7c-52.2,0.2-157.1,0.3-209.2,0.3c0,0,1-1,1-1S580.2,982,580.2,982l-0.9-0.9
				C634.2,981.2,744.7,981.7,799.5,982L799.5,982z"/>
		</g>
	</g>
	<g>
		<g>
			<path class="st5" d="M1154,420.6c-52.6,0.3-157.5,0.7-210.1,0.9c0,0,0-0.9,0-0.9s-0.1-139.5-0.1-139.5s0-1,0-1s1,0,1,0
				s104.6,0.1,104.6,0.1c0.8,0.1,104.5,0.2,105.3,0.2C1154.5,315.5,1154.2,385.5,1154,420.6L1154,420.6z M1154,420.6l-0.7-139.5
				c0,0,0.7,0.7,0.7,0.7s-104.6,0.2-104.6,0.2s-104.6,0.1-104.6,0.1s1-1,1-1s-0.1,139.5-0.1,139.5s-0.9-0.9-0.9-0.9
				C996.9,419.8,1101.9,420.3,1154,420.6L1154,420.6z"/>
		</g>
		<g>
			<path class="st5" d="M1127.9,318.1c0,15.7-18.9,23.8-30.4,12.9c-7.3-6.7-7.3-19.2,0-25.9C1109,294.3,1127.9,302.4,1127.9,318.1
				L1127.9,318.1z M1127.9,318.1c-0.1-15.3-18.6-22.7-29.2-11.7c-6.2,6.3-6.3,17.2,0,23.4C1109.3,340.8,1127.8,333.4,1127.9,318.1
				L1127.9,318.1z"/>
		</g>
		<g>
			<path class="st5" d="M1047.4,414.6c17.8-16.5,38.3-35.2,56.2-51.5c0,0,0.6-0.5,0.6-0.5s0.6,0.5,0.6,0.5c9,7.6,21.6,18.3,30.4,26
				c10.1,8.7,20,17.6,29.8,26.7c-10.5-8.3-20.7-16.7-30.9-25.3c-8.8-7.4-21.5-18.3-30.3-26c0,0,1.1,0,1.1,0
				C1086.7,380.5,1065.8,398.8,1047.4,414.6L1047.4,414.6z"/>
		</g>
		<g>
			<path class="st5" d="M944.8,420.6c-0.4-14.1-0.5-34.4-0.7-48.7c5.3-4.7,15.7-14,21.1-18.7c0,0,20.9-18.4,20.9-18.4
				s0.7-0.6,0.7-0.6l0.7,0.6c24.6,24.5,54.9,55.2,79.4,80.1c8.7,9,17.5,17.9,26.2,26.9c-9-8.7-18-17.5-26.9-26.2
				c-25-24.5-55.5-54.8-80.1-79.4c0,0,1.3,0,1.3,0l-21,18.3c-5.2,4.6-15.8,13.7-21.1,18.2c0,0,0.2-0.5,0.2-0.5
				C945.4,386.4,945,406.6,944.8,420.6L944.8,420.6z"/>
		</g>
		<g>
			<path class="st5" d="M1164.9,420.6c-55.3,0.3-165.7,0.8-221,0.9c0,0,0-0.9,0-0.9l-0.1-139.5c0,0,0-1,0-1
				c52.7,0.1,157.6,0.2,210.2,0.3c0,0,0.7,0,0.7,0l0,0.7c-0.2,38.1-0.4,114.9-0.7,153.1c0,0-0.4-76.5-0.4-76.5s-0.3-76.5-0.3-76.5
				l0.7,0.7c-52.2,0.2-157.1,0.3-209.2,0.3c0,0,1-1,1-1s-0.1,139.5-0.1,139.5s-0.9-0.9-0.9-0.9
				C999.6,419.8,1110.1,420.3,1164.9,420.6L1164.9,420.6z"/>
		</g>
	</g>
	<g>
		<g>
			<path class="st5" d="M1154,982c-52.6,0.3-157.5,0.7-210.1,0.9c0,0,0-0.9,0-0.9s-0.1-139.5-0.1-139.5s0-1,0-1s1,0,1,0l104.6,0.1
				c0.8,0.1,104.5,0.2,105.3,0.2C1154.5,877,1154.2,946.9,1154,982L1154,982z M1154,982c0,0-0.7-139.5-0.7-139.5s0.7,0.7,0.7,0.7
				l-104.6,0.2c0,0-104.6,0.1-104.6,0.1s1-1,1-1S945.6,982,945.6,982s-0.9-0.9-0.9-0.9C996.9,981.3,1101.9,981.7,1154,982L1154,982z
				"/>
		</g>
		<g>
			<path class="st5" d="M1127.9,879.5c0,15.7-18.9,23.8-30.4,12.9c-7.3-6.7-7.3-19.2,0-25.9C1109,855.7,1127.9,863.8,1127.9,879.5
				L1127.9,879.5z M1127.9,879.5c-0.1-15.3-18.6-22.7-29.2-11.7c-6.2,6.3-6.3,17.2,0,23.4C1109.3,902.2,1127.8,894.8,1127.9,879.5
				L1127.9,879.5z"/>
		</g>
		<g>
			<path class="st5" d="M1047,976.4c15.6-14.6,40.6-37.3,56.6-51.8c0,0,0.6-0.5,0.6-0.5s0.6,0.5,0.6,0.5
				c7.7,6.4,15.3,12.9,22.8,19.5c7.5,6.6,14.9,13.3,22.1,20.2c-7.9-6.1-15.7-12.4-23.3-18.8c-7.7-6.4-15.2-12.9-22.7-19.5
				c0,0,1.1,0,1.1,0C1088.6,940.3,1063.3,962.4,1047,976.4L1047,976.4z"/>
		</g>
		<g>
			<path class="st5" d="M944.8,982c-0.4-14.1-0.5-34.4-0.7-48.7c5.3-4.7,15.7-14,21.1-18.7c0,0,20.9-18.4,20.9-18.4s0.7-0.6,0.7-0.6
				s0.7,0.6,0.7,0.6c24.6,24.5,54.9,55.2,79.4,80.1c8.7,9,17.5,17.9,26.2,26.9c-9-8.7-18-17.5-26.9-26.2
				c-25-24.5-55.5-54.8-80.1-79.4c0,0,1.3,0,1.3,0l-21,18.3c-5.2,4.6-15.8,13.7-21.1,18.2c0,0,0.2-0.5,0.2-0.5
				C945.4,947.9,945,968,944.8,982L944.8,982z"/>
		</g>
	</g>
	<g>
		<g>
			<path class="st5" d="M1127.9,598.8c0,15.7-18.9,23.8-30.4,12.9c-7.3-6.7-7.3-19.2,0-25.9C1109,575,1127.9,583.1,1127.9,598.8
				L1127.9,598.8z M1127.9,598.8c-0.1-15.3-18.6-22.7-29.2-11.7c-6.2,6.3-6.3,17.2,0,23.4C1109.3,621.5,1127.8,614.1,1127.9,598.8
				L1127.9,598.8z"/>
		</g>
		<g>
			<path class="st5" d="M1051.6,691.6c11.5-10.7,27.4-25.3,39-35.9c4.5-4.1,9.1-8.3,13.6-12.4c0,0,0.6,0.5,0.6,0.5l15.3,12.9
				c15.1,13,30.2,26.2,44.9,39.8c-15.7-12.4-31-25.3-46.2-38.3c0,0-15.1-13.1-15.1-13.1l1.1,0c-4.4,3.9-8.8,7.8-13.3,11.7
				C1079.7,667.2,1063.5,681.4,1051.6,691.6L1051.6,691.6z"/>
		</g>
		<g>
			<path class="st5" d="M944.8,701.3c-0.4-14.1-0.5-34.4-0.7-48.7c5.3-4.7,15.7-14,21.1-18.7c0,0,20.9-18.4,20.9-18.4l0.7-0.6
				c0,0,0.7,0.6,0.7,0.6c24.6,24.5,54.9,55.2,79.4,80.1c8.7,9,17.5,17.9,26.2,26.9c-9-8.7-18-17.5-26.9-26.2
				c-25-24.5-55.5-54.8-80.1-79.4c0,0,1.3,0,1.3,0l-21,18.3c-5.2,4.6-15.8,13.7-21.1,18.2c0,0,0.2-0.5,0.2-0.5
				C945.4,667.2,945,687.3,944.8,701.3L944.8,701.3z"/>
		</g>
		<g>
			<path class="st5" d="M924.1,561.8c75.7-1.1,154.1-1.2,229.9-0.7c0,0,0.7,0,0.7,0l0,0.7c-0.1,38.1-0.4,114.9-0.7,153.1
				c-0.3-38.2-0.5-114.9-0.7-153.1c0,0,0.7,0.7,0.7,0.7C1078.2,563,999.8,562.9,924.1,561.8L924.1,561.8z"/>
		</g>
		<g>
			<path class="st5" d="M1164.9,701.3c-55.4,0.3-165.7,0.8-221,0.9c0,0,0-0.9,0-0.9c-0.1-37.9-0.2-79.6,0.3-117.3
				c0-11.4,0.4-27.5,0.6-39.1c0.3,11.7,0.5,27.6,0.6,39.1c0.4,37.6,0.4,79.4,0.2,117.3c0,0-0.9-0.9-0.9-0.9
				C999.6,700.5,1110.1,701,1164.9,701.3L1164.9,701.3z"/>
		</g>
	</g>
</g>
<g>
	<g>
		<path class="st5" d="M151.4,1197.3c383.6-2.3,813.9-2.3,1197.5,0C965.3,1199.6,534.9,1199.5,151.4,1197.3L151.4,1197.3z"/>
	</g>
	<g>
		<path class="st5" d="M1290.1,1212.8c-2.3-385.5-2.3-818,0-1203.5C1292.3,394.8,1292.3,827.2,1290.1,1212.8L1290.1,1212.8z"/>
	</g>
	<g id="BLUE">
		<g>
			<path class="st5" d="M0,163.5c420.3-2.3,891.8-2.3,1312.1,0C891.8,165.8,420.3,165.8,0,163.5L0,163.5z"/>
		</g>
		<g>
			<path class="st5" d="M0,68.5c429.5-2.3,911.4-2.3,1340.9,0C911.4,70.8,429.5,70.8,0,68.5L0,68.5z"/>
		</g>
		<g>
			<path class="st5" d="M31.1,1101.4c417.3-2.3,885.3-2.3,1302.6,0C916.4,1103.7,448.3,1103.7,31.1,1101.4L31.1,1101.4z"/>
		</g>
		<g>
			<path class="st5" d="M61.3,1188.9C59.1,808.1,59,380.8,61.3,0C63.6,380.8,63.6,808.1,61.3,1188.9L61.3,1188.9z"/>
		</g>
	</g>
</g>
<path class="st6" d="M86.6,419.4v-35.3L16,301.8v-23.5h188.2v23.5l-70.6,82.3v70.6"/>
<g>
	<path class="st5" d="M86.6,445.4c0-14.5-0.9-48.2-0.5-60.9c-22.5-25.4-49.3-55.8-71.6-81.5c0,0-0.5-0.5-0.5-0.5s0-0.7,0-0.7
		s-0.2-23.5-0.2-23.5l0-2.1l2.2,0c0,0,47-0.2,47-0.2c43.7,0,97.6-0.2,141.1,0.1c0,0,2.3,0,2.3,0s0,2.3,0,2.3s-0.1,23.5-0.1,23.5
		s0,0.8,0,0.8s-0.5,0.6-0.5,0.6s-17.8,20.5-17.8,20.5c-17.3,19.8-36.2,41.6-53.5,61.2c0,0,0.3-0.8,0.3-0.8
		c-0.4,28.4-0.7,72.6-1.2,100.7c-0.2-12.6-0.5-37.8-0.7-50.4c0,0-0.6-50.4-0.6-50.4s0-0.4,0-0.4c11.7-14,23.4-28,35.1-41.9
		c8.7-10.3,26.3-31.1,35-41.4c0,0-0.5,1.4-0.5,1.4l-0.1-23.5c0,0,2.3,2.3,2.3,2.3c-43.4,0.2-97.5,0.2-141.1,0.1c0,0-47-0.2-47-0.2
		s2.1-2.1,2.1-2.1S18,301.8,18,301.8s-0.5-1.3-0.5-1.3S35,321.2,35,321.2c15.5,18.5,36.7,43.8,52.1,62.4
		C87.4,399,86.6,430,86.6,445.4L86.6,445.4z"/>
</g>
<g>
	<line class="st6" x1="151.4" y1="466.4" x2="69.4" y2="406.5"/>
	<path class="st7" d="M151.4,466.4c-14.2-8.9-28.3-18.9-41.9-28.7c-13.5-9.9-27.4-20.4-40.1-31.2c14.2,8.8,28.3,18.9,41.9,28.7
		C124.7,445.1,138.6,455.6,151.4,466.4L151.4,466.4z"/>
</g>
<g>
	<path class="st8" d="M542.3,734.1c0,0-43.3,27.9-44.4,30.9"/>
	<g>
		<path class="st9" d="M492.6,765.6h-62.3c-7.1,0-13.9,2.8-18.9,7.8l-73.3,73.3c-10.4,10.4-10.4,27.3,0,37.7l55.6,55.6
			c10.4,10.4,27.3,10.4,37.7,0l73.3-73.3c5-5,7.8-11.8,7.8-18.9v-62.2C512.6,774.6,503.6,765.6,492.6,765.6z M479.3,812.3
			c0,7.4-6,13.3-13.3,13.3s-13.3-6-13.3-13.3s6-13.3,13.3-13.3S479.3,804.9,479.3,812.3z"/>
		<g>
			<g>
				<line class="st6" x1="414.7" y1="825.6" x2="371" y2="869.3"/>
				<path class="st5" d="M414.7,825.6c-6.3,8-13.6,15.7-20.8,22.9c-7.3,7.2-14.9,14.5-22.9,20.8c6.3-8,13.6-15.7,20.8-22.9
					C399,839.2,406.7,831.9,414.7,825.6L414.7,825.6z"/>
			</g>
			<g>
				<line class="st6" x1="431.6" y1="842.5" x2="387.9" y2="886.2"/>
				<path class="st5" d="M431.6,842.5c-6.3,8-13.6,15.7-20.8,22.9c-7.3,7.2-14.9,14.5-22.9,20.8c6.3-8,13.6-15.7,20.8-22.9
					C416,856.2,423.6,848.8,431.6,842.5L431.6,842.5z"/>
			</g>
			<g>
				<line class="st6" x1="448.4" y1="859.3" x2="404.6" y2="903"/>
				<path class="st5" d="M448.4,859.3c-6.3,8-13.6,15.7-20.8,22.9c-7.3,7.2-14.9,14.5-22.9,20.8c6.3-8,13.6-15.7,20.8-22.9
					C432.7,872.9,440.4,865.6,448.4,859.3L448.4,859.3z"/>
			</g>
		</g>
	</g>
	<g>
		<g class="st10">
			<rect x="529" y="515.6" class="st11" width="306" height="229.5"/>
		</g>
		<g>
			<path class="st12" d="M835,515.6v229.5H529V515.6H835 M838,512.6h-3H529h-3v3v229.5v3h3h306h3v-3V515.6V512.6L838,512.6z"/>
		</g>
		<g>
			<g>
				<rect x="578.4" y="561.3" class="st13" width="207.2" height="138.1"/>
			</g>
			<circle class="st14" cx="742.5" cy="598" r="17.3"/>
			<polygon class="st15" points="671.4,699.5 736.3,643.2 785.6,685.5 785.6,699.5 			"/>
			<polygon class="st15" points="578.4,651.6 620,615.2 700.9,699.5 578.4,699.5 			"/>
			<g>
				<path class="st16" d="M785.6,561.3v138.1H578.4V561.3H785.6 M787.6,559.3h-2H578.4h-2v2v138.1v2h2h207.2h2v-2V561.3V559.3
					L787.6,559.3z"/>
			</g>
		</g>
	</g>
	<g>
		<g class="st17">
			<polygon class="st18" points="833.9,802.8 813.6,831 799.3,732.9 879.5,791.2 845.1,796.1 888.4,867.8 877.3,874.6 			"/>
		</g>
		<g>
			<polygon class="st19" points="833.5,812.7 810.1,845.1 792,720.9 893.6,794.7 854,800.3 895.9,869.7 875.5,882.1 			"/>
			<path class="st1" d="M795.3,726.3l91.9,66.8l-29.9,4.3l-7.4,1.1l3.9,6.4l38.7,64.1l-16.3,9.8l-38.7-64.1l-3.9-6.4l-4.4,6
				l-17.7,24.5L795.3,726.3 M788.8,715.5l19.8,136.1l24.8-34.4l41.3,68.3l24.7-14.9L858,802.2l42-6L788.8,715.5L788.8,715.5z"/>
		</g>
	</g>
	<circle class="st20" cx="546.6" cy="728.2" r="8.2"/>
	<path class="st8" d="M474,806.2c-0.6,13.3,80.7-67.8,69.4-73.1c0,0-1.6-0.7-2.7,0.4"/>
</g>
<g>
	<g>
		<g>
			<path class="st5" d="M1155.8,141.4c-18.1,0.7-38.7,1.4-56.8,1.7c0,0-1.7,0-1.7,0s0-1.7,0-1.7c-0.1-10.3-0.3-31-0.3-41.3
				c0,0,0-2,0-2s2,0,2,0c18.3,0,38.4,0.2,56.8,0.6c0,0,1.4,0,1.4,0l0,1.4C1157,112.2,1156.2,129.2,1155.8,141.4L1155.8,141.4z
				 M1155.8,141.4c-0.5-11.9-1.1-29.6-1.4-41.3c0,0,1.4,1.4,1.4,1.4c-7.1,0.2-21.3,0.4-28.4,0.4c-9.5,0.1-18.9,0.1-28.4,0.1
				c0,0,2-2,2-2c0,10.3-0.2,31-0.3,41.3c0,0-1.7-1.7-1.7-1.7C1115,140,1139.5,140.8,1155.8,141.4L1155.8,141.4z"/>
		</g>
		<g>
			<path class="st5" d="M1046,118.7c-8.1,1.6-16.3,1.9-24.5,2c-8.2,0-16.4-0.4-24.5-2c8.1-1.6,16.3-2,24.5-2
				C1029.7,116.7,1037.9,117.1,1046,118.7L1046,118.7z"/>
		</g>
		<g>
			<g>
				<path class="st5" d="M1246.7,100.1c-5.7,7.9-12.3,15.1-19.2,22c-6.9,6.9-14,13.5-22,19.2c5.7-8,12.3-15.1,19.2-22
					C1231.6,112.4,1238.7,105.8,1246.7,100.1L1246.7,100.1z"/>
			</g>
			<g>
				<path class="st5" d="M1206.4,100.1c7.9,5.7,15.1,12.3,22,19.2c6.9,6.9,13.5,14,19.2,22c-8-5.7-15.1-12.3-22-19.2
					C1218.7,115.2,1212.1,108,1206.4,100.1L1206.4,100.1z"/>
			</g>
		</g>
	</g>
	<g>
		<g>
			<path class="st5" d="M1125.5,1126.1c-7,9.2-14.9,17.6-23,25.8c-8.2,8.1-16.6,16-25.8,23c7-9.2,14.8-17.6,23-25.8
				C1107.9,1140.9,1116.3,1133,1125.5,1126.1L1125.5,1126.1z"/>
		</g>
		<g>
			<path class="st5" d="M1077.8,1126.1c9.2,7,17.6,14.8,25.8,23c8.1,8.2,16,16.6,23,25.8c-9.2-7-17.6-14.8-25.8-23
				C1092.6,1143.7,1084.8,1135.3,1077.8,1126.1L1077.8,1126.1z"/>
		</g>
	</g>
	<g>
		<path class="st5" d="M1239.9,1123.1c-10.1,16.2-21.9,31.3-34.1,45.9c-9-8.8-17.9-17.6-26.2-27c9.4,7.3,18.5,15.1,27.3,23
			c0,0-2.7,0.2-2.7,0.2c1.4-1.8,2.8-3.7,4.2-5.5C1218.3,1147.1,1228.5,1134.5,1239.9,1123.1L1239.9,1123.1z"/>
	</g>
</g>
</svg>
