<svg width="860" height="612" viewBox="0 0 860 612" fill="none" xmlns="http://www.w3.org/2000/svg">
<g opacity="0.75">
<path d="M640.487 123.692H219.941V385.641H640.487V123.692Z" fill="#FCFCFA"/>
</g>
<path opacity="0.96" d="M430 196.269C434.361 196.269 437.897 192.733 437.897 188.372C437.897 184.01 434.361 180.475 430 180.475C425.639 180.475 422.103 184.01 422.103 188.372C422.103 192.733 425.639 196.269 430 196.269Z" fill="#E0B8C8"/>
<path opacity="0.96" d="M430 268.131C434.361 268.131 437.897 264.419 437.897 259.839C437.897 255.26 434.361 251.547 430 251.547C425.639 251.547 422.103 255.26 422.103 259.839C422.103 264.419 425.639 268.131 430 268.131Z" fill="#E0B8C8"/>
<path opacity="0.96" d="M430 329.727C434.361 329.727 437.897 326.192 437.897 321.83C437.897 317.469 434.361 313.933 430 313.933C425.639 313.933 422.103 317.469 422.103 321.83C422.103 326.192 425.639 329.727 430 329.727Z" fill="#E0B8C8"/>
<path opacity="0.35" d="M334.447 241.281H525.553" stroke="#99C3E0" stroke-width="23.4104" stroke-miterlimit="10" stroke-linecap="round"/>
<path opacity="0.35" d="M334.447 289.453H525.553" stroke="#99C3E0" stroke-width="23.4104" stroke-miterlimit="10" stroke-linecap="round"/>
<path d="M640.487 226.433H219.941V488.383H640.487V226.433Z" fill="white"/>
<path d="M442.719 454.136C439.186 452.98 435.856 451.35 432.731 449.311C429.605 447.273 426.683 444.894 424.169 442.108C421.655 439.322 419.48 436.265 417.917 432.799C416.355 429.402 415.335 425.732 414.996 422.063C416.355 425.528 417.85 428.722 419.684 431.78C421.519 434.838 423.761 437.624 426.139 440.206C428.518 442.788 431.236 445.166 434.022 447.34C436.808 449.583 439.798 451.553 442.923 453.456L442.719 454.136Z" fill="#A7CBD1"/>
<path d="M433.886 439.322C433.41 439.662 433.274 440.274 433.614 440.749L442.38 453.66L426.955 456.174C426.411 456.242 426.004 456.786 426.14 457.329C426.208 457.873 426.751 458.281 427.295 458.145L444.282 455.359C444.622 455.291 444.894 455.087 445.03 454.747C445.166 454.407 445.098 454.068 444.962 453.796L435.313 439.594C435.177 439.458 435.041 439.322 434.905 439.254C434.565 439.051 434.226 439.118 433.886 439.322Z" fill="#A7CBD1"/>
<path d="M137.812 123.76C294.914 122.197 455.617 122.129 612.719 123.76C455.617 125.391 294.914 125.391 137.812 123.76Z" fill="#A7CBD1"/>
<path d="M172.467 103.375C174.098 201.903 174.098 302.13 172.467 400.591C170.836 302.13 170.836 201.903 172.467 103.375Z" fill="#A7CBD1"/>
<path d="M141.414 385.641C189.658 383.739 238.583 383.399 286.828 384.758C238.583 386.661 189.658 386.932 141.414 385.641Z" fill="#A7CBD1"/>
<path d="M593.013 98.3465C594.644 146.252 594.644 194.836 593.013 242.741C591.315 194.836 591.383 146.252 593.013 98.3465Z" fill="#A7CBD1"/>
<path d="M722.187 226.433C570.182 227.996 414.575 228.064 262.57 226.433C414.643 224.802 570.182 224.87 722.187 226.433Z" fill="#A7CBD1"/>
<path d="M275.548 205.165C277.179 304.237 277.179 405.007 275.548 504.147C273.917 405.007 273.917 304.237 275.548 205.165Z" fill="#A7CBD1"/>
<path d="M712.335 488.383C558.834 489.946 401.733 490.013 248.232 488.383C401.733 486.752 558.834 486.82 712.335 488.383Z" fill="#A7CBD1"/>
<path d="M696.094 213.591C697.725 313.138 697.725 414.385 696.094 514C694.464 414.452 694.464 313.138 696.094 213.591Z" fill="#A7CBD1"/>
<path d="M283.117 188.245H474.33" stroke="#E6EEEF" stroke-width="20" stroke-miterlimit="10" stroke-linecap="round"/>
<path d="M386.198 289.559H577.41" stroke="#E6EEEF" stroke-width="20" stroke-miterlimit="10" stroke-linecap="round"/>
<path d="M386.198 363.15H577.41" stroke="#E6EEEF" stroke-width="20" stroke-miterlimit="10" stroke-linecap="round"/>
<path d="M386.198 436.808H577.41" stroke="#E6EEEF" stroke-width="20" stroke-miterlimit="10" stroke-linecap="round"/>
<path d="M422.521 304.984V308.653C422.521 309.265 422.725 309.809 423.065 310.352L424.696 312.798C425.172 313.546 426.327 314.157 427.21 314.157H433.122C434.005 314.157 435.16 313.546 435.636 312.798L437.267 310.352C437.539 310.012 437.81 309.265 437.81 308.721V301.994H422.521V304.984Z" fill="#A87390"/>
<path d="M430.132 265.369C420.415 265.369 413.416 273.183 413.416 282.085C413.416 286.162 414.911 290.103 417.561 293.161C419.124 294.995 421.57 298.733 422.522 301.858V301.926H437.811V301.858C438.762 298.665 441.208 294.927 442.771 293.161C445.421 290.171 446.916 286.23 446.916 282.085C446.984 272.844 439.441 265.301 430.132 265.369Z" fill="#E0B8C8"/>
<path d="M430.2 274.542C425.987 274.542 422.59 277.94 422.59 282.085C422.59 282.9 421.91 283.58 421.095 283.58C420.279 283.58 419.6 282.9 419.6 282.085C419.6 276.241 424.356 271.485 430.268 271.485C431.083 271.485 431.763 272.164 431.763 272.979C431.763 273.795 431.016 274.542 430.2 274.542Z" fill="#F7F7F5"/>
<path d="M439.47 344.531L434.781 349.22L445.314 359.752L450.002 355.064C451.837 353.229 451.837 350.239 450.002 348.405L446.129 344.531C444.294 342.697 441.304 342.697 439.47 344.531Z" fill="#A87390"/>
<path d="M432.675 350.987L431.927 351.19L419.832 354.86C418.133 355.335 416.842 356.627 416.299 358.325L408.824 380.545C408.484 381.496 408.756 382.584 409.436 383.263L422.346 370.353C422.075 369.809 421.939 369.265 421.939 368.586C421.939 366.343 423.773 364.577 425.948 364.577C428.19 364.577 429.957 366.411 429.957 368.586C429.957 370.828 428.122 372.595 425.948 372.595C425.336 372.595 424.725 372.459 424.181 372.187L411.27 385.098C412.018 385.777 413.037 386.049 413.988 385.709L436.208 378.235C437.839 377.691 439.13 376.332 439.674 374.701L443.343 362.606L443.547 361.859L432.675 350.987Z" fill="#E0B8C8"/>
<path d="M424.476 417.306C425.087 416.695 426.039 416.695 426.718 417.306C428.96 419.481 430.999 421.859 432.97 424.373C433.853 423.15 434.872 421.859 435.959 420.772C436.571 420.16 437.59 420.16 438.202 420.772C440.988 423.558 443.298 427.227 444.997 430.693C446.628 434.158 447.715 437.624 447.715 440.138C447.715 450.874 439.697 459.979 429.776 459.979C419.719 459.979 411.837 450.874 411.837 440.138C411.837 436.876 413.264 432.935 415.438 429.062C417.613 425.121 420.738 420.976 424.476 417.306Z" fill="#E0B8C8"/>
<path d="M429.844 451.893C431.882 451.893 433.649 451.282 435.348 450.126C438.746 447.68 439.629 442.72 437.59 438.847C437.251 438.099 436.299 438.031 435.756 438.711L433.717 441.157C433.174 441.769 432.222 441.769 431.747 441.089C430.456 439.322 428.077 436.197 426.718 434.362C426.243 433.682 425.223 433.682 424.748 434.362C422.03 437.963 420.671 440.206 420.671 442.72C420.739 448.496 424.748 451.893 429.844 451.893Z" fill="#A87390"/>
</svg>
