<?xml version="1.0" encoding="utf-8"?>
<!-- Generator: Adobe Illustrator 27.3.1, SVG Export Plug-In . SVG Version: 6.00 Build 0)  -->
<svg version="1.1" id="Laag_1" xmlns="http://www.w3.org/2000/svg" xmlns:xlink="http://www.w3.org/1999/xlink" x="0px" y="0px"
	 viewBox="0 0 605.2 776.2" style="enable-background:new 0 0 605.2 776.2;" xml:space="preserve">
<style type="text/css">
	.st0{fill:#FFFFFF;}
	.st1{fill:#E8D98B;stroke:#1D1D1B;stroke-width:3.5;stroke-miterlimit:10;}
	.st2{fill:#1D1D1B;}
	.st3{fill:#AF9B46;}
	.st4{fill:#A7CBD1;}
	.st5{fill:#FCFCFA;}
	.st6{clip-path:url(#SVGID_00000132060899902034697780000004772315775227627426_);}
	.st7{fill:#D0E0A9;stroke:#1D1D1B;stroke-width:2;stroke-miterlimit:10;}
	.st8{fill:#9FAD63;}
	.st9{fill:#D0E0A9;stroke:#1D1D1B;stroke-width:3;stroke-miterlimit:10;}
	.st10{fill:#D0E0A9;}
</style>
<polygon class="st0" points="18.9,127 18.9,197.3 504.1,197.3 504.1,287.7 579.6,197.3 579.8,197.3 579.8,197.1 579.8,170.3 
	579.8,127 "/>
<g>
	<circle class="st1" cx="292.1" cy="99.3" r="72.6"/>
	<g>
		<path class="st2" d="M292,40.7c-3.4,0-6.8,0.3-10.2,0.9l0.2,1.2c1.9-0.3,3.8-0.6,5.7-0.7c0,0,0,0,0,0c0,0,0,0,0,0c0,0,0,0,0,0
			c0,0,0,0,0,0c0,0,0,0,0,0c0,0,0,0,0,0c0,0,0,0,0,0c0,0,0,0,0,0c0,0,0,0,0,0c0.1,0,0.2,0,0.3,0c0,0,0,0,0,0c0,0,0,0,0,0
			c0,0,0,0,0,0c0,0,0,0,0,0c0,0,0,0,0,0c0,0,0,0,0,0c0,0,0,0,0,0c0,0,0,0,0,0c0,0,0,0,0,0c0,0,0,0,0,0c0,0,0,0,0,0c0,0,0,0,0,0
			c0,0,0,0,0,0c0,0,0,0,0,0c0,0,0,0,0,0c0,0,0,0,0,0c0,0,0,0,0,0c0,0,0,0,0,0c0,0,0,0,0,0c0,0,0,0,0,0c0,0,0,0,0,0
			c0.1,0,0.1,0,0.2,0c0,0,0,0,0,0c0,0,0,0,0,0c0,0,0,0,0,0c0,0,0,0,0,0c0,0,0,0,0,0c0,0,0,0,0,0c0,0,0,0,0,0c0,0,0,0,0,0
			c0,0,0,0,0,0c0,0,0,0,0,0c0,0,0,0,0,0c0,0,0,0,0,0c0,0,0,0,0,0c0,0,0,0,0,0c0,0,0,0,0,0c0,0,0,0,0,0c0,0,0,0,0,0c0,0,0,0,0,0
			c0,0,0,0,0,0c0,0,0,0,0,0c0,0,0,0,0,0c0,0,0,0,0,0c0,0,0,0,0,0c0,0,0,0,0,0c0,0,0,0,0,0c0,0,0,0,0,0c0,0,0,0,0,0c0,0,0,0,0,0
			c0,0,0,0,0,0c0,0,0,0,0,0c0,0,0,0,0,0c0,0,0,0,0,0c0,0,0,0,0,0c0,0,0.1,0,0.1,0c0,0,0,0,0,0c0,0,0,0,0,0c0,0,0,0,0,0c0,0,0,0,0,0
			c0,0,0,0,0,0c0,0,0,0,0,0c0,0,0,0,0,0c0,0,0,0,0,0c0,0,0,0,0,0c0,0,0,0,0,0c0,0,0,0,0,0c0,0,0,0,0,0c0,0,0,0,0,0c0,0,0,0,0,0
			c0,0,0,0,0,0c0,0,0,0,0,0c0,0,0,0,0,0c0,0,0,0,0,0c0,0,0,0,0,0c0,0,0,0,0,0c0,0,0,0,0,0c0,0,0,0,0,0c0,0,0,0,0,0c0,0,0,0,0,0
			c0,0,0,0,0,0c0,0,0,0,0,0c0,0,0,0,0,0c0,0,0,0,0,0c0,0,0,0,0,0c0,0,0,0,0,0c0,0,0,0,0,0c0,0,0,0,0,0c0,0,0,0,0,0c0,0,0.1,0,0.1,0
			c0,0,0,0,0,0c0,0,0,0,0,0c0,0,0,0,0,0c0,0,0,0,0,0c0,0,0,0,0,0c0,0,0,0,0,0c0,0,0,0,0,0c0,0,0,0,0,0c0,0,0,0,0,0c0,0,0,0,0,0
			c0,0,0,0,0,0c0,0,0,0,0,0c0,0,0,0,0,0c0,0,0,0,0,0c0,0,0,0,0,0c0,0,0,0,0,0c0,0,0,0,0,0c0,0,0,0,0,0c0,0,0,0,0,0c0,0,0,0,0,0
			c0,0,0,0,0,0c0,0,0,0,0,0c0,0,0,0,0,0c0,0,0,0,0,0c0,0,0,0,0,0c0,0,0,0,0,0c0,0,0,0,0,0c0,0,0,0,0,0c0,0,0,0,0,0c0,0,0,0,0,0
			c0,0,0,0,0,0c0,0,0,0,0,0c0,0,0,0,0,0c0,0,0,0,0,0c0,0,0,0,0,0c0,0,0,0,0,0c0,0,0,0,0,0c0,0,0,0,0,0c0,0,0,0,0,0l0,0c0,0,0,0,0,0
			c0,0,0,0,0,0c0,0,0,0,0,0c0,0,0,0,0,0c0,0,0,0,0,0c0,0,0,0,0,0c0,0,0,0,0,0c0,0,0,0,0,0c0,0,0,0,0,0c0,0,0,0,0,0c0,0,0,0,0,0
			c0,0,0,0,0,0c0,0,0,0,0,0c0,0,0,0,0,0c0,0,0,0,0,0c0,0,0,0,0,0c0,0,0,0,0,0c0,0,0,0,0,0c0,0,0,0,0,0c0,0,0,0,0,0c0,0,0,0,0,0
			c0,0,0,0,0,0c0,0,0,0,0,0c0,0,0,0,0,0c0,0,0,0,0,0c0,0,0,0,0,0c0,0,0,0,0,0c0,0,0,0,0,0c0,0,0,0,0,0c0,0,0,0,0,0c0,0,0,0,0,0
			c0,0,0,0,0,0c0,0,0,0,0,0c0,0,0,0,0,0c0,0,0,0,0,0c0,0,0,0,0,0c0,0,0,0,0,0c0,0,0,0,0,0c0,0,0,0,0,0c0,0,0,0,0,0c0,0,0,0,0,0
			c0,0,0,0,0,0c0,0,0,0,0,0c0,0,0,0,0,0c0,0,0,0,0,0c0,0,0,0,0,0c0,0,0,0,0,0c0,0,0,0,0,0c0,0,0,0,0,0c0,0,0,0,0,0c0,0,0,0,0,0
			c0,0,0,0,0,0c0,0,0,0,0,0c0,0,0,0,0,0c0,0,0,0,0,0c0,0,0,0,0,0c0,0,0,0,0,0c0,0,0,0,0,0c0,0,0,0,0,0c0,0,0,0,0,0c0,0,0,0,0,0
			c0,0,0,0,0,0c0,0,0,0,0,0c0,0,0,0,0,0c0,0,0,0,0,0c0,0,0,0,0,0c0,0,0,0,0,0c0,0,0,0,0,0c0,0,0,0,0,0c0,0,0,0,0,0c0,0,0,0,0,0
			c0,0,0,0,0,0c0,0,0,0,0,0c0,0,0,0,0,0c0,0,0,0,0,0c0,0,0,0,0,0c0,0,0,0,0,0c0,0,0,0,0,0c0,0,0,0,0,0c0,0,0,0,0,0c0,0,0,0,0,0
			c0,0,0,0,0,0c0,0,0,0,0,0c0,0,0,0,0,0c0,0,0,0,0,0c0,0,0,0,0,0c0,0,0,0,0,0c0,0,0,0,0,0c0,0,0,0,0,0c0,0,0,0,0,0c0,0,0,0,0,0
			c0,0,0,0,0,0c0,0,0,0,0,0c0,0,0,0,0,0c0,0,0,0,0,0c0,0,0,0,0,0c0,0,0,0,0,0c0,0,0,0,0,0c0,0,0,0,0,0c0,0,0,0,0,0c0,0,0,0,0,0
			c0,0,0,0,0,0c0,0,0,0,0,0c0,0,0,0,0,0c0,0,0,0,0,0c0,0,0,0,0,0c0,0,0,0,0,0c0,0,0,0,0,0c0,0,0,0,0,0c0,0,0,0,0,0c0,0,0,0,0,0
			c0,0,0,0,0,0c0,0,0,0,0,0c0,0,0,0,0,0c0,0,0,0,0,0c0,0,0,0,0,0c0,0,0,0,0,0c0,0,0,0,0,0c0,0,0,0,0,0c0,0,0,0,0,0c0,0,0,0,0,0
			c0,0,0,0,0,0c0,0,0,0,0,0c0,0,0,0,0,0c0,0,0,0,0,0c0,0,0,0,0,0c0,0,0,0,0,0c0,0,0,0,0,0c0,0,0,0,0,0c0,0,0,0,0,0c0,0,0,0,0,0
			c0,0,0,0,0,0c0,0,0,0,0,0c0,0,0,0,0,0c0,0,0,0,0,0c0,0,0,0,0,0c0,0,0,0,0,0c0,0,0,0,0,0c0,0,0,0,0,0c0,0,0,0,0,0c0,0,0,0,0,0
			c0,0,0,0,0,0c0,0,0,0,0,0c0,0,0,0,0,0c0,0,0,0,0,0c0,0,0,0,0,0c0,0,0,0,0,0c0,0,0,0,0,0c0,0,0,0,0,0c0,0,0,0,0,0c0,0,0,0,0,0
			c0,0,0,0,0,0c0,0,0,0,0,0c0,0,0,0,0,0c0,0,0,0,0,0c0,0,0,0,0,0c0,0,0,0,0,0c0,0,0,0,0,0c0,0,0,0,0,0c0,0,0,0,0,0c0,0,0,0,0,0
			c0,0,0,0,0,0c0,0,0,0,0,0c0,0,0,0,0,0c0,0,0,0,0,0c0,0,0,0,0,0c0,0,0,0,0,0c0,0,0,0,0,0c0,0,0,0,0,0c0,0,0,0,0,0c0,0,0,0,0,0
			c0,0,0,0,0,0c0,0,0,0,0,0c0,0,0,0,0,0c0,0,0,0,0,0c0,0,0,0,0,0c0,0,0,0,0,0c0,0,0,0,0,0c0,0,0,0,0,0c0,0,0,0,0,0c0,0,0,0,0,0
			c0,0,0,0,0,0c0,0,0,0,0,0c0,0,0,0,0,0c0,0,0,0,0,0c0,0,0,0,0,0c0,0,0,0,0,0c0,0,0,0,0,0c0,0,0,0,0,0c0,0,0,0,0,0s0,0,0,0
			c0,0,0,0,0,0c0,0,0,0,0,0c0,0,0,0,0,0c0,0,0,0,0,0c0,0,0,0,0,0c0,0,0,0,0,0c0,0,0,0,0,0c0,0,0,0,0,0c0,0,0,0,0,0c0,0,0,0,0,0
			c0,0,0,0,0,0c0,0,0,0,0,0c0,0,0,0,0,0c0,0,0,0,0,0c0,0,0,0,0,0c0,0,0,0,0,0V40.7L292,40.7z M272,44.3c-3.2,1.2-6.3,2.6-9.2,4.3
			l0.6,1c2-1.2,4.1-2.2,6.2-3.1c0,0,0,0,0,0c0,0,0,0,0,0c0,0,0,0,0,0c0,0,0,0,0,0c0,0,0,0,0,0c0,0,0,0,0,0c0,0,0,0,0,0c0,0,0,0,0,0
			c0,0,0,0,0,0c0,0,0,0,0,0c0,0,0,0,0,0c0,0,0,0,0,0c0,0,0,0,0,0c0,0,0,0,0,0c0,0,0,0,0,0c0,0,0,0,0,0c0,0,0,0,0,0c0,0,0,0,0,0
			c0,0,0,0,0,0c0,0,0,0,0,0c0,0,0,0,0,0c0,0,0,0,0,0c0,0,0,0,0,0c0,0,0,0,0,0c0,0,0,0,0,0c0,0,0,0,0,0c0,0,0,0,0,0c0,0,0,0,0,0
			c0,0,0,0,0,0c0,0,0,0,0,0c0,0,0,0,0,0c0,0,0,0,0,0c0,0,0,0,0,0c0,0,0,0,0,0c0,0,0,0,0,0c0,0,0,0,0,0c0,0,0,0,0,0c0,0,0,0,0,0
			c0,0,0,0,0,0c0,0,0,0,0,0c0,0,0,0,0,0c0,0,0,0,0,0c0,0,0,0,0,0c0,0,0,0,0,0c0,0,0,0,0,0c0,0,0,0,0,0c0,0,0,0,0,0c0,0,0,0,0,0
			c0,0,0,0,0,0c0,0,0,0,0,0c0,0,0,0,0,0c0,0,0,0,0,0c0,0,0,0,0,0c0,0,0,0,0,0c0,0,0,0,0,0c0,0,0,0,0,0c0,0,0,0,0,0c0,0,0,0,0,0
			c0,0,0,0,0,0c0,0,0,0,0,0c0,0,0,0,0,0c0,0,0,0,0,0c0,0,0,0,0,0c0,0,0,0,0,0c0,0,0,0,0,0c0,0,0,0,0,0c0,0,0,0,0,0c0,0,0,0,0,0
			c0,0,0,0,0,0c0,0,0,0,0,0c0,0,0,0,0,0c0,0,0,0,0,0c0,0,0,0,0,0c0,0,0,0,0,0c0,0,0,0,0,0c0,0,0,0,0,0c0,0,0,0,0,0c0,0,0,0,0,0
			c0,0,0,0,0,0c0,0,0,0,0,0c0,0,0,0,0,0c0,0,0,0,0,0c0,0,0,0,0,0c0,0,0,0,0,0c0,0,0,0,0,0l0,0c0,0,0,0,0,0l0,0c0,0,0,0,0,0l0,0
			c0,0,0,0,0,0c0,0,0,0,0,0c0,0,0,0,0,0l0,0c0,0,0,0,0,0l0,0c0,0,0,0,0,0v0c0,0,0,0,0,0l0,0c0.2-0.1,0.4-0.2,0.7-0.3l0,0
			c0.4-0.2,0.8-0.3,1.3-0.5L272,44.3L272,44.3z M254.4,54.4c-2.6,2.2-5,4.6-7.2,7.2l0.9,0.8c2.2-2.6,4.5-4.9,7.1-7.1L254.4,54.4
			L254.4,54.4z M241.4,70c-1.7,2.9-3.1,6-4.3,9.2l1.1,0.4c0.8-2.3,1.8-4.6,2.9-6.7l0,0c0,0,0,0,0,0l0,0c0,0,0,0,0,0l0,0c0,0,0,0,0,0
			c0,0,0,0,0,0c0,0,0,0,0,0l0,0c0,0,0,0,0,0c0,0,0,0,0,0c0,0,0,0,0,0l0,0c0,0,0,0,0,0l0,0c0,0,0,0,0,0l0,0c0,0,0,0,0,0c0,0,0,0,0,0
			c0,0,0,0,0,0c0,0,0,0,0,0c0,0,0,0,0,0c0,0,0,0,0,0c0,0,0,0,0,0c0,0,0,0,0,0c0,0,0,0,0,0c0,0,0,0,0,0c0,0,0,0,0,0c0,0,0,0,0,0
			c0,0,0,0,0,0c0,0,0,0,0,0c0,0,0,0,0,0c0,0,0,0,0,0c0,0,0,0,0,0c0,0,0,0,0,0c0,0,0,0,0,0c0,0,0,0,0,0c0,0,0,0,0,0c0,0,0,0,0,0
			c0,0,0,0,0,0c0,0,0,0,0,0c0,0,0,0,0,0c0,0,0,0,0,0c0,0,0,0,0,0c0,0,0,0,0,0c0,0,0,0,0,0c0,0,0,0,0,0c0,0,0,0,0,0c0,0,0,0,0,0
			c0,0,0,0,0,0c0,0,0,0,0,0c0,0,0,0,0,0c0,0,0,0,0,0c0,0,0,0,0,0c0,0,0,0,0,0c0,0,0,0,0,0c0,0,0,0,0,0c0,0,0,0,0,0c0,0,0,0,0,0
			c0,0,0,0,0,0c0,0,0,0,0,0c0,0,0,0,0,0c0,0,0,0,0,0c0,0,0,0,0,0c0,0,0,0,0,0c0,0,0,0,0,0c0,0,0,0,0,0c0,0,0,0,0,0c0,0,0,0,0,0
			c0,0,0,0,0,0c0,0,0,0,0,0c0,0,0,0,0,0c0,0,0,0,0,0c0,0,0,0,0,0c0,0,0,0,0,0c0,0,0,0,0,0c0,0,0,0,0,0c0,0,0,0,0,0c0,0,0,0,0,0
			c0,0,0,0,0,0c0,0,0,0,0,0c0,0,0,0,0,0c0,0,0,0,0,0l0,0c0.3-0.5,0.6-1.1,0.9-1.6L241.4,70L241.4,70z M234.4,89.1
			c-0.1,0.8-0.3,1.6-0.4,2.4c-0.3,2.6-0.5,5.2-0.5,7.8l1.2,0c0-1.1,0-2.2,0.1-3.2l0,0c0,0,0-0.1,0-0.1l0,0c0,0,0,0,0,0l0,0
			c0,0,0,0,0-0.1l0,0c0,0,0,0,0,0l0,0c0,0,0,0,0-0.1l0,0c0,0,0,0,0,0c0,0,0,0,0,0c0,0,0,0,0,0l0,0c0,0,0,0,0,0c0,0,0,0,0,0
			c0,0,0,0,0,0c0,0,0,0,0,0c0,0,0,0,0,0c0,0,0,0,0,0c0,0,0,0,0,0l0,0c0,0,0,0,0,0c0,0,0,0,0,0c0,0,0,0,0,0c0,0,0,0,0,0c0,0,0,0,0,0
			c0,0,0,0,0,0c0,0,0,0,0,0c0,0,0,0,0,0c0,0,0,0,0,0c0,0,0,0,0,0c0,0,0,0,0,0c0,0,0,0,0,0c0,0,0,0,0,0c0,0,0,0,0,0c0,0,0,0,0,0
			c0,0,0,0,0,0c0,0,0,0,0,0c0,0,0,0,0,0c0,0,0,0,0,0c0,0,0,0,0,0c0,0,0,0,0,0c0,0,0,0,0,0c0,0,0,0,0,0c0,0,0,0,0,0c0,0,0,0,0,0
			c0,0,0,0,0,0c0,0,0,0,0,0c0,0,0,0,0,0c0,0,0,0,0,0c0,0,0,0,0,0c0,0,0,0,0,0c0,0,0,0,0,0c0,0,0,0,0,0c0,0,0,0,0,0c0,0,0,0,0,0
			c0,0,0,0,0,0c0,0,0,0,0,0c0,0,0,0,0-0.1c0,0,0,0,0,0c0,0,0,0,0,0c0,0,0,0,0,0c0,0,0,0,0,0c0,0,0,0,0,0c0,0,0,0,0,0c0,0,0,0,0,0
			c0,0,0,0,0,0c0,0,0,0,0,0c0,0,0,0,0,0c0,0,0,0,0,0c0,0,0,0,0-0.1c0,0,0,0,0,0c0,0,0,0,0,0c0,0,0,0,0,0c0,0,0,0,0-0.1c0,0,0,0,0,0
			c0,0,0,0,0,0c0,0,0,0,0,0c0,0,0-0.1,0-0.1c0,0,0,0,0,0c0,0,0-0.1,0-0.1c0,0,0,0,0,0c0.1-0.8,0.1-1.5,0.2-2.3l0,0c0,0,0-0.1,0-0.1
			c0,0,0,0,0,0c0,0,0,0,0,0c0,0,0,0,0,0c0,0,0,0,0-0.1c0,0,0,0,0,0c0,0,0,0,0,0c0,0,0,0,0,0c0,0,0,0,0-0.1c0,0,0,0,0,0c0,0,0,0,0,0
			c0,0,0,0,0,0c0,0,0,0,0-0.1c0,0,0,0,0,0c0,0,0,0,0,0c0,0,0,0,0,0c0,0,0,0,0,0c0,0,0,0,0,0c0,0,0,0,0,0c0,0,0,0,0,0c0,0,0,0,0,0
			c0,0,0,0,0,0c0,0,0,0,0,0c0,0,0,0,0,0c0,0,0,0,0,0l0,0c0,0,0,0,0,0c0,0,0,0,0,0c0,0,0,0,0,0c0,0,0,0,0,0c0,0,0,0,0,0c0,0,0,0,0,0
			c0,0,0,0,0,0c0,0,0,0,0,0c0,0,0,0,0,0c0,0,0,0,0,0c0,0,0,0,0,0c0.1-0.7,0.2-1.5,0.3-2.2L234.4,89.1L234.4,89.1z M235.6,109.2
			l-1.2,0.2c0.6,3.3,1.5,6.7,2.6,9.8l1.1-0.4C237,115.7,236.2,112.5,235.6,109.2L235.6,109.2z M242.4,127.9l-1,0.6
			c1.7,2.9,3.7,5.8,5.8,8.4l0.9-0.8C246,133.5,244.1,130.8,242.4,127.9L242.4,127.9z M255.2,143.2l-0.8,0.9c2.6,2.2,5.4,4.2,8.3,5.9
			l0.6-1c-0.3-0.2-0.6-0.4-0.9-0.5l0,0c0,0,0,0,0,0c0,0,0,0,0,0c0,0,0,0,0,0c0,0,0,0,0,0c0,0,0,0,0,0c0,0,0,0,0,0c0,0,0,0,0,0
			c0,0,0,0,0,0c0,0-0.1,0-0.1,0c0,0,0,0,0,0c0,0,0,0,0,0c0,0,0,0,0,0c0,0,0,0,0,0c0,0,0,0,0,0c0,0,0,0,0,0c0,0,0,0,0,0c0,0,0,0,0,0
			c0,0,0,0,0,0c0,0,0,0,0,0c0,0,0,0,0,0c0,0,0,0,0,0c0,0,0,0,0,0c0,0,0,0,0,0c0,0,0,0,0,0c0,0,0,0,0,0c0,0,0,0,0,0c0,0,0,0,0,0
			c0,0,0,0,0,0c0,0,0,0,0,0c0,0,0,0,0,0c0,0,0,0,0,0c0,0,0,0,0,0c0,0,0,0,0,0c0,0,0,0,0,0c0,0,0,0,0,0c0,0,0,0,0,0c0,0,0,0,0,0
			c0,0,0,0,0,0c0,0,0,0,0,0c0,0,0,0,0,0l0,0c0,0,0,0,0,0c0,0,0,0,0,0c0,0,0,0,0,0c0,0,0,0,0,0c0,0,0,0,0,0c0,0,0,0,0,0c0,0,0,0,0,0
			c0,0,0,0,0,0c0,0,0,0,0,0c0,0,0,0,0,0c0,0,0,0,0,0c0,0,0,0,0,0c0,0,0,0,0,0c0,0,0,0,0,0c0,0,0,0-0.1,0l0,0c0,0,0,0,0,0
			c0,0,0,0,0,0c0,0,0,0,0,0c0,0,0,0,0,0c0,0,0,0,0,0c0,0,0,0,0,0c0,0,0,0,0,0l0,0c0,0,0,0,0,0l0,0c0,0-0.1,0-0.1-0.1l0,0
			c0,0,0,0,0,0l0,0c0,0,0,0,0,0l0,0c0,0,0,0,0,0l0,0c0,0,0,0,0,0l0,0c-1-0.6-1.9-1.3-2.9-1.9l0,0c0,0,0,0,0,0l0,0c0,0,0,0,0,0l0,0
			c0,0-0.1-0.1-0.1-0.1l0,0c0,0,0,0,0,0l0,0c0,0,0,0,0,0l0,0c0,0,0,0,0,0l0,0c0,0,0,0,0,0l0,0c0,0,0,0-0.1-0.1l0,0c0,0,0,0,0,0l0,0
			c0,0,0,0,0,0l0,0c0,0,0,0,0,0l0,0c0,0,0,0,0,0c0,0,0,0,0,0c0,0,0,0,0,0c0,0,0,0,0,0c0,0,0,0,0,0c0,0,0,0,0,0c0,0,0,0,0,0
			c0,0,0,0,0,0c0,0,0,0,0,0c0,0,0,0,0,0c0,0,0,0,0,0c0,0,0,0,0,0c0,0,0,0,0,0c0,0,0,0,0,0c0,0,0,0,0,0c0,0,0,0,0,0c0,0,0,0,0,0
			c0,0,0,0,0,0c0,0,0,0,0,0c0,0,0,0,0,0c0,0,0,0,0,0c0,0,0,0,0,0c0,0,0,0,0,0l0,0c0,0,0,0,0,0c0,0,0,0,0,0c0,0,0,0,0,0c0,0,0,0,0,0
			c0,0,0,0,0,0c0,0,0,0,0,0c0,0,0,0,0,0c0,0,0,0,0,0c0,0,0,0,0,0c0,0,0,0,0,0c0,0,0,0,0,0c0,0,0,0,0,0c0,0,0,0,0,0c0,0,0,0,0,0
			c0,0,0,0,0,0c0,0,0,0,0,0c0,0,0,0,0,0c0,0,0,0,0,0c0,0,0,0,0,0c0,0,0,0,0,0c0,0,0,0,0,0c0,0,0,0,0,0c0,0,0,0,0,0c0,0,0,0,0,0
			c0,0,0,0,0,0c0,0,0,0,0,0c0,0,0,0,0,0c0,0,0,0,0,0c0,0,0,0,0,0c0,0,0,0,0,0c0,0,0,0,0,0c0,0,0,0,0,0c0,0,0,0,0,0c0,0,0,0,0,0l0,0
			c0,0,0,0,0,0c0,0,0,0,0,0c0,0,0,0,0,0c0,0,0,0,0,0c0,0,0,0,0,0c0,0,0,0,0,0c0,0,0,0,0,0c0,0,0,0,0,0c0,0,0,0,0,0c0,0,0,0,0,0
			c0,0,0,0,0,0c0,0,0,0,0,0c0,0,0,0,0,0c0,0,0,0,0,0c0,0,0,0-0.1,0c0,0,0,0,0,0c0,0,0,0,0,0c0,0,0,0,0,0c0,0,0,0,0,0c0,0,0,0,0,0
			c0,0,0,0,0,0c0,0,0,0,0,0c0,0,0,0,0,0c0,0,0,0,0,0c0,0,0,0,0,0c0,0,0,0,0,0C256.7,144.4,255.9,143.8,255.2,143.2L255.2,143.2z
			 M272.4,153.1l-0.4,1.1c3.2,1.2,6.5,2.1,9.8,2.6l0.2-1.2c-0.4-0.1-0.9-0.2-1.3-0.3l0,0c0,0,0,0,0,0l0,0c0,0,0,0,0,0l0,0
			c0,0,0,0,0,0l0,0c0,0,0,0-0.1,0l0,0c0,0,0,0,0,0c0,0,0,0,0,0c0,0,0,0,0,0c0,0,0,0,0,0c0,0,0,0,0,0c0,0,0,0,0,0c0,0,0,0,0,0
			c0,0,0,0,0,0c0,0,0,0,0,0l0,0c0,0,0,0,0,0c0,0,0,0,0,0c0,0,0,0,0,0c0,0,0,0,0,0c0,0,0,0,0,0c0,0,0,0,0,0c0,0,0,0,0,0c0,0,0,0,0,0
			c0,0,0,0,0,0c0,0,0,0,0,0c0,0,0,0,0,0c0,0,0,0,0,0c0,0,0,0,0,0c0,0,0,0,0,0c0,0,0,0,0,0c0,0,0,0,0,0c0,0,0,0,0,0c0,0,0,0,0,0
			c0,0,0,0,0,0c0,0,0,0,0,0c0,0,0,0,0,0c0,0,0,0,0,0c0,0,0,0,0,0c0,0,0,0-0.1,0c0,0,0,0,0,0c0,0,0,0,0,0c0,0,0,0,0,0c0,0,0,0,0,0
			c0,0,0,0,0,0c0,0,0,0,0,0c0,0,0,0,0,0c0,0,0,0,0,0c0,0,0,0,0,0c0,0,0,0-0.1,0c0,0,0,0,0,0c0,0,0,0,0,0c0,0,0,0,0,0c0,0,0,0,0,0
			c0,0,0,0,0,0C277.3,154.8,274.8,154,272.4,153.1L272.4,153.1z M301.9,155.8c-2.4,0.4-4.9,0.7-7.4,0.8c0,0,0,0,0,0c0,0,0,0,0,0
			c0,0,0,0,0,0c0,0,0,0,0,0c0,0,0,0,0,0c0,0,0,0,0,0c0,0,0,0,0,0c0,0,0,0,0,0c0,0,0,0,0,0c0,0,0,0,0,0c0,0,0,0,0,0c0,0,0,0,0,0
			c0,0,0,0,0,0c0,0,0,0,0,0c0,0,0,0,0,0c0,0-0.1,0-0.1,0c0,0,0,0,0,0c0,0,0,0,0,0c0,0,0,0,0,0c0,0,0,0,0,0c0,0,0,0,0,0c0,0,0,0,0,0
			c0,0,0,0,0,0c0,0,0,0,0,0c0,0,0,0,0,0c0,0,0,0,0,0c0,0,0,0,0,0c0,0,0,0,0,0c0,0,0,0,0,0c0,0,0,0,0,0c0,0,0,0,0,0c0,0,0,0,0,0
			c0,0,0,0,0,0c0,0,0,0,0,0c0,0,0,0,0,0c0,0-0.1,0-0.1,0c0,0,0,0,0,0c0,0,0,0,0,0c0,0,0,0,0,0c0,0,0,0,0,0c0,0,0,0,0,0c0,0,0,0,0,0
			c0,0,0,0,0,0c0,0,0,0,0,0c0,0,0,0,0,0c0,0,0,0,0,0c0,0,0,0,0,0c0,0,0,0,0,0c0,0,0,0,0,0c0,0,0,0,0,0c0,0,0,0,0,0c0,0,0,0,0,0
			c0,0,0,0,0,0c0,0,0,0,0,0c0,0,0,0,0,0c0,0,0,0,0,0c0,0,0,0,0,0c0,0-0.1,0-0.1,0c0,0,0,0,0,0c0,0,0,0,0,0c0,0,0,0,0,0c0,0,0,0,0,0
			c0,0,0,0,0,0c0,0,0,0,0,0c0,0,0,0,0,0c0,0,0,0,0,0c0,0,0,0,0,0c0,0,0,0,0,0c0,0,0,0,0,0c0,0,0,0,0,0c0,0,0,0,0,0c0,0,0,0,0,0
			c0,0,0,0,0,0c0,0,0,0,0,0c0,0,0,0,0,0c0,0,0,0,0,0c0,0,0,0,0,0c0,0,0,0,0,0c0,0,0,0,0,0c0,0,0,0,0,0c0,0,0,0,0,0c0,0,0,0,0,0
			c0,0,0,0,0,0c0,0,0,0,0,0c0,0,0,0,0,0c0,0,0,0,0,0c0,0,0,0,0,0c0,0,0,0,0,0c0,0,0,0,0,0c0,0,0,0,0,0c0,0,0,0,0,0c0,0,0,0,0,0
			c0,0,0,0,0,0c0,0,0,0,0,0c0,0,0,0,0,0c0,0,0,0,0,0c0,0,0,0,0,0c0,0,0,0,0,0c0,0,0,0,0,0c0,0,0,0,0,0c0,0,0,0,0,0c0,0,0,0,0,0
			c0,0,0,0,0,0c0,0,0,0,0,0c0,0,0,0,0,0c0,0,0,0,0,0c0,0,0,0,0,0c0,0,0,0,0,0c0,0,0,0,0,0c0,0,0,0,0,0c0,0,0,0,0,0c0,0,0,0,0,0
			c0,0,0,0,0,0c0,0,0,0,0,0c0,0,0,0,0,0c0,0,0,0,0,0c0,0,0,0,0,0c0,0,0,0,0,0c0,0,0,0,0,0c0,0,0,0,0,0c0,0,0,0,0,0c0,0,0,0,0,0
			c0,0,0,0,0,0c0,0,0,0,0,0c0,0,0,0,0,0c0,0,0,0,0,0c0,0,0,0,0,0c0,0,0,0,0,0c0,0,0,0,0,0c0,0,0,0,0,0c0,0,0,0,0,0c0,0,0,0,0,0
			c0,0,0,0,0,0c0,0,0,0,0,0c0,0,0,0,0,0c0,0,0,0,0,0c0,0,0,0,0,0c0,0,0,0,0,0c0,0,0,0,0,0c0,0,0,0,0,0c0,0,0,0,0,0c0,0,0,0,0,0
			c0,0,0,0,0,0c0,0,0,0,0,0c0,0,0,0,0,0c0,0,0,0,0,0c0,0,0,0,0,0c0,0,0,0,0,0c0,0,0,0,0,0c0,0,0,0,0,0c0,0,0,0,0,0c0,0,0,0,0,0
			c0,0,0,0,0,0c0,0,0,0,0,0c0,0,0,0,0,0c0,0,0,0,0,0c0,0,0,0,0,0c0,0,0,0,0,0c0,0,0,0,0,0c0,0,0,0,0,0c0,0,0,0,0,0c0,0,0,0,0,0
			c0,0,0,0,0,0c0,0,0,0,0,0c0,0,0,0,0,0h0c0,0,0,0,0,0c0,0,0,0,0,0c0,0,0,0,0,0c0,0,0,0,0,0c0,0,0,0,0,0c0,0,0,0,0,0c0,0,0,0,0,0
			c0,0,0,0,0,0c0,0,0,0,0,0c0,0,0,0,0,0c0,0,0,0,0,0c0,0,0,0,0,0c0,0,0,0,0,0c0,0,0,0,0,0c0,0,0,0,0,0c0,0,0,0,0,0c0,0,0,0,0,0
			c0,0,0,0,0,0c0,0,0,0,0,0c0,0,0,0,0,0c0,0,0,0,0,0c0,0,0,0,0,0c0,0,0,0,0,0c0,0,0,0,0,0c0,0,0,0,0,0c0,0,0,0,0,0c0,0,0,0,0,0
			c0,0,0,0,0,0c0,0,0,0,0,0l0,0l0,0c0,0,0,0,0,0c0,0,0,0,0,0c0,0,0,0,0,0c0,0,0,0,0,0c0,0,0,0,0,0c0,0,0,0,0,0c0,0,0,0,0,0
			c0,0-0.1,0-0.1,0l0,1.2l0.2,0c3.3,0,6.7-0.3,9.9-0.9L301.9,155.8L301.9,155.8z M320.6,149C320.6,149,320.6,149,320.6,149
			C320.6,149,320.6,149,320.6,149C320.6,149.1,320.6,149.1,320.6,149C320.6,149.1,320.6,149.1,320.6,149
			C320.6,149.1,320.6,149.1,320.6,149C320.6,149.1,320.6,149.1,320.6,149C320.6,149.1,320.6,149.1,320.6,149
			C320.6,149.1,320.6,149.1,320.6,149C320.6,149.1,320.6,149.1,320.6,149C320.6,149.1,320.5,149.1,320.6,149
			C320.5,149.1,320.5,149.1,320.6,149C320.5,149.1,320.5,149.1,320.6,149c-0.1,0.1-0.1,0.1-0.1,0.1c0,0,0,0,0,0c0,0,0,0,0,0
			c0,0,0,0,0,0c0,0,0,0,0,0c0,0,0,0,0,0c0,0,0,0,0,0c0,0,0,0,0,0c0,0,0,0,0,0c0,0,0,0,0,0c0,0,0,0,0,0c0,0,0,0,0,0c0,0,0,0,0,0
			c0,0,0,0,0,0c0,0,0,0,0,0c0,0,0,0,0,0c0,0,0,0,0,0c0,0,0,0,0,0c0,0,0,0,0,0c0,0,0,0,0,0c0,0,0,0,0,0c0,0,0,0,0,0c0,0,0,0,0,0
			c0,0,0,0,0,0l0,0c0,0,0,0,0,0l0,0c-1,0.6-2.1,1.1-3.1,1.6c0,0,0,0,0,0c0,0,0,0,0,0c0,0,0,0,0,0c0,0,0,0,0,0c0,0,0,0,0,0
			c0,0,0,0-0.1,0c0,0,0,0,0,0c0,0,0,0,0,0c0,0,0,0,0,0c0,0,0,0,0,0c0,0,0,0,0,0c0,0,0,0,0,0c0,0,0,0,0,0c0,0,0,0,0,0c0,0,0,0,0,0
			c0,0,0,0,0,0c0,0,0,0,0,0c0,0,0,0,0,0c0,0,0,0,0,0c0,0,0,0,0,0c0,0,0,0,0,0c0,0,0,0,0,0c0,0,0,0,0,0c0,0,0,0,0,0c0,0,0,0,0,0
			c0,0,0,0,0,0c0,0,0,0,0,0c0,0,0,0,0,0c0,0,0,0,0,0c0,0,0,0,0,0c0,0,0,0,0,0c0,0,0,0,0,0c0,0,0,0,0,0c0,0,0,0,0,0c0,0,0,0,0,0
			c0,0,0,0,0,0c0,0,0,0,0,0c0,0,0,0,0,0c0,0,0,0,0,0c0,0,0,0,0,0c0,0,0,0,0,0c0,0,0,0,0,0c0,0,0,0,0,0c0,0,0,0,0,0c0,0,0,0,0,0
			c0,0,0,0,0,0c0,0,0,0,0,0c0,0,0,0,0,0c0,0,0,0,0,0c0,0,0,0,0,0c0,0,0,0,0,0c0,0,0,0,0,0c0,0,0,0,0,0c0,0,0,0,0,0c0,0,0,0,0,0
			c0,0,0,0,0,0c0,0,0,0,0,0c0,0,0,0,0,0c0,0,0,0,0,0c0,0,0,0,0,0c0,0,0,0,0,0c0,0,0,0,0,0c0,0,0,0,0,0c0,0,0,0,0,0c0,0,0,0,0,0
			c0,0,0,0,0,0c0,0,0,0,0,0c0,0,0,0,0,0c0,0,0,0,0,0c0,0,0,0,0,0c0,0,0,0,0,0c0,0,0,0,0,0c0,0,0,0,0,0c0,0,0,0,0,0c0,0,0,0,0,0
			c0,0,0,0,0,0c0,0,0,0,0,0c0,0,0,0,0,0c0,0,0,0,0,0c0,0,0,0,0,0c0,0,0,0,0,0c0,0,0,0,0,0c0,0,0,0,0,0c0,0,0,0,0,0c0,0,0,0,0,0
			c0,0,0,0,0,0c0,0,0,0-0.1,0c0,0,0,0,0,0c0,0,0,0,0,0c0,0,0,0,0,0c0,0,0,0,0,0c0,0,0,0,0,0c0,0,0,0,0,0c0,0,0,0,0,0c0,0,0,0,0,0
			c0,0,0,0,0,0c0,0,0,0,0,0l0,0c0,0,0,0,0,0l0,0c0,0,0,0,0,0l0,0c0,0,0,0,0,0c0,0,0,0,0,0c0,0,0,0,0,0c0,0,0,0,0,0c0,0,0,0,0,0
			c0,0,0,0,0,0c0,0,0,0,0,0c0,0,0,0,0,0c0,0,0,0,0,0c0,0,0,0,0,0c0,0,0,0,0,0c0,0,0,0,0,0c0,0,0,0,0,0c0,0,0,0,0,0c0,0,0,0,0,0
			c0,0,0,0,0,0c0,0,0,0,0,0c0,0,0,0,0,0c0,0,0,0,0,0c0,0,0,0,0,0c0,0,0,0,0,0c0,0,0,0,0,0c0,0,0,0,0,0c0,0,0,0,0,0c0,0,0,0,0,0
			c0,0,0,0,0,0c0,0,0,0,0,0c0,0,0,0,0,0c0,0,0,0,0,0c0,0,0,0,0,0c0,0,0,0,0,0c0,0,0,0,0,0c0,0,0,0,0,0c0,0,0,0,0,0c0,0,0,0,0,0
			c0,0,0,0,0,0c0,0,0,0,0,0c0,0,0,0,0,0c0,0,0,0,0,0c0,0,0,0,0,0c0,0,0,0,0,0c0,0,0,0,0,0c0,0,0,0,0,0c0,0,0,0,0,0c0,0,0,0,0,0
			c0,0,0,0,0,0c0,0,0,0,0,0c0,0,0,0,0,0c0,0,0,0,0,0c0,0,0,0,0,0c0,0,0,0,0,0c0,0,0,0,0,0c0,0,0,0,0,0c0,0,0,0,0,0c0,0,0,0,0,0
			c0,0,0,0,0,0c0,0,0,0,0,0c0,0,0,0,0,0c0,0,0,0,0,0l0,0c0,0,0,0,0,0l0,0c0,0,0,0,0,0l0,0c0,0,0,0,0,0l0,0c0,0,0,0,0,0l0,0
			c0,0,0,0,0,0l0,0c0,0,0,0,0,0c0,0,0,0,0,0c0,0,0,0,0,0c0,0,0,0,0,0c0,0,0,0,0,0c0,0,0,0,0,0c0,0,0,0,0,0c0,0,0,0,0,0c0,0,0,0,0,0
			l0,0c0,0,0,0,0,0l0,0c0,0,0,0,0,0l0,0c0,0,0,0,0,0l0,0c0,0,0,0,0,0l0,0c0,0,0,0,0,0l0,0c-0.2,0.1-0.4,0.2-0.6,0.3l0,0c0,0,0,0,0,0
			l0,0c-0.8,0.3-1.5,0.6-2.3,0.9l0,0c0,0,0,0,0,0l0,0c0,0,0,0,0,0l0,0c0,0,0,0,0,0l0,0c0,0,0,0,0,0l0,0c0,0,0,0,0,0l0,0c0,0,0,0,0,0
			l0,0c0,0,0,0,0,0l0,0c0,0,0,0,0,0c0,0,0,0,0,0c0,0,0,0,0,0c0,0,0,0,0,0c0,0,0,0,0,0l0,0c0,0,0,0,0,0c0,0,0,0,0,0c0,0,0,0,0,0
			c0,0,0,0,0,0c0,0,0,0,0,0c0,0,0,0,0,0c0,0,0,0,0,0c0,0,0,0,0,0c0,0,0,0,0,0c0,0,0,0,0,0c0,0,0,0,0,0c0,0,0,0,0,0c0,0,0,0,0,0
			c0,0,0,0,0,0c0,0,0,0,0,0c0,0,0,0,0,0c0,0,0,0,0,0c0,0,0,0,0,0c0,0,0,0,0,0c0,0,0,0,0,0c0,0,0,0,0,0c0,0,0,0,0,0c0,0,0,0,0,0
			c0,0,0,0,0,0c0,0,0,0,0,0c0,0,0,0,0,0c0,0,0,0,0,0c0,0,0,0,0,0c0,0,0,0,0,0c0,0,0,0,0,0c0,0,0,0,0,0c0,0,0,0,0,0c0,0,0,0,0,0
			c0,0,0,0,0,0c0,0,0,0,0,0c0,0,0,0,0,0c0,0,0,0,0,0c0,0,0,0,0,0c0,0,0,0,0,0c0,0,0,0,0,0c0,0,0,0,0,0c0,0,0,0,0,0c0,0,0,0,0,0
			c0,0,0,0,0,0c0,0,0,0,0,0c0,0,0,0,0,0c0,0,0,0,0,0c0,0,0,0,0,0c0,0,0,0,0,0c0,0,0,0,0,0c0,0,0,0,0,0c0,0,0,0,0,0c0,0,0,0,0,0
			c0,0,0,0,0,0c0,0,0,0,0,0c0,0,0,0,0,0c0,0,0,0,0,0c0,0,0,0,0,0c0,0,0,0,0,0c0,0,0,0,0,0c0,0,0,0,0,0c0,0,0,0,0,0c0,0,0,0,0,0
			c0,0,0,0,0,0c0,0,0,0,0,0c0,0,0,0,0,0c0,0,0,0,0,0c0,0,0,0,0,0c0,0,0,0,0,0c0,0,0,0,0,0c0,0,0,0,0,0c0,0,0,0,0,0c0,0,0,0,0,0
			l0.4,1.1c3.2-1.2,6.3-2.6,9.2-4.3L320.6,149L320.6,149z M335.9,136.3C335.9,136.3,335.9,136.3,335.9,136.3
			C335.9,136.3,335.9,136.3,335.9,136.3C335.9,136.3,335.9,136.3,335.9,136.3C335.9,136.3,335.9,136.3,335.9,136.3
			C335.9,136.3,335.9,136.3,335.9,136.3C335.9,136.3,335.9,136.3,335.9,136.3C335.9,136.3,335.9,136.3,335.9,136.3
			C335.9,136.4,335.9,136.4,335.9,136.3C335.9,136.4,335.9,136.4,335.9,136.3C335.9,136.4,335.9,136.4,335.9,136.3
			C335.9,136.4,335.8,136.4,335.9,136.3C335.8,136.4,335.8,136.4,335.9,136.3C335.8,136.4,335.8,136.4,335.9,136.3
			c-0.1,0.1-0.1,0.1-0.1,0.1c0,0,0,0,0,0c0,0,0,0,0,0c0,0,0,0,0,0c0,0,0,0,0,0c0,0,0,0,0,0c0,0,0,0,0,0c0,0,0,0,0,0c0,0,0,0,0,0
			c0,0,0,0,0,0c0,0,0,0,0,0c0,0,0,0,0,0c0,0,0,0,0,0c0,0,0,0,0,0c0,0,0,0,0,0c0,0,0,0,0,0c0,0,0,0,0,0c0,0,0,0,0,0c0,0,0,0,0,0
			c0,0,0,0,0,0c0,0,0,0,0,0c0,0,0,0,0,0c0,0,0,0,0,0c0,0,0,0,0,0c0,0,0,0,0,0l0,0c0,0,0,0,0,0c0,0,0,0,0,0c0,0,0,0,0,0l0,0
			c0,0,0,0,0,0c0,0,0,0,0,0c0,0,0,0,0,0l0,0c0,0,0,0,0,0l0,0c-2.1,2.4-4.3,4.6-6.8,6.6l0.8,0.9c2.6-2.2,5-4.6,7.2-7.2L335.9,136.3
			L335.9,136.3z M345.9,119.1c-0.3,0.9-0.7,1.9-1.1,2.8l0,0c0,0,0,0,0,0l0,0c0,0,0,0,0,0c0,0,0,0,0,0c0,0,0,0,0,0c0,0,0,0,0,0
			c0,0,0,0,0,0c0,0,0,0,0,0c0,0,0,0,0,0c0,0,0,0,0,0c0,0,0,0,0,0c0,0,0,0,0,0c0,0,0,0,0,0c0,0,0,0,0,0c0,0,0,0,0,0c0,0,0,0,0,0
			c0,0,0,0,0,0c0,0,0,0,0,0c0,0,0,0,0,0c0,0,0,0,0,0c0,0,0,0,0,0c0,0,0,0,0,0c0,0,0,0,0,0c0,0,0,0,0,0c0,0,0,0,0,0c0,0,0,0,0,0
			c0,0,0,0,0,0c0,0,0,0,0,0c0,0,0,0,0,0c0,0,0,0,0,0c0,0,0,0,0,0c0,0,0,0,0,0c0,0,0,0,0,0c0,0,0,0,0,0c0,0,0,0,0,0c0,0,0,0,0,0
			c0,0,0,0,0,0c0,0,0,0,0,0c0,0,0,0,0,0c0,0,0,0,0,0c0,0,0,0,0,0c0,0,0,0,0,0.1v0c0,0,0,0,0,0c0,0,0,0,0,0c0,0,0,0,0,0c0,0,0,0,0,0
			c0,0,0,0,0,0c0,0,0,0,0,0c0,0,0,0,0,0c0,0,0,0,0,0c0,0,0,0,0,0c0,0,0,0,0,0c0,0,0,0,0,0c0,0,0,0,0,0c0,0,0,0,0,0c0,0,0,0,0,0
			c0,0,0,0,0,0c0,0,0,0,0,0c0,0,0,0,0,0c0,0,0,0,0,0c0,0,0,0,0,0c0,0,0,0,0,0c0,0,0,0,0,0c0,0,0,0,0,0c0,0,0,0,0,0c0,0,0,0,0,0
			c0,0,0,0,0,0c0,0,0,0,0,0c0,0,0,0,0,0c0,0,0,0,0,0c0,0,0,0,0,0c0,0,0,0,0,0c0,0,0,0,0,0c0,0,0,0,0,0c0,0,0,0,0,0c0,0,0,0,0,0
			c0,0,0,0,0,0c0,0,0,0,0,0c0,0,0,0,0,0c0,0,0,0,0,0c0,0,0,0,0,0c0,0,0,0,0,0c-0.7,1.5-1.4,3-2.2,4.5l0,0c0,0,0,0,0,0l0,0
			c0,0,0,0,0,0c0,0,0,0,0,0c0,0,0,0,0,0c0,0,0,0,0,0c0,0,0,0,0,0c0,0,0,0,0,0c0,0,0,0,0,0c0,0,0,0,0,0c0,0,0,0,0,0c0,0,0,0,0,0
			c0,0,0,0,0,0c0,0,0,0,0,0c0,0,0,0,0,0l0,0c0,0,0,0,0,0l0,0c0,0,0,0,0,0c0,0,0,0,0,0c0,0-0.1,0.1-0.1,0.1c0,0,0,0,0,0c0,0,0,0,0,0
			c0,0,0,0,0,0c0,0,0,0,0,0c0,0,0,0,0,0c0,0,0,0,0,0c0,0,0,0,0,0c0,0,0,0,0,0c0,0,0,0,0,0c0,0,0,0,0,0c0,0,0,0,0,0c0,0,0,0,0,0
			c0,0,0,0,0,0c0,0,0,0,0,0c0,0,0,0,0,0c0,0,0,0,0,0c0,0,0,0,0,0c0,0,0,0,0,0c0,0,0,0,0,0c0,0,0,0,0,0c0,0,0,0,0,0c0,0,0,0,0,0
			c0,0,0,0,0,0c0,0,0,0,0,0c0,0,0,0,0,0c0,0,0,0,0,0c0,0,0,0,0,0c0,0,0,0,0,0c0,0,0,0,0,0c0,0,0,0,0,0c0,0,0,0,0,0c0,0,0,0,0,0
			c0,0,0,0,0,0l0,0c0,0,0,0,0,0l0,0c0,0,0,0,0,0l0,0c0,0,0,0,0,0l0,0c-0.1,0.1-0.1,0.2-0.2,0.3l1,0.6c1.7-2.9,3.2-6,4.3-9.2
			L345.9,119.1L345.9,119.1z M349.5,99.5C349.5,99.5,349.5,99.5,349.5,99.5C349.5,99.5,349.5,99.5,349.5,99.5
			C349.5,99.6,349.5,99.6,349.5,99.5L349.5,99.5C349.5,99.6,349.5,99.6,349.5,99.5c0,0.1,0,0.1,0,0.1c0,0,0,0,0,0v0c0,0,0,0,0,0.1v0
			c0,0,0,0,0,0l0,0c0,0,0,0.1,0,0.1v0c0,0,0,0,0,0v0c0,1.7-0.1,3.5-0.3,5.3l0,0c0,0,0,0.1,0,0.1l0,0c0,0,0,0,0,0l0,0
			c0,0,0,0.1,0,0.1l0,0c0,0,0,0,0,0l0,0c0,0,0,0,0,0.1l0,0c0,0,0,0,0,0c0,0,0,0,0,0c0,0,0,0,0,0l0,0c0,0,0,0,0,0.1l0,0c0,0,0,0,0,0
			c0,0,0,0,0,0c0,0,0,0,0,0l0,0c0,0,0,0,0,0.1c0,0,0,0,0,0c0,0,0,0,0,0c0,0,0,0,0,0c0,0,0,0,0,0.1l0,0c0,0,0,0,0,0c0,0,0,0,0,0
			c0,0,0,0,0,0c0,0,0,0,0,0c0,0,0,0,0,0.1c0,0,0,0,0,0c0,0,0,0,0,0c0,0,0,0,0,0c0,0,0,0,0,0c0,0,0,0,0,0c0,0,0,0,0,0.1c0,0,0,0,0,0
			c0,0,0,0,0,0c0,0,0,0,0,0c0,0,0,0,0,0c0,0,0,0,0,0c0,0,0,0,0,0c0,0,0,0,0,0c0,0,0,0,0,0c0,0,0,0,0,0c0,0,0,0,0,0c0,0,0,0,0,0
			c0,0,0,0,0,0c0,0,0,0,0,0c0,0,0,0,0,0c0,0,0,0,0,0c0,0,0,0,0,0c0,0,0,0,0,0c0,0,0,0,0,0c0,0,0,0,0,0c0,0,0,0,0,0c0,0,0,0,0,0
			c0,0,0,0,0,0c0,0,0,0,0,0c0,0,0,0,0,0c0,0,0,0,0,0c0,0,0,0,0,0c0,0,0,0,0,0c0,0,0,0,0,0c0,0,0,0,0,0c0,0,0,0,0,0c0,0,0,0,0,0
			c0,0,0,0,0,0c0,0,0,0,0,0c0,0,0,0,0,0c0,0,0,0,0,0c0,0,0,0,0,0c0,0,0,0,0,0c0,0,0,0,0,0c0,0,0,0,0,0c0,0,0,0,0,0c0,0,0,0,0,0
			c0,0,0,0,0,0c0,0,0,0,0,0c0,0,0,0,0,0c0,0,0,0,0,0c0,0,0,0,0,0c0,0,0,0,0,0c0,0,0,0,0,0c0,0,0,0,0,0c0,0,0,0,0,0c0,0,0,0,0,0
			c0,0,0,0,0,0c0,0,0,0,0,0c0,0,0,0,0,0c0,0,0,0,0,0c0,0,0,0,0,0c0,0,0,0,0,0c0,0,0,0,0,0c0,0,0,0,0,0c0,0,0,0,0,0c0,0,0,0,0,0
			c0,0,0,0,0,0c0,0,0,0,0,0c0,0,0,0,0,0c0,0,0,0,0,0l0,0c0,0,0,0,0,0c0,0,0,0,0,0c0,0,0,0,0,0c0,0,0,0,0,0c0,0,0,0,0,0c0,0,0,0,0,0
			c0,0,0,0,0,0c0,0,0,0,0,0c0,0,0,0,0,0c0,0,0,0,0,0c0,0,0,0,0,0c0,0,0,0,0,0c0,0,0,0,0,0c0,0,0,0,0,0c0,0,0,0,0,0c0,0,0,0,0,0
			c0,0,0,0,0,0c0,0,0,0,0,0c0,0,0,0,0,0c0,0.4-0.1,0.7-0.2,1.1c0,0,0,0,0,0c0,0,0,0,0,0c0,0,0,0,0,0c0,0,0,0,0,0c0,0,0,0,0,0
			c0,0,0,0,0,0c0,0,0,0,0,0c0,0,0,0,0,0c0,0,0,0,0,0c0,0,0,0,0,0c0,0,0,0,0,0c0,0,0,0,0,0c0,0,0,0,0,0c0,0,0,0,0,0c0,0,0,0,0,0
			c0,0,0,0,0,0c0,0,0,0,0,0l0,0c0,0,0,0,0,0l0,0c-0.1,0.4-0.1,0.7-0.2,1.1l1.2,0.2c0.2-0.9,0.3-1.7,0.4-2.6c0.3-2.5,0.5-5,0.5-7.6
			L349.5,99.5L349.5,99.5z M347.2,79.5l-1.1,0.4c1.1,3.1,2,6.3,2.5,9.7l1.2-0.2C349.2,86,348.4,82.7,347.2,79.5L347.2,79.5z
			 M337.1,61.9l-0.9,0.8c0,0,0,0,0,0c0,0,0,0,0,0c0,0,0,0,0,0c0,0,0,0,0,0c0,0,0,0,0,0c0,0,0,0,0,0c0,0,0,0,0,0c0,0,0,0,0,0
			c0,0,0,0,0,0c0,0,0,0,0,0c0,0,0,0,0,0c0,0,0,0,0,0c0,0,0,0,0,0c0,0,0,0,0,0c0,0,0,0,0,0c0,0,0,0,0,0c0,0,0,0,0,0c0,0,0,0,0,0
			c0,0,0,0,0,0c0,0,0,0,0,0c0,0,0,0,0,0c0,0,0,0,0,0c0,0,0,0,0,0c0,0,0,0,0,0c0,0,0,0,0,0c0,0,0,0,0,0c0,0,0,0,0,0c0,0,0,0,0,0
			c0,0,0,0,0,0l0,0c0,0,0,0,0,0l0,0c0,0,0,0,0,0l0,0c0,0,0,0,0,0l0,0c0,0,0,0,0,0l0,0c0,0,0,0,0,0l0,0c2,2.5,3.8,5.1,5.4,7.8l1-0.6
			C341.3,67.3,339.3,64.5,337.1,61.9L337.1,61.9z M321.7,48.7l-0.6,1c2.9,1.7,5.6,3.6,8.1,5.8l0.8-0.9
			C327.4,52.4,324.6,50.4,321.7,48.7L321.7,48.7z M302.6,41.7l-0.2,1.2c3.3,0.6,6.6,1.5,9.6,2.6l0.4-1.1
			C309.3,43.2,306,42.3,302.6,41.7L302.6,41.7z M292,40.7v1.2c0,0,0,0,0,0c0,0,0,0,0,0c0,0,0,0,0,0c0,0,0,0,0,0c0,0,0,0,0,0
			c0,0,0,0,0,0c0,0,0,0,0,0c0.1,0,0.2,0,0.3,0l0-1.2L292,40.7L292,40.7z"/>
	</g>
	<g>
		<path class="st3" d="M286.4,121.7c-4-1.4-6.9-3.8-8.8-7c-1.9-3.3-2.7-7.2-2.3-11.7l-4.2-1.5l1.8-5l3.3,1.2
			c0.1-0.7,0.3-1.3,0.6-1.9c0.2-0.6,0.5-1.3,0.8-1.9l-3.3-1.2l1.8-5l4,1.4c2.6-3.8,5.7-6.5,9.4-7.9c3.7-1.5,7.5-1.5,11.4-0.1
			c2.8,1,5.1,2.3,6.8,4c1.8,1.7,3.1,3.7,3.9,6c0.8,2.3,1.1,4.9,0.8,7.6l-8.9-0.3c0.2-1.5,0.2-3-0.1-4.4c-0.3-1.4-0.9-2.6-1.8-3.7
			c-0.9-1.1-2.1-1.9-3.6-2.4c-2-0.7-4-0.7-6,0.1c-2,0.8-3.9,2.1-5.7,3.8l1.6,2.4c0.9-0.6,1.8-0.9,2.6-1c0.8-0.1,1.6,0,2.4,0.3
			l3.7,1.3l-1.8,5l-8.9-3.2c-0.3,0.6-0.6,1.2-0.8,1.9c-0.2,0.6-0.4,1.3-0.6,2l8.9,3.2l-1.8,5l-3.7-1.3c-0.8-0.3-1.5-0.7-2-1.3
			c-0.6-0.6-1-1.4-1.4-2.3l-2.8,0.8c0.3,2.4,1.1,4.5,2.2,6.2c1.2,1.7,2.8,3,4.9,3.7c2.2,0.8,4.1,0.7,5.8-0.1
			c1.7-0.9,3.3-2.5,4.9-4.9l7,5.8c-1.9,2.4-3.8,4.3-5.9,5.5c-2,1.2-4.3,2-6.6,2.1C291.8,123.1,289.2,122.7,286.4,121.7z"/>
	</g>
</g>
<g>
	<g>
		<path class="st4" d="M388.9,0c5.1,12.3,8.9,25.1,12.1,38c1.2,5.2,2.3,10.4,2.9,15.8c0.2,2.6,0.6,5.4-0.1,8
			c0-5.3-1.9-10.4-3.1-15.5c0,0-4.1-15.4-4.1-15.4C393.9,20.7,391.1,10.4,388.9,0L388.9,0z"/>
	</g>
	<g>
		<path class="st4" d="M415.9,19.8c4.1,11.6,11.1,39.4,8.3,50.9c0.1-4.3-1-8.5-1.7-12.7c0,0-2.4-12.7-2.4-12.7
			C418.5,36.8,416.9,28.4,415.9,19.8L415.9,19.8z"/>
	</g>
	<g>
		<path class="st4" d="M157.6,16.6c7,8.9,26.2,39.7,24.2,50.4c0.1-1.2-0.3-2.3-0.6-3.4c-2.8-7.7-7-14.7-10.7-22
			C166.6,34.2,161,24,157.6,16.6L157.6,16.6z"/>
	</g>
	<g>
		<path class="st4" d="M148.4,38.2c4.7,6.2,8.6,12.9,12.1,19.9c2.9,6.2,5.9,12.5,6.5,19.4c0,1,0,2-0.3,2.9c-0.1-3.9-2-7.3-3.5-10.8
			c-1.6-3.5-3.3-6.9-5-10.4C155.3,53,151,44.4,148.4,38.2L148.4,38.2z"/>
	</g>
</g>
<polygon class="st5" points="579.8,127 18.9,127 18.9,197.1 109.9,303.2 109.9,718 504.1,718 504.1,287.7 504.1,287.7 579.8,197.1 
	"/>
<g>
	<path class="st0" d="M404.9,586.3H193.8c-14.8,0-26.7-12-26.7-26.7v-7.9c0-14.8,12-26.7,26.7-26.7h211.1c14.8,0,26.7,12,26.7,26.7
		v7.9C431.6,574.3,419.6,586.3,404.9,586.3z"/>
	<path class="st4" d="M404.9,586.3c-42.2,0-108.7,0.5-151.4,0.9c-12.4,0.1-44.8,0.4-56.8,0.5c-15.8,1.2-29.6-9.7-31.1-25.7
		c-0.2-2.7-0.1-6.9-0.2-9.6c-0.4-15.8,12.6-29.1,28.4-29.1c42.3-0.1,108.7,0.5,151.4,0.9c0,0,37.9,0.3,37.9,0.3s18.9,0.2,18.9,0.2
		c6.3-0.2,12.9,1.2,18.1,4.9c8.2,5.6,12.1,14.9,11.6,24.7c-0.1,3.1,0.1,6.3-0.4,9.5C429.6,576.4,417.7,586.4,404.9,586.3
		L404.9,586.3z M404.9,586.3c12.8,0.1,24.6-9.9,26.3-22.7c0.5-3.1,0.3-6.3,0.3-9.4c0.4-9.7-3.5-18.8-11.6-24.3
		c-5.2-3.6-11.5-4.8-17.8-4.5c0,0-18.9,0.2-18.9,0.2s-37.9,0.3-37.9,0.3c-25.1,0.2-89.3,0.8-113.6,0.8c0,0-37.9,0.1-37.9,0.1
		c-5.9,0-11.8,2.2-16.3,6c-4.8,4-7.9,10-8.6,16.2c-0.2,2.1-0.1,5.9-0.2,8.1c0,2.9,0,6.1,0.8,9c3.3,12.4,14.5,19.6,27.1,18.9
		c11.9,0.1,44.5,0.4,56.8,0.5C296.3,585.7,362.5,586.3,404.9,586.3L404.9,586.3z"/>
</g>
<g>
	<circle class="st0" cx="299.4" cy="339.1" r="76.1"/>
	<path class="st4" d="M299.4,263c30.2-0.4,59.2,18.9,70.8,46.8c21.6,50.6-15.7,107.2-70.8,107.2c-30.8,0.3-60.3-19.6-71.4-48.2
		C207.6,318.4,245.2,262.8,299.4,263L299.4,263z M299.4,263c-30.1-0.3-58.9,19.1-69.8,47.2c-19.8,49.2,16.7,103.3,69.8,103.2
		c53,0.2,89.7-54.1,69.8-103.2C358.3,282.2,329.4,262.7,299.4,263L299.4,263z"/>
</g>
<g>
	<path class="st4" d="M293.6,287.6c0.4-8.1,11.9-7.4,11.6,0.7c0,1.2,0.1,4.9,0.1,6.2c0,5.4,0.8,35.5,0.9,41.5c0,0-0.5-0.9-0.5-0.9
		c5.4,3.5,10.9,6.9,16.3,10.4c4.7,3.1,11.7,7.5,16.3,10.7c7.3,6.1-0.7,17.1-8.8,12c-9.9-6.6-23.4-16.2-33.3-23.1
		c-2.2-1.3-4.1-4-3.7-6.7c0,0,0.1-2.4,0.1-2.4C293.1,319.9,293.5,303.6,293.6,287.6L293.6,287.6z M293.6,287.6
		c-0.1,16,0.1,32.4,0.4,48.4c0,0,0,2.4,0,2.4c-0.1,2.4,1.3,4,3.2,5.1c10.1,6.3,23.8,15.1,33.6,21.5c4.9,3.7,9.8-3.7,4.4-6.8
		c-4.1-2.7-10.9-7.4-15-10.2c-5.5-3.8-10.9-7.6-16.4-11.4c0,0,0-0.6,0-0.6l0.8-33.2c0.1-4,0.1-8.4,0.2-12.5c0-1.1,0.2-3.1-0.1-4.1
		C303.2,279.8,293.8,280.9,293.6,287.6L293.6,287.6z"/>
</g>
<g>
	<g>
		<path class="st4" d="M250.9,332.4c1-3.5,2.5-6.9,4.2-10.2c1.8-3.2,3.9-6.3,6.4-9c2.5-2.7,5.3-5.2,8.6-7.1
			c3.2-1.9,6.8-3.2,10.4-3.7c-3.4,1.3-6.6,3-9.6,5c-2.9,2-5.6,4.5-7.9,7.1c-2.4,2.7-4.5,5.5-6.5,8.6c-2,3-3.7,6.2-5.3,9.5
			L250.9,332.4z"/>
		<g>
			<path class="st4" d="M261.3,325.3c-0.3-0.3-0.7-0.4-1.1-0.1l-9.1,7l-2.5-11.2c-0.1-0.4-0.5-0.7-0.9-0.6c-0.4,0.1-0.7,0.5-0.6,0.9
				l2.7,12.4c0.1,0.2,0.2,0.5,0.5,0.5c0.2,0.1,0.5,0,0.7-0.1l10-7.7c0.1-0.1,0.2-0.2,0.2-0.3C261.5,325.7,261.5,325.5,261.3,325.3z"
				/>
		</g>
	</g>
</g>
<g>
	<g>
		<path class="st4" d="M0,197.3c200.2-2.3,405.1-2.4,605.2,0C405.1,199.6,200.2,199.6,0,197.3L0,197.3z"/>
	</g>
	<g>
		<path class="st4" d="M504.1,751.7c-2.3-192.4-2.4-389.2,0-581.6C506.4,362.5,506.4,559.4,504.1,751.7L504.1,751.7z"/>
	</g>
	<g>
		<path class="st4" d="M75.7,718c154.6-2.4,311.8-2.4,466.4,0C387.5,720.4,230.2,720.4,75.7,718L75.7,718z"/>
	</g>
	<g>
		<path class="st4" d="M109.9,170.2c2.3,192.3,2.4,389.2,0,581.5C107.5,559.3,107.5,362.5,109.9,170.2L109.9,170.2z"/>
	</g>
	<g>
		<path class="st4" d="M12.5,189.6c17.3,18.1,34.5,37.7,50.9,56.7c16.3,19.1,33.1,39.1,48.3,59c-17.3-18.1-34.5-37.7-50.9-56.7
			C44.5,229.5,27.7,209.5,12.5,189.6L12.5,189.6z"/>
	</g>
	<g>
		<path class="st4" d="M18.9,98.1c2.4,45.6,2.4,91.8,0,137.4C16.5,189.9,16.5,143.7,18.9,98.1L18.9,98.1z"/>
	</g>
	<g>
		<path class="st4" d="M579.8,225.1c-0.3-24.5-0.6-73.7-0.9-98.1c0,0,0.9,0.9,0.9,0.9c-24.2,0.1-84.6,0.5-107.9,0.6
			c-155.2,0.4-312.4,0.4-467.5-1.5c167.1-2,336.3-2,503.5-1.3c0,0,71.9,0.4,71.9,0.4s0.9,0,0.9,0C580.4,151,580.1,200.2,579.8,225.1
			L579.8,225.1z"/>
	</g>
	<g>
		<path class="st4" d="M498.6,294.2c27.7-36.7,57.6-72.5,88.9-106.1C559.9,224.9,529.9,260.6,498.6,294.2L498.6,294.2z"/>
	</g>
</g>
<g>
	<defs>
		<rect id="SVGID_1_" x="117.4" y="526.2" width="340.3" height="264.7"/>
	</defs>
	<clipPath id="SVGID_00000161608079700389463190000001176749520817754045_">
		<use xlink:href="#SVGID_1_"  style="overflow:visible;"/>
	</clipPath>
	<g style="clip-path:url(#SVGID_00000161608079700389463190000001176749520817754045_);">
		<g>
			
				<rect x="227.3" y="498.1" transform="matrix(0.9946 -0.1039 0.1039 0.9946 -63.951 35.3456)" class="st7" width="159.8" height="266.6"/>
			<path class="st8" d="M228.2,518.7L228.2,518.7L228.2,518.7L228.2,518.7l25,239.3l133.1-13.9l-25-239.3L228.2,518.7z M346.1,739.6
				l-54.4,5.7c-4.9-15.1-18.3-26-34.1-27.6l-16.8-160.5c15-4.9,25.9-18.2,27.6-33.9l54.2-5.7c5,15,18.3,25.8,34,27.4l16.8,160.6
				C358.6,710.5,347.8,723.9,346.1,739.6z"/>
		</g>
		<g>
			
				<rect x="222.5" y="468.2" transform="matrix(0.999 -4.388065e-02 4.388065e-02 0.999 -26.1035 13.8493)" class="st7" width="159.8" height="266.6"/>
			<path class="st8" d="M230.3,484.3L230.3,484.3L230.3,484.3L230.3,484.3l10.6,240.4l133.7-5.9L364,478.4L230.3,484.3z
				 M334.7,711.8l-54.6,2.4c-4-15.4-16.7-27-32.4-29.6l-7.1-161.2c15.3-4,26.9-16.6,29.6-32.2l54.5-2.4c4,15.3,16.7,26.8,32.3,29.4
				l7.1,161.3C348.9,683.6,337.3,696.3,334.7,711.8z"/>
		</g>
		<g>
			<rect x="216.7" y="437.7" class="st9" width="159.8" height="266.6"/>
			<circle class="st8" cx="296.6" cy="571" r="33.1"/>
			<g>
				<g>
					<path class="st10" d="M296.9,587c-3.1,0-5.7-0.9-7.9-2.7c-2.2-1.8-3.6-4.3-4.5-7.5h-3.2v-3.9h2.6c-0.1-0.5-0.1-1-0.1-1.5
						c0-0.5,0-1,0.1-1.5h-2.6V566h3.1c0.8-3.3,2.4-5.9,4.6-7.8c2.2-1.9,4.8-2.9,7.9-2.9c2.2,0,4.1,0.4,5.7,1.1
						c1.7,0.7,3.1,1.8,4.2,3.2c1.1,1.4,1.9,3.1,2.4,5.1l-6.2,2c-0.2-1.1-0.6-2.1-1.2-3c-0.5-0.9-1.3-1.6-2.1-2.1
						c-0.9-0.5-1.9-0.8-3.1-0.8c-1.5,0-2.9,0.5-4.1,1.6c-1.2,1-2.2,2.4-3,4.1l1.7,1.3c0.5-0.6,1-1,1.6-1.3s1.1-0.4,1.7-0.4h2.9v3.9
						h-6.9c-0.1,0.5-0.1,1-0.1,1.5s0,1,0.1,1.5h6.9v3.9h-2.9c-0.6,0-1.2-0.1-1.7-0.4c-0.5-0.3-1.1-0.7-1.6-1.3l-1.7,1.3
						c0.8,1.6,1.8,2.8,3.1,3.7c1.2,0.9,2.7,1.4,4.3,1.4c1.7,0,3-0.5,4-1.5c1-1,1.7-2.6,2.2-4.6l6.3,2.3c-0.7,2.1-1.6,3.9-2.7,5.3
						s-2.5,2.4-4.1,3.1S299.1,587,296.9,587z"/>
				</g>
			</g>
			<path class="st8" d="M229.7,450.7L229.7,450.7L229.7,450.7L229.7,450.7v240.6h133.9V450.7H229.7z M324.1,682.7h-54.7
				c-3.3-15.5-15.5-27.7-31-31V490.3c15.5-3.3,27.6-15.4,31-30.9h54.5c3.4,15.4,15.5,27.5,31,30.8v161.5
				C339.5,655,327.4,667.2,324.1,682.7z"/>
		</g>
	</g>
</g>
</svg>
