<?xml version="1.0" encoding="utf-8"?>
<!-- Generator: Adobe Illustrator 27.3.1, SVG Export Plug-In . SVG Version: 6.00 Build 0)  -->
<svg version="1.1" id="Laag_1" xmlns="http://www.w3.org/2000/svg" xmlns:xlink="http://www.w3.org/1999/xlink" x="0px" y="0px"
	 viewBox="0 0 1175.9 1388.8" style="enable-background:new 0 0 1175.9 1388.8;" xml:space="preserve">
<style type="text/css">
	.st0{opacity:0.75;fill:#FCFCFA;}
	.st1{fill:#EFF3F4;}
	.st2{fill:#A7CBD1;}
	.st3{fill:none;stroke:#A7CBD1;stroke-width:2.75;stroke-miterlimit:10;}
	.st4{filter:url(#Slide);}
	.st5{fill:#DDDAD3;}
	.st6{clip-path:url(#SVGID_00000167354276631801820840000006472077318519383726_);}
	.st7{fill:#EFEDE6;}
	.st8{fill:#E8D98B;stroke:#C6814E;stroke-width:4.572;stroke-miterlimit:10;}
	.st9{fill:#C2CE9B;}
	.st10{fill:#FFFFFF;}
	.st11{fill:#8E9B67;}
	.st12{fill:#D0E0A9;}
	.st13{fill:#808C57;}
	.st14{fill:#1D1D1B;}
	.st15{fill:#EFF4F4;stroke:#A7CBD1;stroke-width:3;stroke-miterlimit:10;}
	.st16{fill:none;stroke:#E3EFF7;stroke-width:1.0552;stroke-miterlimit:10;}
	.st17{fill:#C7E1E5;stroke:#A7CBD1;stroke-width:3;stroke-miterlimit:10;}
	.st18{fill:none;stroke:#1D1D1B;stroke-width:6;stroke-miterlimit:10;}
	.st19{fill:none;stroke:#E3EFF7;stroke-width:1.0538;stroke-miterlimit:10;}
	.st20{fill:none;}
	.st21{fill:none;stroke:#A7CBD1;stroke-width:3.5;stroke-miterlimit:10;}
	.st22{filter:url(#Pion);}
	.st23{fill:#68644F;}
</style>
<filter  height="150%" id="Slide" width="150%" x="-25%" y="-25%">
	<feOffset  dx="5" dy="-5" in="SourceGraphic" result="offOut"></feOffset>
	<feColorMatrix  in="offOut" result="matrixOut" type="matrix" values="0.45 0 0 0 0 0 0.5 0 0 0 0 0 0.35 0 0 0 0 0 0.8 0">
		</feColorMatrix>
	<feGaussianBlur  in="matrixOut" result="blurOut" stdDeviation="16"></feGaussianBlur>
	<feBlend  in="SourceGraphic" in2="blurOut" mode="normal"></feBlend>
</filter>
<filter  height="200%" id="Pion" width="200%" x="-25%" y="-25%">
	<feOffset  dx="7" dy="-5" in="SourceGraphic" result="offOut"></feOffset>
	<feColorMatrix  in="offOut" result="matrixOut" type="matrix" values="0.6 0 0 0 0 0 0.6 0 0 0 0 0 0.3 0 0 0 0 0 0.9 0">
		</feColorMatrix>
	<feGaussianBlur  in="matrixOut" result="blurOut" stdDeviation="10"></feGaussianBlur>
	<feBlend  in="SourceGraphic" in2="blurOut" mode="normal"></feBlend>
</filter>
<g>
	<rect x="71" y="162.1" class="st0" width="1029.4" height="1069.3"/>
	<rect x="75.7" y="189.6" class="st0" width="1029.4" height="815.7"/>
	<g>
		<rect x="71" y="67.1" class="st1" width="1029.4" height="95"/>
	</g>
	<g>
		<path class="st2" d="M204.3,832.8c247.1-1.8,524.2-1.8,771.3,0C728.6,834.6,451.4,834.6,204.3,832.8L204.3,832.8z"/>
	</g>
	<circle class="st3" cx="810.6" cy="430.9" r="44.3"/>
	<g>
		<path class="st2" d="M203.3,326.1c245.4-1.8,520.7-1.8,766.1,0C724.1,327.9,448.7,327.9,203.3,326.1L203.3,326.1z"/>
	</g>
	<g>
		<path class="st2" d="M235.4,862.8c-1.8-186.1-1.9-376.6,0-562.7C237.2,486.2,237.2,676.7,235.4,862.8L235.4,862.8z"/>
	</g>
	<polygon class="st3" points="767.7,605.8 682.9,528.8 607.1,606.6 	"/>
	<g>
		<path class="st2" d="M362.9,857.2c101.2-105.4,217.2-225,319-329.2c0,0,0.9-0.9,0.9-0.9c24.1,21.9,83.9,76.3,107.2,97.5
			c50.8,46.3,125.7,114.9,176.5,161.7c-35.7-31.8-107-95.9-142.5-127.9c-39.7-35.8-102-92.1-142.1-128.4c0,0,1.8-0.1,1.8-0.1
			C582.2,634.1,465.5,753.4,362.9,857.2L362.9,857.2z"/>
	</g>
	<g>
		<path class="st2" d="M255.6,567.8c78.5-1.9,158-1.9,236.5,0C413.6,569.7,334.1,569.7,255.6,567.8L255.6,567.8z"/>
	</g>
	<g>
		<path class="st2" d="M220.1,628.3c42.7-49.4,111-126.5,154.5-176.3c0,0,0.8-0.9,0.8-0.9s0.9,0.8,0.9,0.8
			c118.1,113.2,255.7,245.5,372.6,359.2c0,0,53,51.6,53,51.6s-53.6-50.9-53.6-50.9c-81.3-77.3-185.6-177.3-267-255.6
			c0,0-106.5-102.6-106.5-102.6s1.7-0.1,1.7-0.1C332.4,503.4,263.8,579.4,220.1,628.3L220.1,628.3z"/>
	</g>
	<g>
		<path class="st2" d="M935.4,883.5c-2.7-190.6-2.6-385-0.3-575.6c0,0,0.3-18.6,0.3-18.6s0.3,18.6,0.3,18.6
			C938,498.5,938.1,692.9,935.4,883.5L935.4,883.5z"/>
	</g>
	<g class="st4">
		<path class="st5" d="M416,436.2c76.6-51.8,153.6-137,247.8-48S883,399.1,799.2,561.9s-1.4,254-129.8,207.1
			c-210.9-77.1-283,25.3-280.9-118.2C390.5,507.3,339.4,488,416,436.2z"/>
	</g>
	<g>
		<defs>
			<path id="SVGID_1_" d="M416,436.2c76.6-51.8,153.6-137,247.8-48S883,399.1,799.2,561.9s-1.4,254-129.8,207.1
				c-210.9-77.1-283,25.3-280.9-118.2C390.5,507.3,339.4,488,416,436.2z"/>
		</defs>
		<clipPath id="SVGID_00000127040288930942121120000000011866401876711812_">
			<use xlink:href="#SVGID_1_"  style="overflow:visible;"/>
		</clipPath>
		<g style="clip-path:url(#SVGID_00000127040288930942121120000000011866401876711812_);">
			<g>
				<rect x="235.4" y="307.8" class="st7" width="700" height="525"/>
			</g>
			<circle class="st8" cx="810.6" cy="430.9" r="44.3"/>
			<polygon class="st9" points="386.7,832.8 682.8,528.8 935.4,757.9 935.4,832.8 			"/>
			<g>
				<polygon class="st10" points="767.7,605.8 682.9,528.8 607.1,606.6 				"/>
			</g>
			<g>
				<path class="st11" d="M682.8,528.8l252.6,229.1v74.9H386.7L682.8,528.8 M682.6,522.9l-2.9,3l-296.1,304l-7.1,7.3h10.2h548.7h4.3
					v-4.3v-74.9V756l-1.4-1.3L685.7,525.7L682.6,522.9L682.6,522.9z"/>
			</g>
			<polygon class="st12" points="235.4,612.6 382.1,462 767.7,832.8 235.4,832.8 			"/>
			<g>
				<polygon class="st10" points="492.1,567.8 382.1,462 279.1,567.8 				"/>
			</g>
			<g>
				<path class="st13" d="M382.1,462l385.5,370.8H235.4V612.6L382.1,462 M382,455.9l-3,3.1L232.3,609.6l-1.2,1.2v1.7v220.2v4.3h4.3
					h532.3h10.6l-7.7-7.4L385.1,458.9L382,455.9L382,455.9z"/>
			</g>
		</g>
	</g>
	<g>
		<path class="st14" d="M579.6,349.5v3h0c28.3,0,55.2,12.4,82.2,37.9c35.8,33.8,75.4,43.8,107.3,51.8c25.3,6.4,45.3,11.4,52,26.3
			c7.3,16.3-0.3,44.6-24.6,91.9c-13.8,26.8-34.7,67.3-45.6,160.7c-4.8,40.6-7.6,57.1-31,57.1c-11.1,0-26.9-3.9-49.5-12.1
			c-39.3-14.4-77-23.8-115.4-28.9c-32.8-4.3-60.2-4.7-82.2-5c-32.9-0.4-54.6-0.7-67-13.4c-10.6-10.9-14.9-31.2-14.4-68.1
			c0.7-51.7-5.4-87.8-10-114.2c-4-23.3-6.9-40.2-2.8-54.6c4.1-14.6,15.8-27.6,39.1-43.3c11.6-7.8,23.4-16.6,34.8-25.1
			c40.6-30.1,82.5-61.2,127-61.2L579.6,349.5 M579.6,349.5c-58.3,0-111,51.2-163.5,86.7c-76.6,51.8-25.5,71.1-27.6,214.6
			c-2.1,143.5,70,41,280.9,118.2c22.8,8.3,38.9,12.3,50.5,12.3c53.8,0,10.3-85.5,79.2-219.4c83.9-162.8-41.1-84.5-135.3-173.6
			C634.2,360.3,606.3,349.5,579.6,349.5L579.6,349.5z"/>
	</g>
	<polygon class="st15" points="163.7,1145.1 163.7,1131.6 463.9,1083.1 463.9,1145.1 	"/>
	<g>
		<g>
			<path class="st16" d="M1047.3,208.7"/>
		</g>
	</g>
	<path class="st10" d="M96.4,1196.8"/>
	<polygon class="st15" points="551.1,1145.1 551.1,1133.5 634.3,1091.6 634.3,1145.1 	"/>
	<polygon class="st17" points="647.7,1061.9 659.4,1061.9 701.2,1145.1 647.7,1145.1 	"/>
	<g>
		<g>
			<path class="st2" d="M613.7,1056.7c-4.6,2.8-9,5.7-13.1,9c-4.2,3.2-8.1,6.7-11.6,10.5c-3.5,3.8-6.8,7.9-9.5,12.4
				c-2.7,4.5-4.9,9.3-6.9,14.3c0.5-5.4,1.9-10.8,4.3-15.8c2.3-5,5.5-9.6,9.2-13.7c3.7-4.1,8-7.6,12.6-10.6c4.6-2.9,9.5-5.4,14.7-7.1
				L613.7,1056.7z"/>
			<g>
				<path class="st2" d="M589,1051.2c-0.1,0.8,0.4,1.6,1.2,1.7l22.7,3.7l-12.9,19c-0.5,0.7-0.3,1.6,0.4,2.1c0.7,0.5,1.6,0.3,2.1-0.4
					l14.2-20.9c0.3-0.4,0.3-1,0.1-1.4c-0.2-0.5-0.6-0.8-1.1-0.9l-25-4.1c-0.3,0-0.6,0-0.8,0.1C589.4,1050.2,589.1,1050.7,589,1051.2
					z"/>
			</g>
		</g>
	</g>
	<g>
		<g>
			<g>
				<line class="st18" x1="545.3" y1="535.4" x2="598.5" y2="535.4"/>
				<g>
					<polygon class="st14" points="549.6,550.4 523.7,535.4 549.6,520.5 					"/>
				</g>
				<g>
					<polygon class="st14" points="594.1,550.4 620,535.4 594.1,520.5 					"/>
				</g>
			</g>
		</g>
		<g>
			<g>
				<line class="st18" x1="571.9" y1="508.8" x2="571.9" y2="562.1"/>
				<g>
					<polygon class="st14" points="556.9,513.2 571.9,487.3 586.8,513.2 					"/>
				</g>
				<g>
					<polygon class="st14" points="556.9,557.7 571.9,583.6 586.8,557.7 					"/>
				</g>
			</g>
		</g>
	</g>
	<g>
		<g>
			<path class="st19" d="M1044.5,202.5"/>
		</g>
	</g>
	<rect x="341.6" y="1079" class="st17" width="18.9" height="87.5"/>
	<g>
		<path class="st20" d="M336.3,1086"/>
	</g>
	<g>
		<path class="st20" d="M384.6,1037.9"/>
	</g>
	<g>
		<g>
			<path class="st2" d="M51.8,995c66.8-62.9,136.1-124.8,206.2-184.1C191.1,873.8,121.8,935.6,51.8,995L51.8,995z"/>
		</g>
		<g>
			<g>
				<path class="st2" d="M1104.4,982.5c-69.1-58.4-137.4-119.5-203.3-181.5C970.2,859.5,1038.6,920.5,1104.4,982.5L1104.4,982.5z"/>
			</g>
			<g>
				<g>
					<line class="st21" x1="1015.5" y1="903.2" x2="1013.4" y2="901.3"/>
					<g>
						<path class="st2" d="M1010.1,880.4c-0.7,0.2-1.2,1-1,1.7l5.9,20.6l-21.2-3.4c-0.8-0.1-1.5,0.4-1.6,1.2
							c-0.1,0.8,0.4,1.5,1.2,1.6l23.3,3.7c0.5,0.1,1-0.1,1.3-0.5s0.4-0.9,0.3-1.3l-6.5-22.7c-0.1-0.3-0.2-0.5-0.4-0.7
							C1011.1,880.4,1010.6,880.3,1010.1,880.4z"/>
					</g>
				</g>
			</g>
			<g>
				<path class="st2" d="M1112.6,152.5c-63.8,65.9-130.2,131-197.4,193.6C979,280.1,1045.4,215,1112.6,152.5L1112.6,152.5z"/>
			</g>
			<g>
				<g>
					<line class="st21" x1="1018.5" y1="244.7" x2="1017.8" y2="245.4"/>
					<g>
						<path class="st2" d="M995.4,248.5c0.2,0.8,0.9,1.2,1.7,1.1l21-4.4l-4.8,20.9c-0.2,0.8,0.3,1.5,1,1.7c0.8,0.2,1.5-0.3,1.7-1
							l5.3-23c0.1-0.5,0-1-0.4-1.3c-0.3-0.3-0.8-0.5-1.3-0.4l-23.1,4.9c-0.3,0.1-0.5,0.2-0.7,0.4C995.5,247.6,995.3,248,995.4,248.5
							z"/>
					</g>
				</g>
			</g>
			<g>
				<g>
					<line class="st21" x1="157.1" y1="900.9" x2="160.4" y2="897.9"/>
					<g>
						<path class="st2" d="M180.3,898.2c-0.1-0.8-0.8-1.3-1.6-1.2l-21.1,3.5l5.8-20.6c0.2-0.7-0.2-1.5-1-1.7c-0.7-0.2-1.5,0.2-1.7,1
							l-6.4,22.7c-0.1,0.5,0,1,0.3,1.3s0.8,0.5,1.3,0.4l23.3-3.8c0.3,0,0.5-0.2,0.7-0.3C180.2,899.2,180.4,898.7,180.3,898.2z"/>
					</g>
				</g>
			</g>
			<g>
				<path class="st2" d="M46.8,142.5c71,65.8,141.2,134.2,208.9,203.5C184.6,280.2,114.4,211.7,46.8,142.5L46.8,142.5z"/>
			</g>
			<g>
				<g>
					<line class="st21" x1="150.8" y1="243.8" x2="154.3" y2="247.2"/>
					<g>
						<path class="st2" d="M155.1,266.8c0.8-0.2,1.2-0.9,1-1.7l-4.9-20.9l21,4.4c0.8,0.2,1.5-0.3,1.7-1.1c0.2-0.8-0.3-1.5-1.1-1.7
							l-23.1-4.8c-0.5-0.1-1,0-1.3,0.4s-0.5,0.8-0.4,1.3l5.4,23c0.1,0.3,0.2,0.5,0.4,0.7C154.1,266.7,154.6,266.9,155.1,266.8z"/>
					</g>
				</g>
			</g>
		</g>
	</g>
	<g>
		<g class="st22">
			<path class="st23" d="M593.4,673.9c-8.4,0-16.3-3.8-21.7-10.3l-16.9-20.8c-2.2-2.7-1.8-6.8,0.9-9c1.1-0.9,2.6-1.4,4-1.4
				c1.9,0,3.7,0.9,5,2.4l5.6,6.9c0.5,0.6,1.2,1,2,1c0.3,0,0.6-0.1,0.9-0.2c1-0.4,1.7-1.3,1.7-2.4v-61.2l0-1c0-3.5,2.9-6.4,6.4-6.4
				c3.5,0,6.4,2.9,6.4,6.4v29.6c0,1,0.6,1.9,1.5,2.4c0.3,0.2,0.7,0.2,1.1,0.2c0.6,0,1.3-0.2,1.7-0.7c1.5-1.3,3.4-2.1,5.4-2.1
				c4.3,0,7.8,3.3,8.2,7.5c0.1,1,0.7,1.8,1.6,2.2c0.3,0.1,0.6,0.2,1,0.2c0.6,0,1.3-0.2,1.8-0.7c1.5-1.3,3.4-2.1,5.5-2.1
				c4.3,0,7.8,3.3,8.2,7.5c0.1,1,0.7,1.8,1.6,2.2c0.3,0.1,0.6,0.2,1,0.2c0.6,0,1.3-0.2,1.8-0.7c1.5-1.3,3.4-2.1,5.5-2.1
				c4.5,0,8.2,3.7,8.2,8.2v25.1c0,10.4-8.5,18.9-18.9,18.9H593.4z"/>
		</g>
		<path class="st10" d="M593.4,673.9c-8.4,0-16.3-3.8-21.7-10.3l-16.9-20.8c-2.2-2.7-1.8-6.8,0.9-9c1.1-0.9,2.6-1.4,4-1.4
			c1.9,0,3.7,0.9,5,2.4l5.6,6.9c0.5,0.6,1.2,1,2,1c0.3,0,0.6-0.1,0.9-0.2c1-0.4,1.7-1.3,1.7-2.4v-61.2l0-1c0-3.5,2.9-6.4,6.4-6.4
			c3.5,0,6.4,2.9,6.4,6.4v29.6c0,1,0.6,1.9,1.5,2.4c0.3,0.2,0.7,0.2,1.1,0.2c0.6,0,1.3-0.2,1.7-0.7c1.5-1.3,3.4-2.1,5.4-2.1
			c4.3,0,7.8,3.3,8.2,7.5c0.1,1,0.7,1.8,1.6,2.2c0.3,0.1,0.6,0.2,1,0.2c0.6,0,1.3-0.2,1.8-0.7c1.5-1.3,3.4-2.1,5.5-2.1
			c4.3,0,7.8,3.3,8.2,7.5c0.1,1,0.7,1.8,1.6,2.2c0.3,0.1,0.6,0.2,1,0.2c0.6,0,1.3-0.2,1.8-0.7c1.5-1.3,3.4-2.1,5.5-2.1
			c4.5,0,8.2,3.7,8.2,8.2v25.1c0,10.4-8.5,18.9-18.9,18.9H593.4z"/>
		<path class="st14" d="M593.4,679c-10,0-19.4-4.5-25.7-12.2l-16.9-20.7c-4-4.9-3.3-12.2,1.7-16.3c2.1-1.7,4.6-2.6,7.3-2.6
			c3.1,0,6.1,1.3,8.3,3.5l1.7,1.8v-54.7c0-6.4,5.2-11.6,11.6-11.6c6.4,0,11.6,5.2,11.6,11.6v25.1l1.2-0.3c1.1-0.3,2.2-0.4,3.3-0.4
			c5.1,0,9.8,2.9,12,7.5l0.4,0.8l0.8-0.3c1.5-0.6,3.1-0.8,4.7-0.8c5.1,0,9.8,2.9,12,7.5l0.4,0.8l0.8-0.3c1.5-0.6,3.1-0.8,4.7-0.8
			c7.4,0,13.4,6,13.4,13.4v25.1c0,13.3-10.8,24.1-24.1,24.1H593.4z M559.8,632.4c-1.5,0-2.9,0.5-4,1.4c-2.7,2.2-3.2,6.3-0.9,9
			l16.9,20.8c5.3,6.5,13.2,10.3,21.7,10.3h29.2c10.4,0,18.9-8.5,18.9-18.9v-25.1c0-4.5-3.7-8.2-8.2-8.2c-2,0-4,0.7-5.5,2.1
			c-0.5,0.4-1.1,0.7-1.7,0.7c-0.3,0-0.6-0.1-1-0.2c-0.9-0.4-1.5-1.2-1.6-2.2c-0.3-4.2-3.9-7.5-8.2-7.5c-2,0-4,0.7-5.5,2.1
			c-0.5,0.4-1.1,0.7-1.7,0.7c-0.3,0-0.6-0.1-1-0.2c-0.9-0.4-1.5-1.2-1.6-2.2c-0.3-4.2-3.9-7.5-8.2-7.5c-2,0-4,0.7-5.4,2.1
			c-0.5,0.4-1.1,0.7-1.7,0.7c-0.4,0-0.7-0.1-1.1-0.2c-0.9-0.4-1.5-1.3-1.5-2.4v-29.6c0-3.5-2.9-6.4-6.4-6.4s-6.4,2.9-6.4,6.4v1h0
			V640c0,1.1-0.7,2.1-1.7,2.4c-0.3,0.1-0.6,0.2-0.9,0.2c0,0,0,0,0,0c-0.8,0-1.5-0.4-2-1l-5.6-6.9
			C563.5,633.2,561.7,632.4,559.8,632.4z M622.6,661.1c-1.4,0-2.6-1.2-2.6-2.6V637c0-1.4,1.2-2.6,2.6-2.6s2.6,1.2,2.6,2.6v21.5
			C625.2,659.9,624,661.1,622.6,661.1z M608.2,661.1c-1.4,0-2.6-1.2-2.6-2.6V637c0-1.4,1.2-2.6,2.6-2.6s2.6,1.2,2.6,2.6v21.5
			C610.8,659.9,609.7,661.1,608.2,661.1z M593.9,661.1c-1.4,0-2.6-1.2-2.6-2.6V637c0-1.4,1.2-2.6,2.6-2.6s2.6,1.2,2.6,2.6v21.5
			C596.5,659.9,595.3,661.1,593.9,661.1z"/>
	</g>
	<g>
		<g>
			<path class="st2" d="M0,67.1c375.2-2.3,796-2.3,1171.2,0C796,69.4,375.2,69.3,0,67.1L0,67.1z"/>
		</g>
		<g>
			<path class="st2" d="M32.7,162.1c358.3-2.3,760.3-2.3,1118.6,0C793,164.4,391,164.3,32.7,162.1L32.7,162.1z"/>
		</g>
		<g>
			<path class="st2" d="M20.8,1229.9c356.9-2.3,757.2-2.3,1114,0C778,1232.2,377.7,1232.2,20.8,1229.9L20.8,1229.9z"/>
		</g>
		<g>
			<path class="st2" d="M5,977.8c361.1-2.3,766.1-2.3,1127.2,0C771.1,980.1,366,980.1,5,977.8L5,977.8z"/>
		</g>
		<g>
			<path class="st2" d="M271.5,1325.7c295-2.3,596.8-2.4,891.8,0C868.3,1328.1,566.5,1328.1,271.5,1325.7L271.5,1325.7z"/>
		</g>
		<g>
			<path class="st2" d="M1100.5,1384.5c-2.3-443.5-2.3-941,0-1384.5C1102.8,443.5,1102.7,941,1100.5,1384.5L1100.5,1384.5z"/>
		</g>
		<g>
			<path class="st2" d="M71,1270.2c-2.3-399-2.3-846.5,0-1245.5C73.3,423.7,73.3,871.3,71,1270.2L71,1270.2z"/>
		</g>
		<g>
			<g>
				<path class="st2" d="M954.1,140.2c-17.1,0.5-41.3,1.3-58.3,1.5c-0.1-11-0.3-31.8-0.3-42.8c0,0,0-1.8,0-1.8
					c10,0.1,20.1,0,30.1,0.1c7.7,0.1,21.9,0.2,29.6,0.4C955.2,110.2,954.5,127.5,954.1,140.2L954.1,140.2z M954.1,140.2
					c-0.4-12.1-1-29.4-1.2-41.3c0,0,1.2,1.2,1.2,1.2c-7.1,0.1-21.3,0.3-28.4,0.4c-9.5,0.1-18.9,0.1-28.4,0.1c0,0,1.7-1.7,1.7-1.7
					c0,10.3-0.1,31-0.3,41.3c0,0-1.5-1.5-1.5-1.5C913.4,138.9,937.9,139.6,954.1,140.2L954.1,140.2z"/>
			</g>
			<g>
				<path class="st2" d="M844.3,117.5c-8.1,1.4-16.3,1.7-24.5,1.7c-8.2,0-16.4-0.4-24.5-1.7c8.1-1.4,16.3-1.7,24.5-1.7
					C828,115.8,836.2,116.1,844.3,117.5L844.3,117.5z"/>
			</g>
			<g>
				<g>
					<path class="st2" d="M1045,98.9c-5.9,7.8-12.5,14.9-19.3,21.8c-6.9,6.8-14,13.5-21.8,19.3c5.9-7.8,12.5-14.9,19.3-21.8
						C1030.1,111.4,1037.2,104.7,1045,98.9L1045,98.9z"/>
				</g>
				<g>
					<path class="st2" d="M1004.7,98.9c7.8,5.9,14.9,12.5,21.8,19.3c6.8,6.9,13.5,14,19.3,21.8c-7.8-5.9-14.9-12.5-21.8-19.3
						C1017.2,113.8,1010.6,106.7,1004.7,98.9L1004.7,98.9z"/>
				</g>
			</g>
		</g>
		<g>
			<g>
				<path class="st2" d="M949.1,1255.7c-7,9-15.2,17.5-23.1,25.6c-8.1,8-16.6,16.1-25.6,23.1c7-9,15.1-17.5,23.1-25.6
					C931.6,1270.8,940.1,1262.7,949.1,1255.7L949.1,1255.7z"/>
			</g>
			<g>
				<path class="st2" d="M901.3,1255.7c9,7,17.5,15.2,25.6,23.1c8,8.1,16.1,16.6,23.1,25.6c-9-7-17.5-15.1-25.6-23.1
					C916.5,1273.2,908.3,1264.6,901.3,1255.7L901.3,1255.7z"/>
			</g>
		</g>
		<g>
			<path class="st2" d="M1062.9,1252.7c-10.3,16-22,31-34.1,45.6c-9-8.7-17.8-17.5-26.2-26.7c9.3,7.4,18.3,15.2,27.2,23.2
				c0,0-2.3,0.2-2.3,0.2C1038.6,1280.4,1050.1,1266,1062.9,1252.7L1062.9,1252.7z"/>
		</g>
	</g>
	<g>
		<g class="st22">
			<polygon class="st23" points="384.4,1209.4 364,1237.6 349.7,1139.5 430,1197.8 395.5,1202.7 438.9,1274.4 427.8,1281.2 			"/>
		</g>
		<g>
			<polygon class="st14" points="384,1219.3 360.5,1251.7 342.5,1127.5 444.1,1201.3 404.5,1206.9 446.4,1276.3 425.9,1288.7 			"/>
			<path class="st10" d="M345.8,1132.9l91.9,66.8l-29.9,4.3l-7.4,1.1l3.9,6.4l38.7,64.1l-16.3,9.8l-38.7-64.1l-3.9-6.4l-4.4,6
				l-17.7,24.5L345.8,1132.9 M339.2,1122.1l19.8,136.1l24.8-34.4l41.3,68.3l24.7-14.9l-41.3-68.3l42-6L339.2,1122.1L339.2,1122.1z"
				/>
		</g>
	</g>
	<g>
		<path class="st20" d="M513.7,567.7"/>
	</g>
	<g>
		<path class="st20" d="M264.4,567.7"/>
	</g>
</g>
</svg>
