<?xml version="1.0" encoding="utf-8"?>
<!-- Generator: Adobe Illustrator 27.3.1, SVG Export Plug-In . SVG Version: 6.00 Build 0)  -->
<svg version="1.1" id="Laag_1" xmlns="http://www.w3.org/2000/svg" xmlns:xlink="http://www.w3.org/1999/xlink" x="0px" y="0px"
	 viewBox="0 0 1573 1091.2" style="enable-background:new 0 0 1573 1091.2;" xml:space="preserve">
<style type="text/css">
	.st0{fill:#EFF3F4;}
	.st1{fill:#A7CBD1;}
	.st2{opacity:0.5;fill:#FFFFFF;}
	.st3{fill:#1D1D1B;}
	.st4{fill:none;stroke:#1D1D1B;stroke-width:1.1865;stroke-miterlimit:10;stroke-dasharray:13.2846;}
	.st5{opacity:0.75;fill:#FFFFFF;}
	.st6{fill:#FFFFFF;stroke:#A7CBD1;stroke-width:2;stroke-miterlimit:10;}
	.st7{fill:#D0E0A9;}
	.st8{fill:#72726A;}
	.st9{filter:url(#Pion);}
	.st10{fill:#68644F;}
	.st11{fill:#FFFFFF;}
</style>
<filter  height="200%" id="Pion" width="200%" x="-25%" y="-25%">
	<feOffset  dx="7" dy="-5" in="SourceGraphic" result="offOut"></feOffset>
	<feColorMatrix  in="offOut" result="matrixOut" type="matrix" values="0.6 0 0 0 0 0 0.6 0 0 0 0 0 0.3 0 0 0 0 0 0.9 0">
		</feColorMatrix>
	<feGaussianBlur  in="matrixOut" result="blurOut" stdDeviation="10"></feGaussianBlur>
	<feBlend  in="SourceGraphic" in2="blurOut" mode="normal"></feBlend>
</filter>
<rect x="181.7" y="89.3" class="st0" width="1307.8" height="82.4"/>
<g>
	<g>
		<g>
			<path class="st1" d="M1344.3,148.8c-15.6,0.5-37.6,1.3-53,1.5c-0.1-10.1-0.3-28.9-0.3-39c0,0,0-1.8,0-1.8
				c9.2,0.1,18.4,0,27.5,0.1c7,0.1,20,0.2,27,0.4C1345.5,121.6,1344.7,137.2,1344.3,148.8L1344.3,148.8z M1344.3,148.8
				c-0.3-6.6-0.7-22-1-28.3c-0.1-3.1-0.2-6.1-0.2-9.2l1.2,1.2c-6.4,0.1-19.3,0.3-25.8,0.4c-8.6,0.1-17.2,0.1-25.8,0.1l1.7-1.7
				c0,9.3-0.1,28.2-0.3,37.5c0,0-1.5-1.5-1.5-1.5C1307.4,147.6,1329.6,148.3,1344.3,148.8L1344.3,148.8z"/>
		</g>
		<g>
			<path class="st1" d="M1244.7,128.2c-7.4,1.4-14.8,1.7-22.3,1.7c-7.5,0-14.9-0.4-22.3-1.7c7.4-1.4,14.8-1.7,22.3-1.7
				C1229.9,126.5,1237.3,126.8,1244.7,128.2L1244.7,128.2z"/>
		</g>
		<g>
			<g>
				<path class="st1" d="M1426.9,111.3c-5.2,7.2-11.2,13.6-17.4,19.9c-6.3,6.2-12.7,12.2-19.9,17.4c5.2-7.2,11.2-13.6,17.4-19.9
					C1413.3,122.5,1419.7,116.5,1426.9,111.3L1426.9,111.3z"/>
			</g>
			<g>
				<path class="st1" d="M1390.3,111.3c7.2,5.2,13.6,11.2,19.9,17.4c6.2,6.3,12.2,12.7,17.4,19.9c-7.2-5.2-13.6-11.2-19.9-17.4
					C1401.5,125,1395.5,118.5,1390.3,111.3L1390.3,111.3z"/>
			</g>
		</g>
	</g>
	<g>
		<g>
			<path class="st1" d="M133.3,172c444.5-2.3,943.1-2.3,1387.7,0C1076.4,174.3,577.8,174.3,133.3,172L133.3,172z"/>
		</g>
		<g>
			<path class="st1" d="M113.5,89.3c466.3-2.3,989.3-2.3,1455.6,0C1102.8,91.6,579.8,91.6,113.5,89.3L113.5,89.3z"/>
		</g>
		<g>
			<path class="st1" d="M181.7,6.1c2.3,347.6,2.3,737.5,0,1085.1C179.4,743.6,179.5,353.7,181.7,6.1L181.7,6.1z"/>
		</g>
		<g>
			<path class="st1" d="M85.9,1002.7c346.5-0.6,735.2,1.4,1081.7,5.4C821.1,1008.7,432.4,1006.7,85.9,1002.7L85.9,1002.7z"/>
		</g>
		<g>
			<path class="st1" d="M1489.5,0c2.3,274.5,2.4,555.3,0,829.8C1487.2,555.3,1487.2,274.5,1489.5,0L1489.5,0z"/>
		</g>
		<g>
			<path class="st1" d="M373.1,262.6c2.3,265.7,2.4,537.6,0,803.2C370.8,800.1,370.8,528.3,373.1,262.6L373.1,262.6z"/>
		</g>
		<g>
			<path class="st1" d="M1390.3,277c2.3,233.9,2.4,473.2,0,707C1387.9,750.1,1387.9,510.8,1390.3,277L1390.3,277z"/>
		</g>
		<g>
			<path class="st1" d="M159.1,306.8c451.6-2.3,958.3-2.3,1409.9,0C1117.4,309.1,610.8,309.1,159.1,306.8L159.1,306.8z"/>
		</g>
	</g>
	<g>
		<path class="st1" d="M334.8,930.9c357.1-2.3,757.7-2.3,1114.8,0C1092.5,933.2,691.9,933.2,334.8,930.9L334.8,930.9z"/>
	</g>
</g>
<rect x="675.7" y="195.2" class="st2" width="383" height="87.7"/>
<g>
	<g>
		<path class="st3" d="M1058.7,194h-13.3v1.2h13.3V194L1058.7,194z M1032.1,194h-13.3v1.2h13.3V194L1032.1,194z M1005.6,194h-13.3
			v1.2h13.3V194L1005.6,194z M979,194h-13.3v1.2H979V194L979,194z M952.4,194h-13.3v1.2h13.3V194L952.4,194z M925.9,194h-13.3v1.2
			h13.3V194L925.9,194z M899.3,194H886v1.2h13.3V194L899.3,194z M872.7,194h-13.3v1.2h13.3V194L872.7,194z M846.1,194h-13.3v1.2
			h13.3V194L846.1,194z M819.6,194h-13.3v1.2h13.3V194L819.6,194z M793,194h-13.3v1.2H793V194L793,194z M766.4,194h-13.3v1.2h13.3
			V194L766.4,194z M739.9,194h-13.3v1.2h13.3V194L739.9,194z M713.3,194H700v1.2h13.3V194L713.3,194z M686.7,194h-11.1h-1.2v1.2v2.2
			h1.2v-2.2l0,0l0,0h11.1V194L686.7,194z M675.7,210.7h-1.2V224h1.2V210.7L675.7,210.7z M675.7,237.2h-1.2v13.3h1.2V237.2
			L675.7,237.2z M675.7,263.8h-1.2v13.3h1.2V263.8L675.7,263.8z M696.5,282.9h-13.3v1.2h13.3V282.9L696.5,282.9z M723,282.9h-13.3
			v1.2H723V282.9L723,282.9z M749.6,282.9h-13.3v1.2h13.3V282.9L749.6,282.9z M776.2,282.9h-13.3v1.2h13.3V282.9L776.2,282.9z
			 M802.7,282.9h-13.3v1.2h13.3V282.9L802.7,282.9z M829.3,282.9H816v1.2h13.3V282.9L829.3,282.9z M855.9,282.9h-13.3v1.2h13.3
			V282.9L855.9,282.9z M882.4,282.9h-13.3v1.2h13.3V282.9L882.4,282.9z M909,282.9h-13.3v1.2H909V282.9L909,282.9z M935.6,282.9
			h-13.3v1.2h13.3V282.9L935.6,282.9z M962.2,282.9h-13.3v1.2h13.3V282.9L962.2,282.9z M988.7,282.9h-13.3v1.2h13.3V282.9
			L988.7,282.9z M1015.3,282.9H1002v1.2h13.3V282.9L1015.3,282.9z M1041.9,282.9h-13.3v1.2h13.3V282.9L1041.9,282.9z M1059.9,273.2
			h-1.2v9.7l0,0l0,0h-3.6v1.2h3.6h1.2v-1.2V273.2L1059.9,273.2z M1059.9,246.6h-1.2v13.3h1.2V246.6L1059.9,246.6z M1059.9,220h-1.2
			v13.3h1.2V220L1059.9,220z M1059.9,195.2h-1.2v11.6h1.2V195.2L1059.9,195.2z"/>
	</g>
</g>
<line class="st4" x1="549.1" y1="394" x2="675.7" y2="282.9"/>
<rect x="2" y="394" class="st5" width="1218.4" height="331.4"/>
<g>
	<g>
		<path class="st3" d="M1220.4,392.8h-13.3v1.2h13.3V392.8L1220.4,392.8z M1193.8,392.8h-13.3v1.2h13.3V392.8L1193.8,392.8z
			 M1167.3,392.8H1154v1.2h13.3V392.8L1167.3,392.8z M1140.7,392.8h-13.3v1.2h13.3V392.8L1140.7,392.8z M1114.1,392.8h-13.3v1.2
			h13.3V392.8L1114.1,392.8z M1087.6,392.8h-13.3v1.2h13.3V392.8L1087.6,392.8z M1061,392.8h-13.3v1.2h13.3V392.8L1061,392.8z
			 M1034.4,392.8h-13.3v1.2h13.3V392.8L1034.4,392.8z M1007.8,392.8h-13.3v1.2h13.3V392.8L1007.8,392.8z M981.3,392.8H968v1.2h13.3
			V392.8L981.3,392.8z M954.7,392.8h-13.3v1.2h13.3V392.8L954.7,392.8z M928.1,392.8h-13.3v1.2h13.3V392.8L928.1,392.8z
			 M901.6,392.8h-13.3v1.2h13.3V392.8L901.6,392.8z M875,392.8h-13.3v1.2H875V392.8L875,392.8z M848.4,392.8h-13.3v1.2h13.3V392.8
			L848.4,392.8z M821.9,392.8h-13.3v1.2h13.3V392.8L821.9,392.8z M795.3,392.8H782v1.2h13.3V392.8L795.3,392.8z M768.7,392.8h-13.3
			v1.2h13.3V392.8L768.7,392.8z M742.2,392.8h-13.3v1.2h13.3V392.8L742.2,392.8z M715.6,392.8h-13.3v1.2h13.3V392.8L715.6,392.8z
			 M689,392.8h-13.3v1.2H689V392.8L689,392.8z M662.4,392.8h-13.3v1.2h13.3V392.8L662.4,392.8z M635.9,392.8h-13.3v1.2h13.3V392.8
			L635.9,392.8z M609.3,392.8H596v1.2h13.3V392.8L609.3,392.8z M582.7,392.8h-13.3v1.2h13.3V392.8L582.7,392.8z M556.2,392.8h-13.3
			v1.2h13.3V392.8L556.2,392.8z M529.6,392.8h-13.3v1.2h13.3V392.8L529.6,392.8z M503,392.8h-13.3v1.2H503V392.8L503,392.8z
			 M476.5,392.8h-13.3v1.2h13.3V392.8L476.5,392.8z M449.9,392.8h-13.3v1.2h13.3V392.8L449.9,392.8z M423.3,392.8H410v1.2h13.3
			V392.8L423.3,392.8z M396.8,392.8h-13.3v1.2h13.3V392.8L396.8,392.8z M370.2,392.8h-13.3v1.2h13.3V392.8L370.2,392.8z
			 M343.6,392.8h-13.3v1.2h13.3V392.8L343.6,392.8z M317,392.8h-13.3v1.2H317V392.8L317,392.8z M290.5,392.8h-13.3v1.2h13.3V392.8
			L290.5,392.8z M263.9,392.8h-13.3v1.2h13.3V392.8L263.9,392.8z M237.3,392.8h-13.3v1.2h13.3V392.8L237.3,392.8z M210.8,392.8
			h-13.3v1.2h13.3V392.8L210.8,392.8z M184.2,392.8h-13.3v1.2h13.3V392.8L184.2,392.8z M157.6,392.8h-13.3v1.2h13.3V392.8
			L157.6,392.8z M131.1,392.8h-13.3v1.2h13.3V392.8L131.1,392.8z M104.5,392.8H91.2v1.2h13.3V392.8L104.5,392.8z M77.9,392.8H64.6
			v1.2h13.3V392.8L77.9,392.8z M51.4,392.8H38.1v1.2h13.3V392.8L51.4,392.8z M24.8,392.8H11.5v1.2h13.3V392.8L24.8,392.8z M2,397.8
			H0.8v13.3H2V397.8L2,397.8z M2,424.4H0.8v13.3H2V424.4L2,424.4z M2,450.9H0.8v13.3H2V450.9L2,450.9z M2,477.5H0.8v13.3H2V477.5
			L2,477.5z M2,504.1H0.8v13.3H2V504.1L2,504.1z M2,530.6H0.8v13.3H2V530.6L2,530.6z M2,557.2H0.8v13.3H2V557.2L2,557.2z M2,583.8
			H0.8v13.3H2V583.8L2,583.8z M2,610.3H0.8v13.3H2V610.3L2,610.3z M2,636.9H0.8v13.3H2V636.9L2,636.9z M2,663.5H0.8v13.3H2V663.5
			L2,663.5z M2,690.1H0.8v13.3H2V690.1L2,690.1z M2,716.6H0.8v8.8v1.2H2h4.5v-1.2H2V716.6L2,716.6z M33.1,725.4H19.8v1.2h13.3V725.4
			L33.1,725.4z M59.6,725.4H46.4v1.2h13.3V725.4L59.6,725.4z M86.2,725.4H72.9v1.2h13.3V725.4L86.2,725.4z M112.8,725.4H99.5v1.2
			h13.3V725.4L112.8,725.4z M139.3,725.4h-13.3v1.2h13.3V725.4L139.3,725.4z M165.9,725.4h-13.3v1.2h13.3V725.4L165.9,725.4z
			 M192.5,725.4h-13.3v1.2h13.3V725.4L192.5,725.4z M219.1,725.4h-13.3v1.2h13.3V725.4L219.1,725.4z M245.6,725.4h-13.3v1.2h13.3
			V725.4L245.6,725.4z M272.2,725.4h-13.3v1.2h13.3V725.4L272.2,725.4z M298.8,725.4h-13.3v1.2h13.3V725.4L298.8,725.4z
			 M325.3,725.4H312v1.2h13.3V725.4L325.3,725.4z M351.9,725.4h-13.3v1.2h13.3V725.4L351.9,725.4z M378.5,725.4h-13.3v1.2h13.3
			V725.4L378.5,725.4z M405,725.4h-13.3v1.2H405V725.4L405,725.4z M431.6,725.4h-13.3v1.2h13.3V725.4L431.6,725.4z M458.2,725.4
			h-13.3v1.2h13.3V725.4L458.2,725.4z M484.7,725.4h-13.3v1.2h13.3V725.4L484.7,725.4z M511.3,725.4H498v1.2h13.3V725.4L511.3,725.4
			z M537.9,725.4h-13.3v1.2h13.3V725.4L537.9,725.4z M564.5,725.4h-13.3v1.2h13.3V725.4L564.5,725.4z M591,725.4h-13.3v1.2H591
			V725.4L591,725.4z M617.6,725.4h-13.3v1.2h13.3V725.4L617.6,725.4z M644.2,725.4h-13.3v1.2h13.3V725.4L644.2,725.4z M670.7,725.4
			h-13.3v1.2h13.3V725.4L670.7,725.4z M697.3,725.4H684v1.2h13.3V725.4L697.3,725.4z M723.9,725.4h-13.3v1.2h13.3V725.4L723.9,725.4
			z M750.4,725.4h-13.3v1.2h13.3V725.4L750.4,725.4z M777,725.4h-13.3v1.2H777V725.4L777,725.4z M803.6,725.4h-13.3v1.2h13.3V725.4
			L803.6,725.4z M830.1,725.4h-13.3v1.2h13.3V725.4L830.1,725.4z M856.7,725.4h-13.3v1.2h13.3V725.4L856.7,725.4z M883.3,725.4H870
			v1.2h13.3V725.4L883.3,725.4z M909.9,725.4h-13.3v1.2h13.3V725.4L909.9,725.4z M936.4,725.4h-13.3v1.2h13.3V725.4L936.4,725.4z
			 M963,725.4h-13.3v1.2H963V725.4L963,725.4z M989.6,725.4h-13.3v1.2h13.3V725.4L989.6,725.4z M1016.1,725.4h-13.3v1.2h13.3V725.4
			L1016.1,725.4z M1042.7,725.4h-13.3v1.2h13.3V725.4L1042.7,725.4z M1069.3,725.4H1056v1.2h13.3V725.4L1069.3,725.4z M1095.8,725.4
			h-13.3v1.2h13.3V725.4L1095.8,725.4z M1122.4,725.4h-13.3v1.2h13.3V725.4L1122.4,725.4z M1149,725.4h-13.3v1.2h13.3V725.4
			L1149,725.4z M1175.5,725.4h-13.3v1.2h13.3V725.4L1175.5,725.4z M1202.1,725.4h-13.3v1.2h13.3V725.4L1202.1,725.4z M1221.6,717.1
			h-1.2v8.3l0,0l0,0h-5v1.2h5h1.2v-1.2V717.1L1221.6,717.1z M1221.6,690.5h-1.2v13.3h1.2V690.5L1221.6,690.5z M1221.6,664h-1.2v13.3
			h1.2V664L1221.6,664z M1221.6,637.4h-1.2v13.3h1.2V637.4L1221.6,637.4z M1221.6,610.8h-1.2v13.3h1.2V610.8L1221.6,610.8z
			 M1221.6,584.3h-1.2v13.3h1.2V584.3L1221.6,584.3z M1221.6,557.7h-1.2V571h1.2V557.7L1221.6,557.7z M1221.6,531.1h-1.2v13.3h1.2
			V531.1L1221.6,531.1z M1221.6,504.6h-1.2v13.3h1.2V504.6L1221.6,504.6z M1221.6,478h-1.2v13.3h1.2V478L1221.6,478z M1221.6,451.4
			h-1.2v13.3h1.2V451.4L1221.6,451.4z M1221.6,424.9h-1.2v13.3h1.2V424.9L1221.6,424.9z M1221.6,398.3h-1.2v13.3h1.2V398.3
			L1221.6,398.3z"/>
	</g>
</g>
<g>
	<path class="st6" d="M758.2,506.9H449.9c-2.8,0-5.1-2.3-5.1-5.1v-42.9c0-2.8,2.3-5.1,5.1-5.1h308.3c2.8,0,5.1,2.3,5.1,5.1v42.9
		C763.3,504.6,761,506.9,758.2,506.9z"/>
	<path class="st6" d="M758.9,587.5H449.1c-2.4,0-4.4-2-4.4-4.4v-44.3c0-2.4,2-4.4,4.4-4.4h309.8c2.4,0,4.4,2,4.4,4.4v44.3
		C763.3,585.6,761.3,587.5,758.9,587.5z"/>
	<path class="st6" d="M758.3,668.2H449.7c-2.7,0-4.9-2.2-4.9-4.9v-43.2c0-2.7,2.2-4.9,4.9-4.9h308.6c2.7,0,4.9,2.2,4.9,4.9v43.2
		C763.3,666,761.1,668.2,758.3,668.2z"/>
	<path class="st6" d="M377.1,506.9H68.8c-2.8,0-5.1-2.3-5.1-5.1v-42.9c0-2.8,2.3-5.1,5.1-5.1h308.3c2.8,0,5.1,2.3,5.1,5.1v42.9
		C382.2,504.6,379.9,506.9,377.1,506.9z"/>
	<path class="st6" d="M377.2,668.2H68.6c-2.7,0-4.9-2.2-4.9-4.9v-43.2c0-2.7,2.2-4.9,4.9-4.9h308.6c2.7,0,4.9,2.2,4.9,4.9v43.2
		C382.2,666,380,668.2,377.2,668.2z"/>
	<path class="st6" d="M1148.8,506.9H840.4c-2.8,0-5.1-2.3-5.1-5.1v-42.9c0-2.8,2.3-5.1,5.1-5.1h308.3c2.8,0,5.1,2.3,5.1,5.1v42.9
		C1153.8,504.6,1151.6,506.9,1148.8,506.9z"/>
	<path class="st6" d="M1149.5,587.5H839.7c-2.4,0-4.4-2-4.4-4.4v-44.3c0-2.4,2-4.4,4.4-4.4h309.8c2.4,0,4.4,2,4.4,4.4v44.3
		C1153.8,585.6,1151.9,587.5,1149.5,587.5z"/>
	<path class="st6" d="M1148.9,668.2H840.3c-2.7,0-4.9-2.2-4.9-4.9v-43.2c0-2.7,2.2-4.9,4.9-4.9h308.6c2.7,0,4.9,2.2,4.9,4.9v43.2
		C1153.8,666,1151.6,668.2,1148.9,668.2z"/>
</g>
<g>
	<path class="st7" d="M68.1,586.2c-1.7,0-3-1.4-3-3v-44.3c0-1.7,1.4-3,3-3h309.8c1.7,0,3,1.4,3,3v44.3c0,1.7-1.4,3-3,3H68.1z"/>
	<path class="st3" d="M377.8,537.2c0.9,0,1.7,0.7,1.7,1.7v44.3c0,0.9-0.7,1.7-1.7,1.7H68.1c-0.9,0-1.7-0.7-1.7-1.7v-44.3
		c0-0.9,0.7-1.7,1.7-1.7H377.8 M377.8,534.5H68.1c-2.4,0-4.4,2-4.4,4.4v44.3c0,2.4,2,4.4,4.4,4.4h309.8c2.4,0,4.4-2,4.4-4.4v-44.3
		C382.2,536.4,380.2,534.5,377.8,534.5L377.8,534.5z"/>
</g>
<g>
	<g>
		<path class="st8" d="M474.6,491.1v-4.2h4.4v4.2H474.6z"/>
		<path class="st8" d="M483.4,491.1v-20.3h3.8v17h10.9v3.3H483.4z"/>
		<path class="st8" d="M510.7,491.1v-13v-2.8c-1.1,1.8-3.2,3.5-5.5,3.6V475c2.6-0.3,4.8-1.7,6-4.3h3.1v20.3H510.7z"/>
	</g>
</g>
<g>
	<g>
		<path class="st8" d="M504,571.7v-4.2h4.4v4.2H504z"/>
		<path class="st8" d="M512.8,571.7v-20.3h3.8v17h10.9v3.3H512.8z"/>
		<path class="st8" d="M535.5,571.7v-3.9c7.4-4.4,10.3-6.9,10.3-10.1c0-2.2-1.5-3.5-3.2-3.5c-2.4,0-3.5,2-3.5,4.4l-3.7-0.6
			c0.1-3.7,2.5-7,7.3-7c4.4,0,7,2.6,7,6.3c0,2-0.7,3.7-1.9,5.2c-1.7,2.1-4.7,3.9-8.6,6h5.5h5.2v3.2H535.5z"/>
	</g>
</g>
<g>
	<g>
		<path class="st8" d="M543.1,650.9v-4.2h4.4v4.2H543.1z"/>
		<path class="st8" d="M551.8,650.9v-20.3h3.8v17h10.9v3.3H551.8z"/>
		<path class="st8" d="M574,645.1l3.8-0.8c0.2,2.4,1.6,3.9,3.8,3.9c2,0,3.5-1.1,3.5-3c0-1.9-1.4-3.1-3.5-3.1h-1.7v-3h1.7
			c1.7,0,3.2-1.1,3.2-2.9c0-1.8-1.4-2.9-3.1-2.9c-1.9,0-3.1,1.3-3.3,3.3l-3.7-0.6c0.3-3.2,2.8-5.9,7-5.9c4.3,0,6.8,2.3,6.8,5.4
			c0,2.6-1.6,4.2-3.7,4.9c2.5,0.6,4.2,2.5,4.2,5.1c0,3.5-2.7,5.9-7.2,5.9C577.1,651.3,574.4,648.9,574,645.1z"/>
	</g>
</g>
<g>
	<g>
		<path class="st8" d="M92.3,491.1v-20.3h9.4c4.4,0,6.6,2,6.6,4.9c0,2.5-1.6,4.1-3.9,4.8c2.6,0.5,4.6,2.3,4.6,5
			c0,3.6-3.1,5.6-7.1,5.6H92.3z M96,479h5.1c2,0,3.3-0.8,3.3-2.6s-1.3-2.4-3.3-2.4H96V479z M96,487.8h5.2c2.2,0,3.7-0.9,3.7-2.8
			c0-1.9-1.5-2.8-3.7-2.8H96V487.8z"/>
		<path class="st8" d="M111.4,483.8c0-4.5,3.1-7.7,7.3-7.7c4.2,0,7.3,3.1,7.3,7.7c0,4.6-3.1,7.7-7.3,7.7
			C114.5,491.5,111.4,488.2,111.4,483.8z M122.3,483.9c0-3.2-1.5-4.8-3.6-4.8c-2.1,0-3.6,1.6-3.6,4.8c0,3.2,1.5,4.7,3.6,4.7
			C120.8,488.6,122.3,487.1,122.3,483.9z"/>
		<path class="st8" d="M128.2,483.8c0-4.6,2.5-7.7,6.1-7.7c2.5,0,4,1.4,4.6,2.5V476v-5.3h3.5v20.3h-3.5v-2c-0.7,1.1-2.2,2.5-4.7,2.5
			C130.7,491.5,128.2,488.5,128.2,483.8z M139.2,483.8c0-3.3-1.5-4.9-3.7-4.9c-2,0-3.6,1.3-3.6,4.9c0,3.6,1.6,4.9,3.6,4.9
			C137.7,488.7,139.2,487.1,139.2,483.8z"/>
		<path class="st8" d="M156.1,476.6h3.7l-5.9,16.6c-0.8,2.4-2,3.5-4.5,3.5h-3.8v-2.9h3.4c1,0,1.5-0.3,1.9-1.5l0.4-1.3l-6.7-14.3h3.8
			l2.6,6.2c1.1,2.5,1.4,3.2,1.7,3.9l1.3-3.9L156.1,476.6z"/>
	</g>
</g>
<g>
	<g>
		<path class="st8" d="M92.3,650.9v-20.3H96v8.2h9.5v-8.2h3.8v20.3h-3.8V642H96v8.8H92.3z"/>
		<path class="st8" d="M113.5,650.9v-3.9c7.4-4.4,10.3-6.9,10.3-10.1c0-2.2-1.5-3.5-3.2-3.5c-2.4,0-3.5,2-3.5,4.4l-3.7-0.6
			c0.1-3.7,2.5-7,7.3-7c4.4,0,7,2.6,7,6.3c0,2-0.7,3.7-1.9,5.2c-1.7,2.1-4.7,3.9-8.6,6h5.5h5.2v3.2H113.5z"/>
	</g>
</g>
<g>
	<g>
		<path class="st8" d="M862.2,485.5l3.6-1.3c0.5,2.1,2.1,4.2,5.3,4.2c2.8,0,4.1-1.2,4.1-2.9c0-1.4-1-2.4-3.5-2.8l-2.6-0.4
			c-3.6-0.6-5.9-2.3-5.9-5.9c0-3.3,2.8-6,7.6-6c4.9,0,7.3,2.7,8.1,5.2l-3.5,1.3c-0.6-1.7-1.8-3.4-4.7-3.4c-2.6,0-3.7,1.2-3.7,2.7
			c0,1.4,1,2.2,2.9,2.5l2.6,0.5c3.9,0.6,6.6,2.6,6.6,6.1c0,3.5-2.6,6.3-8.1,6.3C865.8,491.5,863.1,488.8,862.2,485.5z"/>
		<path class="st8" d="M887.6,491.1c-2.3,0-3.7-1.4-3.7-3.7v-8h-3.1v-2.8h3.1v-4.5h3.5v4.5h3.8v2.8h-3.8v7.5c0,0.9,0.4,1.4,1.3,1.4
			h3.1v2.9H887.6z"/>
		<path class="st8" d="M904,476.6h3.7l-5.9,16.6c-0.8,2.4-2,3.5-4.5,3.5h-3.8v-2.9h3.4c1,0,1.5-0.3,1.9-1.5l0.4-1.3l-6.7-14.3h3.8
			l2.6,6.2c1.1,2.5,1.4,3.2,1.7,3.9l1.3-3.9L904,476.6z"/>
		<path class="st8" d="M910.3,491.1v-20.3h3.5v20.3H910.3z"/>
		<path class="st8" d="M917.2,483.8c0-4.6,3-7.7,7-7.7c4.6,0,7.2,3.7,6.7,8.5h-10.2c0.1,2.9,1.7,4,3.6,4c2,0,3-1.4,3.5-2.6l3.2,1.2
			c-0.9,2.3-2.9,4.2-6.8,4.2C919.9,491.5,917.2,488.6,917.2,483.8z M927.4,482.1c-0.1-2.1-1.4-3.3-3.2-3.3c-1.7,0-3.1,1.2-3.4,3.3
			H927.4z"/>
		<path class="st8" d="M945.5,491.1v-13v-2.8c-1.1,1.8-3.2,3.5-5.5,3.6V475c2.6-0.3,4.8-1.7,6-4.3h3.1v20.3H945.5z"/>
	</g>
</g>
<g>
	<g>
		<path class="st8" d="M862.2,566.2l3.6-1.3c0.5,2.1,2.1,4.2,5.3,4.2c2.8,0,4.1-1.2,4.1-2.9c0-1.4-1-2.4-3.5-2.8l-2.6-0.4
			c-3.6-0.6-5.9-2.3-5.9-5.9c0-3.3,2.8-6,7.6-6c4.9,0,7.3,2.7,8.1,5.2l-3.5,1.3c-0.6-1.7-1.8-3.4-4.7-3.4c-2.6,0-3.7,1.2-3.7,2.7
			c0,1.4,1,2.2,2.9,2.5l2.6,0.5c3.9,0.6,6.6,2.6,6.6,6.1c0,3.5-2.6,6.3-8.1,6.3C865.8,572.2,863.1,569.4,862.2,566.2z"/>
		<path class="st8" d="M887.6,571.7c-2.3,0-3.7-1.4-3.7-3.7v-8h-3.1v-2.8h3.1v-4.5h3.5v4.5h3.8v2.8h-3.8v7.5c0,0.9,0.4,1.4,1.3,1.4
			h3.1v2.9H887.6z"/>
		<path class="st8" d="M904,557.3h3.7l-5.9,16.6c-0.8,2.4-2,3.5-4.5,3.5h-3.8v-2.9h3.4c1,0,1.5-0.3,1.9-1.5l0.4-1.3l-6.7-14.3h3.8
			l2.6,6.2c1.1,2.5,1.4,3.2,1.7,3.9l1.3-3.9L904,557.3z"/>
		<path class="st8" d="M910.3,571.7v-20.3h3.5v20.3H910.3z"/>
		<path class="st8" d="M917.2,564.5c0-4.6,3-7.7,7-7.7c4.6,0,7.2,3.7,6.7,8.5h-10.2c0.1,2.9,1.7,4,3.6,4c2,0,3-1.4,3.5-2.6l3.2,1.2
			c-0.9,2.3-2.9,4.2-6.8,4.2C919.9,572.2,917.2,569.3,917.2,564.5z M927.4,562.8c-0.1-2.1-1.4-3.3-3.2-3.3c-1.7,0-3.1,1.2-3.4,3.3
			H927.4z"/>
		<path class="st8" d="M940.8,571.7v-3.9c7.4-4.4,10.3-6.9,10.3-10.1c0-2.2-1.5-3.5-3.2-3.5c-2.4,0-3.5,2-3.5,4.4l-3.7-0.6
			c0.1-3.7,2.5-7,7.3-7c4.4,0,7,2.6,7,6.3c0,2-0.7,3.7-1.9,5.2c-1.7,2.1-4.7,3.9-8.6,6h5.5h5.2v3.2H940.8z"/>
	</g>
</g>
<g>
	<g>
		<path class="st8" d="M862.2,645.3l3.6-1.3c0.5,2.1,2.1,4.2,5.3,4.2c2.8,0,4.1-1.2,4.1-2.9c0-1.4-1-2.4-3.5-2.8l-2.6-0.4
			c-3.6-0.6-5.9-2.3-5.9-5.9c0-3.3,2.8-6,7.6-6c4.9,0,7.3,2.7,8.1,5.2l-3.5,1.3c-0.6-1.7-1.8-3.4-4.7-3.4c-2.6,0-3.7,1.2-3.7,2.7
			c0,1.4,1,2.2,2.9,2.5l2.6,0.5c3.9,0.6,6.6,2.6,6.6,6.1c0,3.5-2.6,6.3-8.1,6.3C865.8,651.3,863.1,648.6,862.2,645.3z"/>
		<path class="st8" d="M887.6,650.9c-2.3,0-3.7-1.4-3.7-3.7v-8h-3.1v-2.8h3.1v-4.5h3.5v4.5h3.8v2.8h-3.8v7.5c0,0.9,0.4,1.4,1.3,1.4
			h3.1v2.9H887.6z"/>
		<path class="st8" d="M904,636.4h3.7l-5.9,16.6c-0.8,2.4-2,3.5-4.5,3.5h-3.8v-2.9h3.4c1,0,1.5-0.3,1.9-1.5l0.4-1.3l-6.7-14.3h3.8
			l2.6,6.2c1.1,2.5,1.4,3.2,1.7,3.9l1.3-3.9L904,636.4z"/>
		<path class="st8" d="M910.3,650.9v-20.3h3.5v20.3H910.3z"/>
		<path class="st8" d="M917.2,643.6c0-4.6,3-7.7,7-7.7c4.6,0,7.2,3.7,6.7,8.5h-10.2c0.1,2.9,1.7,4,3.6,4c2,0,3-1.4,3.5-2.6l3.2,1.2
			c-0.9,2.3-2.9,4.2-6.8,4.2C919.9,651.3,917.2,648.4,917.2,643.6z M927.4,641.9c-0.1-2.1-1.4-3.3-3.2-3.3c-1.7,0-3.1,1.2-3.4,3.3
			H927.4z"/>
		<path class="st8" d="M940.3,645.1l3.8-0.8c0.2,2.4,1.6,3.9,3.8,3.9c2,0,3.5-1.1,3.5-3c0-1.9-1.4-3.1-3.5-3.1h-1.7v-3h1.7
			c1.7,0,3.2-1.1,3.2-2.9c0-1.8-1.4-2.9-3.1-2.9c-1.9,0-3.1,1.3-3.3,3.3l-3.7-0.6c0.3-3.2,2.8-5.9,7-5.9c4.3,0,6.8,2.3,6.8,5.4
			c0,2.6-1.6,4.2-3.7,4.9c2.5,0.6,4.2,2.5,4.2,5.1c0,3.5-2.7,5.9-7.2,5.9C943.4,651.3,940.7,648.9,940.3,645.1z"/>
	</g>
</g>
<g>
	<path class="st3" d="M92.3,571.7v-20.3H96v8.2h9.5v-8.2h3.8v20.3h-3.8v-8.8H96v8.8H92.3z"/>
	<path class="st3" d="M118.2,571.7v-13v-2.8c-1.1,1.8-3.2,3.5-5.5,3.6v-3.8c2.6-0.3,4.8-1.7,6-4.3h3.1v20.3H118.2z"/>
</g>
<g>
	<g class="st9">
		<polygon class="st10" points="379.2,653.8 358.8,682 344.6,583.9 424.8,642.2 390.3,647.1 433.7,718.9 422.6,725.6 		"/>
	</g>
	<g>
		<polygon class="st3" points="378.8,663.2 355.6,695.4 337.7,572.5 438.2,645.5 398.8,651.1 440.8,720.6 420.8,732.7 		"/>
		<path class="st11" d="M341.4,578.6l89.7,65.1l-28.5,4.1l-8.2,1.2l4.3,7.1l38.4,63.6l-15.3,9.2l-38.4-63.6l-4.3-7.1l-4.9,6.7
			l-16.9,23.3L341.4,578.6 M334,566.5l19.8,136.1l24.8-34.4l41.3,68.3l24.7-14.9l-41.3-68.3l42-6L334,566.5L334,566.5z"/>
	</g>
</g>
</svg>
