<?xml version="1.0" encoding="utf-8"?>
<!-- Generator: Adobe Illustrator 27.3.1, SVG Export Plug-In . SVG Version: 6.00 Build 0)  -->
<svg version="1.1" id="Laag_1" xmlns="http://www.w3.org/2000/svg" xmlns:xlink="http://www.w3.org/1999/xlink" x="0px" y="0px"
	 viewBox="0 0 860 611.7" style="enable-background:new 0 0 860 611.7;" xml:space="preserve">
<style type="text/css">
	.st0{opacity:0.75;}
	.st1{fill:#FCFCFA;}
	.st2{opacity:0.96;fill:#E0B8C8;}
	.st3{opacity:0.35;fill:none;stroke:#99C3E0;stroke-width:23.4104;stroke-linecap:round;stroke-miterlimit:10;}
	.st4{fill:#FFFFFF;}
	.st5{fill:#A7CBD1;}
	.st6{fill:#FFFFFF;stroke:#1D1D1B;stroke-width:1.2807;stroke-miterlimit:10;}
	.st7{fill:none;stroke:#E6EEEF;stroke-width:20;stroke-linecap:round;stroke-miterlimit:10;}
	.st8{fill:#A87390;}
	.st9{fill:#E0B8C8;}
	.st10{fill:#F7F7F5;}
</style>
<g class="st0">
	<rect x="51" y="37.3" class="st1" width="618.9" height="385.5"/>
</g>
<circle class="st2" cx="150.8" cy="132.3" r="11.7"/>
<circle class="st2" cx="150.8" cy="237.7" r="11.7"/>
<circle class="st2" cx="150.8" cy="329.3" r="11.7"/>
<line class="st3" x1="230.7" y1="210.3" x2="512.1" y2="210.3"/>
<line class="st3" x1="230.7" y1="281.7" x2="512.1" y2="281.7"/>
<g>
	<rect x="202.7" y="188.5" class="st4" width="618.9" height="385.5"/>
</g>
<g>
	<g>
		<path class="st5" d="M140.1,523.6c-5.2-1.7-10.1-4.1-14.7-7.1c-4.6-3-8.9-6.5-12.6-10.6c-3.7-4.1-6.9-8.6-9.2-13.7
			c-2.3-5-3.8-10.4-4.3-15.8c2,5.1,4.2,9.8,6.9,14.3c2.7,4.5,6,8.6,9.5,12.4c3.5,3.8,7.5,7.3,11.6,10.5c4.1,3.3,8.5,6.2,13.1,9
			L140.1,523.6z"/>
		<g>
			<path class="st5" d="M127.1,501.8c-0.7,0.5-0.9,1.4-0.4,2.1l12.9,19l-22.7,3.7c-0.8,0.1-1.4,0.9-1.2,1.7c0.1,0.8,0.9,1.4,1.7,1.2
				l25-4.1c0.5-0.1,0.9-0.4,1.1-0.9c0.2-0.5,0.1-1-0.1-1.4l-14.2-20.9c-0.2-0.2-0.4-0.4-0.6-0.5
				C128.1,501.4,127.6,501.5,127.1,501.8z"/>
		</g>
	</g>
</g>
<path class="st6" d="M248.9,260"/>
<g>
	<g>
		<path class="st5" d="M0,37.4c231.2-2.3,467.7-2.4,698.9,0C467.7,39.8,231.2,39.8,0,37.4L0,37.4z"/>
	</g>
	<g>
		<path class="st5" d="M51,7.4c2.4,145,2.4,292.5,0,437.4C48.6,299.9,48.6,152.4,51,7.4L51,7.4z"/>
	</g>
	<g>
		<path class="st5" d="M5.3,422.8c71-2.8,143-3.3,214-1.3C148.3,424.3,76.3,424.7,5.3,422.8L5.3,422.8z"/>
	</g>
	<g>
		<path class="st5" d="M669.9,0c2.4,70.5,2.4,142,0,212.5C667.4,142,667.5,70.5,669.9,0L669.9,0z"/>
	</g>
	<g>
		<path class="st5" d="M860,188.5c-223.7,2.3-452.7,2.4-676.4,0C407.4,186.1,636.3,186.2,860,188.5L860,188.5z"/>
	</g>
	<g>
		<path class="st5" d="M202.7,157.2c2.4,145.8,2.4,294.1,0,440C200.3,451.3,200.3,303,202.7,157.2L202.7,157.2z"/>
	</g>
	<g>
		<path class="st5" d="M845.5,574c-225.9,2.3-457.1,2.4-683,0C388.4,571.6,619.6,571.7,845.5,574L845.5,574z"/>
	</g>
	<g>
		<path class="st5" d="M821.6,169.6c2.4,146.5,2.4,295.5,0,442.1C819.2,465.2,819.2,316.1,821.6,169.6L821.6,169.6z"/>
	</g>
</g>
<g>
	<line class="st7" x1="230.7" y1="132.3" x2="512.1" y2="132.3"/>
	<line class="st7" x1="382.4" y1="281.4" x2="663.8" y2="281.4"/>
	<line class="st7" x1="382.4" y1="389.7" x2="663.8" y2="389.7"/>
	<line class="st7" x1="382.4" y1="498.1" x2="663.8" y2="498.1"/>
</g>
<g>
	<path class="st8" d="M271.4,304.1l0,5.4c0,0.9,0.3,1.7,0.8,2.5l2.4,3.6c0.7,1.1,2.4,2,3.7,2h8.7c1.3,0,3-0.9,3.7-2l2.4-3.6
		c0.4-0.5,0.8-1.6,0.8-2.4l0-9.9l-22.5,0L271.4,304.1z"/>
	<path class="st9" d="M282.6,245.8c-14.3,0-24.6,11.5-24.6,24.6c0,6,2.2,11.8,6.1,16.3c2.3,2.7,5.9,8.2,7.3,12.8c0,0,0,0.1,0,0.1
		l22.5,0c0,0,0-0.1,0-0.1c1.4-4.7,5-10.2,7.3-12.8c3.9-4.4,6.1-10.2,6.1-16.3C307.4,256.8,296.3,245.7,282.6,245.8z"/>
	<path class="st10" d="M282.7,259.3c-6.2,0-11.2,5-11.2,11.1c0,1.2-1,2.2-2.2,2.2s-2.2-1-2.2-2.2c0-8.6,7-15.6,15.7-15.6
		c1.2,0,2.2,1,2.2,2.2S283.9,259.3,282.7,259.3z"/>
</g>
<g>
	<g>
		<path class="st8" d="M296.6,362.3l-6.9,6.9l15.5,15.5l6.9-6.9c2.7-2.7,2.7-7.1,0-9.8l-5.7-5.7
			C303.7,359.6,299.3,359.6,296.6,362.3L296.6,362.3z"/>
	</g>
	<g>
		<path class="st9" d="M286.6,371.8l-1.1,0.3l-17.8,5.4c-2.5,0.7-4.4,2.6-5.2,5.1l-11,32.7c-0.5,1.4-0.1,3,0.9,4l19-19
			c-0.4-0.8-0.6-1.6-0.6-2.6c0-3.3,2.7-5.9,5.9-5.9c3.3,0,5.9,2.7,5.9,5.9c0,3.3-2.7,5.9-5.9,5.9c-0.9,0-1.8-0.2-2.6-0.6l-19,19
			c1.1,1,2.6,1.4,4,0.9l32.7-11c2.4-0.8,4.3-2.8,5.1-5.2l5.4-17.8l0.3-1.1L286.6,371.8z"/>
	</g>
</g>
<g>
	<g>
		<path class="st9" d="M275,469.4c0.9-0.9,2.3-0.9,3.3,0c3.3,3.2,6.3,6.7,9.2,10.4c1.3-1.8,2.8-3.7,4.4-5.3c0.9-0.9,2.4-0.9,3.3,0
			c4.1,4.1,7.5,9.5,10,14.6c2.4,5.1,4,10.2,4,13.9c0,15.8-11.8,29.2-26.4,29.2c-14.8,0-26.4-13.4-26.4-29.2c0-4.8,2.1-10.6,5.3-16.3
			C264.9,480.9,269.5,474.8,275,469.4z"/>
	</g>
	<path class="st8" d="M282.9,520.3c3,0,5.6-0.9,8.1-2.6c5-3.6,6.3-10.9,3.3-16.6c-0.5-1.1-1.9-1.2-2.7-0.2l-3,3.6
		c-0.8,0.9-2.2,0.9-2.9-0.1c-1.9-2.6-5.4-7.2-7.4-9.9c-0.7-1-2.2-1-2.9,0c-4,5.3-6,8.6-6,12.3C269.5,515.3,275.4,520.3,282.9,520.3z
		"/>
</g>
</svg>
