<svg width="1573" height="1390" viewBox="0 0 1573 1390" fill="none" xmlns="http://www.w3.org/2000/svg">
<g clip-path="url(#clip0_101_952)">
<path d="M1404 251.5H175.3V1189.4H1404V251.5Z" fill="#FCFCFA"/>
<path d="M1317.9 884.4H1008.8V1115.8H1317.9V884.4Z" fill="white"/>
<path d="M952.5 884.4H643.4V1115.8H952.5V884.4Z" fill="white"/>
<path d="M1317.9 603.6H1008.8V835H1317.9V603.6Z" fill="white"/>
<path d="M1317.9 323.3H1008.8V554.7H1317.9V323.3Z" fill="white"/>
<path d="M1404 156.5H175.3V251.5H1404V156.5Z" fill="#EFF3F4"/>
<path d="M559 322.9H229.7V1117.9H559V322.9Z" fill="white"/>
<path d="M952.5 322.9H643.4V554.3H952.5V322.9Z" fill="white"/>
<path d="M975 554.7C864.9 556.7 753.5 556.8 643.4 554.7C753.6 552.7 864.9 552.7 975 554.7Z" fill="#B8D6DD"/>
<g opacity="0.75">
<path d="M952.5 1116.1C874.8 1116.5 719.9 1117.2 642.2 1117.4V1116.1L642 884.3V882.8H643.5L798 883C837 883 914.5 883.1 953.6 883.3C953.3 941.6 952.9 1057.9 952.5 1116.1ZM952.5 1116.1C952.1 1058.3 951.7 942.1 951.5 884.3L952.5 885.3C914 885.5 836.5 885.6 798 885.6L643.5 885.8L645 884.3L644.8 1116.1L643.5 1114.8C720.5 1115 875.5 1115.8 952.5 1116.1Z" fill="#B8D6DD"/>
</g>
<path d="M975 1116.1C864.9 1118.1 753.5 1118.2 643.4 1116.1C753.6 1114.1 864.9 1114.1 975 1116.1Z" fill="#B8D6DD"/>
<path d="M1340.4 554.7C1230.3 556.7 1118.9 556.8 1008.8 554.7C1119 552.7 1230.3 552.7 1340.4 554.7Z" fill="#B8D6DD"/>
<g opacity="0.75">
<path d="M1317.9 1116.1C1240.2 1116.5 1085.3 1117.2 1007.6 1117.4V1116.1L1007.4 884.3V882.8H1008.9L1163.4 883C1202.4 883 1279.9 883.1 1319 883.3C1318.7 941.6 1318.3 1057.9 1317.9 1116.1ZM1317.9 1116.1C1317.5 1058.3 1317.1 942.1 1316.9 884.3L1317.9 885.3C1279.4 885.5 1201.9 885.6 1163.4 885.6L1008.9 885.8L1010.4 884.3L1010.2 1116.1L1008.9 1114.8C1085.9 1115 1240.9 1115.8 1317.9 1116.1Z" fill="#B8D6DD"/>
</g>
<path d="M1340.4 1116.1C1230.3 1118.1 1118.9 1118.2 1008.8 1116.1C1119 1114.1 1230.3 1114.1 1340.4 1116.1Z" fill="#B8D6DD"/>
<path d="M332.9 424.9C351.8 424.6 389.6 424 408.5 423.9C433.7 423.4 459 423.3 484.1 425V425.3C480.9 425.5 477.8 425.7 474.6 425.8L465.1 426.2C446.2 426.9 427.3 426.7 408.4 426.4C389.6 426.2 351.6 425.7 332.8 425.4C332.9 425.2 332.9 424.9 332.9 424.9Z" fill="#A7CBD1"/>
<path d="M288.9 485.8C347.8 485.4 413.2 483.3 471.9 485.3C476 485.5 480 485.6 484.1 485.8V486.1C480 486.3 476 486.5 471.9 486.6C443.5 487.6 414.9 487.6 386.5 487.1C362.4 486.7 312.4 487 288.9 485.8Z" fill="#A7CBD1"/>
<path d="M288.9 546.7C347.8 546.3 413.2 544.2 471.9 546.2C476 546.4 480 546.5 484.1 546.7V547C480 547.2 476 547.4 471.9 547.5C443.5 548.5 414.9 548.5 386.5 548C362.4 547.6 312.4 547.9 288.9 546.7Z" fill="#A7CBD1"/>
<path d="M288.9 602.2C347.8 601.8 413.2 599.7 471.9 601.7C476 601.9 480 602 484.1 602.2V602.5C480 602.7 476 602.9 471.9 603C443.5 604 414.9 604 386.5 603.5C362.4 603 312.4 603.4 288.9 602.2Z" fill="#A7CBD1"/>
<path d="M288.9 657.6C347.8 657.2 413.2 655.1 471.9 657.1C476 657.3 480 657.4 484.1 657.6V657.9C480 658.1 476 658.3 471.9 658.4C443.5 659.4 414.9 659.4 386.5 658.9C362.4 658.5 312.4 658.8 288.9 657.6Z" fill="#A7CBD1"/>
<path d="M593.7 1117.9C502.9 1118.3 320.5 1119.2 229.7 1119.2H228.4V1117.9L228.2 910C228.3 758.9 228.4 540.5 229.2 390.2L229.7 286.2L230.2 390.2C230.6 458 230.8 631.7 231 702.1C231.2 805.7 231.1 1014.4 231 1118L229.7 1116.7C320.4 1116.6 503 1117.5 593.7 1117.9Z" fill="#A7CBD1"/>
<path d="M559 279.6C561 560.8 561 876.3 559 1157.5C557 876.2 557.1 560.8 559 279.6Z" fill="#A7CBD1"/>
<path d="M207.1 322.9C333.2 320.9 462.3 320.9 588.4 322.9C462.3 325 333.3 324.9 207.1 322.9Z" fill="#A7CBD1"/>
<g opacity="0.75">
<path d="M675.7 322.9C745.4 322.5 884.1 321.7 953.8 321.6V322.9L954 554.7V556.2C865.7 555.9 730.7 556.2 643.4 555.7H642.4V554.7C642.6 505.1 643 405.3 643.4 355.7L644 455.2L644.4 554.7L643.4 553.7C682 553.5 759.4 553.4 797.9 553.4L952.4 553.2L950.9 554.7L951.1 322.9L952.4 324.2C883.5 324.1 744.7 323.4 675.7 322.9Z" fill="#A7CBD1"/>
</g>
<path d="M643.4 1116.1C642.7 1042.5 642.2 957.9 642.1 884.3V883H643.4C743.1 882.8 853 882.8 952.5 883.3H953.5V884.3C953.3 945 952.9 1067.4 952.5 1128.1L951.9 1006.2L951.5 884.3L952.5 885.3C926.7 885.4 901 885.6 875.2 885.6C804 885.8 714.6 885.8 643.4 885.6L644.7 884.3L644.5 942.2C644.4 995.7 644 1062.8 643.4 1116.1Z" fill="#A7CBD1"/>
<g opacity="0.75">
<path d="M1317.9 554.9C1240.2 555.3 1085.3 556 1007.6 556.2V554.9L1007.4 323.1V321.6H1008.9L1163.4 321.8C1202.4 321.8 1279.9 321.9 1319 322.1C1318.7 380.4 1318.3 496.6 1317.9 554.9ZM1317.9 554.9C1317.5 497.1 1317.1 380.9 1316.9 323.1L1317.9 324.1C1279.4 324.3 1201.9 324.4 1163.4 324.4L1008.9 324.6L1010.4 323.1L1010.2 554.9L1008.9 553.6C1085.9 553.8 1240.9 554.5 1317.9 554.9Z" fill="#A7CBD1"/>
</g>
<path d="M1008.8 1116.1C1008.1 1042.5 1007.6 957.9 1007.5 884.3V883H1008.8C1108.5 882.8 1218.4 882.8 1317.9 883.3H1318.9V884.3C1318.7 945 1318.3 1067.4 1317.9 1128.1L1317.3 1006.2L1316.9 884.3L1317.9 885.3C1292.1 885.4 1266.4 885.6 1240.6 885.6C1169.4 885.8 1080 885.8 1008.8 885.6L1010.1 884.3L1009.9 942.2C1009.8 995.7 1009.4 1062.8 1008.8 1116.1Z" fill="#A7CBD1"/>
<g opacity="0.75">
<path d="M1317.9 835.4C1240.2 835.8 1085.3 836.5 1007.6 836.7V835.4L1007.4 603.6V602.1H1008.9L1163.4 602.3C1202.4 602.3 1279.9 602.4 1319 602.6C1318.7 660.9 1318.3 777.2 1317.9 835.4ZM1317.9 835.4C1317.5 777.6 1317.1 661.4 1316.9 603.6L1317.9 604.6C1279.4 604.8 1201.9 604.9 1163.4 604.9L1008.9 605.1L1010.4 603.6L1010.2 835.4L1008.9 834.1C1085.9 834.3 1240.9 835.1 1317.9 835.4Z" fill="#A7CBD1"/>
</g>
<path d="M1340.4 835.4C1230.3 837.4 1118.9 837.5 1008.8 835.4C1119 833.4 1230.3 833.4 1340.4 835.4Z" fill="#B8D6DD"/>
<path d="M876.5 406.1C876.5 421.8 857.6 429.9 846.1 419C838.8 412.3 838.8 399.8 846.1 393.1C857.6 382.3 876.5 390.4 876.5 406.1ZM876.5 406.1C876.4 390.8 857.9 383.4 847.3 394.4C841.1 400.7 841 411.6 847.3 417.8C857.9 428.8 876.4 421.4 876.5 406.1Z" fill="#A7CBD1"/>
<path d="M799.8 499.3C811.4 488.5 827.4 473.8 839.1 463.1C843.7 458.9 848.2 454.7 852.8 450.6L853.4 451.1L868.7 464C883.8 477 898.9 490.2 913.6 503.8C897.9 491.4 882.6 478.5 867.4 465.5L852.3 452.4H853.4C849 456.4 844.5 460.2 840 464.2C828.2 474.7 811.8 488.9 799.8 499.3Z" fill="#A7CBD1"/>
<path d="M693.4 508.6C693 494.5 692.9 474.2 692.7 459.9C698 455.2 708.4 445.9 713.8 441.2L734.7 422.8L735.4 422.2L736.1 422.8C760.7 447.3 791 478 815.5 502.9C824.2 511.9 833 520.8 841.7 529.8C832.7 521.1 823.7 512.3 814.8 503.6C789.8 479.1 759.3 448.8 734.7 424.2H736L715 442.5C709.8 447.1 699.2 456.2 693.9 460.7L694.1 460.2C694 474.4 693.6 494.6 693.4 508.6Z" fill="#A7CBD1"/>
<path d="M734.3 369.1C782.7 368.1 833.2 368 881.6 368.2L902.6 368.4H903.3V369.1C903.2 407.2 902.9 484 902.6 522.2C902.3 484 902.1 407.3 901.9 369.1L902.6 369.8L881.6 370C833.1 370.2 782.6 370.1 734.3 369.1Z" fill="#A7CBD1"/>
<path d="M913.5 508.6C858.1 508.9 747.8 509.4 692.5 509.5V508.6C692.4 481.4 692.3 451.6 692.8 424.5C692.9 415.2 693.1 405.8 693.4 396.5C693.7 405.8 693.9 415.2 694 424.5C694.4 451.5 694.4 481.4 694.2 508.6L693.3 507.7C748.2 507.8 858.7 508.3 913.5 508.6Z" fill="#A7CBD1"/>
<path d="M902.6 1070C850 1070.3 745.1 1070.7 692.5 1070.9V1070L692.4 930.5V929.5H693.4L798 929.6C798.8 929.7 902.5 929.8 903.3 929.8C903.1 965 902.8 1034.9 902.6 1070ZM902.6 1070L901.9 930.5L902.6 931.2L798 931.4L693.4 931.5L694.4 930.5L694.2 1070L693.3 1069.1C745.5 1069.3 850.4 1069.7 902.6 1070Z" fill="#A7CBD1"/>
<path d="M876.5 967.5C876.5 983.2 857.6 991.3 846.1 980.4C838.8 973.7 838.8 961.2 846.1 954.5C857.6 943.7 876.5 951.8 876.5 967.5ZM876.5 967.5C876.4 952.2 857.9 944.8 847.3 955.8C841.1 962.1 841 973 847.3 979.2C857.9 990.2 876.4 982.8 876.5 967.5Z" fill="#A7CBD1"/>
<path d="M796 1064C813.8 1047.5 834.3 1028.8 852.2 1012.5L852.8 1012L853.4 1012.5C862.4 1020.1 875 1030.8 883.8 1038.5C893.9 1047.2 903.8 1056.1 913.6 1065.2C903.1 1056.9 892.9 1048.5 882.7 1039.9C873.9 1032.5 861.2 1021.6 852.4 1013.9H853.5C835.3 1029.9 814.4 1048.2 796 1064Z" fill="#A7CBD1"/>
<path d="M693.4 1070C693 1055.9 692.9 1035.6 692.7 1021.3C698 1016.6 708.4 1007.3 713.8 1002.6L734.7 984.2L735.4 983.6L736.1 984.2C754.3 1002.4 776.8 1025.1 794.9 1043.6C801.3 1050.3 807.8 1056.9 814.2 1063.7C807.5 1057.3 800.8 1050.8 794.1 1044.4C775.5 1026.3 752.9 1003.9 734.7 985.7H736L715 1004C709.8 1008.6 699.2 1017.7 693.9 1022.2L694.1 1021.7C694 1035.9 693.6 1056 693.4 1070Z" fill="#A7CBD1"/>
<path d="M913.5 1070C858.2 1070.3 747.8 1070.8 692.5 1070.9V1070L692.4 930.5V929.5C745.1 929.5 850 929.7 902.6 929.8H903.3V930.5C903.1 968.6 902.9 1045.4 902.6 1083.6L902.2 1007.1L901.9 930.6L902.6 931.3C850.4 931.5 745.5 931.6 693.4 931.6L694.4 930.6L694.2 1070L693.3 1069.1C748.2 1069.2 858.7 1069.7 913.5 1070Z" fill="#A7CBD1"/>
<path d="M1268 508.6C1215.4 508.9 1110.5 509.3 1057.9 509.5V508.6L1057.8 369.1V368.1H1058.8L1163.4 368.2C1164.2 368.3 1267.9 368.4 1268.7 368.4C1268.5 403.5 1268.2 473.5 1268 508.6ZM1268 508.6L1267.3 369.1L1268 369.8L1163.4 370L1058.8 370.1L1059.8 369.1L1059.7 508.6L1058.8 507.7C1110.9 507.8 1215.9 508.3 1268 508.6Z" fill="#A7CBD1"/>
<path d="M1241.9 406.1C1241.9 421.8 1223 429.9 1211.5 419C1204.2 412.3 1204.2 399.8 1211.5 393.1C1223 382.3 1241.9 390.4 1241.9 406.1ZM1241.9 406.1C1241.8 390.8 1223.3 383.4 1212.7 394.4C1206.5 400.7 1206.4 411.6 1212.7 417.8C1223.3 428.8 1241.8 421.4 1241.9 406.1Z" fill="#A7CBD1"/>
<path d="M1161.4 502.6C1179.2 486.1 1199.7 467.4 1217.6 451.1L1218.2 450.6L1218.8 451.1C1227.8 458.7 1240.4 469.4 1249.2 477.1C1259.3 485.8 1269.2 494.7 1279 503.8C1268.5 495.5 1258.3 487.1 1248.1 478.5C1239.3 471.1 1226.6 460.2 1217.8 452.5H1218.9C1200.7 468.5 1179.8 486.8 1161.4 502.6Z" fill="#A7CBD1"/>
<path d="M1058.8 508.6C1058.4 494.5 1058.3 474.2 1058.1 459.9C1063.4 455.2 1073.8 445.9 1079.2 441.2L1100.1 422.8L1100.8 422.2L1101.5 422.8C1126.1 447.3 1156.4 478 1180.9 502.9C1189.6 511.9 1198.4 520.8 1207.1 529.8C1198.1 521.1 1189.1 512.3 1180.2 503.6C1155.2 479.1 1124.7 448.8 1100.1 424.2H1101.4L1080.4 442.5C1075.2 447.1 1064.6 456.2 1059.3 460.7L1059.5 460.2C1059.4 474.4 1059 494.6 1058.8 508.6Z" fill="#A7CBD1"/>
<path d="M1278.9 508.6C1223.6 508.9 1113.2 509.4 1057.9 509.5V508.6L1057.8 369.1V368.1C1110.5 368.2 1215.4 368.3 1268 368.4H1268.7V369.1C1268.5 407.2 1268.3 484 1268 522.2L1267.6 445.7L1267.3 369.2L1268 369.9C1215.8 370.1 1110.9 370.2 1058.8 370.2L1059.8 369.2L1059.7 508.7L1058.8 507.8C1113.6 507.8 1224.1 508.3 1278.9 508.6Z" fill="#A7CBD1"/>
<path d="M1268 1070C1215.4 1070.3 1110.5 1070.7 1057.9 1070.9V1070L1057.8 930.5V929.5H1058.8L1163.4 929.6C1164.2 929.7 1267.9 929.8 1268.7 929.8C1268.5 965 1268.2 1034.9 1268 1070ZM1268 1070L1267.3 930.5L1268 931.2L1163.4 931.4L1058.8 931.5L1059.8 930.5L1059.6 1070L1058.7 1069.1C1110.9 1069.3 1215.9 1069.7 1268 1070Z" fill="#A7CBD1"/>
<path d="M1241.9 967.5C1241.9 983.2 1223 991.3 1211.5 980.4C1204.2 973.7 1204.2 961.2 1211.5 954.5C1223 943.7 1241.9 951.8 1241.9 967.5ZM1241.9 967.5C1241.8 952.2 1223.3 944.8 1212.7 955.8C1206.5 962.1 1206.4 973 1212.7 979.2C1223.3 990.2 1241.8 982.8 1241.9 967.5Z" fill="#A7CBD1"/>
<path d="M1161 1064.4C1176.6 1049.8 1201.6 1027.1 1217.6 1012.6L1218.2 1012.1L1218.8 1012.6C1226.5 1019 1234.1 1025.5 1241.6 1032.1C1249.1 1038.7 1256.5 1045.4 1263.7 1052.3C1255.8 1046.2 1248 1039.9 1240.4 1033.5C1232.7 1027.1 1225.2 1020.6 1217.7 1014H1218.8C1202.6 1028.3 1177.3 1050.4 1161 1064.4Z" fill="#A7CBD1"/>
<path d="M1058.8 1070C1058.4 1055.9 1058.3 1035.6 1058.1 1021.3C1063.4 1016.6 1073.8 1007.3 1079.2 1002.6L1100.1 984.2L1100.8 983.6L1101.5 984.2C1126.1 1008.7 1156.4 1039.4 1180.9 1064.3C1189.6 1073.3 1198.4 1082.2 1207.1 1091.2C1198.1 1082.5 1189.1 1073.7 1180.2 1065C1155.2 1040.5 1124.7 1010.2 1100.1 985.6H1101.4L1080.4 1003.9C1075.2 1008.5 1064.6 1017.6 1059.3 1022.1L1059.5 1021.6C1059.4 1035.9 1059 1056 1058.8 1070Z" fill="#A7CBD1"/>
<path d="M1241.9 686.8C1241.9 702.5 1223 710.6 1211.5 699.7C1204.2 693 1204.2 680.5 1211.5 673.8C1223 663 1241.9 671.1 1241.9 686.8ZM1241.9 686.8C1241.8 671.5 1223.3 664.1 1212.7 675.1C1206.5 681.4 1206.4 692.3 1212.7 698.5C1223.3 709.5 1241.8 702.1 1241.9 686.8Z" fill="#A7CBD1"/>
<path d="M1165.6 779.6C1177.1 768.9 1193 754.3 1204.6 743.7C1209.1 739.6 1213.7 735.4 1218.2 731.3L1218.8 731.8L1234.1 744.7C1249.2 757.7 1264.3 770.9 1279 784.5C1263.3 772.1 1248 759.2 1232.8 746.2L1217.7 733.1H1218.8C1214.4 737 1210 740.9 1205.5 744.8C1193.7 755.2 1177.5 769.4 1165.6 779.6Z" fill="#A7CBD1"/>
<path d="M1058.8 789.3C1058.4 775.2 1058.3 754.9 1058.1 740.6C1063.4 735.9 1073.8 726.6 1079.2 721.9L1100.1 703.5L1100.8 702.9L1101.5 703.5C1126.1 728 1156.4 758.7 1180.9 783.6C1189.6 792.6 1198.4 801.5 1207.1 810.5C1198.1 801.8 1189.1 793 1180.2 784.3C1155.2 759.8 1124.7 729.5 1100.1 704.9H1101.4L1080.4 723.2C1075.2 727.8 1064.6 736.9 1059.3 741.4L1059.5 740.9C1059.4 755.2 1059 775.3 1058.8 789.3Z" fill="#A7CBD1"/>
<path d="M1038.1 649.8C1113.8 648.7 1192.2 648.6 1268 649.1H1268.7V649.8C1268.6 687.9 1268.3 764.7 1268 802.9C1267.7 764.7 1267.5 688 1267.3 649.8L1268 650.5C1192.2 651 1113.8 650.9 1038.1 649.8Z" fill="#A7CBD1"/>
<path d="M1278.9 789.3C1223.5 789.6 1113.2 790.1 1057.9 790.2V789.3C1057.8 751.4 1057.7 709.7 1058.2 672C1058.2 660.6 1058.6 644.5 1058.8 632.9C1059.1 644.6 1059.3 660.5 1059.4 672C1059.8 709.6 1059.8 751.4 1059.6 789.3L1058.7 788.4C1113.6 788.5 1224.1 789 1278.9 789.3Z" fill="#A7CBD1"/>
<path d="M265.4 1285.3C649 1283 1079.3 1283 1462.9 1285.3C1079.3 1287.6 648.9 1287.5 265.4 1285.3Z" fill="#A7CBD1"/>
<path d="M1404.1 1300.8C1401.8 915.3 1401.8 482.8 1404.1 97.3C1406.3 482.8 1406.3 915.2 1404.1 1300.8Z" fill="#A7CBD1"/>
<path d="M114 251.5C534.3 249.2 1005.8 249.2 1426.1 251.5C1005.8 253.8 534.3 253.8 114 251.5Z" fill="#A7CBD1"/>
<path d="M114 156.5C543.5 154.2 1025.4 154.2 1454.9 156.5C1025.4 158.8 543.5 158.8 114 156.5Z" fill="#A7CBD1"/>
<path d="M145.1 1189.4C562.4 1187.1 1030.4 1187.1 1447.7 1189.4C1030.4 1191.7 562.3 1191.7 145.1 1189.4Z" fill="#A7CBD1"/>
<path d="M175.3 1276.9C173.1 896.1 173 468.8 175.3 88C177.6 468.8 177.6 896.1 175.3 1276.9Z" fill="#A7CBD1"/>
<path d="M200.6 507.4V472.1L130 389.8V366.3H318.2V389.8L247.6 472.1V542.7" fill="#E6EEEF"/>
<path d="M200.6 533.4C200.6 518.9 199.7 485.2 200.1 472.5C177.6 447.1 150.8 416.7 128.5 391L128 390.5V389.8L127.8 366.3V364.2H130L177 364C220.7 364 274.6 363.8 318.1 364.1H320.4V366.4L320.3 389.9V390.7L319.8 391.3L302 411.8C284.7 431.6 265.8 453.4 248.5 473L248.8 472.2C248.4 500.6 248.1 544.8 247.6 572.9C247.4 560.3 247.1 535.1 246.9 522.5L246.3 472.1V471.7C258 457.7 269.7 443.7 281.4 429.8C290.1 419.5 307.7 398.7 316.4 388.4L315.9 389.8L315.8 366.3L318.1 368.6C274.7 368.8 220.6 368.8 177 368.7L130 368.5L132.1 366.4L132 389.8L131.5 388.5L149 409.2C164.5 427.7 185.7 453 201.1 471.6C201.4 487 200.6 518 200.6 533.4Z" fill="#A7CBD1"/>
<path d="M265.4 554.4C251.2 545.5 237.1 535.5 223.5 525.7C210 515.8 196.1 505.3 183.4 494.5C197.6 503.3 211.7 513.4 225.3 523.2C238.7 533.1 252.6 543.6 265.4 554.4Z" fill="#A1CBE2"/>
<path d="M656.3 822.1C656.3 822.1 613 850 611.9 853" stroke="#A87390" stroke-width="3.4249" stroke-miterlimit="10"/>
<path d="M606.6 853.6H544.3C537.2 853.6 530.4 856.4 525.4 861.4L452.1 934.7C441.7 945.1 441.7 962 452.1 972.4L507.7 1028C518.1 1038.4 535 1038.4 545.4 1028L618.7 954.7C623.7 949.7 626.5 942.9 626.5 935.8V873.6C626.6 862.6 617.6 853.6 606.6 853.6ZM593.3 900.3C593.3 907.7 587.3 913.6 580 913.6C572.7 913.6 566.7 907.6 566.7 900.3C566.7 893 572.7 887 580 887C587.3 887 593.3 892.9 593.3 900.3Z" fill="#E6EEEF" stroke="#A7CBD1" stroke-width="3" stroke-miterlimit="10"/>
<path d="M528.7 913.6C522.4 921.6 515.1 929.3 507.9 936.5C500.6 943.7 493 951 485 957.3C491.3 949.3 498.6 941.6 505.8 934.4C513 927.2 520.7 919.9 528.7 913.6Z" fill="#A7CBD1"/>
<path d="M545.6 930.5C539.3 938.5 532 946.2 524.8 953.4C517.5 960.6 509.9 967.9 501.9 974.2C508.2 966.2 515.5 958.5 522.7 951.3C530 944.2 537.6 936.8 545.6 930.5Z" fill="#A7CBD1"/>
<path d="M562.4 947.3C556.1 955.3 548.8 963 541.6 970.2C534.3 977.4 526.7 984.7 518.7 991C525 983 532.3 975.3 539.5 968.1C546.7 960.9 554.4 953.6 562.4 947.3Z" fill="#A7CBD1"/>
<g opacity="0.85">
<path d="M949 603.6H643V833.1H949V603.6Z" fill="#EFEDE6"/>
</g>
<path d="M949 603.6V833.1H643V603.6H949ZM952 600.6H949H643H640V603.6V833.1V836.1H643H949H952V833.1V603.6V600.6Z" fill="#353531"/>
<path d="M899.6 649.3H692.4V787.4H899.6V649.3Z" fill="#F7F7F5"/>
<path d="M856.5 703.3C866.055 703.3 873.8 695.555 873.8 686C873.8 676.445 866.055 668.7 856.5 668.7C846.945 668.7 839.2 676.445 839.2 686C839.2 695.555 846.945 703.3 856.5 703.3Z" fill="#E8D98B" stroke="#C6814E" stroke-width="2" stroke-miterlimit="10"/>
<path d="M785.4 787.5L850.3 731.2L899.6 773.5V787.5H785.4Z" fill="#98D0EF" stroke="#5892BE" stroke-width="2" stroke-miterlimit="10"/>
<path d="M692.4 739.6L734 703.2L814.9 787.5H692.4V739.6Z" fill="#98D0EF" stroke="#5892BE" stroke-width="2" stroke-miterlimit="10"/>
<path d="M899.6 649.3V787.4H692.4V649.3H899.6ZM901.6 647.3H899.6H692.4H690.4V649.3V787.4V789.4H692.4H899.6H901.6V787.4V649.3V647.3Z" fill="#3D3D3A"/>
<path d="M947.9 890.8L927.6 919L913.3 820.9L993.5 879.2L959.1 884.1L1002.4 955.8L991.3 962.6L947.9 890.8Z" fill="#68644F"/>
<path d="M947.5 900.7L924.1 933.1L906 808.9L1007.6 882.7L968 888.3L1009.9 957.7L989.5 970.1L947.5 900.7Z" fill="#1D1D1B"/>
<path d="M909.3 814.3L1001.2 881.1L971.3 885.4L963.9 886.5L967.8 892.9L1006.5 957L990.2 966.8L951.5 902.7L947.6 896.3L943.2 902.3L925.5 926.8L909.3 814.3ZM902.8 803.5L922.6 939.6L947.4 905.2L988.7 973.5L1013.4 958.6L972 890.2L1014 884.2L902.8 803.5Z" fill="white"/>
<path d="M660.6 824.4C665.129 824.4 668.8 820.729 668.8 816.2C668.8 811.671 665.129 808 660.6 808C656.071 808 652.4 811.671 652.4 816.2C652.4 820.729 656.071 824.4 660.6 824.4Z" fill="#F7F7F5" stroke="#282722" stroke-width="1.7124" stroke-miterlimit="10"/>
<path d="M588 894.2C587.4 907.5 668.7 826.4 657.4 821.1C657.4 821.1 655.8 820.4 654.7 821.5" stroke="#A87390" stroke-width="3.4249" stroke-miterlimit="10"/>
<path d="M1269.8 229.4C1251.7 230.1 1231.1 230.8 1213 231.1H1211.3V229.4C1211.2 219.1 1211 198.4 1211 188.1V186.1H1213C1231.3 186.1 1251.4 186.3 1269.8 186.7H1271.2V188.1C1271 200.2 1270.2 217.2 1269.8 229.4ZM1269.8 229.4C1269.3 217.5 1268.7 199.8 1268.4 188.1L1269.8 189.5C1262.7 189.7 1248.5 189.9 1241.4 189.9C1231.9 190 1222.5 190 1213 190L1215 188C1215 198.3 1214.8 219 1214.7 229.3L1213 227.6C1229 228 1253.5 228.8 1269.8 229.4Z" fill="#A7CBD1"/>
<path d="M1160 206.7C1151.9 208.3 1143.7 208.6 1135.5 208.7C1127.3 208.7 1119.1 208.3 1111 206.7C1119.1 205.1 1127.3 204.7 1135.5 204.7C1143.7 204.7 1151.9 205.1 1160 206.7Z" fill="#A7CBD1"/>
<path d="M1360.7 188.1C1355 196 1348.4 203.2 1341.5 210.1C1334.6 217 1327.5 223.6 1319.5 229.3C1325.2 221.3 1331.8 214.2 1338.7 207.3C1345.6 200.4 1352.7 193.8 1360.7 188.1Z" fill="#A7CBD1"/>
<path d="M1320.4 188.1C1328.3 193.8 1335.5 200.4 1342.4 207.3C1349.3 214.2 1355.9 221.3 1361.6 229.3C1353.6 223.6 1346.5 217 1339.6 210.1C1332.7 203.2 1326.1 196 1320.4 188.1Z" fill="#A7CBD1"/>
<path d="M1239.5 1214.1C1232.5 1223.3 1224.6 1231.7 1216.5 1239.9C1208.3 1248 1199.9 1255.9 1190.7 1262.9C1197.7 1253.7 1205.5 1245.3 1213.7 1237.1C1221.9 1228.9 1230.3 1221 1239.5 1214.1Z" fill="#A7CBD1"/>
<path d="M1191.8 1214.1C1201 1221.1 1209.4 1228.9 1217.6 1237.1C1225.7 1245.3 1233.6 1253.7 1240.6 1262.9C1231.4 1255.9 1223 1248.1 1214.8 1239.9C1206.6 1231.7 1198.8 1223.3 1191.8 1214.1Z" fill="#A7CBD1"/>
<path d="M1353.9 1211.1C1343.8 1227.3 1332 1242.4 1319.8 1257C1310.8 1248.2 1301.9 1239.4 1293.6 1230C1303 1237.3 1312.1 1245.1 1320.9 1253L1318.2 1253.2C1319.6 1251.4 1321 1249.5 1322.4 1247.7C1332.3 1235.1 1342.5 1222.5 1353.9 1211.1Z" fill="#A7CBD1"/>
<g clip-path="url(#clip1_101_952)">
<path d="M1628.1 516.9H399.4V1454.8H1628.1V516.9Z" fill="#FCFCFA"/>
<path d="M1508.3 840.1C1514.3 840.1 1519.2 845 1519.2 851V981.8C1519.2 987.8 1514.3 992.7 1508.3 992.7C1502.3 992.7 1497.4 987.8 1497.4 981.8V851C1497.4 845 1502.3 840.1 1508.3 840.1ZM1344.9 894L1486.6 851V981.8L1442 968.2C1438.4 982.3 1425.6 992.6 1410.4 992.6C1392.4 992.6 1377.7 978 1377.7 959.9C1377.7 956.2 1378.3 952.5 1379.5 949.2L1345 938.7C1344.7 944.5 1339.9 949 1334.1 949C1328.1 949 1323.2 944.1 1323.2 938.1V894.5C1323.2 888.5 1328.1 883.6 1334.1 883.6C1339.8 883.7 1344.6 888.3 1344.9 894ZM1426.3 963.5L1395.1 954C1394.4 955.8 1394 957.9 1394 960C1394 969 1401.3 976.3 1410.3 976.3C1418.1 976.4 1424.7 970.8 1426.3 963.5Z" fill="white"/>
<path d="M1344.9 894C1380.8 882.8 1451.6 860.7 1487.5 849.7C1487.8 886.8 1487.6 944.3 1487.8 981.8V983.5L1486.2 983L1441.6 969.4L1443.1 968.6C1438.5 986.9 1418.6 998.1 1400.5 992.4C1382.5 987.3 1372 966.5 1378.5 949L1379.1 950.3L1344.7 939.6L1345.7 938.9C1344.1 954.4 1321.9 953 1322.5 937.3V930.4C1322.6 920.4 1322.7 905.7 1322.8 895.7C1322.5 891 1325.3 886.2 1329.8 884.4C1336.6 881.5 1344.7 886.7 1344.9 894ZM1344.9 894C1344.5 886.7 1336.6 881.8 1329.9 884.7C1325.6 886.5 1323 891 1323.4 895.6C1323.5 905.5 1323.6 920.3 1323.7 930.3V937.2C1323.2 951 1342.7 952.4 1344.1 938.7L1344.2 937.7L1345.2 938L1379.7 948.3L1380.7 948.6L1380.4 949.6C1374.5 966.1 1384.3 985.4 1401.2 990.2C1413.4 994 1427.6 989.5 1435.3 979.2C1438.1 975.5 1440.1 971.2 1441.2 966.7L1442.4 967.1L1487.1 980.6L1485.5 981.8C1485.4 944.7 1485.7 887.7 1485.8 851L1487.1 851.9C1451.4 862.6 1380.3 883.6 1344.9 894Z" fill="#A7CBD1"/>
<path d="M1426.3 963.5C1416 961.2 1404.9 958.1 1394.8 955.2L1396.2 954.5C1393 962.5 1397.7 972.2 1405.9 974.7C1414.4 977.5 1423.9 972.1 1426.3 963.5ZM1426.3 963.5C1425 973.2 1414.6 979.5 1405.3 976.7C1395.6 974.1 1390.2 962.8 1394 953.6L1394.4 952.6L1395.4 952.9C1405.5 956.1 1416.4 959.7 1426.3 963.5Z" fill="#A7CBD1"/>
<path d="M1628.1 421.9H399.4V516.9H1628.1V421.9Z" fill="#EFF3F4"/>
<path d="M783.1 588.4H453.8V1383.4H783.1V588.4Z" fill="white"/>
<path d="M1542 588.4H867.5V706.5H1542V588.4Z" fill="white"/>
<path d="M817.8 1383.3C727 1383.7 544.6 1384.6 453.8 1384.6H452.5V1383.3L452.3 1175.4C452.4 1024.3 452.5 805.9 453.3 655.6L453.8 551.6L454.3 655.6C454.7 723.4 454.9 897.1 455.1 967.5C455.3 1071.1 455.2 1279.8 455.1 1383.4L453.8 1382.1C544.4 1382 727.1 1382.9 817.8 1383.3Z" fill="#A7CBD1"/>
<path d="M783.1 545C785.1 826.2 785.1 1141.7 783.1 1422.9C781.1 1141.6 781.1 826.2 783.1 545Z" fill="#A7CBD1"/>
<path d="M431.2 588.4C557.3 586.4 686.4 586.4 812.5 588.4C686.4 590.4 557.3 590.4 431.2 588.4Z" fill="#A7CBD1"/>
<path d="M556.9 690.3C575.8 690 613.6 689.4 632.5 689.3C657.7 688.8 683 688.7 708.1 690.4V690.7C704.9 690.9 701.8 691.1 698.6 691.2L689.1 691.6C670.2 692.3 651.3 692.1 632.4 691.8C613.6 691.6 575.6 691.1 556.8 690.8C556.9 690.6 556.9 690.3 556.9 690.3Z" fill="#A7CBD1"/>
<path d="M513 751.2C571.9 750.8 637.3 748.7 696 750.7C700.1 750.9 704.1 751 708.2 751.2V751.5C704.1 751.7 700.1 751.9 696 752C667.6 753 639 753 610.6 752.5C586.5 752.1 536.5 752.4 513 751.2Z" fill="#A7CBD1"/>
<path d="M513 812.1C571.9 811.7 637.3 809.6 696 811.6C700.1 811.8 704.1 811.9 708.2 812.1V812.4C704.1 812.6 700.1 812.8 696 812.9C667.6 813.9 639 813.9 610.6 813.4C586.5 813 536.5 813.3 513 812.1Z" fill="#A7CBD1"/>
<path d="M513 867.6C571.9 867.2 637.3 865.1 696 867.1C700.1 867.3 704.1 867.4 708.2 867.6V867.9C704.1 868.1 700.1 868.3 696 868.4C667.6 869.4 639 869.4 610.6 868.9C586.5 868.4 536.5 868.8 513 867.6Z" fill="#A7CBD1"/>
<path d="M513 923C571.9 922.6 637.3 920.5 696 922.5C700.1 922.7 704.1 922.8 708.2 923V923.3C704.1 923.5 700.1 923.7 696 923.8C667.6 924.8 639 924.8 610.6 924.3C586.5 923.9 536.5 924.2 513 923Z" fill="#A7CBD1"/>
<path d="M319 421.9C764.6 419.6 1264.5 419.6 1710.1 421.9C1264.5 424.2 764.6 424.2 319 421.9Z" fill="#A7CBD1"/>
<path d="M338.1 516.9C767.6 514.6 1249.5 514.6 1679 516.9C1249.4 519.2 767.6 519.2 338.1 516.9Z" fill="#A7CBD1"/>
<path d="M399.4 1542.3C397.1 1163.4 397.1 738.4 399.4 359.5C401.7 738.4 401.7 1163.5 399.4 1542.3Z" fill="#A7CBD1"/>
<path d="M424.7 772.8V737.5L354.1 655.2V631.7H542.3V655.2L471.7 737.5V808.1" fill="#E6EEEF"/>
<path d="M424.7 772.8V737.5L354.1 655.2V631.7H542.3V655.2L471.7 737.5V808.1" stroke="#E6EEEF" stroke-miterlimit="10"/>
<path d="M424.7 798.9C424.7 784.4 423.8 750.7 424.2 738C401.7 712.6 374.9 682.2 352.6 656.5L352.1 656V655.3L351.9 631.8V629.7H354.1L401.1 629.5C444.8 629.5 498.7 629.3 542.2 629.6H544.5V631.9L544.4 655.4V656.2L543.9 656.8L526.1 677.3C508.8 697.1 489.9 718.9 472.6 738.5L472.9 737.7C472.5 766.1 472.2 810.3 471.7 838.4C471.5 825.8 471.2 800.6 471 788L470.4 737.6V737.2C482.1 723.2 493.8 709.2 505.5 695.3C514.2 685 531.8 664.2 540.5 653.9L540 655.3L539.9 631.8L542.2 634.1C498.8 634.3 444.7 634.3 401.1 634.2L354.1 634L356.2 631.9L356 655.4L355.5 654.1L373 674.8C388.5 693.3 409.7 718.6 425.1 737.2C425.5 752.4 424.7 783.4 424.7 798.9Z" fill="#A7CBD1"/>
<path d="M489.4 819.8C475.2 810.9 461.1 800.9 447.5 791.1C434 781.2 420.1 770.7 407.4 759.9C421.6 768.7 435.7 778.8 449.3 788.6C462.8 798.6 476.7 809 489.4 819.8Z" fill="#A7CBD1"/>
<path d="M1570 706.5C1331 708.5 1065.3 708.5 826.2 706.5C1065.3 704.5 1331 704.5 1570 706.5Z" fill="#A7CBD1"/>
<path d="M867.5 748.1L867 588.4V587.9H867.5C918.5 587.5 999.3 587.3 1051 587.1C1226 586.8 1427.2 586.8 1601.4 588.4C1427.4 589.9 1225.8 590 1051 589.7C999.3 589.5 918.7 589.3 867.5 588.9C868.3 586.1 867.5 748.6 867.5 748.1Z" fill="#A7CBD1"/>
<path d="M917.4 613.3C918.6 624.5 918.8 636.2 918.9 647.4C918.8 658.7 918.6 670.4 917.4 681.5C916.2 670.3 916 658.6 915.9 647.4C916 636.2 916.2 624.5 917.4 613.3Z" fill="#A7CBD1"/>
<path d="M953.597 664.171C952.422 664.171 951.414 663.75 950.572 662.908C949.731 662.067 949.31 661.059 949.31 659.884C949.31 658.709 949.731 657.701 950.572 656.859C951.414 656.018 952.422 655.597 953.597 655.597C954.771 655.597 955.78 656.018 956.621 656.859C957.463 657.701 957.883 658.709 957.883 659.884C957.883 660.662 957.685 661.376 957.288 662.027C956.907 662.678 956.391 663.202 955.74 663.599C955.105 663.98 954.39 664.171 953.597 664.171ZM972.065 664.171C970.891 664.171 969.882 663.75 969.041 662.908C968.199 662.067 967.779 661.059 967.779 659.884C967.779 658.709 968.199 657.701 969.041 656.859C969.882 656.018 970.891 655.597 972.065 655.597C973.24 655.597 974.249 656.018 975.09 656.859C975.932 657.701 976.352 658.709 976.352 659.884C976.352 660.662 976.154 661.376 975.757 662.027C975.376 662.678 974.86 663.202 974.209 663.599C973.574 663.98 972.859 664.171 972.065 664.171ZM990.534 664.171C989.359 664.171 988.351 663.75 987.51 662.908C986.668 662.067 986.248 661.059 986.248 659.884C986.248 658.709 986.668 657.701 987.51 656.859C988.351 656.018 989.359 655.597 990.534 655.597C991.709 655.597 992.717 656.018 993.559 656.859C994.4 657.701 994.821 658.709 994.821 659.884C994.821 660.662 994.623 661.376 994.226 662.027C993.845 662.678 993.329 663.202 992.678 663.599C992.043 663.98 991.328 664.171 990.534 664.171Z" fill="#99C3E0"/>
<path d="M950.572 662.908L950.926 662.555L950.926 662.555L950.572 662.908ZM956.621 656.859L956.975 656.506L956.975 656.506L956.621 656.859ZM957.288 662.027L956.861 661.767L956.856 661.775L957.288 662.027ZM955.74 663.599L955.997 664.028L956 664.026L955.74 663.599ZM953.597 663.671C952.556 663.671 951.675 663.304 950.926 662.555L950.218 663.262C951.152 664.196 952.287 664.671 953.597 664.671V663.671ZM950.926 662.555C950.177 661.806 949.81 660.924 949.81 659.884H948.81C948.81 661.193 949.285 662.328 950.218 663.262L950.926 662.555ZM949.81 659.884C949.81 658.843 950.177 657.962 950.926 657.213L950.218 656.506C949.285 657.44 948.81 658.574 948.81 659.884H949.81ZM950.926 657.213C951.675 656.464 952.556 656.097 953.597 656.097V655.097C952.287 655.097 951.152 655.572 950.218 656.506L950.926 657.213ZM953.597 656.097C954.637 656.097 955.519 656.464 956.268 657.213L956.975 656.506C956.041 655.572 954.906 655.097 953.597 655.097V656.097ZM956.268 657.213C957.017 657.962 957.383 658.843 957.383 659.884H958.383C958.383 658.574 957.909 657.44 956.975 656.506L956.268 657.213ZM957.383 659.884C957.383 660.572 957.209 661.196 956.861 661.767L957.715 662.287C958.161 661.556 958.383 660.752 958.383 659.884H957.383ZM956.856 661.775C956.518 662.353 956.061 662.818 955.48 663.172L956 664.026C956.721 663.586 957.296 663.003 957.719 662.28L956.856 661.775ZM955.483 663.17C954.931 663.501 954.307 663.671 953.597 663.671V664.671C954.474 664.671 955.279 664.459 955.997 664.028L955.483 663.17ZM969.041 662.908L969.394 662.555L969.394 662.555L969.041 662.908ZM975.09 656.859L975.444 656.506L975.444 656.506L975.09 656.859ZM975.757 662.027L975.33 661.767L975.325 661.775L975.757 662.027ZM974.209 663.599L974.466 664.028L974.469 664.026L974.209 663.599ZM972.065 663.671C971.025 663.671 970.144 663.304 969.394 662.555L968.687 663.262C969.621 664.196 970.756 664.671 972.065 664.671V663.671ZM969.394 662.555C968.645 661.806 968.279 660.924 968.279 659.884H967.279C967.279 661.193 967.753 662.328 968.687 663.262L969.394 662.555ZM968.279 659.884C968.279 658.843 968.645 657.962 969.394 657.213L968.687 656.506C967.753 657.44 967.279 658.574 967.279 659.884H968.279ZM969.394 657.213C970.144 656.464 971.025 656.097 972.065 656.097V655.097C970.756 655.097 969.621 655.572 968.687 656.506L969.394 657.213ZM972.065 656.097C973.106 656.097 973.987 656.464 974.736 657.213L975.444 656.506C974.51 655.572 973.375 655.097 972.065 655.097V656.097ZM974.736 657.213C975.486 657.962 975.852 658.843 975.852 659.884H976.852C976.852 658.574 976.377 657.44 975.444 656.506L974.736 657.213ZM975.852 659.884C975.852 660.572 975.678 661.196 975.33 661.767L976.184 662.287C976.63 661.556 976.852 660.752 976.852 659.884H975.852ZM975.325 661.775C974.987 662.353 974.53 662.818 973.949 663.172L974.469 664.026C975.19 663.586 975.765 663.003 976.188 662.28L975.325 661.775ZM973.952 663.17C973.4 663.501 972.775 663.671 972.065 663.671V664.671C972.943 664.671 973.748 664.459 974.466 664.028L973.952 663.17ZM987.51 662.908L987.863 662.555L987.863 662.555L987.51 662.908ZM993.559 656.859L993.912 656.506L993.912 656.506L993.559 656.859ZM994.226 662.027L993.799 661.767L993.794 661.775L994.226 662.027ZM992.678 663.599L992.935 664.028L992.938 664.026L992.678 663.599ZM990.534 663.671C989.494 663.671 988.612 663.304 987.863 662.555L987.156 663.262C988.09 664.196 989.225 664.671 990.534 664.671V663.671ZM987.863 662.555C987.114 661.806 986.748 660.924 986.748 659.884H985.748C985.748 661.193 986.222 662.328 987.156 663.262L987.863 662.555ZM986.748 659.884C986.748 658.843 987.114 657.962 987.863 657.213L987.156 656.506C986.222 657.44 985.748 658.574 985.748 659.884H986.748ZM987.863 657.213C988.612 656.464 989.494 656.097 990.534 656.097V655.097C989.225 655.097 988.09 655.572 987.156 656.506L987.863 657.213ZM990.534 656.097C991.575 656.097 992.456 656.464 993.205 657.213L993.912 656.506C992.979 655.572 991.844 655.097 990.534 655.097V656.097ZM993.205 657.213C993.954 657.962 994.321 658.843 994.321 659.884H995.321C995.321 658.574 994.846 657.44 993.912 656.506L993.205 657.213ZM994.321 659.884C994.321 660.572 994.147 661.196 993.799 661.767L994.653 662.287C995.098 661.556 995.321 660.752 995.321 659.884H994.321ZM993.794 661.775C993.455 662.353 992.999 662.818 992.417 663.172L992.938 664.026C993.659 663.586 994.234 663.003 994.657 662.28L993.794 661.775ZM992.42 663.17C991.869 663.501 991.244 663.671 990.534 663.671V664.671C991.412 664.671 992.217 664.459 992.935 664.028L992.42 663.17Z" fill="#A7CBD1"/>
<path d="M1559.1 731.2C1517.7 772.6 1450.5 772.6 1409.1 731.2C1367.7 689.8 1367.7 622.6 1409.1 581.2C1450.5 539.8 1517.7 539.8 1559.1 581.2C1600.6 622.5 1600.6 689.7 1559.1 731.2ZM1570.5 569.7C1522.8 522 1445.4 522 1397.7 569.7C1350 617.4 1350 694.8 1397.7 742.5C1445.4 790.2 1522.8 790.2 1570.5 742.5C1618.2 694.8 1618.2 617.4 1570.5 569.7Z" fill="#E6EEEF" stroke="#A7CBD1" stroke-width="3" stroke-miterlimit="10"/>
<path d="M964.2 1001.6C964.2 1001.6 920.9 1029.5 919.8 1032.5" stroke="#7F715B" stroke-width="3.4249" stroke-miterlimit="10"/>
<path d="M910.7 1024.9L850.2 1010.2C843.3 1008.5 836.1 1009.6 830 1013.3L741.5 1067.2C728.9 1074.9 724.9 1091.2 732.6 1103.8L773.5 1171C781.2 1183.6 797.5 1187.6 810.1 1179.9L898.6 1126C904.6 1122.3 909 1116.4 910.6 1109.5L925.3 1049C928 1038.4 921.4 1027.6 910.7 1024.9ZM886.7 1067.1C885 1074.3 877.8 1078.6 870.6 1076.9C863.4 1075.2 859.1 1068 860.8 1060.8C862.5 1053.6 869.7 1049.3 876.9 1051C884.1 1052.8 888.4 1060 886.7 1067.1Z" fill="#E6EEEF" stroke="#A7CBD1" stroke-width="3" stroke-miterlimit="10"/>
<path d="M820.8 1064.8C812.8 1071.1 803.8 1076.8 795.2 1082.2C786.4 1087.4 777.3 1092.8 768 1097C776 1090.7 784.9 1085 793.6 1079.6C802.4 1074.4 811.5 1069.1 820.8 1064.8Z" fill="#A7CBD1"/>
<path d="M833.3 1085.3C825.3 1091.6 816.3 1097.3 807.7 1102.7C798.9 1107.9 789.8 1113.3 780.5 1117.5C788.5 1111.2 797.4 1105.5 806.1 1100.1C814.9 1094.8 824 1089.5 833.3 1085.3Z" fill="#A7CBD1"/>
<path d="M845.6 1105.5C837.6 1111.8 828.6 1117.5 820 1122.9C811.2 1128.1 802.1 1133.5 792.8 1137.7C800.8 1131.4 809.7 1125.7 818.4 1120.3C827.2 1115.1 836.3 1109.8 845.6 1105.5Z" fill="#A7CBD1"/>
<path d="M1024.7 1109.2L876.5 1257.4C870.2 1263.7 874.7 1274.5 883.6 1274.4L1030.8 1273.5C1036.3 1273.5 1040.7 1269 1040.7 1263.6L1041.7 1116.3C1041.8 1107.4 1031 1102.9 1024.7 1109.2ZM1001.6 1233.7C1001.6 1234.1 1001.3 1234.4 1000.9 1234.4H954.7C954 1234.4 953.7 1233.6 954.2 1233.1L1000.4 1187C1000.9 1186.5 1001.7 1186.9 1001.7 1187.5V1233.7H1001.6Z" fill="white"/>
<path d="M1024.7 1109.2C980.9 1153.2 924.7 1210 881.4 1254L878.3 1257.2C877.8 1257.7 877.2 1258.3 876.8 1258.8C875.5 1260.3 874.7 1262.2 874.7 1264.2C874.5 1268.5 877.8 1272.7 882.1 1273.3C883.8 1273.6 887.8 1273.3 889.7 1273.4C895.1 1273.3 927.8 1273.1 934 1273C947.1 1273 1010.9 1272.7 1022.6 1272.7C1025.5 1272.7 1028.5 1272.7 1031.4 1272.7C1032.7 1272.6 1034.1 1272.3 1035.3 1271.7C1038.3 1270.1 1040.2 1266.8 1040.1 1263.3V1261.1C1040.3 1243 1041.1 1182.7 1041.4 1163.7C1041.4 1157.6 1041.8 1124.9 1041.8 1119.4C1041.9 1116.5 1042 1113.4 1040.2 1110.9C1036.8 1105.7 1029 1104.8 1024.7 1109.2ZM1024.7 1109.2C1028.9 1104.7 1036.8 1105.6 1040.1 1110.7C1041.9 1113.2 1041.8 1116.3 1041.7 1119.3C1041.6 1124.6 1041.6 1157.4 1041.5 1163.6C1041.5 1183 1041.5 1242.6 1041.5 1261V1263.2C1041.7 1267.2 1039.4 1271.2 1035.9 1273.1C1031.8 1275.3 1026.8 1274.2 1022.4 1274.6L1004.7 1274.8C974.1 1275.1 915.2 1275.6 885.1 1275.6C878.2 1276.2 872.2 1271.2 872.4 1264.1C872.4 1260.9 874.4 1257.7 876.7 1255.7L879.9 1252.6C923.8 1209.3 980.9 1153 1024.7 1109.2Z" fill="#A7CBD1"/>
<path d="M1001.6 1233.7C1001.6 1234.1 1001.2 1234.5 1000.8 1234.4H999.5H997C984.7 1234.4 966.8 1234.9 954.4 1235.1C953.2 1234.9 952.7 1233.4 953.5 1232.5C953.6 1232.4 954.5 1231.5 954.6 1231.3C958.1 1227.6 965.2 1220.3 968.7 1216.7C977.9 1207.3 988.1 1197.4 997.7 1188.3L999.5 1186.6C999.7 1186.4 999.9 1186.1 1000.3 1186C1001.3 1185.6 1002.5 1186.5 1002.4 1187.6V1187.9C1002 1202 1001.6 1219.9 1001.6 1233.7ZM1001.6 1233.7C1001.7 1219.9 1001.1 1201.3 1000.9 1187.7C991.2 1197.9 980.6 1208.7 970.5 1218.6C966.4 1222.6 958.9 1229.9 954.8 1233.7C954.8 1233.7 954.8 1233.6 954.7 1233.6H954.9C967.1 1233.9 984.9 1234.3 997 1234.4H999.5H1000.8C1001.2 1234.5 1001.6 1234.1 1001.6 1233.7Z" fill="#A7CBD1"/>
<path d="M986.1 1146.4C990.5 1148.4 994.1 1152 996.1 1156.4C991.7 1154.4 988.1 1150.8 986.1 1146.4Z" fill="#A7CBD1"/>
<path d="M1010.3 1122.2C1014.7 1124.2 1018.3 1127.8 1020.3 1132.2C1015.9 1130.2 1012.3 1126.6 1010.3 1122.2Z" fill="#A7CBD1"/>
<path d="M961.9 1170.6C966.3 1172.6 969.9 1176.2 971.9 1180.6C967.5 1178.6 963.9 1175 961.9 1170.6Z" fill="#A7CBD1"/>
<path d="M937.7 1194.8C942.1 1196.8 945.7 1200.4 947.7 1204.8C943.3 1202.8 939.7 1199.2 937.7 1194.8Z" fill="#A7CBD1"/>
<path d="M913.5 1219C917.9 1221 921.5 1224.6 923.5 1229C919.1 1227 915.5 1223.4 913.5 1219Z" fill="#A7CBD1"/>
<path d="M889.3 1243.2C893.7 1245.2 897.3 1248.8 899.3 1253.2C894.9 1251.2 891.3 1247.6 889.3 1243.2Z" fill="#A7CBD1"/>
<path d="M1170.1 820.2C1173 817.5 1177.5 817.5 1180.5 820.2C1190.8 829.9 1200.5 840.3 1209.5 851.6C1213.6 846.2 1218.3 840.4 1223.3 835.6C1226.3 832.8 1230.8 832.8 1233.8 835.6C1246.7 847.9 1257.7 864.2 1265.4 879.7C1273 894.9 1278 910.5 1278 921.5C1278 969.2 1240.7 1009.5 1194.3 1009.5C1147.4 1009.5 1110.6 969.2 1110.6 921.5C1110.6 907.1 1117.3 889.6 1127.6 872.3C1137.9 854.7 1152.7 836.3 1170.1 820.2ZM1194.9 973.6C1204.4 973.6 1212.7 971 1220.6 965.8C1236.3 954.8 1240.6 932.8 1231.1 915.6C1229.4 912.2 1225.1 912 1222.7 914.9L1213.3 925.8C1210.8 928.6 1206.4 928.6 1204.1 925.6C1197.9 917.8 1186.9 903.7 1180.6 895.8C1178.2 892.8 1173.8 892.8 1171.4 895.8C1158.8 911.7 1152.4 921.7 1152.4 932.9C1152.4 958.4 1171.3 973.6 1194.9 973.6Z" fill="white"/>
<path d="M1170.1 820.2C1173.9 816.7 1178.9 818 1182 821.7C1191.8 831 1201.1 841 1209.6 851.6H1209.4C1212.7 847.3 1216.1 843 1219.8 839C1221.7 837.1 1223.4 834.7 1226.1 833.8C1228.7 832.8 1231.9 833.5 1233.9 835.4C1241.8 842.9 1248.7 851.4 1254.8 860.4C1266 877.5 1277.6 900 1278.9 920.6C1280.3 965.2 1245.4 1008 1199.9 1010.6C1147.7 1014.5 1105.6 966.2 1110.6 915.4C1115.7 880.4 1144.8 843.7 1170.1 820.2ZM1170.1 820.2C1144.9 844 1116.2 880.3 1111.4 915.4C1107.1 965 1148.9 1012.2 1199.7 1008.1C1243.9 1005.3 1277.9 964 1277.1 920.5C1275.5 892.3 1253.6 855 1233.5 835.6C1231.6 833.8 1228.6 833.2 1226.1 834C1223.5 834.9 1221.9 837.2 1220 839.1C1216.3 843.1 1212.9 847.3 1209.6 851.6L1209.5 851.7L1209.4 851.6C1201 841 1191.8 831 1182 821.6C1178.9 818 1173.9 816.7 1170.1 820.2Z" fill="#A7CBD1"/>
<path d="M1194.9 973.6C1206.3 973.6 1218 969.3 1225.9 961C1235.6 950.5 1238.1 934.4 1232.8 921.2L1232 919.2L1231 917.3C1230 914.8 1228.1 913 1225.4 914C1224.2 914.4 1223.3 915.5 1222.5 916.4L1217 923C1215.8 924.3 1213.9 927.1 1212.3 927.9C1209.3 929.7 1205.2 929 1203 926.3L1201.7 924.6C1196.4 917.9 1185.7 904.3 1180.4 897.5C1178.7 894.8 1175.5 893.6 1172.8 895.7C1171.8 896.5 1169.7 899.5 1168.8 900.5C1162 909.4 1154.4 918.7 1153 930.1C1151.1 955.6 1169.7 973.8 1194.9 973.6ZM1194.9 973.6C1169.6 973.9 1150.4 955.7 1151.9 930C1153 918.2 1160.5 908.4 1167.3 899.2C1168.3 897.9 1170.3 895 1171.5 894C1175 891 1180.1 892.3 1182.4 896.1C1187.8 902.8 1198.4 916.4 1203.7 923.2L1205 924.9C1206.8 927.3 1210.7 927.3 1212.6 924.9L1215.4 921.7C1216.5 920.5 1221.5 914.6 1222.7 913.6C1225.2 911.3 1229.7 911.6 1231.5 914.7C1232.2 915.9 1232.8 917.5 1233.4 918.7L1234.2 920.8C1239.3 934.4 1236.3 950.9 1226.1 961.4C1218 969.4 1206.4 973.7 1194.9 973.6Z" fill="#A7CBD1"/>
<g opacity="0.75">
<path d="M945.5 1002.6L952.5 988.5C956.7 980.1 954.4 969.6 946.9 963.6C938.7 957.1 923 943.6 909.7 926.3C894.3 906.4 886.5 887.3 886.5 869.8C886.5 827.9 920.6 793.8 962.5 793.8C1004.4 793.8 1038.5 827.9 1038.5 869.8C1038.5 887.4 1030.7 906.4 1015.3 926.3C1002 943.5 986.4 957 978.2 963.5C970.7 969.5 968.3 980 972.6 988.5L979.6 1002.5H945.5V1002.6Z" fill="#5E4772"/>
</g>
<path d="M868.9 873.2C868.9 822.8 909.8 781.9 960.2 781.9C1010.6 781.9 1051.5 822.8 1051.5 873.2C1051.5 922 1002.6 965.9 983.2 981.4C978.8 984.9 977.3 991.1 979.8 996.1L990 1016.4C990.4 1017.3 990.7 1018.2 990.7 1019.2C990.7 1022.6 987.9 1025.3 984.6 1025.3H935.9C932.5 1025.3 929.8 1022.5 929.8 1019.2C929.8 1018.2 930 1017.3 930.5 1016.4L940.7 996.1C943.2 991.1 941.7 984.9 937.3 981.4C917.8 965.9 868.9 922 868.9 873.2Z" fill="#E0B8C8" stroke="#1D1D1B" stroke-width="3" stroke-miterlimit="10"/>
<path d="M960.2 1017.6C965.723 1017.6 970.2 1013.12 970.2 1007.6C970.2 1002.08 965.723 997.6 960.2 997.6C954.677 997.6 950.2 1002.08 950.2 1007.6C950.2 1013.12 954.677 1017.6 960.2 1017.6Z" fill="white" stroke="#A87390" stroke-width="3.0694" stroke-miterlimit="10"/>
<path opacity="0.5" d="M920.2 862.7C920.2 843.1 936.1 827.2 955.7 827.2C959.6 827.2 962.8 824 962.8 820.1C962.8 816.2 959.6 813 955.7 813C928.3 813 906 835.2 906 862.7C906 866.6 909.2 869.8 913.1 869.8C917 869.8 920.2 866.6 920.2 862.7Z" fill="white"/>
<path d="M1212.2 1207.4H1176.3C1142.5 1207.4 1115 1234.8 1115 1268.7C1115 1275.5 1120.5 1281 1127.3 1281H1261.2C1268 1281 1273.5 1275.5 1273.5 1268.7C1273.5 1234.8 1246 1207.4 1212.2 1207.4Z" fill="white"/>
<path d="M1212.2 1207.4C1203.4 1207.5 1183.1 1207.4 1174.6 1207.6C1162.1 1207.9 1149.8 1212.3 1139.9 1219.9C1133.3 1224.9 1127.8 1231.3 1123.7 1238.5C1118.6 1247.5 1115.9 1257.8 1116 1268.1C1115.7 1275.5 1122.2 1280.7 1129.4 1279.9C1168.8 1279.7 1218.3 1279.7 1257.8 1280.2H1260.9C1261.4 1280.2 1261.9 1280.2 1262.4 1280.2C1266.8 1279.8 1270.9 1276.7 1272.3 1272.4C1273.5 1268.5 1272.8 1264.2 1272.4 1260.2C1271.9 1256.1 1270.9 1252 1269.5 1248.1C1261.5 1224.2 1237.4 1207.1 1212.2 1207.4ZM1212.2 1207.4C1237.6 1207 1261.7 1224 1270.3 1247.9C1272.5 1253.8 1273.7 1260.1 1274 1266.4C1274.1 1268.5 1274.2 1270.8 1273.5 1272.8C1272 1277.6 1267.6 1281.2 1262.6 1281.7C1261.6 1281.8 1258.9 1281.8 1257.8 1281.8C1218.3 1282.2 1168.9 1282.3 1129.4 1282.1C1121.1 1282.9 1113.7 1276.7 1114.2 1268.1C1114.4 1257.5 1117.3 1247 1122.7 1237.9C1127 1230.6 1132.7 1224.2 1139.5 1219.3C1149.7 1211.8 1162.1 1207.6 1174.7 1207.3C1183 1207.2 1203.5 1207.4 1212.2 1207.4Z" fill="#A7CBD1"/>
<path d="M1194.3 1190.4C1219.32 1190.4 1239.6 1170.12 1239.6 1145.1C1239.6 1120.08 1219.32 1099.8 1194.3 1099.8C1169.28 1099.8 1149 1120.08 1149 1145.1C1149 1170.12 1169.28 1190.4 1194.3 1190.4Z" fill="white"/>
<path d="M1239.5 1145.1C1239.2 1185.8 1190.8 1206.1 1161.5 1177.9C1143.3 1160.2 1143.3 1130 1161.5 1112.4C1190.8 1084.1 1239.2 1104.4 1239.5 1145.1ZM1239.5 1145.1C1239.7 1127.2 1228.1 1110.1 1211.4 1103.6C1182.2 1091.9 1150.1 1113.7 1150.2 1145.1C1150.1 1176.5 1182.2 1198.3 1211.4 1186.6C1228.1 1180.2 1239.7 1163 1239.5 1145.1Z" fill="#A7CBD1"/>
<path d="M884.6 1059.5C884 1072.8 972.3 1015 961.1 1009.7C961.1 1009.7 959.5 1009 958.4 1010.1" stroke="#7F715B" stroke-width="3.4249" stroke-miterlimit="10"/>
<path d="M1039.4 1022.7L1019 1051L1004.8 952.8L1085 1011.1L1050.6 1016L1093.9 1087.8L1082.8 1094.5L1039.4 1022.7Z" fill="#68644F"/>
<path d="M1039 1032.6L1015.6 1065.1L997.5 940.8L1099.1 1014.6L1059.5 1020.2L1101.4 1089.6L1080.9 1102L1039 1032.6Z" fill="#1D1D1B"/>
<path d="M1000.8 946.2L1092.7 1013L1062.8 1017.3L1055.4 1018.4L1059.3 1024.8L1098 1088.9L1081.7 1098.7L1043 1034.6L1039.1 1028.2L1034.7 1034.2L1017 1058.7L1000.8 946.2ZM994.2 935.4L1014 1071.4L1038.8 1037L1080.1 1105.3L1104.8 1090.4L1063.5 1022.1L1105.5 1016.1L994.2 935.4Z" fill="white"/>
<path d="M1426.6 1267.4C1470.67 1267.4 1506.4 1231.67 1506.4 1187.6C1506.4 1143.53 1470.67 1107.8 1426.6 1107.8C1382.53 1107.8 1346.8 1143.53 1346.8 1187.6C1346.8 1231.67 1382.53 1267.4 1426.6 1267.4Z" fill="white"/>
<path d="M1506.5 1187.6C1507 1219.3 1486.6 1249.7 1457.4 1261.7C1404.4 1284 1345.7 1245 1345.6 1187.6C1345.7 1130.1 1404.4 1091.1 1457.4 1113.5C1486.6 1125.6 1506.9 1155.9 1506.5 1187.6ZM1506.5 1187.6C1506.8 1156.1 1486.5 1125.7 1457.1 1114.2C1405.4 1093 1347.8 1131.7 1348.1 1187.6C1347.8 1243.5 1405.4 1282.2 1457.1 1261C1486.4 1249.5 1506.7 1219.2 1506.5 1187.6Z" fill="#A7CBD1"/>
<path d="M1485.6 1241.4C1453.4 1249.4 1417.6 1241.9 1391.8 1220.7L1390.9 1220C1393.3 1216.4 1395.9 1212.9 1398.7 1209.6C1406.5 1200.3 1415.9 1192.2 1426.5 1186.3C1441.2 1195.2 1458.3 1199.9 1475.4 1200.6C1485.6 1201.2 1495.8 1199.6 1505.8 1197.3C1499.2 1199.2 1492.5 1200.7 1485.7 1201.4C1465.2 1203.4 1443.8 1199 1425.9 1188.7H1427.1C1420.3 1192.6 1414.2 1197.3 1408.6 1202.7C1403 1208.1 1398 1214.1 1393.6 1220.5L1393.4 1218.9C1418.7 1239.8 1453.5 1247.7 1485.6 1241.4Z" fill="#A7CBD1"/>
<path d="M1443.4 1109.6C1464.4 1129.9 1475.6 1159.7 1473.3 1188.8C1473 1192.9 1472.3 1197.1 1471.4 1201.1C1472 1194.9 1472.3 1188.8 1471.9 1182.6C1470.9 1155.4 1460.5 1130.5 1443.4 1109.6Z" fill="#A7CBD1"/>
<path d="M1415.7 1142C1412.3 1137.3 1409.1 1132.6 1405.7 1128C1402.3 1123.3 1398.7 1119 1395.4 1114.2C1404.7 1121.1 1412.1 1130.9 1415.7 1142Z" fill="#A7CBD1"/>
<path d="M1426.6 1187.6C1425.5 1175.9 1422.9 1164.4 1419.5 1153.2C1418.3 1149.5 1417 1145.8 1415.7 1142C1423.8 1154.4 1428.8 1172.9 1426.6 1187.6Z" fill="#A7CBD1"/>
<path d="M1350.7 1212C1357.8 1183.7 1378 1159.1 1404.3 1146.6C1408.1 1144.8 1411.9 1143.3 1415.9 1142.1C1410.3 1144.7 1404.8 1147.5 1399.7 1150.9C1376.6 1165.4 1360.2 1186.8 1350.7 1212Z" fill="#A7CBD1"/>
<path d="M1392.6 1219.8C1390.3 1225.1 1387.8 1230.3 1385.5 1235.6C1383.4 1240.3 1380.9 1246.9 1378.7 1251.5C1380.1 1239.9 1384.8 1228.5 1392.6 1219.8Z" fill="#A7CBD1"/>
<path d="M1501.5 496.6C1484.8 497 1460 497.7 1443.5 497.9C1443.4 487 1443.3 466.3 1443.3 455.3V453.8C1453.3 453.8 1463.2 453.8 1473.2 453.9C1480.8 454 1495.1 454.1 1502.7 454.2C1502.4 466.6 1501.8 484.2 1501.5 496.6ZM1501.5 496.6C1501.1 484.7 1500.7 467 1500.4 455.3L1501.5 456.4C1494.4 456.5 1480.2 456.7 1473.1 456.7C1463.6 456.8 1454.2 456.8 1444.7 456.8L1446.2 455.3C1446.2 465.6 1446.1 486.3 1446 496.6L1444.7 495.3C1460.5 495.6 1485.6 496.2 1501.5 496.6Z" fill="#A7CBD1"/>
<path d="M1391.7 473.9C1383.7 475.1 1375.3 475.3 1367.2 475.4C1359 475.4 1350.8 475.1 1342.7 473.9C1350.8 472.7 1359 472.4 1367.2 472.4C1375.3 472.5 1383.7 472.7 1391.7 473.9Z" fill="#A7CBD1"/>
<g clip-path="url(#clip2_101_952)">
<g opacity="0.75">
<path d="M1476.9 708.3H858V1093.8H1476.9V708.3Z" fill="#FCFCFA"/>
</g>
<path opacity="0.96" d="M957.8 815C964.262 815 969.5 809.762 969.5 803.3C969.5 796.838 964.262 791.6 957.8 791.6C951.338 791.6 946.1 796.838 946.1 803.3C946.1 809.762 951.338 815 957.8 815Z" fill="#E0B8C8"/>
<path opacity="0.96" d="M957.8 920.4C964.262 920.4 969.5 915.162 969.5 908.7C969.5 902.238 964.262 897 957.8 897C951.338 897 946.1 902.238 946.1 908.7C946.1 915.162 951.338 920.4 957.8 920.4Z" fill="#E0B8C8"/>
<path opacity="0.96" d="M957.8 1012C964.262 1012 969.5 1006.76 969.5 1000.3C969.5 993.838 964.262 988.6 957.8 988.6C951.338 988.6 946.1 993.838 946.1 1000.3C946.1 1006.76 951.338 1012 957.8 1012Z" fill="#E0B8C8"/>
<path opacity="0.35" d="M1037.7 881.3H1319.1" stroke="#99C3E0" stroke-width="23.4104" stroke-miterlimit="10" stroke-linecap="round"/>
<path opacity="0.35" d="M1037.7 952.7H1319.1" stroke="#99C3E0" stroke-width="23.4104" stroke-miterlimit="10" stroke-linecap="round"/>
<path d="M1628.6 859.5H1009.7V1245H1628.6V859.5Z" fill="white"/>
<path d="M947.1 1194.6C941.9 1192.9 937 1190.5 932.4 1187.5C927.8 1184.5 923.5 1181 919.8 1176.9C916.1 1172.8 912.9 1168.3 910.6 1163.2C908.3 1158.2 906.8 1152.8 906.3 1147.4C908.3 1152.5 910.5 1157.2 913.2 1161.7C915.9 1166.2 919.2 1170.3 922.7 1174.1C926.2 1177.9 930.2 1181.4 934.3 1184.6C938.4 1187.9 942.8 1190.8 947.4 1193.6L947.1 1194.6Z" fill="#A7CBD1"/>
<path d="M934.1 1172.8C933.4 1173.3 933.2 1174.2 933.7 1174.9L946.6 1193.9L923.9 1197.6C923.1 1197.7 922.5 1198.5 922.7 1199.3C922.8 1200.1 923.6 1200.7 924.4 1200.5L949.4 1196.4C949.9 1196.3 950.3 1196 950.5 1195.5C950.7 1195 950.6 1194.5 950.4 1194.1L936.2 1173.2C936 1173 935.8 1172.8 935.6 1172.7C935.1 1172.4 934.6 1172.5 934.1 1172.8Z" fill="#A7CBD1"/>
<path d="M807 708.4C1038.2 706.1 1274.7 706 1505.9 708.4C1274.7 710.8 1038.2 710.8 807 708.4Z" fill="#A7CBD1"/>
<path d="M858 678.4C860.4 823.4 860.4 970.9 858 1115.8C855.6 970.9 855.6 823.4 858 678.4Z" fill="#A7CBD1"/>
<path d="M812.3 1093.8C883.3 1091 955.3 1090.5 1026.3 1092.5C955.3 1095.3 883.3 1095.7 812.3 1093.8Z" fill="#A7CBD1"/>
<path d="M1667 859.5C1443.3 861.8 1214.3 861.9 990.6 859.5C1214.4 857.1 1443.3 857.2 1667 859.5Z" fill="#A7CBD1"/>
<path d="M1009.7 828.2C1012.1 974 1012.1 1122.3 1009.7 1268.2C1007.3 1122.3 1007.3 974 1009.7 828.2Z" fill="#A7CBD1"/>
<path d="M1652.5 1245C1426.6 1247.3 1195.4 1247.4 969.5 1245C1195.4 1242.6 1426.6 1242.7 1652.5 1245Z" fill="#A7CBD1"/>
<path d="M1037.7 803.3H1319.1" stroke="#E6EEEF" stroke-width="20" stroke-miterlimit="10" stroke-linecap="round"/>
<path d="M1189.4 952.4H1470.8" stroke="#E6EEEF" stroke-width="20" stroke-miterlimit="10" stroke-linecap="round"/>
<path d="M1189.4 1060.7H1470.8" stroke="#E6EEEF" stroke-width="20" stroke-miterlimit="10" stroke-linecap="round"/>
<path d="M1189.4 1169.1H1470.8" stroke="#E6EEEF" stroke-width="20" stroke-miterlimit="10" stroke-linecap="round"/>
<path d="M1078.4 975.1V980.5C1078.4 981.4 1078.7 982.2 1079.2 983L1081.6 986.6C1082.3 987.7 1084 988.6 1085.3 988.6H1094C1095.3 988.6 1097 987.7 1097.7 986.6L1100.1 983C1100.5 982.5 1100.9 981.4 1100.9 980.6V970.7H1078.4V975.1Z" fill="#A87390"/>
<path d="M1089.6 916.8C1075.3 916.8 1065 928.3 1065 941.4C1065 947.4 1067.2 953.2 1071.1 957.7C1073.4 960.4 1077 965.9 1078.4 970.5V970.6H1100.9V970.5C1102.3 965.8 1105.9 960.3 1108.2 957.7C1112.1 953.3 1114.3 947.5 1114.3 941.4C1114.4 927.8 1103.3 916.7 1089.6 916.8Z" fill="#E0B8C8"/>
<path d="M1089.7 930.3C1083.5 930.3 1078.5 935.3 1078.5 941.4C1078.5 942.6 1077.5 943.6 1076.3 943.6C1075.1 943.6 1074.1 942.6 1074.1 941.4C1074.1 932.8 1081.1 925.8 1089.8 925.8C1091 925.8 1092 926.8 1092 928C1092 929.2 1090.9 930.3 1089.7 930.3Z" fill="#F7F7F5"/>
<path d="M1103.6 1033.3L1096.7 1040.2L1112.2 1055.7L1119.1 1048.8C1121.8 1046.1 1121.8 1041.7 1119.1 1039L1113.4 1033.3C1110.7 1030.6 1106.3 1030.6 1103.6 1033.3Z" fill="#A87390"/>
<path d="M1093.6 1042.8L1092.5 1043.1L1074.7 1048.5C1072.2 1049.2 1070.3 1051.1 1069.5 1053.6L1058.5 1086.3C1058 1087.7 1058.4 1089.3 1059.4 1090.3L1078.4 1071.3C1078 1070.5 1077.8 1069.7 1077.8 1068.7C1077.8 1065.4 1080.5 1062.8 1083.7 1062.8C1087 1062.8 1089.6 1065.5 1089.6 1068.7C1089.6 1072 1086.9 1074.6 1083.7 1074.6C1082.8 1074.6 1081.9 1074.4 1081.1 1074L1062.1 1093C1063.2 1094 1064.7 1094.4 1066.1 1093.9L1098.8 1082.9C1101.2 1082.1 1103.1 1080.1 1103.9 1077.7L1109.3 1059.9L1109.6 1058.8L1093.6 1042.8Z" fill="#E0B8C8"/>
<path d="M1082 1140.4C1082.9 1139.5 1084.3 1139.5 1085.3 1140.4C1088.6 1143.6 1091.6 1147.1 1094.5 1150.8C1095.8 1149 1097.3 1147.1 1098.9 1145.5C1099.8 1144.6 1101.3 1144.6 1102.2 1145.5C1106.3 1149.6 1109.7 1155 1112.2 1160.1C1114.6 1165.2 1116.2 1170.3 1116.2 1174C1116.2 1189.8 1104.4 1203.2 1089.8 1203.2C1075 1203.2 1063.4 1189.8 1063.4 1174C1063.4 1169.2 1065.5 1163.4 1068.7 1157.7C1071.9 1151.9 1076.5 1145.8 1082 1140.4Z" fill="#E0B8C8"/>
<path d="M1089.9 1191.3C1092.9 1191.3 1095.5 1190.4 1098 1188.7C1103 1185.1 1104.3 1177.8 1101.3 1172.1C1100.8 1171 1099.4 1170.9 1098.6 1171.9L1095.6 1175.5C1094.8 1176.4 1093.4 1176.4 1092.7 1175.4C1090.8 1172.8 1087.3 1168.2 1085.3 1165.5C1084.6 1164.5 1083.1 1164.5 1082.4 1165.5C1078.4 1170.8 1076.4 1174.1 1076.4 1177.8C1076.5 1186.3 1082.4 1191.3 1089.9 1191.3Z" fill="#A87390"/>
</g>
</g>
</g>
<defs>
<clipPath id="clip0_101_952">
<rect width="1344.9" height="1212.8" fill="white" transform="translate(114 88)"/>
</clipPath>
<clipPath id="clip1_101_952">
<rect width="1391.1" height="1245" fill="white" transform="translate(319 327)"/>
</clipPath>
<clipPath id="clip2_101_952">
<rect width="860" height="611.7" fill="white" transform="translate(807 671)"/>
</clipPath>
</defs>
</svg>
