<svg width="1573" height="1390" viewBox="0 0 1573 1390" fill="none" xmlns="http://www.w3.org/2000/svg">
<path opacity="0.75" d="M1299.4 162.1H270V1231.4H1299.4V162.1Z" fill="#FCFCFA"/>
<path opacity="0.75" d="M1304.1 189.6H274.7V1005.3H1304.1V189.6Z" fill="#FCFCFA"/>
<path d="M1299.4 67.1H270V162.1H1299.4V67.1Z" fill="#EFF3F4"/>
<path d="M403.3 832.8C650.4 831 927.5 831 1174.6 832.8C927.6 834.6 650.4 834.6 403.3 832.8Z" fill="#A7CBD1"/>
<path d="M1009.6 475.2C1034.07 475.2 1053.9 455.366 1053.9 430.9C1053.9 406.434 1034.07 386.6 1009.6 386.6C985.134 386.6 965.3 406.434 965.3 430.9C965.3 455.366 985.134 475.2 1009.6 475.2Z" stroke="#A7CBD1" stroke-width="2.75" stroke-miterlimit="10"/>
<path d="M402.3 326.1C647.7 324.3 923 324.3 1168.4 326.1C923.1 327.9 647.7 327.9 402.3 326.1Z" fill="#A7CBD1"/>
<path d="M434.4 862.8C432.6 676.7 432.5 486.2 434.4 300.1C436.2 486.2 436.2 676.7 434.4 862.8Z" fill="#A7CBD1"/>
<path d="M966.7 605.8L881.9 528.8L806.1 606.6L966.7 605.8Z" stroke="#A7CBD1" stroke-width="2.75" stroke-miterlimit="10"/>
<path d="M561.9 857.2C663.1 751.8 779.1 632.2 880.9 528L881.8 527.1C905.9 549 965.7 603.4 989 624.6C1039.8 670.9 1114.7 739.5 1165.5 786.3C1129.8 754.5 1058.5 690.4 1023 658.4C983.3 622.6 921 566.3 880.9 530L882.7 529.9C781.2 634.1 664.5 753.4 561.9 857.2Z" fill="#A7CBD1"/>
<path d="M454.6 567.8C533.1 565.9 612.6 565.9 691.1 567.8C612.6 569.7 533.1 569.7 454.6 567.8Z" fill="#A7CBD1"/>
<path d="M419.1 628.3C461.8 578.9 530.1 501.8 573.6 452L574.4 451.1L575.3 451.9C693.4 565.1 831 697.4 947.9 811.1L1000.9 862.7L947.3 811.8C866 734.5 761.7 634.5 680.3 556.2L573.8 453.6L575.5 453.5C531.4 503.4 462.8 579.4 419.1 628.3Z" fill="#A7CBD1"/>
<path d="M1134.4 883.5C1131.7 692.9 1131.8 498.5 1134.1 307.9L1134.4 289.3L1134.7 307.9C1137 498.5 1137.1 692.9 1134.4 883.5Z" fill="#A7CBD1"/>
<path d="M615 436.2C691.6 384.4 768.6 299.2 862.8 388.2C957 477.2 1082 399.1 998.2 561.9C914.4 724.7 996.8 815.9 868.4 769C657.5 691.9 585.4 794.3 587.5 650.8C589.5 507.3 538.4 488 615 436.2Z" fill="#DDDAD3"/>
<mask id="mask0_101_952" style="mask-type:luminance" maskUnits="userSpaceOnUse" x="572" y="349" width="454" height="433">
<path d="M615 436.2C691.6 384.4 768.6 299.2 862.8 388.2C957 477.2 1082 399.1 998.2 561.9C914.4 724.7 996.8 815.9 868.4 769C657.5 691.9 585.4 794.3 587.5 650.8C589.5 507.3 538.4 488 615 436.2Z" fill="white"/>
</mask>
<g mask="url(#mask0_101_952)">
<path d="M1134.4 307.8H434.4V832.8H1134.4V307.8Z" fill="#EFEDE6"/>
<path d="M1009.6 475.2C1034.07 475.2 1053.9 455.366 1053.9 430.9C1053.9 406.434 1034.07 386.6 1009.6 386.6C985.134 386.6 965.3 406.434 965.3 430.9C965.3 455.366 985.134 475.2 1009.6 475.2Z" fill="#E8D98B" stroke="#C6814E" stroke-width="4.572" stroke-miterlimit="10"/>
<path d="M585.7 832.8L881.8 528.8L1134.4 757.9V832.8H585.7Z" fill="#C2CE9B"/>
<path d="M966.7 605.8L881.9 528.8L806.1 606.6L966.7 605.8Z" fill="white"/>
<path d="M881.8 528.8L1134.4 757.9V832.8H585.7L881.8 528.8ZM881.6 522.9L878.7 525.9L582.6 829.9L575.5 837.2H585.7H1134.4H1138.7V832.9V758V756L1137.3 754.7L884.7 525.7L881.6 522.9Z" fill="#8E9B67"/>
<path d="M434.4 612.6L581.1 462L966.7 832.8H434.4V612.6Z" fill="#D0E0A9"/>
<path d="M691.1 567.8L581.1 462L478.1 567.8H691.1Z" fill="white"/>
<path d="M581.1 462L966.6 832.8H434.4V612.6L581.1 462ZM581 455.9L578 459L431.3 609.6L430.1 610.8V612.5V832.7V837H434.4H966.7H977.3L969.6 829.6L584.1 458.9L581 455.9Z" fill="#808C57"/>
</g>
<path d="M778.6 349.5V352.5C806.9 352.5 833.8 364.9 860.8 390.4C896.6 424.2 936.2 434.2 968.1 442.2C993.4 448.6 1013.4 453.6 1020.1 468.5C1027.4 484.8 1019.8 513.1 995.5 560.4C981.7 587.2 960.8 627.7 949.9 721.1C945.1 761.7 942.3 778.2 918.9 778.2C907.8 778.2 892 774.3 869.4 766.1C830.1 751.7 792.4 742.3 754 737.2C721.2 732.9 693.8 732.5 671.8 732.2C638.9 731.8 617.2 731.5 604.8 718.8C594.2 707.9 589.9 687.6 590.4 650.7C591.1 599 585 562.9 580.4 536.5C576.4 513.2 573.5 496.3 577.6 481.9C581.7 467.3 593.4 454.3 616.7 438.6C628.3 430.8 640.1 422 651.5 413.5C692.1 383.4 734 352.3 778.5 352.3L778.6 349.5ZM778.6 349.5C720.3 349.5 667.6 400.7 615.1 436.2C538.5 488 589.6 507.3 587.5 650.8C585.4 794.3 657.5 691.8 868.4 769C891.2 777.3 907.3 781.3 918.9 781.3C972.7 781.3 929.2 695.8 998.1 561.9C1082 399.1 957 477.4 862.8 388.3C833.2 360.3 805.3 349.5 778.6 349.5Z" fill="#1D1D1B"/>
<path d="M362.7 1145.1V1131.6L662.9 1083.1V1145.1H362.7Z" fill="#EFF4F4" stroke="#A7CBD1" stroke-width="3" stroke-miterlimit="10"/>
<path d="M750.1 1145.1V1133.5L833.3 1091.6V1145.1H750.1Z" fill="#EFF4F4" stroke="#A7CBD1" stroke-width="3" stroke-miterlimit="10"/>
<path d="M846.7 1061.9H858.4L900.2 1145.1H846.7V1061.9Z" fill="#C7E1E5" stroke="#A7CBD1" stroke-width="3" stroke-miterlimit="10"/>
<path d="M812.7 1056.7C808.1 1059.5 803.7 1062.4 799.6 1065.7C795.4 1068.9 791.5 1072.4 788 1076.2C784.5 1080 781.2 1084.1 778.5 1088.6C775.8 1093.1 773.6 1097.9 771.6 1102.9C772.1 1097.5 773.5 1092.1 775.9 1087.1C778.2 1082.1 781.4 1077.5 785.1 1073.4C788.8 1069.3 793.1 1065.8 797.7 1062.8C802.3 1059.9 807.2 1057.4 812.4 1055.7L812.7 1056.7Z" fill="#A7CBD1"/>
<path d="M788 1051.2C787.9 1052 788.4 1052.8 789.2 1052.9L811.9 1056.6L799 1075.6C798.5 1076.3 798.7 1077.2 799.4 1077.7C800.1 1078.2 801 1078 801.5 1077.3L815.7 1056.4C816 1056 816 1055.4 815.8 1055C815.6 1054.5 815.2 1054.2 814.7 1054.1L789.7 1050C789.4 1050 789.1 1050 788.9 1050.1C788.4 1050.2 788.1 1050.7 788 1051.2Z" fill="#A7CBD1"/>
<path d="M744.3 535.4H797.5" stroke="#1D1D1B" stroke-width="6" stroke-miterlimit="10"/>
<path d="M748.6 550.4L722.7 535.4L748.6 520.5V550.4Z" fill="#1D1D1B"/>
<path d="M793.1 550.4L819 535.4L793.1 520.5V550.4Z" fill="#1D1D1B"/>
<path d="M770.9 508.8V562.1" stroke="#1D1D1B" stroke-width="6" stroke-miterlimit="10"/>
<path d="M755.9 513.2L770.9 487.3L785.8 513.2H755.9Z" fill="#1D1D1B"/>
<path d="M755.9 557.7L770.9 583.6L785.8 557.7H755.9Z" fill="#1D1D1B"/>
<path d="M559.5 1079H540.6V1166.5H559.5V1079Z" fill="#C7E1E5" stroke="#A7CBD1" stroke-width="3" stroke-miterlimit="10"/>
<path d="M250.8 995C317.6 932.1 386.9 870.2 457 810.9C390.1 873.8 320.8 935.6 250.8 995Z" fill="#A7CBD1"/>
<path d="M1303.4 982.5C1234.3 924.1 1166 863 1100.1 801C1169.2 859.5 1237.6 920.5 1303.4 982.5Z" fill="#A7CBD1"/>
<path d="M1214.5 903.2L1212.4 901.3" stroke="#A7CBD1" stroke-width="3.5" stroke-miterlimit="10"/>
<path d="M1209.1 880.4C1208.4 880.6 1207.9 881.4 1208.1 882.1L1214 902.7L1192.8 899.3C1192 899.2 1191.3 899.7 1191.2 900.5C1191.1 901.3 1191.6 902 1192.4 902.1L1215.7 905.8C1216.2 905.9 1216.7 905.7 1217 905.3C1217.3 904.9 1217.4 904.4 1217.3 904L1210.8 881.3C1210.7 881 1210.6 880.8 1210.4 880.6C1210.1 880.4 1209.6 880.3 1209.1 880.4Z" fill="#A7CBD1"/>
<path d="M1311.6 152.5C1247.8 218.4 1181.4 283.5 1114.2 346.1C1178 280.1 1244.4 215 1311.6 152.5Z" fill="#A7CBD1"/>
<path d="M1217.5 244.7L1216.8 245.4" stroke="#A7CBD1" stroke-width="3.5" stroke-miterlimit="10"/>
<path d="M1194.4 248.5C1194.6 249.3 1195.3 249.7 1196.1 249.6L1217.1 245.2L1212.3 266.1C1212.1 266.9 1212.6 267.6 1213.3 267.8C1214.1 268 1214.8 267.5 1215 266.8L1220.3 243.8C1220.4 243.3 1220.3 242.8 1219.9 242.5C1219.6 242.2 1219.1 242 1218.6 242.1L1195.5 247C1195.2 247.1 1195 247.2 1194.8 247.4C1194.5 247.6 1194.3 248 1194.4 248.5Z" fill="#A7CBD1"/>
<path d="M356.1 900.9L359.4 897.9" stroke="#A7CBD1" stroke-width="3.5" stroke-miterlimit="10"/>
<path d="M379.3 898.2C379.2 897.4 378.5 896.9 377.7 897L356.6 900.5L362.4 879.9C362.6 879.2 362.2 878.4 361.4 878.2C360.7 878 359.9 878.4 359.7 879.2L353.3 901.9C353.2 902.4 353.3 902.9 353.6 903.2C353.9 903.5 354.4 903.7 354.9 903.6L378.2 899.8C378.5 899.8 378.7 899.6 378.9 899.5C379.2 899.2 379.4 898.7 379.3 898.2Z" fill="#A7CBD1"/>
<path d="M245.8 142.5C316.8 208.3 387 276.7 454.7 346C383.6 280.2 313.4 211.7 245.8 142.5Z" fill="#A7CBD1"/>
<path d="M349.8 243.8L353.3 247.2" stroke="#A7CBD1" stroke-width="3.5" stroke-miterlimit="10"/>
<path d="M354.1 266.8C354.9 266.6 355.3 265.9 355.1 265.1L350.2 244.2L371.2 248.6C372 248.8 372.7 248.3 372.9 247.5C373.1 246.7 372.6 246 371.8 245.8L348.7 241C348.2 240.9 347.7 241 347.4 241.4C347.1 241.8 346.9 242.2 347 242.7L352.4 265.7C352.5 266 352.6 266.2 352.8 266.4C353.1 266.7 353.6 266.9 354.1 266.8Z" fill="#A7CBD1"/>
<path d="M792.4 673.9C784 673.9 776.1 670.1 770.7 663.6L753.8 642.8C751.6 640.1 752 636 754.7 633.8C755.8 632.9 757.3 632.4 758.7 632.4C760.6 632.4 762.4 633.3 763.7 634.8L769.3 641.7C769.8 642.3 770.5 642.7 771.3 642.7C771.6 642.7 771.9 642.6 772.2 642.5C773.2 642.1 773.9 641.2 773.9 640.1V578.9V577.9C773.9 574.4 776.8 571.5 780.3 571.5C783.8 571.5 786.7 574.4 786.7 577.9V607.5C786.7 608.5 787.3 609.4 788.2 609.9C788.5 610.1 788.9 610.1 789.3 610.1C789.9 610.1 790.6 609.9 791 609.4C792.5 608.1 794.4 607.3 796.4 607.3C800.7 607.3 804.2 610.6 804.6 614.8C804.7 615.8 805.3 616.6 806.2 617C806.5 617.1 806.8 617.2 807.2 617.2C807.8 617.2 808.5 617 809 616.5C810.5 615.2 812.4 614.4 814.5 614.4C818.8 614.4 822.3 617.7 822.7 621.9C822.8 622.9 823.4 623.7 824.3 624.1C824.6 624.2 824.9 624.3 825.3 624.3C825.9 624.3 826.6 624.1 827.1 623.6C828.6 622.3 830.5 621.5 832.6 621.5C837.1 621.5 840.8 625.2 840.8 629.7V654.8C840.8 665.2 832.3 673.7 821.9 673.7H792.4V673.9Z" fill="#68644F"/>
<path d="M792.4 673.9C784 673.9 776.1 670.1 770.7 663.6L753.8 642.8C751.6 640.1 752 636 754.7 633.8C755.8 632.9 757.3 632.4 758.7 632.4C760.6 632.4 762.4 633.3 763.7 634.8L769.3 641.7C769.8 642.3 770.5 642.7 771.3 642.7C771.6 642.7 771.9 642.6 772.2 642.5C773.2 642.1 773.9 641.2 773.9 640.1V578.9V577.9C773.9 574.4 776.8 571.5 780.3 571.5C783.8 571.5 786.7 574.4 786.7 577.9V607.5C786.7 608.5 787.3 609.4 788.2 609.9C788.5 610.1 788.9 610.1 789.3 610.1C789.9 610.1 790.6 609.9 791 609.4C792.5 608.1 794.4 607.3 796.4 607.3C800.7 607.3 804.2 610.6 804.6 614.8C804.7 615.8 805.3 616.6 806.2 617C806.5 617.1 806.8 617.2 807.2 617.2C807.8 617.2 808.5 617 809 616.5C810.5 615.2 812.4 614.4 814.5 614.4C818.8 614.4 822.3 617.7 822.7 621.9C822.8 622.9 823.4 623.7 824.3 624.1C824.6 624.2 824.9 624.3 825.3 624.3C825.9 624.3 826.6 624.1 827.1 623.6C828.6 622.3 830.5 621.5 832.6 621.5C837.1 621.5 840.8 625.2 840.8 629.7V654.8C840.8 665.2 832.3 673.7 821.9 673.7H792.4V673.9Z" fill="white"/>
<path d="M792.4 679C782.4 679 773 674.5 766.7 666.8L749.8 646.1C745.8 641.2 746.5 633.9 751.5 629.8C753.6 628.1 756.1 627.2 758.8 627.2C761.9 627.2 764.9 628.5 767.1 630.7L768.8 632.5V577.8C768.8 571.4 774 566.2 780.4 566.2C786.8 566.2 792 571.4 792 577.8V602.9L793.2 602.6C794.3 602.3 795.4 602.2 796.5 602.2C801.6 602.2 806.3 605.1 808.5 609.7L808.9 610.5L809.7 610.2C811.2 609.6 812.8 609.4 814.4 609.4C819.5 609.4 824.2 612.3 826.4 616.9L826.8 617.7L827.6 617.4C829.1 616.8 830.7 616.6 832.3 616.6C839.7 616.6 845.7 622.6 845.7 630V655.1C845.7 668.4 834.9 679.2 821.6 679.2H792.4V679ZM758.8 632.4C757.3 632.4 755.9 632.9 754.8 633.8C752.1 636 751.6 640.1 753.9 642.8L770.8 663.6C776.1 670.1 784 673.9 792.5 673.9H821.7C832.1 673.9 840.6 665.4 840.6 655V629.9C840.6 625.4 836.9 621.7 832.4 621.7C830.4 621.7 828.4 622.4 826.9 623.8C826.4 624.2 825.8 624.5 825.2 624.5C824.9 624.5 824.6 624.4 824.2 624.3C823.3 623.9 822.7 623.1 822.6 622.1C822.3 617.9 818.7 614.6 814.4 614.6C812.4 614.6 810.4 615.3 808.9 616.7C808.4 617.1 807.8 617.4 807.2 617.4C806.9 617.4 806.6 617.3 806.2 617.2C805.3 616.8 804.7 616 804.6 615C804.3 610.8 800.7 607.5 796.4 607.5C794.4 607.5 792.4 608.2 791 609.6C790.5 610 789.9 610.3 789.3 610.3C788.9 610.3 788.6 610.2 788.2 610.1C787.3 609.7 786.7 608.8 786.7 607.7V578.1C786.7 574.6 783.8 571.7 780.3 571.7C776.8 571.7 773.9 574.6 773.9 578.1V579.1V640C773.9 641.1 773.2 642.1 772.2 642.4C771.9 642.5 771.6 642.6 771.3 642.6C770.5 642.6 769.8 642.2 769.3 641.6L763.7 634.7C762.5 633.2 760.7 632.4 758.8 632.4ZM821.6 661.1C820.2 661.1 819 659.9 819 658.5V637C819 635.6 820.2 634.4 821.6 634.4C823 634.4 824.2 635.6 824.2 637V658.5C824.2 659.9 823 661.1 821.6 661.1ZM807.2 661.1C805.8 661.1 804.6 659.9 804.6 658.5V637C804.6 635.6 805.8 634.4 807.2 634.4C808.6 634.4 809.8 635.6 809.8 637V658.5C809.8 659.9 808.7 661.1 807.2 661.1ZM792.9 661.1C791.5 661.1 790.3 659.9 790.3 658.5V637C790.3 635.6 791.5 634.4 792.9 634.4C794.3 634.4 795.5 635.6 795.5 637V658.5C795.5 659.9 794.3 661.1 792.9 661.1Z" fill="#1D1D1B"/>
<path d="M199 67.1C574.2 64.8 995 64.8 1370.2 67.1C995 69.4 574.2 69.3 199 67.1Z" fill="#A7CBD1"/>
<path d="M231.7 162.1C590 159.8 992 159.8 1350.3 162.1C992 164.4 590 164.3 231.7 162.1Z" fill="#A7CBD1"/>
<path d="M219.8 1229.9C576.7 1227.6 977 1227.6 1333.8 1229.9C977 1232.2 576.7 1232.2 219.8 1229.9Z" fill="#A7CBD1"/>
<path d="M204 977.8C565.1 975.5 970.1 975.5 1331.2 977.8C970.1 980.1 565 980.1 204 977.8Z" fill="#A7CBD1"/>
<path d="M470.5 1325.7C765.5 1323.4 1067.3 1323.3 1362.3 1325.7C1067.3 1328.1 765.5 1328.1 470.5 1325.7Z" fill="#A7CBD1"/>
<path d="M1299.5 1384.5C1297.2 941 1297.2 443.5 1299.5 0C1301.8 443.5 1301.7 941 1299.5 1384.5Z" fill="#A7CBD1"/>
<path d="M270 1270.2C267.7 871.2 267.7 423.7 270 24.7C272.3 423.7 272.3 871.3 270 1270.2Z" fill="#A7CBD1"/>
<path d="M1153.1 140.2C1136 140.7 1111.8 141.5 1094.8 141.7C1094.7 130.7 1094.5 109.9 1094.5 98.9V97.1C1104.5 97.2 1114.6 97.1 1124.6 97.2C1132.3 97.3 1146.5 97.4 1154.2 97.6C1154.2 110.2 1153.5 127.5 1153.1 140.2ZM1153.1 140.2C1152.7 128.1 1152.1 110.8 1151.9 98.9L1153.1 100.1C1146 100.2 1131.8 100.4 1124.7 100.5C1115.2 100.6 1105.8 100.6 1096.3 100.6L1098 98.9C1098 109.2 1097.9 129.9 1097.7 140.2L1096.2 138.7C1112.4 138.9 1136.9 139.6 1153.1 140.2Z" fill="#A7CBD1"/>
<path d="M1043.3 117.5C1035.2 118.9 1027 119.2 1018.8 119.2C1010.6 119.2 1002.4 118.8 994.3 117.5C1002.4 116.1 1010.6 115.8 1018.8 115.8C1027 115.8 1035.2 116.1 1043.3 117.5Z" fill="#A7CBD1"/>
<path d="M1244 98.9C1238.1 106.7 1231.5 113.8 1224.7 120.7C1217.8 127.5 1210.7 134.2 1202.9 140C1208.8 132.2 1215.4 125.1 1222.2 118.2C1229.1 111.4 1236.2 104.7 1244 98.9Z" fill="#A7CBD1"/>
<path d="M1203.7 98.9C1211.5 104.8 1218.6 111.4 1225.5 118.2C1232.3 125.1 1239 132.2 1244.8 140C1237 134.1 1229.9 127.5 1223 120.7C1216.2 113.8 1209.6 106.7 1203.7 98.9Z" fill="#A7CBD1"/>
<path d="M1148.1 1255.7C1141.1 1264.7 1132.9 1273.2 1125 1281.3C1116.9 1289.3 1108.4 1297.4 1099.4 1304.4C1106.4 1295.4 1114.5 1286.9 1122.5 1278.8C1130.6 1270.8 1139.1 1262.7 1148.1 1255.7Z" fill="#A7CBD1"/>
<path d="M1100.3 1255.7C1109.3 1262.7 1117.8 1270.9 1125.9 1278.8C1133.9 1286.9 1142 1295.4 1149 1304.4C1140 1297.4 1131.5 1289.3 1123.4 1281.3C1115.5 1273.2 1107.3 1264.6 1100.3 1255.7Z" fill="#A7CBD1"/>
<path d="M1261.9 1252.7C1251.6 1268.7 1239.9 1283.7 1227.8 1298.3C1218.8 1289.6 1210 1280.8 1201.6 1271.6C1210.9 1279 1219.9 1286.8 1228.8 1294.8L1226.5 1295C1237.6 1280.4 1249.1 1266 1261.9 1252.7Z" fill="#A7CBD1"/>
<path d="M583.4 1209.4L563 1237.6L548.7 1139.5L629 1197.8L594.5 1202.7L637.9 1274.4L626.8 1281.2L583.4 1209.4Z" fill="#68644F"/>
<path d="M583 1219.3L559.5 1251.7L541.5 1127.5L643.1 1201.3L603.5 1206.9L645.4 1276.3L624.9 1288.7L583 1219.3Z" fill="#1D1D1B"/>
<path d="M544.8 1132.9L636.7 1199.7L606.8 1204L599.4 1205.1L603.3 1211.5L642 1275.6L625.7 1285.4L587 1221.3L583.1 1214.9L578.7 1220.9L561 1245.4L544.8 1132.9ZM538.2 1122.1L558 1258.2L582.8 1223.8L624.1 1292.1L648.8 1277.2L607.5 1208.9L649.5 1202.9L538.2 1122.1Z" fill="white"/>
</svg>
