<svg width="1573" height="1390" viewBox="0 0 1573 1390" fill="none" xmlns="http://www.w3.org/2000/svg">
<g clip-path="url(#clip0_101_952)">
<path d="M1405.3 250.5H176.6V1188.4H1405.3V250.5Z" fill="#FCFCFA"/>
<path d="M1319.2 815.6H1010.1V1047H1319.2V815.6Z" fill="white"/>
<path d="M953.8 815.6H644.7V1047H953.8V815.6Z" fill="white"/>
<path d="M953.8 815.6H644.7V1047H953.8V815.6Z" fill="white"/>
<path d="M1319.2 536.3H1010.1V766H1319.2V536.3Z" fill="white"/>
<path d="M1405.3 155.5H176.6V250.5H1405.3V155.5Z" fill="#EFF3F4"/>
<path d="M560.3 321.9H231V1116.9H560.3V321.9Z" fill="white"/>
<path d="M1319.2 321.9H644.7V440H1319.2V321.9Z" fill="white"/>
<path d="M334.1 423.9C353 423.6 390.8 423 409.7 422.9C434.9 422.4 460.2 422.3 485.3 424V424.3C482.1 424.5 479 424.7 475.8 424.8L466.3 425.2C447.4 425.9 428.5 425.7 409.6 425.4C390.8 425.2 352.8 424.7 334 424.4C334.1 424.2 334.1 423.9 334.1 423.9Z" fill="#A7CBD1"/>
<path d="M290.2 484.8C349.1 484.4 414.5 482.3 473.2 484.3C477.3 484.5 481.3 484.6 485.4 484.8V485.1C481.3 485.3 477.3 485.5 473.2 485.6C444.8 486.6 416.2 486.6 387.8 486.1C363.6 485.7 313.7 486 290.2 484.8Z" fill="#A7CBD1"/>
<path d="M290.2 545.7C349.1 545.3 414.5 543.2 473.2 545.2C477.3 545.4 481.3 545.5 485.4 545.7V546C481.3 546.2 477.3 546.4 473.2 546.5C444.8 547.5 416.2 547.5 387.8 547C363.6 546.6 313.7 546.9 290.2 545.7Z" fill="#A7CBD1"/>
<path d="M290.2 601.2C349.1 600.8 414.5 598.7 473.2 600.7C477.3 600.9 481.3 601 485.4 601.2V601.5C481.3 601.7 477.3 601.9 473.2 602C444.8 603 416.2 603 387.8 602.5C363.6 602 313.7 602.4 290.2 601.2Z" fill="#A7CBD1"/>
<path d="M290.2 656.6C349.1 656.2 414.5 654.1 473.2 656.1C477.3 656.3 481.3 656.4 485.4 656.6V656.9C481.3 657.1 477.3 657.3 473.2 657.4C444.8 658.4 416.2 658.4 387.8 657.9C363.6 657.5 313.7 657.8 290.2 656.6Z" fill="#A7CBD1"/>
<path d="M976.3 1047.1C866.2 1049.1 754.8 1049.2 644.7 1047.1C754.8 1045 866.1 1045 976.3 1047.1Z" fill="#C8E1E8"/>
<g opacity="0.75">
<path d="M1319.1 766C1241.4 766.4 1086.5 767.1 1008.8 767.3V766L1008.6 536.3V534.8H1010.1L1164.6 535C1203.6 535 1281.1 535.1 1320.2 535.3C1319.9 593 1319.5 708.2 1319.1 766ZM1319.1 766C1318.7 708.7 1318.3 593.6 1318.1 536.3L1319.1 537.3C1280.6 537.5 1203.1 537.6 1164.6 537.6L1010.1 537.8L1011.6 536.3L1011.4 766L1010.1 764.7C1087.1 764.9 1242.1 765.6 1319.1 766Z" fill="#C8E1E8"/>
</g>
<path d="M1341.6 766C1231.5 768 1120.1 768.1 1010 766C1120.1 763.9 1231.4 763.9 1341.6 766Z" fill="#C8E1E8"/>
<path d="M87 155.5C535.1 153.2 1037.8 153.2 1485.9 155.5C1037.8 157.8 535.1 157.8 87 155.5Z" fill="#A7CBD1"/>
<path d="M115.2 250.5C544.7 248.2 1026.6 248.2 1456.1 250.5C1026.6 252.8 544.8 252.8 115.2 250.5Z" fill="#A7CBD1"/>
<path d="M146.3 1188.4C561.4 1186.1 1027.1 1186.1 1442.3 1188.4C1027.2 1190.7 561.5 1190.7 146.3 1188.4Z" fill="#A7CBD1"/>
<path d="M367.2 1284.3C705.5 1282 1083 1282 1421.2 1284.3C1083.1 1286.6 705.4 1286.5 367.2 1284.3Z" fill="#A7CBD1"/>
<path d="M1405.3 1299.8C1403 923.2 1403 500.7 1405.3 124C1407.6 500.6 1407.6 923.1 1405.3 1299.8Z" fill="#A7CBD1"/>
<path d="M176.6 1275.9C174.3 895.1 174.3 467.8 176.6 87C178.9 467.8 178.9 895.1 176.6 1275.9Z" fill="#A7CBD1"/>
<path d="M1319.1 300C1321.1 359.3 1321.2 419.4 1319.1 478.7C1317.1 419.4 1317.1 359.3 1319.1 300Z" fill="#B8D6DD"/>
<path d="M594.9 1116.9C504.1 1117.3 321.7 1118.2 230.9 1118.2H229.6V1116.9L229.5 909C229.6 757.9 229.7 539.5 230.5 389.2L231 285.2L231.5 389.2C231.9 457 232.1 630.7 232.3 701.1C232.5 804.7 232.4 1013.4 232.3 1117L231 1115.7C321.6 1115.6 504.3 1116.5 594.9 1116.9Z" fill="#A7CBD1"/>
<path d="M560.3 278.6C562.3 559.8 562.3 875.3 560.3 1156.5C558.3 875.2 558.3 559.8 560.3 278.6Z" fill="#A7CBD1"/>
<path d="M208.4 321.9C334.5 319.9 463.6 319.9 589.7 321.9C463.6 324 334.5 323.9 208.4 321.9Z" fill="#A7CBD1"/>
<path d="M644.7 1048.7C644 974.7 643.5 889.6 643.4 815.6V814.3H644.7C715.9 814.1 805.3 814.1 876.5 814.3C902.6 814.3 928.7 814.5 954.8 814.6V815.6L954.4 938.2L953.8 1060.8L953.2 938.2L952.8 815.6L953.8 816.6C928 816.7 902.3 816.9 876.5 816.9C832.6 817 765.3 817.1 722 817L644.7 816.9L646 815.6L645.8 873.9C645.7 927.6 645.2 995.1 644.7 1048.7Z" fill="#A7CBD1"/>
<g opacity="0.75">
<path d="M1319.1 1047.4C1241.4 1047.8 1086.5 1048.5 1008.8 1048.7V1047.4L1008.6 815.6V814.1H1010.1L1164.6 814.3C1203.6 814.3 1281.1 814.4 1320.2 814.6C1319.9 872.9 1319.5 989.1 1319.1 1047.4ZM1319.1 1047.4C1318.7 989.6 1318.3 873.4 1318.1 815.6L1319.1 816.6C1280.6 816.8 1203.1 816.9 1164.6 816.9L1010.1 817.1L1011.6 815.6L1011.4 1047.4L1010.1 1046.1C1087.1 1046.3 1242.1 1047 1319.1 1047.4Z" fill="#A7CBD1"/>
</g>
<path d="M1319.1 815.6C1321.1 896.5 1321.2 978.5 1319.1 1059.4C1317.1 978.5 1317.1 896.5 1319.1 815.6Z" fill="#A7CBD1"/>
<path d="M1010.1 1047.4C1008.1 970.5 1008 892.5 1010.1 815.6C1012.2 892.6 1012.1 970.5 1010.1 1047.4Z" fill="#A7CBD1"/>
<path d="M1341.7 1047.4C1231.6 1049.4 1120.2 1049.5 1010.1 1047.4C1120.2 1045.4 1231.6 1045.4 1341.7 1047.4Z" fill="#A7CBD1"/>
<path d="M1010.1 768.1C1009.4 694.5 1008.9 609.9 1008.8 536.3V535H1010.1C1109.8 534.8 1219.7 534.8 1319.2 535.3H1320.2V536.3C1320 597 1319.6 719.4 1319.2 780.1L1318.6 658.2L1318.2 536.3L1319.2 537.3C1293.4 537.4 1267.7 537.6 1241.9 537.6C1170.7 537.8 1081.3 537.8 1010.1 537.6L1011.4 536.3L1011.2 594.2C1011.1 647.6 1010.6 714.7 1010.1 768.1Z" fill="#A7CBD1"/>
<path d="M1347.2 440.1C1108.2 442.1 842.5 442.1 603.4 440.1C842.5 438.1 1108.1 438.1 1347.2 440.1Z" fill="#A7CBD1"/>
<path d="M644.7 481.7L644.2 322V321.5H644.7C695.7 321.1 776.5 320.9 828.2 320.7C1003.2 320.4 1204.4 320.4 1378.6 322C1204.6 323.5 1003 323.6 828.2 323.3C776.5 323.1 695.9 322.9 644.7 322.5C645.4 319.7 644.7 482.2 644.7 481.7Z" fill="#A7CBD1"/>
<path d="M694.6 346.9C696.2 358.2 696.5 369.6 696.6 381C696.6 392.4 696.2 403.8 694.6 415.1C693 403.8 692.6 392.4 692.6 381C692.7 369.6 693 358.2 694.6 346.9Z" fill="#A7CBD1"/>
<path d="M740.261 403.424C739.086 403.424 738.078 403.003 737.236 402.162C736.395 401.32 735.974 400.312 735.974 399.137C735.974 397.962 736.395 396.954 737.236 396.113C738.078 395.271 739.086 394.851 740.261 394.851C741.436 394.851 742.444 395.271 743.285 396.113C744.127 396.954 744.547 397.962 744.547 399.137C744.547 399.915 744.349 400.63 743.952 401.281C743.571 401.932 743.055 402.456 742.404 402.853C741.769 403.234 741.055 403.424 740.261 403.424ZM758.73 403.424C757.555 403.424 756.547 403.003 755.705 402.162C754.864 401.32 754.443 400.312 754.443 399.137C754.443 397.962 754.864 396.954 755.705 396.113C756.547 395.271 757.555 394.851 758.73 394.851C759.904 394.851 760.913 395.271 761.754 396.113C762.596 396.954 763.016 397.962 763.016 399.137C763.016 399.915 762.818 400.63 762.421 401.281C762.04 401.932 761.524 402.456 760.873 402.853C760.238 403.234 759.523 403.424 758.73 403.424ZM777.198 403.424C776.024 403.424 775.015 403.003 774.174 402.162C773.332 401.32 772.912 400.312 772.912 399.137C772.912 397.962 773.332 396.954 774.174 396.113C775.015 395.271 776.024 394.851 777.198 394.851C778.373 394.851 779.382 395.271 780.223 396.113C781.065 396.954 781.485 397.962 781.485 399.137C781.485 399.915 781.287 400.63 780.89 401.281C780.509 401.932 779.993 402.456 779.342 402.853C778.707 403.234 777.992 403.424 777.198 403.424Z" fill="#A7CBD1"/>
<path d="M1334.3 482.8L1354.3 462.7L1368.5 477.7L1348.4 497.8L1334.3 482.8Z" fill="#E6EEEF" stroke="#A7CBD1" stroke-width="3" stroke-miterlimit="10"/>
<path d="M1336.3 464.7C1294.9 506.1 1227.7 506.1 1186.3 464.7C1144.9 423.3 1144.9 356.1 1186.3 314.7C1227.7 273.3 1294.9 273.3 1336.3 314.7C1377.7 356.1 1377.7 423.3 1336.3 464.7ZM1347.7 303.3C1300 255.6 1222.6 255.6 1174.9 303.3C1127.2 351 1127.2 428.4 1174.9 476.1C1222.6 523.8 1300 523.8 1347.7 476.1C1395.4 428.4 1395.4 351 1347.7 303.3Z" fill="#E6EEEF" stroke="#A7CBD1" stroke-width="3" stroke-miterlimit="10"/>
<path d="M1348.4 497.8L1368.5 477.7L1450.5 560.6L1430.5 580.6L1348.4 497.8Z" fill="#E6EEEF" stroke="#A7CBD1" stroke-width="3" stroke-miterlimit="10"/>
<path d="M658 754.8C658 754.8 614.7 782.7 613.6 785.7" stroke="#A87390" stroke-width="3.4249" stroke-miterlimit="10"/>
<path d="M608.3 786.3H546C538.9 786.3 532.1 789.1 527.1 794.1L453.8 867.4C443.4 877.8 443.4 894.7 453.8 905.1L509.4 960.7C519.8 971.1 536.7 971.1 547.1 960.7L620.4 887.4C625.4 882.4 628.2 875.6 628.2 868.5V806.3C628.3 795.2 619.3 786.3 608.3 786.3ZM594.9 832.9C594.9 840.3 588.9 846.2 581.6 846.2C574.2 846.2 568.3 840.2 568.3 832.9C568.3 825.6 574.3 819.6 581.6 819.6C589 819.6 594.9 825.5 594.9 832.9Z" fill="#E6EEEF" stroke="#A7CBD1" stroke-width="3" stroke-miterlimit="10"/>
<path d="M530.4 846.2C524.1 854.2 516.8 861.9 509.6 869.1C502.3 876.3 494.7 883.6 486.7 889.9C493 881.9 500.3 874.2 507.5 867C514.7 859.9 522.4 852.6 530.4 846.2Z" fill="#A7CBD1"/>
<path d="M547.3 863.2C541 871.2 533.7 878.9 526.5 886.1C519.2 893.3 511.6 900.6 503.6 906.9C509.9 898.9 517.2 891.2 524.4 884C531.7 876.8 539.3 869.5 547.3 863.2Z" fill="#A7CBD1"/>
<path d="M564.1 879.9C557.8 887.9 550.5 895.6 543.3 902.8C536 910 528.4 917.3 520.4 923.6C526.7 915.6 534 907.9 541.2 900.7C548.4 893.6 556 886.2 564.1 879.9Z" fill="#A7CBD1"/>
<g opacity="0.85">
<path d="M950.9 536.3H644.7V766H950.9V536.3Z" fill="#EFEDE6"/>
</g>
<path d="M896.3 609.6C907.014 609.6 915.7 600.914 915.7 590.2C915.7 579.486 907.014 570.8 896.3 570.8C885.586 570.8 876.9 579.486 876.9 590.2C876.9 600.914 885.586 609.6 896.3 609.6Z" fill="#E8D98B" stroke="#C6814E" stroke-width="2" stroke-miterlimit="10"/>
<path d="M710.9 766L840.4 633L950.9 733.2V766H710.9Z" fill="#C2CE9B"/>
<path d="M877.5 666.7L840.5 633L807.3 667L877.5 666.7Z" fill="white"/>
<path d="M840.4 633L950.9 733.2V766H710.9L840.4 633ZM840.3 630.2L839 631.6L709.5 764.6L706.2 768H710.9H950.9H952.9V766V733.2V732.3L952.2 731.7L841.8 631.5L840.3 630.2Z" fill="#8E9B67"/>
<path d="M647.8 762.9V670.9L709 608.1L869.9 762.9H647.8Z" fill="#BECC96"/>
<path d="M644.7 669.7L708.9 603.8L877.5 766H644.7V669.7Z" fill="#D0E0A9"/>
<path d="M757 650L708.9 603.8L663.8 650H757Z" fill="white"/>
<path d="M708.9 603.8L877.5 766H644.7V669.7L708.9 603.8ZM708.8 600.9L707.4 602.3L643.2 668.2L642.6 668.8V669.6V766V768H644.6H877.4H882.4L878.8 764.6L710.3 602.3L708.8 600.9Z" fill="#808C57"/>
<path d="M950.9 536.3V766H644.7V536.3H950.9ZM953.9 533.3H950.9H644.7H641.7V536.3V766V769H644.7H950.9H953.9V766V536.3V533.3Z" fill="#353531"/>
<path d="M1283.3 590.2C1283.5 604 1269.1 614.1 1256.1 609.1C1238.8 602.5 1238.8 577.9 1256.1 571.3C1269 566.3 1283.5 576.3 1283.3 590.2ZM1283.3 590.2C1283.2 573.3 1262.7 565.2 1251.1 577.4C1244.3 584.3 1244.3 596.1 1251.1 603C1262.7 615.1 1283.2 607.1 1283.3 590.2Z" fill="#A7CBD1"/>
<path d="M1002.7 673.9C1023.3 653.1 1053.8 623.7 1075 602.9L1075.9 602L1076.8 602.9L1098.9 624C1142.5 665.7 1187.6 709.3 1230.4 751.7C1237.6 758.9 1244.9 766 1252 773.3C1244.5 766.4 1237.1 759.5 1229.6 752.5C1185.6 711.4 1140.2 668 1096.9 626.1L1075 604.8H1076.8C1055.1 625.2 1024.3 653.9 1002.7 673.9Z" fill="#A7CBD1"/>
<path d="M1148.5 694.7C1167.3 674.2 1188.3 652.2 1207.6 632L1208.5 631L1209.5 631.9C1243.2 662.2 1277.3 693.2 1310.2 724.4C1314.9 728.9 1319.7 733.4 1324.3 737.9C1319.3 733.7 1314.4 729.4 1309.5 725.1C1275.3 695.4 1241 664.5 1207.6 633.9L1209.5 633.8L1194.4 649.1C1179.8 664.1 1163.5 680.3 1148.5 694.7Z" fill="#A7CBD1"/>
<path d="M1283.3 873.4C1283.5 887.2 1269.1 897.3 1256.1 892.3C1238.8 885.7 1238.8 861.1 1256.1 854.5C1269 849.5 1283.5 859.6 1283.3 873.4ZM1283.3 873.4C1283.2 856.5 1262.7 848.4 1251.1 860.6C1244.3 867.5 1244.3 879.3 1251.1 886.2C1262.7 898.4 1283.2 890.3 1283.3 873.4Z" fill="#A7CBD1"/>
<path d="M1002.7 957.1C1023.3 936.3 1053.8 906.9 1075 886.1L1075.9 885.2L1076.8 886.1L1098.9 907.2C1142.5 948.9 1187.6 992.5 1230.4 1034.9C1237.6 1042.1 1244.9 1049.2 1252 1056.5C1244.5 1049.6 1237.1 1042.7 1229.6 1035.7C1185.6 994.6 1140.2 951.2 1096.9 909.3L1075 888H1076.8C1055.1 908.5 1024.3 937.1 1002.7 957.1Z" fill="#A7CBD1"/>
<path d="M1148.5 977.9C1167.3 957.4 1188.3 935.4 1207.6 915.2L1208.5 914.2L1209.5 915.1C1243.2 945.4 1277.3 976.4 1310.2 1007.6C1314.9 1012.1 1319.7 1016.6 1324.3 1021.1C1319.3 1016.9 1314.4 1012.6 1309.5 1008.3C1275.3 978.6 1241 947.7 1207.6 917.1L1209.5 917L1194.4 932.3C1179.8 947.3 1163.5 963.5 1148.5 977.9Z" fill="#A7CBD1"/>
<path d="M919 873.4C919.2 887.2 904.8 897.3 891.8 892.3C874.5 885.7 874.5 861.1 891.8 854.5C904.7 849.5 919.2 859.6 919 873.4ZM919 873.4C918.9 856.5 898.4 848.4 886.8 860.6C880 867.5 880 879.3 886.8 886.2C898.3 898.4 918.9 890.3 919 873.4Z" fill="#A7CBD1"/>
<path d="M638.3 957.1C658.9 936.3 689.4 906.9 710.6 886.1L711.5 885.2L712.4 886.1L734.5 907.2C778.1 948.9 823.2 992.5 866 1034.9C873.2 1042.1 880.5 1049.2 887.6 1056.5C880.1 1049.6 872.7 1042.7 865.2 1035.7C821.2 994.6 775.8 951.2 732.5 909.3L710.6 888H712.4C690.8 908.5 660 937.1 638.3 957.1Z" fill="#A7CBD1"/>
<path d="M784.2 977.9C803 957.4 824 935.4 843.3 915.2L844.2 914.2L845.2 915.1C879 945.5 913 976.5 946 1007.7C950.7 1012.2 955.5 1016.7 960.1 1021.2C955.1 1017 950.2 1012.7 945.3 1008.4C911.1 978.7 876.8 947.8 843.4 917.2L845.3 917.1L830.2 932.4C815.5 947.3 799.1 963.5 784.2 977.9Z" fill="#A7CBD1"/>
<path d="M662.3 757.1C666.829 757.1 670.5 753.429 670.5 748.9C670.5 744.371 666.829 740.7 662.3 740.7C657.771 740.7 654.1 744.371 654.1 748.9C654.1 753.429 657.771 757.1 662.3 757.1Z" fill="#F7F7F5" stroke="#282722" stroke-width="1.7124" stroke-miterlimit="10"/>
<path d="M589.7 826.9C589.1 840.2 670.4 759.1 659.1 753.8C659.1 753.8 657.5 753.1 656.4 754.2" stroke="#A87390" stroke-width="3.4249" stroke-miterlimit="10"/>
<path d="M948 812.9L927.6 841.2L913.4 743L993.6 801.3L959.1 806.2L1002.5 878L991.4 884.7L948 812.9Z" fill="#68644F"/>
<path d="M947.6 822.8L924.2 855.3L906.1 731L1007.7 804.8L968.1 810.5L1010 879.8L989.5 892.2L947.6 822.8Z" fill="#1D1D1B"/>
<path d="M909.4 736.5L1001.3 803.3L971.4 807.6L964 808.7L967.9 815.1L1006.6 879.2L990.3 889L951.6 824.9L947.7 818.5L943.3 824.5L925.6 849L909.4 736.5ZM902.8 725.6L922.6 861.7L947.4 827.3L988.7 895.6L1013.4 880.7L972.1 812.4L1014.1 806.4L902.8 725.6Z" fill="white"/>
<path d="M1240.8 1213.1C1233.7 1221.9 1225.5 1230.4 1217.5 1238.5C1209.4 1246.5 1200.9 1254.7 1192.1 1261.8C1199.2 1253 1207.4 1244.5 1215.4 1236.4C1223.4 1228.4 1231.9 1220.2 1240.8 1213.1Z" fill="#A7CBD1"/>
<path d="M1193 1213.1C1201.8 1220.2 1210.3 1228.4 1218.4 1236.4C1226.4 1244.5 1234.6 1253 1241.7 1261.8C1232.9 1254.7 1224.4 1246.5 1216.3 1238.5C1208.3 1230.4 1200.2 1221.9 1193 1213.1Z" fill="#A7CBD1"/>
<path d="M1271 228.4C1254.3 228.8 1229.5 229.5 1213 229.7C1212.9 218.8 1212.8 198.1 1212.8 187.1V185.6C1222.8 185.6 1232.7 185.6 1242.7 185.7C1250.3 185.8 1264.6 185.9 1272.2 186C1271.9 198.3 1271.3 216 1271 228.4ZM1271 228.4C1270.6 216.5 1270.2 198.8 1269.9 187.1L1271 188.2C1263.9 188.3 1249.7 188.5 1242.6 188.5C1233.1 188.6 1223.7 188.6 1214.2 188.6L1215.7 187.1C1215.7 197.4 1215.6 218.1 1215.5 228.4L1214.2 227.1C1230 227.3 1255 227.9 1271 228.4Z" fill="#A7CBD1"/>
<path d="M1161.2 205.7C1153.2 206.9 1144.8 207.1 1136.7 207.2C1128.5 207.2 1120.3 206.9 1112.2 205.7C1120.3 204.5 1128.5 204.2 1136.7 204.2C1144.8 204.3 1153.2 204.5 1161.2 205.7Z" fill="#A7CBD1"/>
<path d="M1361.9 187.1C1356 194.7 1349.1 201.9 1342.4 208.7C1335.6 215.4 1328.4 222.3 1320.8 228.2C1326.7 220.6 1333.6 213.4 1340.3 206.6C1347.1 199.9 1354.3 193 1361.9 187.1Z" fill="#A7CBD1"/>
<path d="M1321.6 187.1C1329.2 193 1336.4 199.9 1343.2 206.6C1349.9 213.4 1356.8 220.6 1362.7 228.2C1355.1 222.3 1347.9 215.4 1341.1 208.7C1334.4 201.9 1327.5 194.7 1321.6 187.1Z" fill="#A7CBD1"/>
<path d="M1354.6 1210.1C1344.1 1225.8 1332.5 1240.8 1320.5 1255.4C1311.6 1246.8 1302.7 1238.1 1294.3 1229C1303.6 1236.5 1312.5 1244.4 1321.3 1252.4L1319.3 1252.6C1330.5 1237.9 1342 1223.6 1354.6 1210.1Z" fill="#A7CBD1"/>
<path d="M201.8 506.4V471.1L131.2 388.8V365.3H319.4V388.8L248.8 471.1V541.7" fill="#E6EEEF"/>
<path d="M201.8 532.4C201.8 517.9 200.9 484.2 201.3 471.5C178.8 446.1 152 415.7 129.7 390L129.2 389.5V388.8L129 365.3V363.2H131.2L178.2 363C221.9 363 275.8 362.8 319.3 363.1H321.6V365.4L321.5 388.9V389.7L321 390.3L303.2 410.8C285.9 430.6 267 452.4 249.7 472L250 471.2C249.6 499.6 249.3 543.8 248.8 571.9C248.6 559.3 248.3 534.1 248.1 521.5L247.5 471.1V470.7C259.2 456.7 270.9 442.7 282.6 428.8C291.3 418.5 308.9 397.7 317.6 387.4L317.1 388.8L317 365.3L319.3 367.6C275.9 367.8 221.8 367.8 178.2 367.7L131.2 367.5L133.3 365.4L133.1 388.9L132.6 387.6L150.1 408.3C165.6 426.8 186.8 452.1 202.2 470.7C202.7 486 201.9 517 201.8 532.4Z" fill="#B8D6DD"/>
<path d="M266.6 553.4C252.4 544.5 238.3 534.5 224.7 524.7C211.2 514.8 197.3 504.3 184.6 493.5C198.8 502.3 212.9 512.4 226.5 522.2C240 532.1 253.9 542.6 266.6 553.4Z" fill="#A7CBD1"/>
</g>
<defs>
<clipPath id="clip0_101_952">
<rect width="1398.9" height="1214.6" fill="white" transform="translate(87 87)"/>
</clipPath>
</defs>
</svg>
