<?xml version="1.0" encoding="utf-8"?>
<!-- Generator: Adobe Illustrator 27.3.1, SVG Export Plug-In . SVG Version: 6.00 Build 0)  -->
<svg version="1.1" id="Laag_1" xmlns="http://www.w3.org/2000/svg" xmlns:xlink="http://www.w3.org/1999/xlink" x="0px" y="0px"
	 viewBox="0 0 1398.9 1214.6" style="enable-background:new 0 0 1398.9 1214.6;" xml:space="preserve">
<style type="text/css">
	.st0{fill:#FCFCFA;}
	.st1{fill:#FFFFFF;}
	.st2{fill:#EFF3F4;}
	.st3{fill:#A7CBD1;}
	.st4{fill:#C8E1E8;}
	.st5{opacity:0.75;}
	.st6{fill:#B8D6DD;}
	.st7{font-family:'Montserrat-Regular';}
	.st8{font-size:67.0643px;}
	.st9{fill:#E6EEEF;stroke:#A7CBD1;stroke-width:3;stroke-miterlimit:10;}
	.st10{display:none;fill:#E6EEEF;stroke:#A7CBD1;stroke-width:3;stroke-miterlimit:10;}
	.st11{fill:none;stroke:#A87390;stroke-width:3.4249;stroke-miterlimit:10;}
	.st12{fill:#E6EEEF;}
	.st13{opacity:0.85;filter:url(#Slide);}
	.st14{fill:#EFEDE6;}
	.st15{display:none;filter:url(#sun);}
	.st16{display:inline;fill:#E8D98B;}
	.st17{fill:#E8D98B;stroke:#C6814E;stroke-width:2;stroke-miterlimit:10;}
	.st18{fill:#C2CE9B;}
	.st19{fill:#8E9B67;}
	.st20{filter:url(#mountain);}
	.st21{fill:#BECC96;}
	.st22{fill:#D0E0A9;}
	.st23{fill:#808C57;}
	.st24{fill:#353531;}
	.st25{fill:#F7F7F5;stroke:#282722;stroke-width:1.7124;stroke-miterlimit:10;}
	.st26{filter:url(#Pion);}
	.st27{fill:#68644F;}
	.st28{fill:#1D1D1B;}
</style>
<filter  height="300%" id="sun" width="300%" x="-100%" y="-100%">
	<feOffset  dx="0" dy="0" in="SourceGraphic" result="offOut"></feOffset>
	<feColorMatrix  in="offOut" result="matrixOut" type="matrix" values="0.8 0 0 0 0 0 0.4 0 0 0 0 0 0.1 0 0 0 0 0 1 0">
		</feColorMatrix>
	<feGaussianBlur  in="matrixOut" result="blurOut" stdDeviation="15"></feGaussianBlur>
	<feBlend  in="SourceGraphic" in2="blurOut" mode="normal"></feBlend>
</filter>
<filter  height="150%" id="mountain" width="150%" x="-25%" y="-25%">
	<feOffset  dx="10" dy="-1" in="SourceGraphic" result="offOut"></feOffset>
	<feColorMatrix  in="offOut" result="matrixOut" type="matrix" values="0.3 0 0 0 0 0 0.3 0 0 0 0 0 0.2 0 0 0 0 0 0.5 0">
		</feColorMatrix>
	<feGaussianBlur  in="matrixOut" result="blurOut" stdDeviation="15"></feGaussianBlur>
	<feBlend  in="SourceGraphic" in2="blurOut" mode="normal"></feBlend>
</filter>
<filter  height="150%" id="Slide" width="150%" x="-25%" y="-25%">
	<feOffset  dx="5" dy="-5" in="SourceGraphic" result="offOut"></feOffset>
	<feColorMatrix  in="offOut" result="matrixOut" type="matrix" values="0.45 0 0 0 0 0 0.5 0 0 0 0 0 0.35 0 0 0 0 0 0.8 0">
		</feColorMatrix>
	<feGaussianBlur  in="matrixOut" result="blurOut" stdDeviation="16"></feGaussianBlur>
	<feBlend  in="SourceGraphic" in2="blurOut" mode="normal"></feBlend>
</filter>
<filter  height="200%" id="Pion" width="200%" x="-25%" y="-25%">
	<feOffset  dx="7" dy="-5" in="SourceGraphic" result="offOut"></feOffset>
	<feColorMatrix  in="offOut" result="matrixOut" type="matrix" values="0.6 0 0 0 0 0 0.6 0 0 0 0 0 0.3 0 0 0 0 0 0.9 0">
		</feColorMatrix>
	<feGaussianBlur  in="matrixOut" result="blurOut" stdDeviation="10"></feGaussianBlur>
	<feBlend  in="SourceGraphic" in2="blurOut" mode="normal"></feBlend>
</filter>
<g>
	<rect x="89.6" y="163.5" class="st0" width="1228.7" height="937.9"/>
</g>
<rect x="923.1" y="728.6" class="st1" width="309.1" height="231.4"/>
<rect x="557.7" y="728.6" class="st1" width="309.1" height="231.4"/>
<rect x="557.7" y="728.6" class="st1" width="309.1" height="231.4"/>
<rect x="923.1" y="449.3" class="st1" width="309.1" height="229.7"/>
<g>
	<rect x="89.6" y="68.5" class="st2" width="1228.7" height="95"/>
</g>
<rect x="144" y="234.9" class="st1" width="329.3" height="795"/>
<rect x="557.7" y="234.9" class="st1" width="674.5" height="118.1"/>
<g>
	<g>
		<path class="st3" d="M247.1,336.9c18.9-0.3,56.7-0.9,75.6-1c25.2-0.5,50.5-0.6,75.6,1.1c0,0,0,0.3,0,0.3c-3.2,0.2-6.3,0.4-9.5,0.5
			l-9.5,0.4c-18.9,0.7-37.8,0.5-56.7,0.2c-18.8-0.2-56.8-0.7-75.6-1C247.1,337.2,247.1,336.9,247.1,336.9L247.1,336.9z"/>
	</g>
	<g>
		<path class="st3" d="M203.2,397.8c58.9-0.4,124.3-2.5,183-0.5c4.1,0.2,8.1,0.3,12.2,0.5v0.3c-4.1,0.2-8.1,0.4-12.2,0.5
			c-28.4,1-57,1-85.4,0.5C276.6,398.7,226.7,399,203.2,397.8L203.2,397.8z"/>
	</g>
	<g>
		<path class="st3" d="M203.2,458.7c58.9-0.4,124.3-2.5,183-0.5c4.1,0.2,8.1,0.3,12.2,0.5v0.3c-4.1,0.2-8.1,0.4-12.2,0.5
			c-28.4,1-57,1-85.4,0.5C276.6,459.6,226.7,459.9,203.2,458.7L203.2,458.7z"/>
	</g>
	<g>
		<path class="st3" d="M203.2,514.2c58.9-0.4,124.3-2.5,183-0.5c4.1,0.2,8.1,0.3,12.2,0.5c0,0,0,0.3,0,0.3
			c-4.1,0.2-8.1,0.4-12.2,0.5c-28.4,1-57,1-85.4,0.5C276.6,515,226.7,515.4,203.2,514.2L203.2,514.2z"/>
	</g>
	<g>
		<path class="st3" d="M203.2,569.6c58.9-0.4,124.3-2.5,183-0.5c4.1,0.2,8.1,0.3,12.2,0.5v0.3c-4.1,0.2-8.1,0.4-12.2,0.5
			c-28.4,1-57,1-85.4,0.5C276.6,570.5,226.7,570.8,203.2,569.6L203.2,569.6z"/>
	</g>
</g>
<g>
	<path class="st4" d="M889.3,960.1c-110.1,2-221.5,2.1-331.6,0C667.8,958,779.1,958,889.3,960.1L889.3,960.1z"/>
</g>
<g class="st5">
	<path class="st4" d="M1232.1,679c-77.7,0.4-232.6,1.1-310.3,1.3c0,0,0-1.3,0-1.3s-0.2-229.7-0.2-229.7s0-1.5,0-1.5s1.5,0,1.5,0
		s154.5,0.2,154.5,0.2c39,0,116.5,0.1,155.6,0.3C1232.9,506,1232.5,621.2,1232.1,679L1232.1,679z M1232.1,679
		c-0.4-57.3-0.8-172.4-1-229.7c0,0,1,1,1,1c-38.5,0.2-116,0.3-154.5,0.3c0,0-154.5,0.2-154.5,0.2s1.5-1.5,1.5-1.5
		S924.4,679,924.4,679s-1.3-1.3-1.3-1.3C1000.1,677.9,1155.1,678.6,1232.1,679L1232.1,679z"/>
</g>
<g>
	<path class="st4" d="M1254.6,679c-110.1,2-221.5,2.1-331.6,0C1033.1,676.9,1144.4,676.9,1254.6,679L1254.6,679z"/>
</g>
<g>
	<g>
		<path class="st3" d="M0,68.5c448.1-2.3,950.8-2.3,1398.9,0C950.8,70.8,448.1,70.8,0,68.5L0,68.5z"/>
	</g>
	<g>
		<path class="st3" d="M28.2,163.5c429.5-2.3,911.4-2.3,1340.9,0C939.6,165.8,457.8,165.8,28.2,163.5L28.2,163.5z"/>
	</g>
	<g>
		<path class="st3" d="M59.3,1101.4c415.1-2.3,880.8-2.3,1296,0C940.2,1103.7,474.5,1103.7,59.3,1101.4L59.3,1101.4z"/>
	</g>
	<g>
		<path class="st3" d="M280.2,1197.3c338.3-2.3,715.8-2.3,1054,0C996.1,1199.6,618.4,1199.5,280.2,1197.3L280.2,1197.3z"/>
	</g>
	<g>
		<path class="st3" d="M1318.3,1212.8c-2.3-376.6-2.3-799.1,0-1175.8C1320.6,413.6,1320.6,836.1,1318.3,1212.8L1318.3,1212.8z"/>
	</g>
	<g>
		<path class="st3" d="M89.6,1188.9C87.3,808.1,87.3,380.8,89.6,0C91.9,380.8,91.9,808.1,89.6,1188.9L89.6,1188.9z"/>
	</g>
</g>
<g>
	<path class="st6" d="M1232.1,213c2,59.3,2.1,119.4,0,178.7C1230.1,332.4,1230.1,272.3,1232.1,213L1232.1,213z"/>
</g>
<g>
	<g>
		<g>
			<path class="st3" d="M507.9,1029.9c-90.8,0.4-273.2,1.3-364,1.3c0,0-1.3,0-1.3,0s0-1.3,0-1.3S142.5,822,142.5,822
				c0.1-151.1,0.2-369.5,1-519.8c0,0,0.5-104,0.5-104s0.5,104,0.5,104c0.4,67.8,0.6,241.5,0.8,311.9c0.2,103.6,0.1,312.3,0,415.9
				c0,0-1.3-1.3-1.3-1.3C234.6,1028.6,417.3,1029.5,507.9,1029.9L507.9,1029.9z"/>
		</g>
		<g>
			<path class="st3" d="M473.3,191.6c2,281.2,2,596.7,0,877.9C471.3,788.2,471.3,472.8,473.3,191.6L473.3,191.6z"/>
		</g>
		<g>
			<path class="st3" d="M121.4,234.9c126.1-2,255.2-2,381.3,0C376.6,237,247.5,236.9,121.4,234.9L121.4,234.9z"/>
		</g>
	</g>
	<g>
		<path class="st3" d="M557.7,961.7c-0.7-74-1.2-159.1-1.3-233.1c0,0,0-1.3,0-1.3s1.3,0,1.3,0c71.2-0.2,160.6-0.2,231.8,0
			c26.1,0,52.2,0.2,78.3,0.3c0,0,0,1,0,1s-0.4,122.6-0.4,122.6s-0.6,122.6-0.6,122.6l-0.6-122.6c0,0-0.4-122.6-0.4-122.6s1,1,1,1
			c-25.8,0.1-51.5,0.3-77.3,0.3c-43.9,0.1-111.2,0.2-154.5,0.1c0,0-77.3-0.1-77.3-0.1s1.3-1.3,1.3-1.3l-0.2,58.3
			C558.7,840.6,558.2,908.1,557.7,961.7L557.7,961.7z"/>
	</g>
	<g>
		<g class="st5">
			<path class="st3" d="M1232.1,960.4c-77.7,0.4-232.6,1.1-310.3,1.3c0,0,0-1.3,0-1.3s-0.2-231.8-0.2-231.8s0-1.5,0-1.5s1.5,0,1.5,0
				s154.5,0.2,154.5,0.2c39,0,116.5,0.1,155.6,0.3C1232.9,785.9,1232.5,902.1,1232.1,960.4L1232.1,960.4z M1232.1,960.4
				c-0.4-57.8-0.8-174-1-231.8c0,0,1,1,1,1c-38.5,0.2-116,0.3-154.5,0.3c0,0-154.5,0.2-154.5,0.2s1.5-1.5,1.5-1.5
				s-0.2,231.8-0.2,231.8s-1.3-1.3-1.3-1.3C1000.1,959.3,1155.1,960,1232.1,960.4L1232.1,960.4z"/>
		</g>
		<g>
			<path class="st3" d="M1232.1,728.6c2,80.9,2.1,162.9,0,243.8C1230.1,891.5,1230.1,809.5,1232.1,728.6L1232.1,728.6z"/>
		</g>
		<g>
			<path class="st3" d="M923.1,960.4c-2-76.9-2.1-154.9,0-231.8C925.2,805.6,925.1,883.5,923.1,960.4L923.1,960.4z"/>
		</g>
		<g>
			<path class="st3" d="M1254.7,960.4c-110.1,2-221.5,2.1-331.6,0C1033.2,958.4,1144.6,958.4,1254.7,960.4L1254.7,960.4z"/>
		</g>
	</g>
	<g>
		<path class="st3" d="M923.1,681.1c-0.7-73.6-1.2-158.2-1.3-231.8c0,0,0-1.3,0-1.3s1.3,0,1.3,0c99.7-0.2,209.6-0.2,309.1,0.3
			c0,0,1,0,1,0s0,1,0,1c-0.2,60.7-0.6,183.1-1,243.8c0,0-0.6-121.9-0.6-121.9l-0.4-121.9c0,0,1,1,1,1c-25.8,0.1-51.5,0.3-77.3,0.3
			c-71.2,0.2-160.6,0.2-231.8,0c0,0,1.3-1.3,1.3-1.3s-0.2,57.9-0.2,57.9C924.1,560.6,923.6,627.7,923.1,681.1L923.1,681.1z"/>
	</g>
	<g>
		<path class="st3" d="M1260.2,353.1c-239,2-504.7,2-743.8,0C755.5,351.1,1021.1,351.1,1260.2,353.1L1260.2,353.1z"/>
	</g>
	<g>
		<path class="st3" d="M557.7,394.7l-0.5-159.7c0,0,0-0.5,0-0.5s0.5,0,0.5,0c51-0.4,131.8-0.6,183.5-0.8
			c175-0.3,376.2-0.3,550.4,1.3c-174,1.5-375.6,1.6-550.4,1.3c-51.7-0.2-132.3-0.4-183.5-0.8C558.4,232.7,557.7,395.2,557.7,394.7
			L557.7,394.7z"/>
	</g>
</g>
<g>
	<path class="st3" d="M607.6,259.9c1.6,11.3,1.9,22.7,2,34.1c0,11.4-0.4,22.8-2,34.1c-1.6-11.3-2-22.7-2-34.1
		C605.7,282.6,606,271.2,607.6,259.9L607.6,259.9z"/>
</g>
<text transform="matrix(1 0 0 1 644.0203 318.1074)" class="st3 st7 st8">...</text>
<g>
	<g>
		<polygon class="st9" points="1247.3,395.8 1267.3,375.7 1281.5,390.7 1261.4,410.8 		"/>
		<path class="st9" d="M1249.3,377.7c-41.4,41.4-108.6,41.4-150,0c-41.4-41.4-41.4-108.6,0-150c41.4-41.4,108.6-41.4,150,0
			C1290.7,269.1,1290.7,336.3,1249.3,377.7z M1260.7,216.3c-47.7-47.7-125.1-47.7-172.8,0c-47.7,47.7-47.7,125.1,0,172.8
			c47.7,47.7,125.1,47.7,172.8,0C1308.4,341.4,1308.4,264,1260.7,216.3z"/>
		<path class="st10" d="M1246.3,374.7c-39.8,39.8-104.2,39.8-144,0s-39.8-104.2,0-144c39.8-39.8,104.2-39.8,144,0
			C1286.1,270.5,1286,334.9,1246.3,374.7z M1252,224.9c-42.9-42.9-112.6-42.9-155.5,0c-42.9,42.9-42.9,112.6,0,155.5
			c43,42.9,112.6,42.9,155.5,0C1295,337.5,1295,267.9,1252,224.9z"/>
		<polygon class="st9" points="1261.4,410.8 1281.5,390.7 1363.5,473.6 1343.5,493.6 		"/>
	</g>
</g>
<path class="st11" d="M571,667.8c0,0-43.3,27.9-44.4,30.9"/>
<g>
	<path class="st9" d="M521.3,699.3H459c-7.1,0-13.9,2.8-18.9,7.8l-73.3,73.3c-10.4,10.4-10.4,27.3,0,37.7l55.6,55.6
		c10.4,10.4,27.3,10.4,37.7,0l73.3-73.3c5-5,7.8-11.8,7.8-18.9v-62.2C541.3,708.2,532.3,699.3,521.3,699.3z M507.9,745.9
		c0,7.4-6,13.3-13.3,13.3c-7.4,0-13.3-6-13.3-13.3s6-13.3,13.3-13.3C502,732.6,507.9,738.5,507.9,745.9z"/>
	<g>
		<g>
			<line class="st12" x1="443.4" y1="759.2" x2="399.7" y2="803"/>
			<path class="st3" d="M443.4,759.2c-6.3,8-13.6,15.7-20.8,22.9c-7.3,7.2-14.9,14.5-22.9,20.8c6.3-8,13.6-15.7,20.8-22.9
				C427.7,772.9,435.4,765.6,443.4,759.2L443.4,759.2z"/>
		</g>
		<g>
			<line class="st12" x1="460.3" y1="776.2" x2="416.6" y2="819.9"/>
			<path class="st3" d="M460.3,776.2c-6.3,8-13.6,15.7-20.8,22.9c-7.3,7.2-14.9,14.5-22.9,20.8c6.3-8,13.6-15.7,20.8-22.9
				C444.7,789.8,452.3,782.5,460.3,776.2L460.3,776.2z"/>
		</g>
		<g>
			<line class="st12" x1="477.1" y1="792.9" x2="433.3" y2="836.6"/>
			<path class="st3" d="M477.1,792.9c-6.3,8-13.6,15.7-20.8,22.9c-7.3,7.2-14.9,14.5-22.9,20.8c6.3-8,13.6-15.7,20.8-22.9
				C461.4,806.6,469,799.2,477.1,792.9L477.1,792.9z"/>
		</g>
	</g>
</g>
<g>
	<g class="st13">
		<rect x="557.7" y="449.3" class="st14" width="306.2" height="229.7"/>
	</g>
	<g class="st15">
		<circle class="st16" cx="809.3" cy="503.2" r="19.2"/>
	</g>
	<circle class="st17" cx="809.3" cy="503.2" r="19.4"/>
	<polygon class="st18" points="623.9,679 753.4,546 863.9,646.2 863.9,679 	"/>
	<g>
		<polygon class="st1" points="790.5,579.7 753.5,546 720.3,580 		"/>
	</g>
	<g>
		<path class="st19" d="M753.4,546l110.5,100.2V679h-240L753.4,546 M753.3,543.2l-1.3,1.4l-129.5,133l-3.3,3.4h4.7h240h2v-2v-32.8
			v-0.9l-0.7-0.6L754.8,544.5L753.3,543.2L753.3,543.2z"/>
	</g>
	<g class="st20">
		<polygon class="st21" points="560.8,675.9 560.8,583.9 622,521.1 782.9,675.9 		"/>
	</g>
	<polygon class="st22" points="557.7,582.7 621.9,516.8 790.5,679 557.7,679 	"/>
	<g>
		<polygon class="st1" points="670,563 621.9,516.8 576.8,563 		"/>
	</g>
	<g>
		<path class="st23" d="M621.9,516.8L790.5,679H557.7v-96.3L621.9,516.8 M621.8,513.9l-1.4,1.4l-64.2,65.9l-0.6,0.6v0.8V679v2h2
			h232.8h5l-3.6-3.4L623.3,515.3L621.8,513.9L621.8,513.9z"/>
	</g>
	<g>
		<path class="st24" d="M863.9,449.3V679H557.7V449.3H863.9 M866.9,446.3h-3H557.7h-3v3V679v3h3h306.2h3v-3V449.3V446.3L866.9,446.3
			z"/>
	</g>
</g>
<g>
	<g>
		<path class="st3" d="M1196.3,503.2c0.2,13.8-14.2,23.9-27.2,18.9c-17.3-6.6-17.3-31.2,0-37.8
			C1182,479.3,1196.5,489.3,1196.3,503.2L1196.3,503.2z M1196.3,503.2c-0.1-16.9-20.6-25-32.2-12.8c-6.8,6.9-6.8,18.7,0,25.6
			C1175.7,528.1,1196.2,520.1,1196.3,503.2L1196.3,503.2z"/>
	</g>
	<g>
		<path class="st3" d="M915.7,586.9c20.6-20.8,51.1-50.2,72.3-71c0,0,0.9-0.9,0.9-0.9s0.9,0.9,0.9,0.9l22.1,21.1
			c43.6,41.7,88.7,85.3,131.5,127.7c7.2,7.2,14.5,14.3,21.6,21.6c-7.5-6.9-14.9-13.8-22.4-20.8c-44-41.1-89.4-84.5-132.7-126.4
			c0,0-21.9-21.3-21.9-21.3l1.8,0C968.1,538.2,937.3,566.9,915.7,586.9L915.7,586.9z"/>
	</g>
	<g>
		<path class="st3" d="M1061.5,607.7c18.8-20.5,39.8-42.5,59.1-62.7c0,0,0.9-1,0.9-1s1,0.9,1,0.9c33.7,30.3,67.8,61.3,100.7,92.5
			c4.7,4.5,9.5,9,14.1,13.5c-5-4.2-9.9-8.5-14.8-12.8c-34.2-29.7-68.5-60.6-101.9-91.2c0,0,1.9-0.1,1.9-0.1l-15.1,15.3
			C1092.8,577.1,1076.5,593.3,1061.5,607.7L1061.5,607.7z"/>
	</g>
</g>
<g>
	<g>
		<path class="st3" d="M1196.3,786.4c0.2,13.8-14.2,23.9-27.2,18.9c-17.3-6.6-17.3-31.2,0-37.8
			C1182,762.5,1196.5,772.6,1196.3,786.4L1196.3,786.4z M1196.3,786.4c-0.1-16.9-20.6-25-32.2-12.8c-6.8,6.9-6.8,18.7,0,25.6
			C1175.7,811.4,1196.2,803.3,1196.3,786.4L1196.3,786.4z"/>
	</g>
	<g>
		<path class="st3" d="M915.7,870.1c20.6-20.8,51.1-50.2,72.3-71c0,0,0.9-0.9,0.9-0.9s0.9,0.9,0.9,0.9l22.1,21.1
			c43.6,41.7,88.7,85.3,131.5,127.7c7.2,7.2,14.5,14.3,21.6,21.6c-7.5-6.9-14.9-13.8-22.4-20.8c-44-41.1-89.4-84.5-132.7-126.4
			c0,0-21.9-21.3-21.9-21.3s1.8,0,1.8,0C968.1,821.5,937.3,850.1,915.7,870.1L915.7,870.1z"/>
	</g>
	<g>
		<path class="st3" d="M1061.5,890.9c18.8-20.5,39.8-42.5,59.1-62.7c0,0,0.9-1,0.9-1l1,0.9c33.7,30.3,67.8,61.3,100.7,92.5
			c4.7,4.5,9.5,9,14.1,13.5c-5-4.2-9.9-8.5-14.8-12.8c-34.2-29.7-68.5-60.6-101.9-91.2c0,0,1.9-0.1,1.9-0.1s-15.1,15.3-15.1,15.3
			C1092.8,860.3,1076.5,876.5,1061.5,890.9L1061.5,890.9z"/>
	</g>
</g>
<g>
	<g>
		<path class="st3" d="M832,786.4c0.2,13.8-14.2,23.9-27.2,18.9c-17.3-6.6-17.3-31.2,0-37.8C817.7,762.5,832.2,772.6,832,786.4
			L832,786.4z M832,786.4c-0.1-16.9-20.6-25-32.2-12.8c-6.8,6.9-6.8,18.7,0,25.6C811.3,811.4,831.9,803.3,832,786.4L832,786.4z"/>
	</g>
	<g>
		<path class="st3" d="M551.3,870.1c20.6-20.8,51.1-50.2,72.3-71c0,0,0.9-0.9,0.9-0.9l0.9,0.9l22.1,21.1
			c43.6,41.7,88.7,85.3,131.5,127.7c7.2,7.2,14.5,14.3,21.6,21.6c-7.5-6.9-14.9-13.8-22.4-20.8c-44-41.1-89.4-84.5-132.7-126.4
			c0,0-21.9-21.3-21.9-21.3s1.8,0,1.8,0C603.8,821.5,573,850.1,551.3,870.1L551.3,870.1z"/>
	</g>
	<g>
		<path class="st3" d="M697.2,890.9c18.8-20.5,39.8-42.5,59.1-62.7c0,0,0.9-1,0.9-1l1,0.9C792,858.5,826,889.5,859,920.7
			c4.7,4.5,9.5,9,14.1,13.5c-5-4.2-9.9-8.5-14.8-12.8c-34.2-29.7-68.5-60.6-101.9-91.2c0,0,1.9-0.1,1.9-0.1l-15.1,15.3
			C728.5,860.3,712.1,876.5,697.2,890.9L697.2,890.9z"/>
	</g>
</g>
<circle class="st25" cx="575.3" cy="661.9" r="8.2"/>
<path class="st11" d="M502.7,739.9c-0.6,13.3,80.7-67.8,69.4-73.1c0,0-1.6-0.7-2.7,0.4"/>
<g>
	<g class="st26">
		<polygon class="st27" points="861,725.9 840.6,754.2 826.4,656 906.6,714.3 872.1,719.2 915.5,791 904.4,797.7 		"/>
	</g>
	<g>
		<polygon class="st28" points="860.6,735.8 837.2,768.3 819.1,644 920.7,717.8 881.1,723.5 923,792.8 902.5,805.2 		"/>
		<path class="st1" d="M822.4,649.5l91.9,66.8l-29.9,4.3l-7.4,1.1l3.9,6.4l38.7,64.1l-16.3,9.8l-38.7-64.1l-3.9-6.4l-4.4,6
			l-17.7,24.5L822.4,649.5 M815.8,638.6l19.8,136.1l24.8-34.4l41.3,68.3l24.7-14.9l-41.3-68.3l42-6L815.8,638.6L815.8,638.6z"/>
	</g>
</g>
<g>
	<g>
		<g>
			<path class="st3" d="M1153.8,1126.1c-7.1,8.8-15.3,17.3-23.3,25.4c-8.1,8-16.6,16.2-25.4,23.3c7.1-8.8,15.3-17.3,23.3-25.4
				C1136.4,1141.4,1144.9,1133.2,1153.8,1126.1L1153.8,1126.1z"/>
		</g>
		<g>
			<path class="st3" d="M1106,1126.1c8.8,7.1,17.3,15.3,25.4,23.3c8,8.1,16.2,16.6,23.3,25.4c-8.8-7.1-17.3-15.3-25.4-23.3
				C1121.3,1143.4,1113.2,1134.9,1106,1126.1L1106,1126.1z"/>
		</g>
	</g>
	<g>
		<path class="st3" d="M1184,141.4c-16.7,0.4-41.5,1.1-58,1.3c-0.1-10.9-0.2-31.6-0.2-42.6c0,0,0-1.5,0-1.5c10,0,19.9,0,29.9,0.1
			c7.6,0.1,21.9,0.2,29.5,0.3C1184.9,111.3,1184.3,129,1184,141.4L1184,141.4z M1184,141.4c-0.4-11.9-0.8-29.6-1.1-41.3
			c0,0,1.1,1.1,1.1,1.1c-7.1,0.1-21.3,0.3-28.4,0.3c-9.5,0.1-18.9,0.1-28.4,0.1c0,0,1.5-1.5,1.5-1.5c0,10.3-0.1,31-0.2,41.3
			c0,0-1.3-1.3-1.3-1.3C1143,140.3,1168,140.9,1184,141.4L1184,141.4z"/>
	</g>
	<g>
		<path class="st3" d="M1074.2,118.7c-8,1.2-16.4,1.4-24.5,1.5c-8.2,0-16.4-0.3-24.5-1.5c8.1-1.2,16.3-1.5,24.5-1.5
			C1057.8,117.3,1066.2,117.5,1074.2,118.7L1074.2,118.7z"/>
	</g>
	<g>
		<g>
			<path class="st3" d="M1274.9,100.1c-5.9,7.6-12.8,14.8-19.5,21.6c-6.8,6.7-14,13.6-21.6,19.5c5.9-7.6,12.8-14.8,19.5-21.6
				C1260.1,112.9,1267.3,106,1274.9,100.1L1274.9,100.1z"/>
		</g>
		<g>
			<path class="st3" d="M1234.6,100.1c7.6,5.9,14.8,12.8,21.6,19.5c6.7,6.8,13.6,14,19.5,21.6c-7.6-5.9-14.8-12.8-21.6-19.5
				C1247.4,114.9,1240.5,107.7,1234.6,100.1L1234.6,100.1z"/>
		</g>
	</g>
	<g>
		<path class="st3" d="M1267.6,1123.1c-10.5,15.7-22.1,30.7-34.1,45.3c-8.9-8.6-17.8-17.3-26.2-26.4c9.3,7.5,18.2,15.4,27,23.4
			c0,0-2,0.2-2,0.2C1243.5,1150.9,1255,1136.6,1267.6,1123.1L1267.6,1123.1z"/>
	</g>
</g>
<path class="st12" d="M114.8,419.4v-35.3l-70.6-82.3v-23.5h188.2v23.5l-70.6,82.3v70.6"/>
<g>
	<path class="st6" d="M114.8,445.4c0-14.5-0.9-48.2-0.5-60.9c-22.5-25.4-49.3-55.8-71.6-81.5c0,0-0.5-0.5-0.5-0.5l0-0.7
		c0,0-0.2-23.5-0.2-23.5s0-2.1,0-2.1s2.2,0,2.2,0l47-0.2c43.7,0,97.6-0.2,141.1,0.1c0,0,2.3,0,2.3,0s0,2.3,0,2.3s-0.1,23.5-0.1,23.5
		l0,0.8c0,0-0.5,0.6-0.5,0.6s-17.8,20.5-17.8,20.5c-17.3,19.8-36.2,41.6-53.5,61.2c0,0,0.3-0.8,0.3-0.8
		c-0.4,28.4-0.7,72.6-1.2,100.7c-0.2-12.6-0.5-37.8-0.7-50.4c0,0-0.6-50.4-0.6-50.4s0-0.4,0-0.4c11.7-14,23.4-28,35.1-41.9
		c8.7-10.3,26.3-31.1,35-41.4c0,0-0.5,1.4-0.5,1.4s-0.1-23.5-0.1-23.5s2.3,2.3,2.3,2.3c-43.4,0.2-97.5,0.2-141.1,0.1
		c0,0-47-0.2-47-0.2s2.1-2.1,2.1-2.1s-0.2,23.5-0.2,23.5s-0.5-1.3-0.5-1.3s17.5,20.7,17.5,20.7c15.5,18.5,36.7,43.8,52.1,62.4
		C115.7,399,114.9,430,114.8,445.4L114.8,445.4z"/>
</g>
<g>
	<path class="st3" d="M179.6,466.4c-14.2-8.9-28.3-18.9-41.9-28.7c-13.5-9.9-27.4-20.4-40.1-31.2c14.2,8.8,28.3,18.9,41.9,28.7
		C153,445.1,166.9,455.6,179.6,466.4L179.6,466.4z"/>
</g>
</svg>
