<svg width="1573" height="1390" viewBox="0 0 1573 1390" fill="none" xmlns="http://www.w3.org/2000/svg">
<g clip-path="url(#clip0_101_952)">
<path d="M1489.5 238.3H181.7V320.7H1489.5V238.3Z" fill="#EFF3F4"/>
<path d="M1344.3 297.8C1328.7 298.3 1306.7 299.1 1291.3 299.3C1291.2 289.2 1291 270.4 1291 260.3V258.5C1300.2 258.6 1309.4 258.5 1318.5 258.6C1325.5 258.7 1338.5 258.8 1345.5 259C1345.5 270.6 1344.7 286.2 1344.3 297.8ZM1344.3 297.8C1344 291.2 1343.6 275.8 1343.3 269.5C1343.2 266.4 1343.1 263.4 1343.1 260.3L1344.3 261.5C1337.9 261.6 1325 261.8 1318.5 261.9C1309.9 262 1301.3 262 1292.7 262L1294.4 260.3C1294.4 269.6 1294.3 288.5 1294.1 297.8L1292.6 296.3C1307.4 296.6 1329.6 297.3 1344.3 297.8Z" fill="#A7CBD1"/>
<path d="M1244.7 277.2C1237.3 278.6 1229.9 278.9 1222.4 278.9C1214.9 278.9 1207.5 278.5 1200.1 277.2C1207.5 275.8 1214.9 275.5 1222.4 275.5C1229.9 275.5 1237.3 275.8 1244.7 277.2Z" fill="#A7CBD1"/>
<path d="M1426.9 260.3C1421.7 267.5 1415.7 273.9 1409.5 280.2C1403.2 286.4 1396.8 292.4 1389.6 297.6C1394.8 290.4 1400.8 284 1407 277.7C1413.3 271.5 1419.7 265.5 1426.9 260.3Z" fill="#A7CBD1"/>
<path d="M1390.3 260.3C1397.5 265.5 1403.9 271.5 1410.2 277.7C1416.4 284 1422.4 290.4 1427.6 297.6C1420.4 292.4 1414 286.4 1407.7 280.2C1401.5 274 1395.5 267.5 1390.3 260.3Z" fill="#A7CBD1"/>
<path d="M133.3 321C577.8 318.7 1076.4 318.7 1521 321C1076.4 323.3 577.8 323.3 133.3 321Z" fill="#A7CBD1"/>
<path d="M113.5 238.3C579.8 236 1102.8 236 1569.1 238.3C1102.8 240.6 579.8 240.6 113.5 238.3Z" fill="#A7CBD1"/>
<path d="M181.7 155.1C184 502.7 184 892.6 181.7 1240.2C179.4 892.6 179.5 502.7 181.7 155.1Z" fill="#A7CBD1"/>
<path d="M85.9 1151.7C432.4 1151.1 821.1 1153.1 1167.6 1157.1C821.1 1157.7 432.4 1155.7 85.9 1151.7Z" fill="#A7CBD1"/>
<path d="M1489.5 149C1491.8 423.5 1491.9 704.3 1489.5 978.8C1487.2 704.3 1487.2 423.5 1489.5 149Z" fill="#A7CBD1"/>
<path d="M373.1 411.6C375.4 677.3 375.5 949.2 373.1 1214.8C370.8 949.1 370.8 677.3 373.1 411.6Z" fill="#A7CBD1"/>
<path d="M1390.3 426C1392.6 659.9 1392.7 899.2 1390.3 1133C1387.9 899.1 1387.9 659.8 1390.3 426Z" fill="#A7CBD1"/>
<path d="M159.1 455.8C610.7 453.5 1117.4 453.5 1569 455.8C1117.4 458.1 610.8 458.1 159.1 455.8Z" fill="#A7CBD1"/>
<path d="M334.8 1079.9C691.9 1077.6 1092.5 1077.6 1449.6 1079.9C1092.5 1082.2 691.9 1082.2 334.8 1079.9Z" fill="#A7CBD1"/>
<path opacity="0.5" d="M1058.7 344.2H675.7V431.9H1058.7V344.2Z" fill="white"/>
<path d="M1058.7 343H1045.4V344.2H1058.7V343ZM1032.1 343H1018.8V344.2H1032.1V343ZM1005.6 343H992.3V344.2H1005.6V343ZM979 343H965.7V344.2H979V343ZM952.4 343H939.1V344.2H952.4V343ZM925.9 343H912.6V344.2H925.9V343ZM899.3 343H886V344.2H899.3V343ZM872.7 343H859.4V344.2H872.7V343ZM846.1 343H832.8V344.2H846.1V343ZM819.6 343H806.3V344.2H819.6V343ZM793 343H779.7V344.2H793V343ZM766.4 343H753.1V344.2H766.4V343ZM739.9 343H726.6V344.2H739.9V343ZM713.3 343H700V344.2H713.3V343ZM686.7 343H675.6H674.4V344.2V346.4H675.6V344.2H686.7V343ZM675.7 359.7H674.5V373H675.7V359.7ZM675.7 386.2H674.5V399.5H675.7V386.2ZM675.7 412.8H674.5V426.1H675.7V412.8ZM696.5 431.9H683.2V433.1H696.5V431.9ZM723 431.9H709.7V433.1H723V431.9ZM749.6 431.9H736.3V433.1H749.6V431.9ZM776.2 431.9H762.9V433.1H776.2V431.9ZM802.7 431.9H789.4V433.1H802.7V431.9ZM829.3 431.9H816V433.1H829.3V431.9ZM855.9 431.9H842.6V433.1H855.9V431.9ZM882.4 431.9H869.1V433.1H882.4V431.9ZM909 431.9H895.7V433.1H909V431.9ZM935.6 431.9H922.3V433.1H935.6V431.9ZM962.2 431.9H948.9V433.1H962.2V431.9ZM988.7 431.9H975.4V433.1H988.7V431.9ZM1015.3 431.9H1002V433.1H1015.3V431.9ZM1041.9 431.9H1028.6V433.1H1041.9V431.9ZM1059.9 422.2H1058.7V431.9H1055.1V433.1H1058.7H1059.9V431.9V422.2ZM1059.9 395.6H1058.7V408.9H1059.9V395.6ZM1059.9 369H1058.7V382.3H1059.9V369ZM1059.9 344.2H1058.7V355.8H1059.9V344.2Z" fill="#1D1D1B"/>
<path d="M549.1 543L675.7 431.9" stroke="#1D1D1B" stroke-width="1.1865" stroke-miterlimit="10" stroke-dasharray="13.28 13.28"/>
<path opacity="0.75" d="M1220.4 543H2V874.4H1220.4V543Z" fill="white"/>
<path d="M1220.4 541.8H1207.1V543H1220.4V541.8ZM1193.8 541.8H1180.5V543H1193.8V541.8ZM1167.3 541.8H1154V543H1167.3V541.8ZM1140.7 541.8H1127.4V543H1140.7V541.8ZM1114.1 541.8H1100.8V543H1114.1V541.8ZM1087.6 541.8H1074.3V543H1087.6V541.8ZM1061 541.8H1047.7V543H1061V541.8ZM1034.4 541.8H1021.1V543H1034.4V541.8ZM1007.8 541.8H994.5V543H1007.8V541.8ZM981.3 541.8H968V543H981.3V541.8ZM954.7 541.8H941.4V543H954.7V541.8ZM928.1 541.8H914.8V543H928.1V541.8ZM901.6 541.8H888.3V543H901.6V541.8ZM875 541.8H861.7V543H875V541.8ZM848.4 541.8H835.1V543H848.4V541.8ZM821.9 541.8H808.6V543H821.9V541.8ZM795.3 541.8H782V543H795.3V541.8ZM768.7 541.8H755.4V543H768.7V541.8ZM742.2 541.8H728.9V543H742.2V541.8ZM715.6 541.8H702.3V543H715.6V541.8ZM689 541.8H675.7V543H689V541.8ZM662.4 541.8H649.1V543H662.4V541.8ZM635.9 541.8H622.6V543H635.9V541.8ZM609.3 541.8H596V543H609.3V541.8ZM582.7 541.8H569.4V543H582.7V541.8ZM556.2 541.8H542.9V543H556.2V541.8ZM529.6 541.8H516.3V543H529.6V541.8ZM503 541.8H489.7V543H503V541.8ZM476.5 541.8H463.2V543H476.5V541.8ZM449.9 541.8H436.6V543H449.9V541.8ZM423.3 541.8H410V543H423.3V541.8ZM396.8 541.8H383.5V543H396.8V541.8ZM370.2 541.8H356.9V543H370.2V541.8ZM343.6 541.8H330.3V543H343.6V541.8ZM317 541.8H303.7V543H317V541.8ZM290.5 541.8H277.2V543H290.5V541.8ZM263.9 541.8H250.6V543H263.9V541.8ZM237.3 541.8H224V543H237.3V541.8ZM210.8 541.8H197.5V543H210.8V541.8ZM184.2 541.8H170.9V543H184.2V541.8ZM157.6 541.8H144.3V543H157.6V541.8ZM131.1 541.8H117.8V543H131.1V541.8ZM104.5 541.8H91.2V543H104.5V541.8ZM77.9 541.8H64.6V543H77.9V541.8ZM51.4001 541.8H38.1V543H51.4001V541.8ZM24.8 541.8H11.5V543H24.8V541.8ZM2.00005 546.8H0.800049V560.1H2.00005V546.8ZM2.00005 573.4H0.800049V586.7H2.00005V573.4ZM2.00005 599.9H0.800049V613.2H2.00005V599.9ZM2.00005 626.5H0.800049V639.8H2.00005V626.5ZM2.00005 653.1H0.800049V666.4H2.00005V653.1ZM2.00005 679.6H0.800049V692.9H2.00005V679.6ZM2.00005 706.2H0.800049V719.5H2.00005V706.2ZM2.00005 732.8H0.800049V746.1H2.00005V732.8ZM2.00005 759.3H0.800049V772.6H2.00005V759.3ZM2.00005 785.9H0.800049V799.2H2.00005V785.9ZM2.00005 812.5H0.800049V825.8H2.00005V812.5ZM2.00005 839.1H0.800049V852.4H2.00005V839.1ZM2.00005 865.6H0.800049V874.4V875.6H2.00005H6.50005V874.4H2.00005V865.6ZM33.1 874.4H19.8V875.6H33.1V874.4ZM59.6 874.4H46.4001V875.6H59.7001V874.4H59.6ZM86.2 874.4H72.9V875.6H86.2V874.4ZM112.8 874.4H99.5V875.6H112.8V874.4ZM139.3 874.4H126V875.6H139.3V874.4ZM165.9 874.4H152.6V875.6H165.9V874.4ZM192.5 874.4H179.2V875.6H192.5V874.4ZM219.1 874.4H205.8V875.6H219.1V874.4ZM245.6 874.4H232.3V875.6H245.6V874.4ZM272.2 874.4H258.9V875.6H272.2V874.4ZM298.8 874.4H285.5V875.6H298.8V874.4ZM325.3 874.4H312V875.6H325.3V874.4ZM351.9 874.4H338.6V875.6H351.9V874.4ZM378.5 874.4H365.2V875.6H378.5V874.4ZM405 874.4H391.7V875.6H405V874.4ZM431.6 874.4H418.3V875.6H431.6V874.4ZM458.2 874.4H444.9V875.6H458.2V874.4ZM484.7 874.4H471.4V875.6H484.7V874.4ZM511.3 874.4H498V875.6H511.3V874.4ZM537.9 874.4H524.6V875.6H537.9V874.4ZM564.5 874.4H551.2V875.6H564.5V874.4ZM591 874.4H577.7V875.6H591V874.4ZM617.6 874.4H604.3V875.6H617.6V874.4ZM644.2 874.4H630.9V875.6H644.2V874.4ZM670.7 874.4H657.4V875.6H670.7V874.4ZM697.3 874.4H684V875.6H697.3V874.4ZM723.9 874.4H710.6V875.6H723.9V874.4ZM750.4 874.4H737.1V875.6H750.4V874.4ZM777 874.4H763.7V875.6H777V874.4ZM803.6 874.4H790.3V875.6H803.6V874.4ZM830.1 874.4H816.8V875.6H830.1V874.4ZM856.7 874.4H843.4V875.6H856.7V874.4ZM883.3 874.4H870V875.6H883.3V874.4ZM909.9 874.4H896.6V875.6H909.9V874.4ZM936.4 874.4H923.1V875.6H936.4V874.4ZM963 874.4H949.7V875.6H963V874.4ZM989.6 874.4H976.3V875.6H989.6V874.4ZM1016.1 874.4H1002.8V875.6H1016.1V874.4ZM1042.7 874.4H1029.4V875.6H1042.7V874.4ZM1069.3 874.4H1056V875.6H1069.3V874.4ZM1095.8 874.4H1082.5V875.6H1095.8V874.4ZM1122.4 874.4H1109.1V875.6H1122.4V874.4ZM1149 874.4H1135.7V875.6H1149V874.4ZM1175.5 874.4H1162.2V875.6H1175.5V874.4ZM1202.1 874.4H1188.8V875.6H1202.1V874.4ZM1221.6 866.1H1220.4V874.4H1215.4V875.6H1220.4H1221.6V874.4V866.1ZM1221.6 839.5H1220.4V852.8H1221.6V839.5ZM1221.6 813H1220.4V826.3H1221.6V813ZM1221.6 786.4H1220.4V799.7H1221.6V786.4ZM1221.6 759.8H1220.4V773.1H1221.6V759.8ZM1221.6 733.3H1220.4V746.6H1221.6V733.3ZM1221.6 706.7H1220.4V720H1221.6V706.7ZM1221.6 680.1H1220.4V693.4H1221.6V680.1ZM1221.6 653.6H1220.4V666.9H1221.6V653.6ZM1221.6 627H1220.4V640.3H1221.6V627ZM1221.6 600.4H1220.4V613.7H1221.6V600.4ZM1221.6 573.9H1220.4V587.2H1221.6V573.9ZM1221.6 547.3H1220.4V560.6H1221.6V547.3Z" fill="#1D1D1B"/>
<path d="M758.2 655.9H449.9C447.1 655.9 444.8 653.6 444.8 650.8V607.9C444.8 605.1 447.1 602.8 449.9 602.8H758.2C761 602.8 763.3 605.1 763.3 607.9V650.8C763.3 653.6 761 655.9 758.2 655.9Z" fill="white" stroke="#A7CBD1" stroke-width="2" stroke-miterlimit="10"/>
<path d="M758.9 736.5H449.1C446.7 736.5 444.7 734.5 444.7 732.1V687.8C444.7 685.4 446.7 683.4 449.1 683.4H758.9C761.3 683.4 763.3 685.4 763.3 687.8V732.1C763.3 734.6 761.3 736.5 758.9 736.5Z" fill="white" stroke="#A7CBD1" stroke-width="2" stroke-miterlimit="10"/>
<path d="M758.3 817.2H449.7C447 817.2 444.8 815 444.8 812.3V769.1C444.8 766.4 447 764.2 449.7 764.2H758.3C761 764.2 763.2 766.4 763.2 769.1V812.3C763.3 815 761.1 817.2 758.3 817.2Z" fill="white" stroke="#A7CBD1" stroke-width="2" stroke-miterlimit="10"/>
<path d="M377.1 655.9H68.8C66 655.9 63.7 653.6 63.7 650.8V607.9C63.7 605.1 66 602.8 68.8 602.8H377.1C379.9 602.8 382.2 605.1 382.2 607.9V650.8C382.2 653.6 379.9 655.9 377.1 655.9Z" fill="white" stroke="#A7CBD1" stroke-width="2" stroke-miterlimit="10"/>
<path d="M377.2 817.2H68.5999C65.8999 817.2 63.7 815 63.7 812.3V769.1C63.7 766.4 65.8999 764.2 68.5999 764.2H377.2C379.9 764.2 382.1 766.4 382.1 769.1V812.3C382.2 815 380 817.2 377.2 817.2Z" fill="white" stroke="#A7CBD1" stroke-width="2" stroke-miterlimit="10"/>
<path d="M1148.8 655.9H840.4C837.6 655.9 835.3 653.6 835.3 650.8V607.9C835.3 605.1 837.6 602.8 840.4 602.8H1148.7C1151.5 602.8 1153.8 605.1 1153.8 607.9V650.8C1153.8 653.6 1151.6 655.9 1148.8 655.9Z" fill="white" stroke="#A7CBD1" stroke-width="2" stroke-miterlimit="10"/>
<path d="M1149.5 736.5H839.7C837.3 736.5 835.3 734.5 835.3 732.1V687.8C835.3 685.4 837.3 683.4 839.7 683.4H1149.5C1151.9 683.4 1153.9 685.4 1153.9 687.8V732.1C1153.8 734.6 1151.9 736.5 1149.5 736.5Z" fill="white" stroke="#A7CBD1" stroke-width="2" stroke-miterlimit="10"/>
<path d="M1148.9 817.2H840.3C837.6 817.2 835.4 815 835.4 812.3V769.1C835.4 766.4 837.6 764.2 840.3 764.2H1148.9C1151.6 764.2 1153.8 766.4 1153.8 769.1V812.3C1153.8 815 1151.6 817.2 1148.9 817.2Z" fill="white" stroke="#A7CBD1" stroke-width="2" stroke-miterlimit="10"/>
<path d="M68.1 735.2C66.4 735.2 65.1 733.8 65.1 732.2V687.9C65.1 686.2 66.5 684.9 68.1 684.9H377.9C379.6 684.9 380.9 686.3 380.9 687.9V732.2C380.9 733.9 379.5 735.2 377.9 735.2H68.1Z" fill="#D0E0A9"/>
<path d="M377.8 686.2C378.7 686.2 379.5 686.9 379.5 687.9V732.2C379.5 733.1 378.8 733.9 377.8 733.9H68.0999C67.1999 733.9 66.4 733.2 66.4 732.2V687.9C66.4 687 67.0999 686.2 68.0999 686.2H377.8ZM377.8 683.5H68.0999C65.6999 683.5 63.7 685.5 63.7 687.9V732.2C63.7 734.6 65.6999 736.6 68.0999 736.6H377.9C380.3 736.6 382.3 734.6 382.3 732.2V687.9C382.2 685.4 380.2 683.5 377.8 683.5Z" fill="#1D1D1B"/>
<path d="M474.6 640.1V635.9H479V640.1H474.6Z" fill="#72726A"/>
<path d="M483.4 640.1V619.8H487.2V636.8H498.1V640.1H483.4Z" fill="#72726A"/>
<path d="M510.7 640.1V627.1V624.3C509.6 626.1 507.5 627.8 505.2 627.9V624C507.8 623.7 510 622.3 511.2 619.7H514.3V640H510.7V640.1Z" fill="#72726A"/>
<path d="M504 720.7V716.5H508.4V720.7H504Z" fill="#72726A"/>
<path d="M512.8 720.7V700.4H516.6V717.4H527.5V720.7H512.8Z" fill="#72726A"/>
<path d="M535.5 720.7V716.8C542.9 712.4 545.8 709.9 545.8 706.7C545.8 704.5 544.3 703.2 542.6 703.2C540.2 703.2 539.1 705.2 539.1 707.6L535.4 707C535.5 703.3 537.9 700 542.7 700C547.1 700 549.7 702.6 549.7 706.3C549.7 708.3 549 710 547.8 711.5C546.1 713.6 543.1 715.4 539.2 717.5H544.7H549.9V720.7H535.5Z" fill="#72726A"/>
<path d="M543.1 799.9V795.7H547.5V799.9H543.1Z" fill="#72726A"/>
<path d="M551.8 799.9V779.6H555.6V796.6H566.5V799.9H551.8Z" fill="#72726A"/>
<path d="M574 794.1L577.8 793.3C578 795.7 579.4 797.2 581.6 797.2C583.6 797.2 585.1 796.1 585.1 794.2C585.1 792.3 583.7 791.1 581.6 791.1H579.9V788.1H581.6C583.3 788.1 584.8 787 584.8 785.2C584.8 783.4 583.4 782.3 581.7 782.3C579.8 782.3 578.6 783.6 578.4 785.6L574.7 785C575 781.8 577.5 779.1 581.7 779.1C586 779.1 588.5 781.4 588.5 784.5C588.5 787.1 586.9 788.7 584.8 789.4C587.3 790 589 791.9 589 794.5C589 798 586.3 800.4 581.8 800.4C577.1 800.3 574.4 797.9 574 794.1Z" fill="#72726A"/>
<path d="M92.3 640.1V619.8H101.7C106.1 619.8 108.3 621.8 108.3 624.7C108.3 627.2 106.7 628.8 104.4 629.5C107 630 109 631.8 109 634.5C109 638.1 105.9 640.1 101.9 640.1H92.3ZM96 628H101.1C103.1 628 104.4 627.2 104.4 625.4C104.4 623.6 103.1 623 101.1 623H96V628ZM96 636.8H101.2C103.4 636.8 104.9 635.9 104.9 634C104.9 632.1 103.4 631.2 101.2 631.2H96V636.8Z" fill="#72726A"/>
<path d="M111.4 632.8C111.4 628.3 114.5 625.1 118.7 625.1C122.9 625.1 126 628.2 126 632.8C126 637.4 122.9 640.5 118.7 640.5C114.5 640.5 111.4 637.2 111.4 632.8ZM122.3 632.9C122.3 629.7 120.8 628.1 118.7 628.1C116.6 628.1 115.1 629.7 115.1 632.9C115.1 636.1 116.6 637.6 118.7 637.6C120.8 637.6 122.3 636.1 122.3 632.9Z" fill="#72726A"/>
<path d="M128.2 632.8C128.2 628.2 130.7 625.1 134.3 625.1C136.8 625.1 138.3 626.5 138.9 627.6V625V619.7H142.4V640H138.9V638C138.2 639.1 136.7 640.5 134.2 640.5C130.7 640.5 128.2 637.5 128.2 632.8ZM139.2 632.8C139.2 629.5 137.7 627.9 135.5 627.9C133.5 627.9 131.9 629.2 131.9 632.8C131.9 636.4 133.5 637.7 135.5 637.7C137.7 637.7 139.2 636.1 139.2 632.8Z" fill="#72726A"/>
<path d="M156.1 625.6H159.8L153.9 642.2C153.1 644.6 151.9 645.7 149.4 645.7H145.6V642.8H149C150 642.8 150.5 642.5 150.9 641.3L151.3 640L144.6 625.7H148.4L151 631.9C152.1 634.4 152.4 635.1 152.7 635.8L154 631.9L156.1 625.6Z" fill="#72726A"/>
<path d="M92.3 799.9V779.6H96V787.8H105.5V779.6H109.3V799.9H105.5V791H96V799.8H92.3V799.9Z" fill="#72726A"/>
<path d="M113.5 799.9V796C120.9 791.6 123.8 789.1 123.8 785.9C123.8 783.7 122.3 782.4 120.6 782.4C118.2 782.4 117.1 784.4 117.1 786.8L113.4 786.2C113.5 782.5 115.9 779.2 120.7 779.2C125.1 779.2 127.7 781.8 127.7 785.5C127.7 787.5 127 789.2 125.8 790.7C124.1 792.8 121.1 794.6 117.2 796.7H122.7H127.9V799.9H113.5Z" fill="#72726A"/>
<path d="M862.2 634.5L865.8 633.2C866.3 635.3 867.9 637.4 871.1 637.4C873.9 637.4 875.2 636.2 875.2 634.5C875.2 633.1 874.2 632.1 871.7 631.7L869.1 631.3C865.5 630.7 863.2 629 863.2 625.4C863.2 622.1 866 619.4 870.8 619.4C875.7 619.4 878.1 622.1 878.9 624.6L875.4 625.9C874.8 624.2 873.6 622.5 870.7 622.5C868.1 622.5 867 623.7 867 625.2C867 626.6 868 627.4 869.9 627.7L872.5 628.2C876.4 628.8 879.1 630.8 879.1 634.3C879.1 637.8 876.5 640.6 871 640.6C865.8 640.5 863.1 637.8 862.2 634.5Z" fill="#72726A"/>
<path d="M887.6 640.1C885.3 640.1 883.9 638.7 883.9 636.4V628.4H880.8V625.6H883.9V621.1H887.4V625.6H891.2V628.4H887.4V635.9C887.4 636.8 887.8 637.3 888.7 637.3H891.8V640.2H887.6V640.1Z" fill="#72726A"/>
<path d="M904 625.6H907.7L901.8 642.2C901 644.6 899.8 645.7 897.3 645.7H893.5V642.8H896.9C897.9 642.8 898.4 642.5 898.8 641.3L899.2 640L892.5 625.7H896.3L898.9 631.9C900 634.4 900.3 635.1 900.6 635.8L901.9 631.9L904 625.6Z" fill="#72726A"/>
<path d="M910.3 640.1V619.8H913.8V640.1H910.3Z" fill="#72726A"/>
<path d="M917.2 632.8C917.2 628.2 920.2 625.1 924.2 625.1C928.8 625.1 931.4 628.8 930.9 633.6H920.7C920.8 636.5 922.4 637.6 924.3 637.6C926.3 637.6 927.3 636.2 927.8 635L931 636.2C930.1 638.5 928.1 640.4 924.2 640.4C919.9 640.5 917.2 637.6 917.2 632.8ZM927.4 631.1C927.3 629 926 627.8 924.2 627.8C922.5 627.8 921.1 629 920.8 631.1H927.4Z" fill="#72726A"/>
<path d="M945.5 640.1V627.1V624.3C944.4 626.1 942.3 627.8 940 627.9V624C942.6 623.7 944.8 622.3 946 619.7H949.1V640H945.5V640.1Z" fill="#72726A"/>
<path d="M862.2 715.2L865.8 713.9C866.3 716 867.9 718.1 871.1 718.1C873.9 718.1 875.2 716.9 875.2 715.2C875.2 713.8 874.2 712.8 871.7 712.4L869.1 712C865.5 711.4 863.2 709.7 863.2 706.1C863.2 702.8 866 700.1 870.8 700.1C875.7 700.1 878.1 702.8 878.9 705.3L875.4 706.6C874.8 704.9 873.6 703.2 870.7 703.2C868.1 703.2 867 704.4 867 705.9C867 707.3 868 708.1 869.9 708.4L872.5 708.9C876.4 709.5 879.1 711.5 879.1 715C879.1 718.5 876.5 721.3 871 721.3C865.8 721.2 863.1 718.4 862.2 715.2Z" fill="#72726A"/>
<path d="M887.6 720.7C885.3 720.7 883.9 719.3 883.9 717V709H880.8V706.2H883.9V701.7H887.4V706.2H891.2V709H887.4V716.5C887.4 717.4 887.8 717.9 888.7 717.9H891.8V720.8H887.6V720.7Z" fill="#72726A"/>
<path d="M904 706.3H907.7L901.8 722.9C901 725.3 899.8 726.4 897.3 726.4H893.5V723.5H896.9C897.9 723.5 898.4 723.2 898.8 722L899.2 720.7L892.5 706.4H896.3L898.9 712.6C900 715.1 900.3 715.8 900.6 716.5L901.9 712.6L904 706.3Z" fill="#72726A"/>
<path d="M910.3 720.7V700.4H913.8V720.7H910.3Z" fill="#72726A"/>
<path d="M917.2 713.5C917.2 708.9 920.2 705.8 924.2 705.8C928.8 705.8 931.4 709.5 930.9 714.3H920.7C920.8 717.2 922.4 718.3 924.3 718.3C926.3 718.3 927.3 716.9 927.8 715.7L931 716.9C930.1 719.2 928.1 721.1 924.2 721.1C919.9 721.2 917.2 718.3 917.2 713.5ZM927.4 711.8C927.3 709.7 926 708.5 924.2 708.5C922.5 708.5 921.1 709.7 920.8 711.8H927.4Z" fill="#72726A"/>
<path d="M940.8 720.7V716.8C948.2 712.4 951.1 709.9 951.1 706.7C951.1 704.5 949.6 703.2 947.9 703.2C945.5 703.2 944.4 705.2 944.4 707.6L940.7 707C940.8 703.3 943.2 700 948 700C952.4 700 955 702.6 955 706.3C955 708.3 954.3 710 953.1 711.5C951.4 713.6 948.4 715.4 944.5 717.5H950H955.2V720.7H940.8Z" fill="#72726A"/>
<path d="M862.2 794.3L865.8 793C866.3 795.1 867.9 797.2 871.1 797.2C873.9 797.2 875.2 796 875.2 794.3C875.2 792.9 874.2 791.9 871.7 791.5L869.1 791.1C865.5 790.5 863.2 788.8 863.2 785.2C863.2 781.9 866 779.2 870.8 779.2C875.7 779.2 878.1 781.9 878.9 784.4L875.4 785.7C874.8 784 873.6 782.3 870.7 782.3C868.1 782.3 867 783.5 867 785C867 786.4 868 787.2 869.9 787.5L872.5 788C876.4 788.6 879.1 790.6 879.1 794.1C879.1 797.6 876.5 800.4 871 800.4C865.8 800.3 863.1 797.6 862.2 794.3Z" fill="#72726A"/>
<path d="M887.6 799.9C885.3 799.9 883.9 798.5 883.9 796.2V788.2H880.8V785.4H883.9V780.9H887.4V785.4H891.2V788.2H887.4V795.7C887.4 796.6 887.8 797.1 888.7 797.1H891.8V800H887.6V799.9Z" fill="#72726A"/>
<path d="M904 785.4H907.7L901.8 802C901 804.4 899.8 805.5 897.3 805.5H893.5V802.6H896.9C897.9 802.6 898.4 802.3 898.8 801.1L899.2 799.8L892.5 785.5H896.3L898.9 791.7C900 794.2 900.3 794.9 900.6 795.6L901.9 791.7L904 785.4Z" fill="#72726A"/>
<path d="M910.3 799.9V779.6H913.8V799.9H910.3Z" fill="#72726A"/>
<path d="M917.2 792.6C917.2 788 920.2 784.9 924.2 784.9C928.8 784.9 931.4 788.6 930.9 793.4H920.7C920.8 796.3 922.4 797.4 924.3 797.4C926.3 797.4 927.3 796 927.8 794.8L931 796C930.1 798.3 928.1 800.2 924.2 800.2C919.9 800.3 917.2 797.4 917.2 792.6ZM927.4 790.9C927.3 788.8 926 787.6 924.2 787.6C922.5 787.6 921.1 788.8 920.8 790.9H927.4Z" fill="#72726A"/>
<path d="M940.3 794.1L944.1 793.3C944.3 795.7 945.7 797.2 947.9 797.2C949.9 797.2 951.4 796.1 951.4 794.2C951.4 792.3 950 791.1 947.9 791.1H946.2V788.1H947.9C949.6 788.1 951.1 787 951.1 785.2C951.1 783.4 949.7 782.3 948 782.3C946.1 782.3 944.9 783.6 944.7 785.6L941 785C941.3 781.8 943.8 779.1 948 779.1C952.3 779.1 954.8 781.4 954.8 784.5C954.8 787.1 953.2 788.7 951.1 789.4C953.6 790 955.3 791.9 955.3 794.5C955.3 798 952.6 800.4 948.1 800.4C943.4 800.3 940.7 797.9 940.3 794.1Z" fill="#72726A"/>
<path d="M92.3 720.7V700.4H96V708.6H105.5V700.4H109.3V720.7H105.5V711.9H96V720.7H92.3Z" fill="#1D1D1B"/>
<path d="M118.2 720.7V707.7V704.9C117.1 706.7 115 708.4 112.7 708.5V704.7C115.3 704.4 117.5 703 118.7 700.4H121.8V720.7H118.2Z" fill="#1D1D1B"/>
<path d="M379.2 802.8L358.8 831L344.6 732.9L424.8 791.2L390.3 796.1L433.7 867.9L422.6 874.6L379.2 802.8Z" fill="#68644F"/>
<path d="M378.8 812.2L355.6 844.4L337.7 721.5L438.2 794.5L398.8 800.1L440.8 869.6L420.8 881.7L378.8 812.2Z" fill="#1D1D1B"/>
<path d="M341.4 727.6L431.1 792.7L402.6 796.8L394.4 798L398.7 805.1L437.1 868.7L421.8 877.9L383.4 814.3L379.1 807.2L374.2 813.9L357.3 837.2L341.4 727.6ZM334 715.5L353.8 851.6L378.6 817.2L419.9 885.5L444.6 870.6L403.3 802.3L445.3 796.3L334 715.5Z" fill="white"/>
</g>
<defs>
<clipPath id="clip0_101_952">
<rect width="1573" height="1091.2" fill="white" transform="translate(0 149)"/>
</clipPath>
</defs>
</svg>
