<?xml version="1.0" encoding="utf-8"?>
<!-- Generator: Adobe Illustrator 27.3.1, SVG Export Plug-In . SVG Version: 6.00 Build 0)  -->
<svg version="1.1" id="Laag_1" xmlns="http://www.w3.org/2000/svg" xmlns:xlink="http://www.w3.org/1999/xlink" x="0px" y="0px"
	 viewBox="0 0 1391.1 1245" style="enable-background:new 0 0 1391.1 1245;" xml:space="preserve">
<style type="text/css">
	.st0{fill:#FCFCFA;}
	.st1{fill:#FFFFFF;}
	.st2{fill:#A7CBD1;}
	.st3{fill:#EFF3F4;}
	.st4{fill:#E6EEEF;stroke:#E6EEEF;stroke-miterlimit:10;}
	.st5{fill:#E6EEEF;}
	.st6{fill:#99C3E0;stroke:#A7CBD1;stroke-miterlimit:10;}
	.st7{font-family:'Montserrat-Regular';}
	.st8{font-size:67.0643px;}
	.st9{fill:#E6EEEF;stroke:#A7CBD1;stroke-width:3;stroke-miterlimit:10;}
	.st10{display:none;fill:#E6EEEF;stroke:#A7CBD1;stroke-width:3;stroke-miterlimit:10;}
	.st11{fill:none;stroke:#7F715B;stroke-width:3.4249;stroke-miterlimit:10;}
	.st12{fill:#FFFFFF;stroke:#B8D6DD;stroke-width:3;stroke-miterlimit:10;}
	.st13{fill:#799FA3;}
	.st14{opacity:0.5;}
	.st15{opacity:0.45;}
	.st16{fill:#7872A3;}
	.st17{fill:#D8A887;}
	.st18{fill:#85DDA8;}
	.st19{fill:#D8ABBE;}
	.st20{opacity:0.75;filter:url(#Balloon);}
	.st21{fill:#5E4772;}
	.st22{fill:#E0B8C8;stroke:#1D1D1B;stroke-width:3;stroke-miterlimit:10;}
	.st23{fill:#FFFFFF;stroke:#A87390;stroke-width:3.0694;stroke-miterlimit:10;}
	.st24{opacity:0.5;fill:#FFFFFF;}
	.st25{filter:url(#Pion);}
	.st26{fill:#68644F;}
	.st27{fill:#1D1D1B;}
</style>
<filter  height="200%" id="Pion" width="200%" x="-25%" y="-25%">
	<feOffset  dx="7" dy="-5" in="SourceGraphic" result="offOut"></feOffset>
	<feColorMatrix  in="offOut" result="matrixOut" type="matrix" values="0.6 0 0 0 0 0 0.6 0 0 0 0 0 0.3 0 0 0 0 0 0.9 0">
		</feColorMatrix>
	<feGaussianBlur  in="matrixOut" result="blurOut" stdDeviation="10"></feGaussianBlur>
	<feBlend  in="SourceGraphic" in2="blurOut" mode="normal"></feBlend>
</filter>
<filter  height="200%" id="Balloon" width="200%" x="-25%" y="-25%">
	<feOffset  dx="5" dy="-3" in="SourceGraphic" result="offOut"></feOffset>
	<feColorMatrix  in="offOut" result="matrixOut" type="matrix" values="0.6 0 0 0 0 0 0.6 0 0 0 0 0 0.8 0 0 0 0 0 2 0">
		</feColorMatrix>
	<feGaussianBlur  in="matrixOut" result="blurOut" stdDeviation="15"></feGaussianBlur>
	<feBlend  in="SourceGraphic" in2="blurOut" mode="normal"></feBlend>
</filter>
<g>
	<rect x="80.4" y="189.9" class="st0" width="1228.7" height="937.9"/>
</g>
<g>
	<path class="st1" d="M1189.3,513.1c6,0,10.9,4.9,10.9,10.9v130.8c0,6-4.9,10.9-10.9,10.9s-10.9-4.9-10.9-10.9V524
		C1178.4,518,1183.3,513.1,1189.3,513.1z M1025.9,567l141.7-43v130.8l-44.6-13.6c-3.6,14.1-16.4,24.4-31.6,24.4
		c-18,0-32.7-14.6-32.7-32.7c0-3.7,0.6-7.4,1.8-10.7l-34.5-10.5c-0.3,5.8-5.1,10.3-10.9,10.3c-6,0-10.9-4.9-10.9-10.9v-43.6
		c0-6,4.9-10.9,10.9-10.9C1020.8,556.7,1025.6,561.3,1025.9,567z M1107.3,636.5l-31.2-9.5c-0.7,1.8-1.1,3.9-1.1,6
		c0,9,7.3,16.3,16.3,16.3C1099.1,649.4,1105.7,643.8,1107.3,636.5L1107.3,636.5z"/>
	<g>
		<path class="st2" d="M1189.3,513.1c6.3-0.1,11.4,5.6,10.9,11.8c0,0,0,2.6,0,2.6c0,13,0.4,48.4,0.6,61.9c0,16.6,0.9,51,0.4,67.2
			c-2.3,13.7-21.6,13.7-23.9,0c-0.4-16.1,0.4-50.8,0.4-67.2c0.2-13.6,0.5-48.7,0.6-61.9c0,0,0-2.6,0-2.6
			C1177.9,518.8,1183,513,1189.3,513.1L1189.3,513.1z M1189.3,513.1c-6.2-0.1-11.4,5.7-10.9,11.8c0,0,0,2.6,0,2.6
			c0,13,0.4,48.4,0.6,61.9c0.2,13.6,0.5,48.7,0.6,61.9c0,1.7-0.1,3.5,0.1,5c0.6,4.6,4.9,8.3,9.6,8.2c4.6,0.1,8.9-3.6,9.6-8.2
			c0.2-1.4,0.1-3.3,0.1-5c0-13,0.4-48.4,0.6-61.9c0.2-13.6,0.5-48.7,0.6-61.9c0,0,0-2.6,0-2.6C1200.7,518.8,1195.6,513,1189.3,513.1
			L1189.3,513.1z"/>
		<path class="st2" d="M1025.9,567c35.9-11.2,106.7-33.3,142.6-44.3c0.3,37.1,0.1,94.6,0.3,132.1c0,0,0,1.7,0,1.7s-1.6-0.5-1.6-0.5
			s-44.6-13.6-44.6-13.6s1.5-0.8,1.5-0.8c-4.6,18.3-24.5,29.5-42.6,23.8c-18-5.1-28.5-25.9-22-43.4c0,0,0.6,1.3,0.6,1.3l-34.4-10.7
			c0,0,1-0.7,1-0.7c-1.6,15.5-23.8,14.1-23.2-1.6c0,0,0-6.9,0-6.9c0.1-10,0.2-24.7,0.3-34.7c-0.3-4.7,2.5-9.5,7-11.3
			C1017.6,554.5,1025.7,559.7,1025.9,567L1025.9,567z M1025.9,567c-0.4-7.3-8.3-12.2-15-9.3c-4.3,1.8-6.9,6.3-6.5,10.9
			c0.1,9.9,0.2,24.7,0.3,34.7c0,0,0,6.9,0,6.9c-0.5,13.8,19,15.2,20.4,1.5c0,0,0.1-1,0.1-1s1,0.3,1,0.3l34.5,10.3c0,0,1,0.3,1,0.3
			l-0.3,1c-5.9,16.5,3.9,35.8,20.8,40.6c12.2,3.8,26.4-0.7,34.1-11c2.8-3.7,4.8-8,5.9-12.5c0,0,1.2,0.4,1.2,0.4l44.7,13.5
			c0,0-1.6,1.2-1.6,1.2c-0.1-37.1,0.2-94.1,0.3-130.8c0,0,1.3,0.9,1.3,0.9C1132.4,535.6,1061.3,556.6,1025.9,567L1025.9,567z"/>
		<path class="st2" d="M1107.3,636.5c-10.3-2.3-21.4-5.4-31.5-8.3c0,0,1.4-0.7,1.4-0.7c-3.2,8,1.5,17.7,9.7,20.2
			C1095.4,650.5,1104.9,645.1,1107.3,636.5L1107.3,636.5z M1107.3,636.5c-1.3,9.7-11.7,16-21,13.2c-9.7-2.6-15.1-13.9-11.3-23.1
			c0,0,0.4-1,0.4-1s1,0.3,1,0.3C1086.5,629.1,1097.4,632.7,1107.3,636.5L1107.3,636.5z"/>
	</g>
</g>
<g>
	<rect x="80.4" y="94.9" class="st3" width="1228.7" height="95"/>
</g>
<rect x="134.8" y="261.4" class="st1" width="329.3" height="795"/>
<rect x="548.5" y="261.4" class="st1" width="674.5" height="118.1"/>
<g>
	<g>
		<g>
			<path class="st2" d="M498.8,1056.3c-90.8,0.4-273.2,1.3-364,1.3c0,0-1.3,0-1.3,0s0-1.3,0-1.3s-0.2-207.9-0.2-207.9
				c0.1-151.1,0.2-369.5,1-519.8c0,0,0.5-104,0.5-104s0.5,104,0.5,104c0.4,67.8,0.6,241.5,0.8,311.9c0.2,103.6,0.1,312.3,0,415.9
				c0,0-1.3-1.3-1.3-1.3C225.4,1055,408.1,1055.9,498.8,1056.3L498.8,1056.3z"/>
		</g>
		<g>
			<path class="st2" d="M464.1,218c2,281.2,2,596.7,0,877.9C462.1,814.6,462.1,499.2,464.1,218L464.1,218z"/>
		</g>
		<g>
			<path class="st2" d="M112.2,261.4c126.1-2,255.2-2,381.3,0C367.4,263.4,238.3,263.4,112.2,261.4L112.2,261.4z"/>
		</g>
	</g>
	<g>
		<g>
			<path class="st2" d="M237.9,363.3c18.9-0.3,56.7-0.9,75.6-1c25.2-0.5,50.5-0.6,75.6,1.1c0,0,0,0.3,0,0.3
				c-3.2,0.2-6.3,0.4-9.5,0.5l-9.5,0.4c-18.9,0.7-37.8,0.5-56.7,0.2c-18.8-0.2-56.8-0.7-75.6-1C237.9,363.6,237.9,363.3,237.9,363.3
				L237.9,363.3z"/>
		</g>
		<g>
			<path class="st2" d="M194,424.2c58.9-0.4,124.3-2.5,183-0.5c4.1,0.2,8.1,0.3,12.2,0.5c0,0,0,0.3,0,0.3c-4.1,0.2-8.1,0.4-12.2,0.5
				c-28.4,1-57,1-85.4,0.5C267.5,425.1,217.5,425.4,194,424.2L194,424.2z"/>
		</g>
		<g>
			<path class="st2" d="M194,485.1c58.9-0.4,124.3-2.5,183-0.5c4.1,0.2,8.1,0.3,12.2,0.5c0,0,0,0.3,0,0.3c-4.1,0.2-8.1,0.4-12.2,0.5
				c-28.4,1-57,1-85.4,0.5C267.5,486,217.5,486.3,194,485.1L194,485.1z"/>
		</g>
		<g>
			<path class="st2" d="M194,540.6c58.9-0.4,124.3-2.5,183-0.5c4.1,0.2,8.1,0.3,12.2,0.5c0,0,0,0.3,0,0.3c-4.1,0.2-8.1,0.4-12.2,0.5
				c-28.4,1-57,1-85.4,0.5C267.5,541.4,217.5,541.8,194,540.6L194,540.6z"/>
		</g>
		<g>
			<path class="st2" d="M194,596c58.9-0.4,124.3-2.5,183-0.5c4.1,0.2,8.1,0.3,12.2,0.5v0.3c-4.1,0.2-8.1,0.4-12.2,0.5
				c-28.4,1-57,1-85.4,0.5C267.5,596.9,217.5,597.2,194,596L194,596z"/>
		</g>
	</g>
</g>
<g>
	<g>
		<path class="st2" d="M0,94.9c445.6-2.3,945.5-2.3,1391.1,0C945.5,97.2,445.6,97.2,0,94.9L0,94.9z"/>
	</g>
	<g>
		<path class="st2" d="M19.1,189.9c429.5-2.3,911.4-2.3,1340.9,0C930.4,192.2,448.6,192.2,19.1,189.9L19.1,189.9z"/>
	</g>
	<g>
		<path class="st2" d="M50.2,1127.9c417.8-2.3,886.4-2.3,1304.2,0C936.6,1130.2,467.9,1130.1,50.2,1127.9L50.2,1127.9z"/>
	</g>
	<g>
		<path class="st2" d="M271,1223.7c343.6-2.3,729-2.3,1072.5,0C1000,1226,614.6,1226,271,1223.7L271,1223.7z"/>
	</g>
	<g>
		<path class="st2" d="M1309.1,1245c-2.3-398.8-2.3-846.2,0-1245C1311.4,398.8,1311.4,846.2,1309.1,1245L1309.1,1245z"/>
	</g>
	<g>
		<path class="st2" d="M80.4,1215.3c-2.3-378.9-2.3-803.9,0-1182.8C82.7,411.4,82.7,836.5,80.4,1215.3L80.4,1215.3z"/>
	</g>
</g>
<path class="st4" d="M105.7,445.8v-35.3l-70.6-82.3v-23.5h188.2v23.5l-70.6,82.3v70.6"/>
<g>
	<path class="st2" d="M105.7,471.9c0-14.5-0.9-48.2-0.5-60.9c-22.5-25.4-49.3-55.8-71.6-81.5c0,0-0.5-0.5-0.5-0.5s0-0.7,0-0.7
		s-0.2-23.5-0.2-23.5s0-2.1,0-2.1s2.2,0,2.2,0s47-0.2,47-0.2c43.7,0,97.6-0.2,141.1,0.1c0,0,2.3,0,2.3,0s0,2.3,0,2.3l-0.1,23.5
		c0,0,0,0.8,0,0.8s-0.5,0.6-0.5,0.6s-17.8,20.5-17.8,20.5c-17.3,19.8-36.2,41.6-53.5,61.2c0,0,0.3-0.8,0.3-0.8
		c-0.4,28.4-0.7,72.6-1.2,100.7c-0.2-12.6-0.5-37.8-0.7-50.4c0,0-0.6-50.4-0.6-50.4s0-0.4,0-0.4c11.7-14,23.4-28,35.1-41.9
		c8.7-10.3,26.3-31.1,35-41.4c0,0-0.5,1.4-0.5,1.4s-0.1-23.5-0.1-23.5l2.3,2.3c-43.4,0.2-97.5,0.2-141.1,0.1c0,0-47-0.2-47-0.2
		s2.1-2.1,2.1-2.1l-0.2,23.5l-0.5-1.3c0,0,17.5,20.7,17.5,20.7c15.5,18.5,36.7,43.8,52.1,62.4C106.5,425.4,105.7,456.4,105.7,471.9
		L105.7,471.9z"/>
</g>
<g>
	<line class="st5" x1="170.4" y1="492.8" x2="88.4" y2="432.9"/>
	<path class="st2" d="M170.4,492.8c-14.2-8.9-28.3-18.9-41.9-28.7c-13.5-9.9-27.4-20.4-40.1-31.2c14.2,8.8,28.3,18.9,41.9,28.7
		C143.8,471.6,157.7,482,170.4,492.8L170.4,492.8z"/>
</g>
<g>
	<g>
		<path class="st2" d="M1251,379.5c-239,2-504.7,2-743.8,0C746.3,377.5,1012,377.5,1251,379.5L1251,379.5z"/>
	</g>
	<g>
		<path class="st2" d="M1223,239.4c2,59.3,2.1,119.4,0,178.7C1220.9,358.8,1220.9,298.7,1223,239.4L1223,239.4z"/>
	</g>
	<g>
		<path class="st2" d="M548.5,421.1c0,0-0.5-159.7-0.5-159.7s0-0.5,0-0.5s0.5,0,0.5,0c51-0.4,131.8-0.6,183.5-0.8
			c175-0.3,376.2-0.3,550.4,1.3c-174,1.5-375.6,1.6-550.4,1.3c-51.7-0.2-132.3-0.4-183.5-0.8C549.3,259.1,548.5,421.6,548.5,421.1
			L548.5,421.1z"/>
	</g>
	<g>
		<path class="st2" d="M598.4,286.3c1.2,11.2,1.4,22.9,1.5,34.1c-0.1,11.3-0.3,23-1.5,34.1c-1.2-11.2-1.4-22.9-1.5-34.1
			C597,309.2,597.2,297.5,598.4,286.3L598.4,286.3z"/>
	</g>
</g>
<text transform="matrix(1 0 0 1 625.3562 338.8538)" class="st6 st7 st8">...</text>
<g>
	<g>
		<polygon class="st9" points="1238.1,422.2 1258.2,402.1 1272.3,417.1 1252.3,437.2 		"/>
		<path class="st9" d="M1240.1,404.2c-41.4,41.4-108.6,41.4-150,0c-41.4-41.4-41.4-108.6,0-150c41.4-41.4,108.6-41.4,150,0
			C1281.6,295.5,1281.6,362.7,1240.1,404.2z M1251.5,242.7c-47.7-47.7-125.1-47.7-172.8,0s-47.7,125.1,0,172.8
			c47.7,47.7,125.1,47.7,172.8,0C1299.2,367.8,1299.2,290.4,1251.5,242.7z"/>
		<path class="st10" d="M1237.1,401.1c-39.8,39.8-104.2,39.8-144,0s-39.8-104.2,0-144c39.8-39.8,104.2-39.8,144,0
			C1276.9,296.9,1276.9,361.4,1237.1,401.1z M1242.9,251.4c-42.9-42.9-112.6-42.9-155.5,0c-42.9,42.9-42.9,112.6,0,155.5
			c43,42.9,112.6,42.9,155.5,0C1285.8,364,1285.8,294.3,1242.9,251.4z"/>
		<polygon class="st9" points="1252.3,437.2 1272.3,417.1 1354.3,500 1334.3,520.1 		"/>
	</g>
</g>
<path class="st11" d="M645.2,674.6c0,0-43.3,27.9-44.4,30.9"/>
<g>
	<path class="st9" d="M591.7,697.9l-60.5-14.7c-6.9-1.7-14.1-0.6-20.2,3.1l-88.5,53.9c-12.6,7.7-16.6,24-8.9,36.6l40.9,67.2
		c7.7,12.6,24,16.6,36.6,8.9l88.5-53.9c6-3.7,10.4-9.6,12-16.5l14.7-60.5C609,711.4,602.4,700.6,591.7,697.9z M567.7,740.1
		c-1.7,7.2-8.9,11.5-16.1,9.8c-7.2-1.7-11.5-8.9-9.8-16.1c1.7-7.2,8.9-11.5,16.1-9.8C565.1,725.8,569.4,733,567.7,740.1z"/>
	<g>
		<g>
			<path class="st2" d="M501.8,737.8c-8,6.3-17,12-25.6,17.4c-8.8,5.2-17.9,10.6-27.2,14.8c8-6.3,16.9-12,25.6-17.4
				C483.4,747.4,492.5,742.1,501.8,737.8L501.8,737.8z"/>
		</g>
		<g>
			<path class="st2" d="M514.3,758.3c-8,6.3-17,12-25.6,17.4c-8.8,5.2-17.9,10.6-27.2,14.8c8-6.3,16.9-12,25.6-17.4
				C495.9,767.8,505,762.5,514.3,758.3L514.3,758.3z"/>
		</g>
		<g>
			<path class="st2" d="M526.6,778.5c-8,6.3-17,12-25.6,17.4c-8.8,5.2-17.9,10.6-27.2,14.8c8-6.3,16.9-12,25.6-17.4
				C508.2,788.1,517.3,782.8,526.6,778.5L526.6,778.5z"/>
		</g>
	</g>
</g>
<circle class="st12" cx="564.4" cy="1176.2" r="13.6"/>
<circle class="st12" cx="683.9" cy="1176.2" r="13.6"/>
<circle class="st13" cx="564.4" cy="1176.2" r="7.5"/>
<circle class="st12" cx="806.6" cy="1176.2" r="13.6"/>
<circle class="st12" cx="930.1" cy="1176.2" r="13.6"/>
<g>
	<g>
		<g>
			<path class="st1" d="M705.7,782.2L557.5,930.4c-6.3,6.3-1.8,17.1,7.1,17l147.2-0.9c5.5,0,9.9-4.5,9.9-9.9l1-147.3
				C722.8,780.4,712,775.9,705.7,782.2z M682.6,906.7c0,0.4-0.3,0.7-0.7,0.7h-46.2c-0.7,0-1-0.8-0.5-1.3l46.2-46.1
				c0.5-0.5,1.3-0.1,1.3,0.5V906.7z"/>
			<g>
				<path class="st2" d="M705.7,782.2C661.9,826.2,605.7,883,562.4,927c0,0-3.1,3.2-3.1,3.2c-0.5,0.5-1.1,1.1-1.5,1.6
					c-1.3,1.5-2.1,3.4-2.1,5.4c-0.2,4.3,3.1,8.5,7.4,9.1c1.7,0.3,5.7,0,7.6,0.1c5.4-0.1,38.1-0.3,44.3-0.4c13.1,0,76.9-0.3,88.6-0.3
					c2.9,0,5.9,0,8.8,0c1.3-0.1,2.7-0.4,3.9-1c3-1.6,4.9-4.9,4.8-8.4c0,0,0-2.2,0-2.2c0.2-18.1,1-78.4,1.3-97.4
					c0-6.1,0.4-38.8,0.4-44.3c0.1-2.9,0.2-6-1.6-8.5C717.8,778.7,710,777.8,705.7,782.2L705.7,782.2z M705.7,782.2
					c4.2-4.5,12.1-3.6,15.4,1.5c1.8,2.5,1.7,5.6,1.6,8.6c-0.1,5.3-0.1,38.1-0.2,44.3c0,19.4,0,79,0,97.4c0,0,0,2.2,0,2.2
					c0.2,4-2.1,8-5.6,9.9c-4.1,2.2-9.1,1.1-13.5,1.5c0,0-17.7,0.2-17.7,0.2c-30.6,0.3-89.5,0.8-119.6,0.8
					c-6.9,0.6-12.9-4.4-12.7-11.5c0-3.2,2-6.4,4.3-8.4c0,0,3.2-3.1,3.2-3.1C604.8,882.3,661.9,826,705.7,782.2L705.7,782.2z"/>
				<path class="st2" d="M682.6,906.7c0,0.4-0.4,0.8-0.8,0.7c0,0-1.3,0-1.3,0l-2.5,0c-12.3,0-30.2,0.5-42.6,0.7
					c-1.2-0.2-1.7-1.7-0.9-2.6c0.1-0.1,1-1,1.1-1.2c3.5-3.7,10.6-11,14.1-14.6c9.2-9.4,19.4-19.3,29-28.4c0,0,1.8-1.7,1.8-1.7
					c0.2-0.2,0.4-0.5,0.8-0.6c1-0.4,2.2,0.5,2.1,1.6c0,0,0,0.3,0,0.3C683,875,682.6,892.9,682.6,906.7L682.6,906.7z M682.6,906.7
					c0.1-13.8-0.5-32.4-0.7-46c-9.7,10.2-20.3,21-30.4,30.9c-4.1,4-11.6,11.3-15.7,15.1c0,0,0-0.1-0.1-0.1c0,0,0,0,0,0
					c0,0,0.2,0,0.2,0c12.2,0.3,30,0.7,42.1,0.8c0,0,2.5,0,2.5,0s1.3,0,1.3,0C682.2,907.5,682.6,907.1,682.6,906.7L682.6,906.7z"/>
			</g>
		</g>
		<g>
			<g>
				<path class="st2" d="M667.1,819.4c4.4,2,8,5.6,10,10C672.7,827.4,669.1,823.8,667.1,819.4L667.1,819.4z"/>
			</g>
			<g>
				<path class="st2" d="M691.3,795.2c4.4,2,8,5.6,10,10C696.9,803.2,693.3,799.6,691.3,795.2L691.3,795.2z"/>
			</g>
			<g>
				<path class="st2" d="M642.9,843.6c4.4,2,8,5.6,10,10C648.5,851.6,644.9,848,642.9,843.6L642.9,843.6z"/>
			</g>
			<g>
				<path class="st2" d="M618.7,867.8c4.4,2,8,5.6,10,10C624.3,875.8,620.7,872.2,618.7,867.8L618.7,867.8z"/>
			</g>
			<g>
				<path class="st2" d="M594.5,892c4.4,2,8,5.6,10,10C600.1,900,596.5,896.4,594.5,892L594.5,892z"/>
			</g>
			<g>
				<path class="st2" d="M570.3,916.2c4.4,2,8,5.6,10,10C575.9,924.2,572.3,920.6,570.3,916.2L570.3,916.2z"/>
			</g>
		</g>
	</g>
</g>
<g class="st14">
	<g class="st15">
		<rect x="834.8" y="1152.5" class="st16" width="47.5" height="47.5"/>
	</g>
	<g class="st15">
		<rect x="712" y="1152.5" class="st17" width="47.5" height="47.5"/>
	</g>
	<g class="st15">
		<rect x="956.7" y="1152.5" class="st18" width="47.5" height="47.5"/>
	</g>
	<rect x="591.8" y="1152.5" class="st19" width="47.5" height="47.5"/>
</g>
<g>
	<path class="st1" d="M851.1,493.2c2.9-2.7,7.4-2.7,10.4,0c10.3,9.7,20,20.1,29,31.4c4.1-5.4,8.8-11.2,13.8-16c3-2.8,7.5-2.8,10.5,0
		c12.9,12.3,23.9,28.6,31.6,44.1c7.6,15.2,12.6,30.8,12.6,41.8c0,47.7-37.3,88-83.7,88c-46.9,0-83.7-40.3-83.7-88
		c0-14.4,6.7-31.9,17-49.2C818.9,527.7,833.7,509.3,851.1,493.2z M875.9,646.6c9.5,0,17.8-2.6,25.7-7.8c15.7-11,20-33,10.5-50.2
		c-1.7-3.4-6-3.6-8.4-0.7l-9.4,10.9c-2.5,2.8-6.9,2.8-9.2-0.2c-6.2-7.8-17.2-21.9-23.5-29.8c-2.4-3-6.8-3-9.2,0
		c-12.6,15.9-19,25.9-19,37.1C833.4,631.4,852.3,646.6,875.9,646.6z"/>
	<g>
		<path class="st2" d="M851.1,493.2c3.8-3.5,8.8-2.2,11.9,1.5c9.8,9.3,19.1,19.3,27.6,29.9c0,0-0.2,0-0.2,0
			c3.3-4.3,6.7-8.6,10.4-12.6c1.9-1.9,3.6-4.3,6.3-5.2c2.6-1,5.8-0.3,7.8,1.6c7.9,7.5,14.8,16,20.9,25
			c11.2,17.1,22.8,39.6,24.1,60.2c1.4,44.6-33.5,87.4-79,90c-52.2,3.9-94.3-44.4-89.3-95.2C796.7,553.4,825.8,516.7,851.1,493.2
			L851.1,493.2z M851.1,493.2c-25.2,23.8-53.9,60.1-58.7,95.2c-4.3,49.6,37.5,96.8,88.3,92.7c44.2-2.8,78.2-44.1,77.4-87.6
			c-1.6-28.2-23.5-65.5-43.6-84.9c-1.9-1.8-4.9-2.4-7.4-1.6c-2.6,0.9-4.2,3.2-6.1,5.1c-3.7,4-7.1,8.2-10.4,12.5l-0.1,0.1
			c0,0-0.1-0.1-0.1-0.1c-8.4-10.6-17.6-20.6-27.4-30C859.9,491,854.9,489.7,851.1,493.2L851.1,493.2z"/>
		<path class="st2" d="M875.9,646.6c11.4,0,23.1-4.3,31-12.6c9.7-10.5,12.2-26.6,6.9-39.8c0,0-0.8-2-0.8-2s-1-1.9-1-1.9
			c-1-2.5-2.9-4.3-5.6-3.3c-1.2,0.4-2.1,1.5-2.9,2.4c0,0-5.5,6.6-5.5,6.6c-1.2,1.3-3.1,4.1-4.7,4.9c-3,1.8-7.1,1.1-9.3-1.6
			c0,0-1.3-1.7-1.3-1.7c-5.3-6.7-16-20.3-21.3-27.1c-1.7-2.7-4.9-3.9-7.6-1.8c-1,0.8-3.1,3.8-4,4.8c-6.8,8.9-14.4,18.2-15.8,29.6
			C832.1,628.6,850.7,646.8,875.9,646.6L875.9,646.6z M875.9,646.6c-25.3,0.3-44.5-17.9-43-43.6c1.1-11.8,8.6-21.6,15.4-30.8
			c1-1.3,3-4.2,4.2-5.2c3.5-3,8.6-1.7,10.9,2.1c5.4,6.7,16,20.3,21.3,27.1c0,0,1.3,1.7,1.3,1.7c1.8,2.4,5.7,2.4,7.6,0
			c0,0,2.8-3.2,2.8-3.2c1.1-1.2,6.1-7.1,7.3-8.1c2.5-2.3,7-2,8.8,1.1c0.7,1.2,1.3,2.8,1.9,4c0,0,0.8,2.1,0.8,2.1
			c5.1,13.6,2.1,30.1-8.1,40.6C899,642.4,887.4,646.7,875.9,646.6L875.9,646.6z"/>
	</g>
</g>
<g>
	<g class="st20">
		<path class="st21" d="M626.5,675.6l7-14.1c4.2-8.4,1.9-18.9-5.6-24.9c-8.2-6.5-23.9-20-37.2-37.3c-15.4-19.9-23.2-39-23.2-56.5
			c0-41.9,34.1-76,76-76s76,34.1,76,76c0,17.6-7.8,36.6-23.2,56.5c-13.3,17.2-28.9,30.7-37.1,37.2c-7.5,6-9.9,16.5-5.6,25l7,14
			H626.5z"/>
	</g>
	<path class="st22" d="M549.9,546.2c0-50.4,40.9-91.3,91.3-91.3s91.3,40.9,91.3,91.3c0,48.8-48.9,92.7-68.3,108.2
		c-4.4,3.5-5.9,9.7-3.4,14.7l10.2,20.3c0.4,0.9,0.7,1.8,0.7,2.8c0,3.4-2.8,6.1-6.1,6.1h-48.7c-3.4,0-6.1-2.8-6.1-6.1
		c0-1,0.2-1.9,0.7-2.8l10.2-20.3c2.5-5,1-11.2-3.4-14.7C598.8,638.9,549.9,595,549.9,546.2z"/>
	<circle class="st23" cx="641.2" cy="680.6" r="10"/>
	<path class="st24" d="M601.2,535.7c0-19.6,15.9-35.5,35.5-35.5c3.9,0,7.1-3.2,7.1-7.1s-3.2-7.1-7.1-7.1
		c-27.4,0-49.7,22.2-49.7,49.7c0,3.9,3.2,7.1,7.1,7.1S601.2,539.6,601.2,535.7z"/>
</g>
<g>
	<g>
		<path class="st1" d="M893.2,880.4h-35.9c-33.8,0-61.3,27.4-61.3,61.3c0,6.8,5.5,12.3,12.3,12.3h133.9c6.8,0,12.3-5.5,12.3-12.3
			C954.5,907.8,927,880.4,893.2,880.4z"/>
		<path class="st2" d="M893.2,880.4c-8.8,0.1-29.1,0-37.6,0.2c-12.5,0.3-24.8,4.7-34.7,12.3c-6.6,5-12.1,11.4-16.2,18.6
			c-5.1,9-7.8,19.3-7.7,29.6c-0.3,7.4,6.2,12.6,13.4,11.8c39.4-0.2,88.9-0.2,128.4,0.3c0,0,3.1,0,3.1,0c0.5,0,1,0,1.5,0
			c4.4-0.4,8.5-3.5,9.9-7.8c1.2-3.9,0.5-8.2,0.1-12.2c-0.5-4.1-1.5-8.2-2.9-12.1C942.5,897.2,918.4,880.1,893.2,880.4L893.2,880.4z
			 M893.2,880.4c25.4-0.4,49.5,16.6,58.1,40.5c2.2,5.9,3.4,12.2,3.7,18.5c0.1,2.1,0.2,4.4-0.5,6.4c-1.5,4.8-5.9,8.4-10.9,8.9
			c-1,0.1-3.7,0.1-4.8,0.1c-39.5,0.4-88.9,0.5-128.4,0.3c-8.3,0.8-15.7-5.4-15.2-14c0.2-10.6,3.1-21.1,8.5-30.2
			c4.3-7.3,10-13.7,16.8-18.6c10.2-7.5,22.6-11.7,35.2-12C864,880.2,884.5,880.4,893.2,880.4L893.2,880.4z"/>
	</g>
	<g>
		<circle class="st1" cx="875.3" cy="818.1" r="45.3"/>
		<path class="st2" d="M920.5,818.1c-0.3,40.7-48.7,61-78,32.8c-18.2-17.7-18.2-47.9,0-65.5C871.8,757.1,920.2,777.4,920.5,818.1
			L920.5,818.1z M920.5,818.1c0.2-17.9-11.4-35-28.1-41.5c-29.2-11.7-61.3,10.1-61.2,41.5c-0.1,31.4,32,53.2,61.2,41.5
			C909.1,853.2,920.7,836,920.5,818.1L920.5,818.1z"/>
	</g>
</g>
<path class="st11" d="M565.6,732.5c-0.6,13.3,87.7-44.5,76.5-49.8c0,0-1.6-0.7-2.7,0.4"/>
<g>
	<g class="st25">
		<polygon class="st26" points="720.4,695.7 700,724 685.8,625.8 766,684.1 731.6,689 774.9,760.8 763.8,767.5 		"/>
	</g>
	<g>
		<polygon class="st27" points="720,705.6 696.6,738.1 678.5,613.8 780.1,687.6 740.5,693.2 782.4,762.6 761.9,775 		"/>
		<path class="st1" d="M681.8,619.2l91.9,66.8l-29.9,4.3l-7.4,1.1l3.9,6.4l38.7,64.1l-16.3,9.8l-38.7-64.1l-3.9-6.4l-4.4,6
			l-17.7,24.5L681.8,619.2 M675.2,608.4L695,744.4l24.8-34.4l41.3,68.3l24.7-14.9l-41.3-68.3l42-6L675.2,608.4L675.2,608.4z"/>
	</g>
</g>
<g>
	<g>
		<circle class="st1" cx="1107.6" cy="860.6" r="79.8"/>
		<path class="st2" d="M1187.5,860.6c0.5,31.7-19.9,62.1-49.1,74.1c-53,22.3-111.7-16.7-111.8-74.1c0.1-57.5,58.8-96.5,111.8-74.1
			C1167.6,798.6,1187.9,828.9,1187.5,860.6L1187.5,860.6z M1187.5,860.6c0.3-31.5-20-61.9-49.4-73.4c-51.7-21.2-109.3,17.5-109,73.4
			c-0.3,55.9,57.3,94.6,109,73.4C1167.4,922.5,1187.7,892.2,1187.5,860.6L1187.5,860.6z"/>
	</g>
	<g>
		<g>
			<path class="st2" d="M1166.6,914.4c-32.2,8-68,0.5-93.8-20.7c0,0-0.9-0.7-0.9-0.7c2.4-3.6,5-7.1,7.8-10.4
				c7.8-9.3,17.2-17.4,27.8-23.3c14.7,8.9,31.8,13.6,48.9,14.3c10.2,0.6,20.4-1,30.4-3.3c-6.6,1.9-13.3,3.4-20.1,4.1
				c-20.5,2-41.9-2.4-59.8-12.7c0,0,1.2,0,1.2,0c-6.8,3.9-12.9,8.6-18.5,14c-5.6,5.4-10.6,11.4-15,17.8c0,0-0.2-1.6-0.2-1.6
				C1099.7,912.8,1134.5,920.7,1166.6,914.4L1166.6,914.4z"/>
		</g>
		<g>
			<path class="st2" d="M1124.4,782.6c21,20.3,32.2,50.1,29.9,79.2c-0.3,4.1-1,8.3-1.9,12.3c0.6-6.2,0.9-12.3,0.5-18.5
				C1151.9,828.4,1141.5,803.5,1124.4,782.6L1124.4,782.6z"/>
		</g>
		<g>
			<path class="st2" d="M1096.7,815c-3.4-4.7-6.6-9.4-10-14c-3.4-4.7-7-9-10.3-13.8C1085.7,794.1,1093.1,803.9,1096.7,815
				L1096.7,815z"/>
		</g>
		<g>
			<path class="st2" d="M1107.6,860.6c-1.1-11.7-3.7-23.2-7.1-34.4c-1.2-3.7-2.5-7.4-3.8-11.2
				C1104.8,827.4,1109.8,845.9,1107.6,860.6L1107.6,860.6z"/>
		</g>
		<g>
			<path class="st2" d="M1031.7,885c7.1-28.3,27.3-52.9,53.6-65.4c3.8-1.8,7.6-3.3,11.6-4.5c-5.6,2.6-11.1,5.4-16.2,8.8
				C1057.6,838.4,1041.2,859.8,1031.7,885L1031.7,885z"/>
		</g>
		<g>
			<path class="st2" d="M1073.6,892.8c-2.3,5.3-4.8,10.5-7.1,15.8c-2.1,4.7-4.6,11.3-6.8,15.9
				C1061.1,912.9,1065.8,901.5,1073.6,892.8L1073.6,892.8z"/>
		</g>
	</g>
</g>
<g>
	<g>
		<path class="st2" d="M1152.3,1154.3c-7.1,8.8-15.3,17.3-23.3,25.4c-8.1,8-16.6,16.2-25.4,23.3c7.1-8.8,15.3-17.3,23.3-25.4
			C1134.9,1169.6,1143.4,1161.4,1152.3,1154.3L1152.3,1154.3z"/>
	</g>
	<g>
		<path class="st2" d="M1104.5,1154.3c8.8,7.1,17.3,15.3,25.4,23.3c8,8.1,16.2,16.6,23.3,25.4c-8.8-7.1-17.3-15.3-25.4-23.3
			C1119.9,1171.6,1111.7,1163.1,1104.5,1154.3L1104.5,1154.3z"/>
	</g>
</g>
<g>
	<path class="st2" d="M1182.5,169.6c-16.7,0.4-41.5,1.1-58,1.3c-0.1-10.9-0.2-31.6-0.2-42.6c0,0,0-1.5,0-1.5c10,0,19.9,0,29.9,0.1
		c7.6,0.1,21.9,0.2,29.5,0.3C1183.4,139.6,1182.8,157.2,1182.5,169.6L1182.5,169.6z M1182.5,169.6c-0.4-11.9-0.8-29.6-1.1-41.3
		c0,0,1.1,1.1,1.1,1.1c-7.1,0.1-21.3,0.3-28.4,0.3c-9.5,0.1-18.9,0.1-28.4,0.1c0,0,1.5-1.5,1.5-1.5c0,10.3-0.1,31-0.2,41.3
		c0,0-1.3-1.3-1.3-1.3C1141.5,168.6,1166.6,169.2,1182.5,169.6L1182.5,169.6z"/>
</g>
<g>
	<path class="st2" d="M1072.7,146.9c-8,1.2-16.4,1.4-24.5,1.5c-8.2,0-16.4-0.3-24.5-1.5c8.1-1.2,16.3-1.5,24.5-1.5
		C1056.3,145.5,1064.7,145.7,1072.7,146.9L1072.7,146.9z"/>
</g>
<g>
	<g>
		<path class="st2" d="M1273.4,128.3c-5.9,7.6-12.8,14.8-19.5,21.6c-6.8,6.7-14,13.6-21.6,19.5c5.9-7.6,12.8-14.8,19.5-21.6
			C1258.6,141.1,1265.8,134.2,1273.4,128.3L1273.4,128.3z"/>
	</g>
	<g>
		<path class="st2" d="M1233.1,128.3c7.6,5.9,14.8,12.8,21.6,19.5c6.7,6.8,13.6,14,19.5,21.6c-7.6-5.9-14.8-12.8-21.6-19.5
			C1245.9,143.1,1239,135.9,1233.1,128.3L1233.1,128.3z"/>
	</g>
</g>
<g>
	<path class="st2" d="M1266.1,1151.4c-10.5,15.7-22.1,30.7-34.1,45.3c-8.9-8.6-17.8-17.3-26.2-26.4c9.3,7.5,18.2,15.4,27,23.4
		c0,0-2,0.2-2,0.2C1242,1179.2,1253.5,1164.8,1266.1,1151.4L1266.1,1151.4z"/>
</g>
</svg>
